<svg xmlns="http://www.w3.org/2000/svg" xmlns:xlink="http://www.w3.org/1999/xlink" width="1600" height="220" viewBox="0 0 1600 220">
  <defs>
    <clipPath id="clip-path">
      <path id="Recurso_1" data-name="Recurso 1" d="M0,0H1600V220H0Z" transform="translate(0 69)" fill="#0b481e"/>
    </clipPath>
  </defs>
  <g id="Grupo_80431" data-name="Grupo 80431" transform="translate(0 -69)">
    <path id="Recurso_1-2" data-name="Recurso 1" d="M0,0H1600V220H0Z" transform="translate(0 69)" fill="#0b481e"/>
    <g id="Enmascarar_grupo_52" data-name="Enmascarar grupo 52" clip-path="url(#clip-path)">
      <g id="Grupo_80378" data-name="Grupo 80378" transform="translate(1600 688.797) rotate(172)">
        <path id="Trazado_113933" data-name="Trazado 113933" d="M15.112,287.169c17.715-34.451,50.7-57.088,87.588-67.784,43.738-12.681,85.825-5.919,129.709.813,40.461,6.207,85.463,7.935,119.6-18.36C405,161.024,410.063,81.949,458.584,36.2A134.3,134.3,0,0,1,548.268.007c36.475-.4,82.632,15.474,101.287,49.129,18.115,32.679-.244,65.218,6.189,98.672,12.579,65.429,102.933,61.541,146.589,94.017,20.86,15.517,34.9,38.67,44.515,62.826,10.673,26.809,16.485,56.674,9.26,84.61-11.968,46.276-56.921,63.6-100.7,65.259-32.532,1.236-64.873-7.137-94.75-20.072-26.422-11.439-51.276-26.448-78.3-36.385-66.737-24.537-132.48,6.775-190.061,40.442-73.916,43.219-150.258,84.883-238.634,70.014C86.133,497.157,16.048,455.615,2.8,383.4c-5.607-30.549-3.008-62.948,9.88-91.206Q13.839,289.642,15.112,287.169Z" transform="translate(597.339 534.145)" fill="#fff" opacity="0.132" style="mix-blend-mode: overlay;isolation: isolate"/>
        <path id="Trazado_113934" data-name="Trazado 113934" d="M15.112,287.169c17.715-34.451,50.7-57.088,87.588-67.784,43.738-12.681,85.825-5.919,129.709.813,40.461,6.207,85.463,7.935,119.6-18.36C405,161.024,410.063,81.949,458.584,36.2A134.3,134.3,0,0,1,548.268.007c36.475-.4,82.632,15.474,101.287,49.127,18.114,32.68-.244,65.219,6.189,98.676,6.347,33.006,36.346,50.719,65.8,61.073,23.3,8.193,47.923,13.476,69.253,25.93,36.453,21.285,58.916,61.769,65.874,103.4,4.179,25,2.986,52.073-10.213,73.713-16.245,26.633-48.234,40.456-79.362,42.524-35.128,2.333-74.219-6.057-106.434-20.005-26.423-11.439-51.276-26.448-78.3-36.385-66.738-24.537-132.48,6.775-190.062,40.442-73.916,43.219-150.258,84.882-238.634,70.014C86.133,497.157,16.048,455.615,2.8,383.4c-5.607-30.549-3.008-62.947,9.88-91.206Q13.839,289.642,15.112,287.169Z" transform="translate(125.154 0)" fill="#fff" opacity="0.11" style="mix-blend-mode: overlay;isolation: isolate"/>
        <path id="Trazado_113935" data-name="Trazado 113935" d="M15.111,287.169c17.715-34.453,50.7-57.088,87.588-67.785,43.738-12.681,85.825-5.917,129.709.815,40.462,6.207,85.463,7.935,119.6-18.361C405,161.022,410.063,81.949,458.583,36.195A134.313,134.313,0,0,1,548.268.007c36.474-.4,82.632,15.474,101.287,49.128,18.113,32.68-.244,65.219,6.188,98.674,12.581,65.428,102.934,61.539,146.59,94.017,20.86,15.517,34.9,38.67,44.514,62.826,10.673,26.808,16.486,56.673,9.261,84.61-11.968,46.276-56.921,63.6-100.7,65.259-32.533,1.236-64.873-7.137-94.75-20.072-26.422-11.44-51.276-26.449-78.3-36.385-66.738-24.539-132.48,6.775-190.061,40.442-73.918,43.218-150.259,84.883-238.634,70.013C86.133,497.157,16.049,455.615,2.794,383.4c-5.606-30.548-3.007-62.946,9.88-91.2Q13.84,289.642,15.111,287.169Z" transform="translate(77.891 12.415)" fill="#0b481e" opacity="0.22" style="mix-blend-mode: overlay;isolation: isolate"/>
        <path id="Trazado_113936" data-name="Trazado 113936" d="M15.112,287.169c17.715-34.453,50.7-57.089,87.588-67.785,43.738-12.681,85.825-5.917,129.709.813,40.462,6.207,85.463,7.935,119.6-18.36C405,161.023,410.064,81.949,458.584,36.195A134.306,134.306,0,0,1,548.268.007c36.475-.4,82.633,15.473,101.287,49.128,18.115,32.679-.243,65.219,6.189,98.672,12.581,65.429,102.934,61.541,146.591,94.017,20.859,15.518,34.9,38.672,44.514,62.826,10.673,26.809,16.486,56.674,9.26,84.61-11.967,46.276-56.921,63.6-100.7,65.261-32.532,1.236-64.873-7.137-94.749-20.072-26.423-11.44-51.276-26.449-78.3-36.386-66.738-24.537-132.48,6.775-190.061,40.442-73.917,43.219-150.259,84.882-238.635,70.014C86.133,497.156,16.049,455.615,2.8,383.4c-5.607-30.549-3.007-62.946,9.88-91.206Q13.841,289.641,15.112,287.169Z" transform="translate(564.713 766.841)" fill="#fff" opacity="0.17" style="mix-blend-mode: overlay;isolation: isolate"/>
        <path id="Trazado_113937" data-name="Trazado 113937" d="M632.125,127.541c-3.382,29.741-20.932,54.914-44.53,72.432-27.977,20.768-60.041,26.955-93.386,33.637-30.745,6.161-63.537,16.779-80.927,44.921-26.994,43.68-9.185,102.547-31.628,148.641a101.5,101.5,0,0,1-54.6,50c-26.09,9.918-63.548,10.548-86.073-9.015-21.874-19-17.512-47.516-31.2-70.159-26.779-44.284-90.623-17.612-130.787-29.721-19.192-5.785-35.553-18.927-49.011-33.962C15.04,317.622,2.765,297.427.379,275.194c-3.952-36.827,23.638-61.292,54.633-74.055,23.031-9.484,48.532-11.927,73.5-10.4,22.081,1.35,44,5.713,66.108,5.811,54.59.241,93.319-39.89,125.547-79.58C361.536,66.018,405.07,15.559,472.58,3.055,524.167-6.5,585.771,5.23,614.875,54.275c12.311,20.747,19.231,45.005,17.637,68.967Q632.368,125.406,632.125,127.541Z" transform="translate(0 507.532)" fill="#0b481e" opacity="0.15" style="mix-blend-mode: color-burn;isolation: isolate"/>
        <circle id="Elipse_4715" data-name="Elipse 4715" cx="24.819" cy="24.819" r="24.819" transform="translate(583.612 746.202)" fill="#524480" opacity="0.23" style="mix-blend-mode: color-dodge;isolation: isolate"/>
        <ellipse id="Elipse_4716" data-name="Elipse 4716" cx="12.41" cy="12.41" rx="12.41" ry="12.41" transform="translate(568.854 828.418) rotate(99.217)" fill="#fff" opacity="0.17" style="mix-blend-mode: overlay;isolation: isolate"/>
        <ellipse id="Elipse_4717" data-name="Elipse 4717" cx="12.41" cy="12.41" rx="12.41" ry="12.41" transform="translate(579.813 484.305) rotate(100.476)" fill="#fff" opacity="0.17" style="mix-blend-mode: overlay;isolation: isolate"/>
        <circle id="Elipse_4718" data-name="Elipse 4718" cx="24.819" cy="24.819" r="24.819" transform="translate(582.531 416.117)" fill="#fff" opacity="0.17" style="mix-blend-mode: overlay;isolation: isolate"/>
        <path id="Trazado_113938" data-name="Trazado 113938" d="M62.631,0A62.631,62.631,0,1,1,0,62.631,62.631,62.631,0,0,1,62.631,0Z" transform="translate(1197.28 574.039) rotate(97.033)" fill="#0b481e" opacity="0.15" style="mix-blend-mode: color-dodge;isolation: isolate"/>
        <ellipse id="Elipse_4719" data-name="Elipse 4719" cx="62.631" cy="62.631" rx="62.631" ry="62.631" transform="translate(292.839 772.152) rotate(97.065)" fill="#fff" opacity="0.17" style="mix-blend-mode: overlay;isolation: isolate"/>
        <rect id="Rectángulo_33769" data-name="Rectángulo 33769" width="942.874" height="628.582" transform="translate(222.43 318.341)" fill="none"/>
        <g id="Grupo_80379" data-name="Grupo 80379" transform="translate(2291.408 1060.498) rotate(-172)">
          <g id="Grupo_80380" data-name="Grupo 80380" transform="translate(811.179 245.909)">
            <path id="Trazado_113939" data-name="Trazado 113939" d="M920.135,193.314c-2.984,2.736-4.61,6.608-6.052,10.3-.753,1.933-1.405,3.911-2.206,5.824a13.78,13.78,0,0,1-1.815,3.244,15.838,15.838,0,0,0-1.107,1.377,2.324,2.324,0,0,1-1.691-.479c-.815-.677-.751-1.869-.667-2.815a17.465,17.465,0,0,1,1.708-6.321,23.056,23.056,0,0,1,4.06-5.424,22.425,22.425,0,0,1,2.33-2.142,10.444,10.444,0,0,0,2.219-1.826c2.283-3.165-4.246-3.495-5.808-3.469a19.307,19.307,0,0,0-10.781,3.034c-5.541,3.842-8.406,10.915-10.364,17.114-1.165,3.691-2.141,7.421-3.589,11.019a35.228,35.228,0,0,1-2.416,5.2c-.278.455-.7,1.255-1.278.957-.518-.265-.637-1.923-.727-2.458-1.5-8.913,1.877-17.941,6.8-25.242a25.159,25.159,0,0,1,3.68-4.361c.75-.71,1.851-1.817,1.334-2.963-1.24-2.742-6.786-1.177-8.765-.5-6.61,2.267-13.791,6.951-15.842,13.972-1.282,4.391-1.007,9.032-.734,13.539.3,4.966.528,9.954,1.035,14.9.288,2.805.588,5.6-.37,8.325-.324.921-.845,2.249-1.847,2.619-1.461.541-2.662-1.176-3.291-2.262-2.078-3.588-1.989-8.031-2.184-12.042-.445-9.076.084-18.058,2.76-26.79a1.261,1.261,0,0,0-.729-2.1c-3.113-.569-6.231,1.536-8.765,3.065a30.155,30.155,0,0,0-8.11,6.978c-4.547,5.677-5.663,13.127-4.887,20.2.916,8.338,4.972,16.268,7.38,24.233.7,2.31,1.782,5.089,1.648,7.55-.224,4.126-5.65-.923-6.657-2.286a44.689,44.689,0,0,1-6-11.358c-1.543-4.3-2.206-8.736-3.135-13.182a.619.619,0,0,0-.191-.326c-.433-1.245-1.716-1.405-2.783-.172-2.178,2.518-2.252,6.452-2.356,9.581-.261,7.774.561,15.983,4.147,22.988a45.276,45.276,0,0,0,15.123,16.413,57.333,57.333,0,0,0,10.143,5.547,48.077,48.077,0,0,0,11.425,2.755,94.608,94.608,0,0,0,12.711,1.271c3.159.021,6.944-.155,9.73-1.892,2.122-.285,4.232-.609,6.318-.955,9.754-1.613,20.233-4.881,26.9-12.621,2.264-2.63,4.735-6.376,5.026-9.915a3.109,3.109,0,0,0-1.656-3.347c-1.884-.772-4.15.42-5.928.982-5.325,1.684-11.177,1.685-16.707,1.387-4.975-.27-10.175-1.1-14.484-3.753a15,15,0,0,1-5.629-5.654c-1.714-3.519,2.031-4.995,4.948-4.666,3.138.354,6.2,1.487,9.314,2.026,3.306.569,6.635.859,9.969,1.19,10.493,1.041,21.8-.665,29.663-8.335a20.867,20.867,0,0,0,6.01-10.364c.341-1.751.24-3.714-1.121-5.016-1.661-1.589-4-1.121-5.85-.126-2.776,1.5-5.251,3.5-8.069,4.96a63.07,63.07,0,0,1-9.176,4.076,25.837,25.837,0,0,1-8.86,1.014,38.348,38.348,0,0,1-7.377-.489c-.812-.172-6-2.3-4.576-3.125,1.183-.686,3.719-.112,5.054-.089a70.22,70.22,0,0,0,9.918-.112,54.577,54.577,0,0,0,9.787-2.522c5.219-1.679,10.081-3.716,14.272-7.338a29.3,29.3,0,0,0,8.538-12.261c.588-1.641,1.2-3.621.083-5.157a1.221,1.221,0,0,0-1.463-.291c-2.032,1.256-4.381,1.8-6.479,2.924a50.754,50.754,0,0,1-7.945,3.819,11.123,11.123,0,0,1-9.215-.892c-.367-1.684,1-3.033,2.5-3.77,3.149-1.543,6.663-2.15,9.8-3.786a17.68,17.68,0,0,0,7.17-6.516,31.791,31.791,0,0,0,2.429-5.4c.7-1.867,1.88-4.579,1.263-6.582a.923.923,0,0,0-.076-.161.3.3,0,0,0-.1-.29c-1.622-1.444-4.053-1.9-6.129-2.286-2.564-.47-5.182-.81-7.775-1.071C928.9,189.93,923.795,189.957,920.135,193.314Zm-32.609,79.079c2.49.486,9.285,3.287,7.615,6.8-1.694,3.555-8.422,2.429-11.313,1.978-4.783-.746-11.95-2.274-15.759-5.544-2.045-1.757-.838-2.815,1.235-3.175a58.291,58.291,0,0,1,7.539-.827A45.714,45.714,0,0,1,887.526,272.393Z" transform="translate(-829.899 -190.185)" fill="#4f9638"/>
            <g id="Grupo_80379-2" data-name="Grupo 80379" transform="translate(14.942 4.466)" opacity="0.7">
              <path id="Trazado_113940" data-name="Trazado 113940" d="M911.318,208.318c-2.076,1.669-4.129,3.37-6.171,5.081-5.533,4.635-11.082,9.237-16.527,13.972-5,4.345-9.879,8.851-14.579,13.514-5.855,5.811-11.6,11.872-16.981,18.142a44.6,44.6,0,0,1-3-7.853c-.076-.255-.529-.278-.509.033a17.1,17.1,0,0,0,.974,4.844,27.547,27.547,0,0,0,1.762,3.868c-.139.165-.285.324-.424.489a228.762,228.762,0,0,0-15.44,19.745.572.572,0,0,0,.945.642c4.453-6.174,9.737-11.809,14.855-17.432,5.95-6.538,12.109-12.922,18.273-19.259,9.419-9.684,19.583-18.78,29.726-27.693,3.82-3.357,7.966-6.3,11.835-9.567.67-.565-.065-1.48-.8-1.2A15.224,15.224,0,0,0,911.318,208.318Z" transform="translate(-840.318 -187.963)" fill="#0a481c"/>
              <path id="Trazado_113941" data-name="Trazado 113941" d="M849.262,242.3a93.188,93.188,0,0,1-2.362-18.717c-.077-2.971-.011-5.947.059-8.917.069-2.867.64-5.991.146-8.824a.305.305,0,0,0-.582-.04c-.859,2.709-.637,5.97-.7,8.785-.076,3.2.037,6.4.241,9.594a100.844,100.844,0,0,0,2.808,18.2C848.93,242.627,849.323,242.549,849.262,242.3Z" transform="translate(-837.941 -187.959)" fill="#0a481c"/>
              <path id="Trazado_113942" data-name="Trazado 113942" d="M861.062,219.243a66.666,66.666,0,0,0,.691,13.5c.622,3.653,1.216,7.246,2.913,10.586.113.222.472.034.341-.169-1.937-3.049-1.861-7.111-2.4-10.59A67.127,67.127,0,0,1,862,219.641c.275-7.414,1.588-14.669,4.978-21.309a.281.281,0,0,0-.416-.369c-2.353,1.659-2.689,6.072-3.321,8.65-.453,1.844-1.206,3.605-1.6,5.462A39.841,39.841,0,0,0,861.062,219.243Z" transform="translate(-831.34 -191.302)" fill="#0a481c"/>
              <path id="Trazado_113943" data-name="Trazado 113943" d="M878.025,207.153c-.579,1.775-1.179,3.545-1.681,5.345a23.528,23.528,0,0,0-.946,10.667.449.449,0,0,0,.879-.179c-.707-3.744.056-7.5,1.184-11.084.542-1.719,1.156-3.413,1.738-5.118.477-1.4,1.378-3.2,1.136-4.691a.294.294,0,0,0-.526-.106,7.243,7.243,0,0,0-.906,2.376C878.627,205.3,878.327,206.227,878.025,207.153Z" transform="translate(-825.212 -189.581)" fill="#0a481c"/>
              <path id="Trazado_113944" data-name="Trazado 113944" d="M884.107,195.048a20.28,20.28,0,0,0-1.946,2.348,35.318,35.318,0,0,0-2.831,5.289c-.159.336.379.6.575.29,1.051-1.629,2.22-3.165,3.407-4.7.576-.746,1.173-1.486,1.818-2.173.631-.671,1.584-1.318,1.9-2.2a.465.465,0,0,0-.525-.6C885.555,193.428,884.742,194.386,884.107,195.048Z" transform="translate(-823.398 -193.299)" fill="#0a481c"/>
              <path id="Trazado_113945" data-name="Trazado 113945" d="M901.755,220.314c-5.355.9-11.425,1.1-16.671-.469-.661-.2-1.018.8-.357,1.015,5.326,1.7,11.224,1.371,16.7.6a33.662,33.662,0,0,0,7.938-2.277c2.627-1.073,5.573-2.181,7.8-3.971a.249.249,0,0,0-.212-.427c-2.492.515-4.765,1.955-7.09,2.968A34.735,34.735,0,0,1,901.755,220.314Z" transform="translate(-821.195 -183.977)" fill="#0a481c"/>
              <path id="Trazado_113946" data-name="Trazado 113946" d="M894.892,205.74c-.386.366.145.982.545.625a71.037,71.037,0,0,1,11.844-8.059c.156-.092.087-.363-.108-.316a20.818,20.818,0,0,0-6.542,3.143A42.912,42.912,0,0,0,894.892,205.74Z" transform="translate(-816.688 -191.265)" fill="#0a481c"/>
              <path id="Trazado_113947" data-name="Trazado 113947" d="M907.228,196.1c-.357.222-.723.449-1.067.69-.664.469-1.321.939-2.006,1.38a.124.124,0,0,0,.11.221c.771-.307,1.572-.6,2.315-.972a8.756,8.756,0,0,0,1.09-.657,5.25,5.25,0,0,0,.843-.859c.138-.158-.089-.381-.257-.294C907.921,195.779,907.547,195.9,907.228,196.1Z" transform="translate(-812.637 -192.306)" fill="#0a481c"/>
              <path id="Trazado_113948" data-name="Trazado 113948" d="M880.252,233.687a12.474,12.474,0,0,0-4.41-1.92,9.714,9.714,0,0,1-4.269-2.3.414.414,0,0,0-.624.545,9.653,9.653,0,0,0,4.214,2.663c1.579.578,3.222,1.038,4.839,1.5A.281.281,0,0,0,880.252,233.687Z" transform="translate(-827.068 -177.657)" fill="#0a481c"/>
              <path id="Trazado_113949" data-name="Trazado 113949" d="M911.517,230.667a22.642,22.642,0,0,1-3.906,2.5,31.892,31.892,0,0,1-8.564,2.789,47.436,47.436,0,0,1-17.88-.305c-.2-.04-.268.3-.072.347a45.619,45.619,0,0,0,18.611.915,30.1,30.1,0,0,0,8.835-2.858c2.309-1.186,5.536-2.987,6.549-5.521a.339.339,0,0,0-.468-.412A24.334,24.334,0,0,0,911.517,230.667Z" transform="translate(-822.669 -178.201)" fill="#0a481c"/>
            </g>
          </g>
          <g id="Grupo_80382" data-name="Grupo 80382" transform="translate(2292.791 87.316)">
            <path id="Trazado_113950" data-name="Trazado 113950" d="M1068.305,182.194c3.419-2.171,5.7-5.7,7.767-9.083,1.081-1.77,2.069-3.6,3.194-5.345a13.811,13.811,0,0,1,2.356-2.875,15.376,15.376,0,0,0,1.334-1.162,2.334,2.334,0,0,1,1.58.769c.683.81.412,1.972.161,2.888a17.463,17.463,0,0,1-2.791,5.924,23.058,23.058,0,0,1-4.949,4.626,22.482,22.482,0,0,1-2.67,1.7,10.458,10.458,0,0,0-2.505,1.408c-2.8,2.713,3.568,4.186,5.109,4.434a19.3,19.3,0,0,0,11.147-1.1c6.13-2.809,10.192-9.268,13.206-15.029,1.8-3.429,3.412-6.929,5.469-10.218a35.111,35.111,0,0,1,3.293-4.7c.353-.4.906-1.114,1.425-.718.463.353.29,2,.284,2.548-.09,9.036-5,17.332-11.124,23.656a25.218,25.218,0,0,1-4.387,3.647c-.865.568-2.142,1.464-1.834,2.683.74,2.917,6.475,2.35,8.541,2.029,6.905-1.071,14.8-4.423,18.048-10.975,2.033-4.1,2.577-8.713,3.1-13.2.577-4.942,1.228-9.892,1.6-14.855.208-2.812.4-5.619,1.826-8.13.48-.849,1.228-2.065,2.279-2.254,1.533-.275,2.414,1.625,2.842,2.8,1.415,3.9.548,8.256.037,12.238-1.157,9.013-3.254,17.762-7.421,25.889a1.26,1.26,0,0,0,.348,2.2c2.964,1.107,6.4-.417,9.167-1.479a30.172,30.172,0,0,0,9.209-5.445c5.474-4.791,7.879-11.93,8.355-19.024.562-8.369-2.036-16.887-3.008-25.152-.283-2.4-.862-5.323-.3-7.724.945-4.021,5.4,1.9,6.154,3.42a44.677,44.677,0,0,1,3.908,12.234c.764,4.5.638,8.987.771,13.527a.616.616,0,0,0,.132.353c.208,1.3,1.443,1.685,2.71.658,2.586-2.1,3.349-5.956,4-9.017,1.62-7.608,2.253-15.833-.047-23.359a45.283,45.283,0,0,0-12.007-18.813,57.3,57.3,0,0,0-9.013-7.241,48.061,48.061,0,0,0-10.763-4.718,94.789,94.789,0,0,0-12.291-3.483c-3.106-.575-6.862-1.065-9.911.153-2.14-.09-4.274-.142-6.387-.168-9.888-.123-20.777,1.255-28.7,7.7-2.69,2.191-5.781,5.445-6.688,8.878a3.111,3.111,0,0,0,1.044,3.587c1.719,1.09,4.159.314,6.009.073,5.537-.723,11.3.3,16.689,1.567,4.85,1.139,9.825,2.867,13.6,6.238a14.987,14.987,0,0,1,4.549,6.554c1.068,3.766-2.875,4.562-5.689,3.726-3.027-.9-5.838-2.553-8.815-3.63-3.154-1.14-6.38-2.011-9.605-2.921-10.147-2.867-21.577-3.174-30.666,3a20.859,20.859,0,0,0-7.737,9.148,5.334,5.334,0,0,0,.224,5.135c1.357,1.856,3.744,1.805,5.736,1.15,3-.987,5.785-2.518,8.815-3.466a62.956,62.956,0,0,1,9.749-2.4,25.825,25.825,0,0,1,8.9.556,38.349,38.349,0,0,1,7.176,1.777c.769.311,5.507,3.316,3.956,3.879-1.285.467-3.68-.542-4.99-.8a70.344,70.344,0,0,0-9.785-1.631,54.488,54.488,0,0,0-10.077.766c-5.434.737-10.577,1.889-15.339,4.718a29.284,29.284,0,0,0-10.557,10.572c-.868,1.511-1.817,3.354-.99,5.062a1.223,1.223,0,0,0,1.39.544c2.221-.879,4.63-1,6.892-1.741a50.771,50.771,0,0,1,8.492-2.365,11.12,11.12,0,0,1,8.916,2.5c.066,1.721-1.514,2.812-3.123,3.272-3.371.967-6.937.948-10.318,2.006a17.672,17.672,0,0,0-8.2,5.157,31.759,31.759,0,0,0-3.339,4.887c-1.014,1.717-2.656,4.179-2.4,6.26a.987.987,0,0,0,.047.172.3.3,0,0,0,.044.3c1.344,1.707,3.655,2.586,5.633,3.327,2.441.913,4.96,1.708,7.466,2.419C1059.086,183.985,1064.114,184.856,1068.305,182.194Zm45.987-72.129c-2.366-.915-8.566-4.866-6.3-8.028,2.29-3.2,8.716-.913,11.484.039,4.578,1.575,11.366,4.337,14.54,8.224,1.707,2.089.331,2.918-1.771,2.91a58.4,58.4,0,0,1-7.567-.509A45.6,45.6,0,0,1,1114.293,110.065Z" transform="translate(-1041.344 -86.137)" fill="#4f9638"/>
            <g id="Grupo_80381" data-name="Grupo 80381" transform="translate(7.502 16.216)" opacity="0.7">
              <path id="Trazado_113951" data-name="Trazado 113951" d="M1067.348,156.684c2.338-1.279,4.656-2.593,6.968-3.919,6.26-3.591,12.531-7.147,18.723-10.853,5.682-3.4,11.279-6.98,16.725-10.745,6.783-4.692,13.507-9.651,19.9-14.88a44.488,44.488,0,0,1,1.577,8.259c.029.264.47.367.508.056a17.126,17.126,0,0,0-.109-4.94,27.726,27.726,0,0,0-1.056-4.117c.165-.136.337-.268.5-.406a228.687,228.687,0,0,0,18.668-16.728.572.572,0,0,0-.817-.8c-5.468,5.3-11.661,9.918-17.685,14.554-7.005,5.392-14.19,10.6-21.37,15.753-10.975,7.88-22.578,15.05-34.128,22.044-4.351,2.633-8.947,4.8-13.331,7.339-.759.439-.195,1.467.579,1.324A15.212,15.212,0,0,0,1067.348,156.684Z" transform="translate(-1039.852 -97.445)" fill="#0a481c"/>
              <path id="Trazado_113952" data-name="Trazado 113952" d="M1112.172,122.792a93.3,93.3,0,0,1-.961,18.841c-.445,2.938-1.032,5.857-1.623,8.768-.571,2.811-1.682,5.788-1.692,8.662a.3.3,0,0,0,.566.141c1.321-2.515,1.674-5.763,2.234-8.524.636-3.141,1.087-6.3,1.447-9.486a101.008,101.008,0,0,0,.432-18.41C1112.557,122.524,1112.158,122.531,1112.172,122.792Z" transform="translate(-1019.96 -86.53)" fill="#0a481c"/>
              <path id="Trazado_113953" data-name="Trazado 113953" d="M1097.909,146.008a66.7,66.7,0,0,0,1.691-13.416c.027-3.706.075-7.347-1.01-10.933-.072-.238-.457-.116-.366.106,1.372,3.343.583,7.328.5,10.847a66.925,66.925,0,0,1-1.664,12.839c-1.572,7.251-4.137,14.163-8.641,20.1a.281.281,0,0,0,.344.436c2.609-1.22,3.714-5.507,4.79-7.932.769-1.737,1.82-3.338,2.538-5.1A39.886,39.886,0,0,0,1097.909,146.008Z" transform="translate(-1028.444 -86.991)" fill="#0a481c"/>
              <path id="Trazado_113954" data-name="Trazado 113954" d="M1078.852,147.649c.882-1.646,1.782-3.283,2.593-4.968a23.51,23.51,0,0,0,2.8-10.334.449.449,0,0,0-.9.022c.039,3.812-1.373,7.377-3.112,10.705-.835,1.6-1.737,3.158-2.61,4.734-.716,1.294-1.917,2.9-1.942,4.418a.3.3,0,0,0,.5.2,7.277,7.277,0,0,0,1.309-2.181C1077.932,149.37,1078.391,148.508,1078.852,147.649Z" transform="translate(-1033.94 -82.479)" fill="#0a481c"/>
              <path id="Trazado_113955" data-name="Trazado 113955" d="M1071.488,154.953a20.381,20.381,0,0,0,2.329-1.969,35.416,35.416,0,0,0,3.716-4.709c.215-.3-.27-.652-.516-.387-1.322,1.42-2.742,2.728-4.179,4.027-.7.632-1.417,1.256-2.173,1.82-.737.551-1.791,1.02-2.26,1.83a.465.465,0,0,0,.412.685A4.831,4.831,0,0,0,1071.488,154.953Z" transform="translate(-1037.128 -75.591)" fill="#0a481c"/>
              <path id="Trazado_113956" data-name="Trazado 113956" d="M1066.038,126.938c5.431.052,11.442.922,16.331,3.389.615.311,1.143-.612.529-.936-4.945-2.611-10.81-3.321-16.334-3.518a33.614,33.614,0,0,0-8.213.849c-2.775.6-5.87,1.169-8.372,2.541a.248.248,0,0,0,.133.457c2.545-.069,5.035-1.087,7.5-1.678A34.814,34.814,0,0,1,1066.038,126.938Z" transform="translate(-1045.149 -85.113)" fill="#0a481c"/>
              <path id="Trazado_113957" data-name="Trazado 113957" d="M1064.2,142.143c.444-.293.03-.991-.426-.71a71.26,71.26,0,0,1-13.076,5.854c-.169.062-.149.341.052.33a20.837,20.837,0,0,0,6.991-1.946A42.891,42.891,0,0,0,1064.2,142.143Z" transform="translate(-1044.834 -78.38)" fill="#0a481c"/>
              <path id="Trazado_113958" data-name="Trazado 113958" d="M1047.938,147.763c.39-.158.79-.315,1.172-.493.735-.344,1.466-.693,2.217-1.005a.123.123,0,0,0-.069-.237c-.815.166-1.653.313-2.451.551a8.743,8.743,0,0,0-1.187.455,5.309,5.309,0,0,0-.981.7c-.163.13.02.39.2.336C1047.2,147.955,1047.59,147.9,1047.938,147.763Z" transform="translate(-1046.576 -76.359)" fill="#0a481c"/>
              <path id="Trazado_113959" data-name="Trazado 113959" d="M1082.368,116.589a12.471,12.471,0,0,0,4.005,2.664,9.726,9.726,0,0,1,3.8,3.009.415.415,0,0,0,.711-.426,9.637,9.637,0,0,0-3.683-3.36c-1.453-.848-2.99-1.589-4.5-2.332A.282.282,0,0,0,1082.368,116.589Z" transform="translate(-1031.072 -89.343)" fill="#0a481c"/>
              <path id="Trazado_113960" data-name="Trazado 113960" d="M1058.62,115.759a22.54,22.54,0,0,1,4.284-1.775,31.909,31.909,0,0,1,8.921-1.243,47.467,47.467,0,0,1,17.549,3.44c.186.073.315-.247.132-.33a45.63,45.63,0,0,0-18.161-4.167,30.087,30.087,0,0,0-9.2,1.263c-2.481.761-5.974,1.967-7.417,4.285a.34.34,0,0,0,.387.488A24.455,24.455,0,0,0,1058.62,115.759Z" transform="translate(-1043.057 -91.266)" fill="#0a481c"/>
            </g>
          </g>
          <g id="Grupo_80388" data-name="Grupo 80388" transform="translate(2316.021 244.092)">
            <path id="Trazado_113961" data-name="Trazado 113961" d="M1114.534,143.15a.685.685,0,0,0-.459.6.476.476,0,0,0,.1.3c.459.6.918,1.2,1.405,1.793a99.514,99.514,0,0,0,20.952,20.177c5.077,3.571,10.01,7.529,15.229,10.97-2.639-1.233-5.277-2.481-7.93-3.642a151.617,151.617,0,0,0-18.1-7.07c-6.209-1.85-12.663-3.241-19-4.646-6.253-1.362-12.62-2.424-19.044-2.036a.34.34,0,0,0-.115.029.507.507,0,0,0-.33.76c0,.014.014.014.014.029h.014c2.754,3.829,7.056,6.238,11.028,8.6,5.019,2.968,9.909,6.138,15.058,8.877a71.715,71.715,0,0,0,16,6.382c5.492,1.391,10.813,3.3,16.219,4.976-6.209-.143-12.39-.875-18.614-.545-12.433.66-24.751,1.821-37.084,3.513a137.784,137.784,0,0,1-21.31,1.735.462.462,0,0,0-.488.373.527.527,0,0,0,.344.66c.158.057.33.1.488.158,11.989,3.886,24.293,7.213,36.855,8.432a146.746,146.746,0,0,0,33.084-.7c-4.646,1.2-9.25,2.51-13.81,3.987-12.29,3.958-23.906,9.25-35.55,14.771-6.468,3.069-12.3,7.256-18.342,11.071a.435.435,0,0,0,.115.789c8.619,2.438,28.552,1.707,34.733.947,6.152-.774,12.218-2.381,18.284-3.585a91.121,91.121,0,0,0,17.452-5.636c3.542-1.491,6.841-3.456,10.21-5.277-.5.33-1.018.674-1.506,1.033a62,62,0,0,0-7.787,7.371,89.136,89.136,0,0,0-7.4,7.859c-1.864,2.424-3.4,5.077-5.206,7.543a.014.014,0,0,1-.014.014c-.5.717-1.032,1.391-1.606,2.065a.346.346,0,0,0-.086.215.366.366,0,0,0,.459.43c7.529-1.979,13.968-7.371,20.607-11.214,6.453-3.714,12.993-7.8,17.094-14.2a.332.332,0,0,0,.029-.229c.875-1.635,1.864-3.227,2.8-4.833,1.563-2.71,1.147-6.2,1.018-9.221-.086-2.438-.258-4.89-.172-7.328.086-2.352.488-4.675.76-7,.229-2.036.272-4.058.387-6.109.086-1.836.359-3.671.272-5.521-.144-3.126-1.864-4.761-4.245-6.582-3.312-2.524-6.553-5.12-9.852-7.672a182.177,182.177,0,0,0-23.977-15.459c-3.284-1.821-6.31-4.073-9.623-5.851C1121.116,143.766,1117.746,142.217,1114.534,143.15Zm38.246,56.588a46.264,46.264,0,0,1,5.507-1.262C1156.465,198.963,1154.63,199.364,1152.78,199.737Z" transform="translate(-1068.063 -142.867)" fill="#36753c"/>
            <g id="Grupo_80383" data-name="Grupo 80383" transform="translate(2.885 59.085)">
              <path id="Trazado_113962" data-name="Trazado 113962" d="M1156.7,184.464c-1.219,2.051-3.585,3.327-5.665,4.36-2.338,1.133-4.79,2.008-7.2,2.983-5.521,2.251-10.813,4.99-16.363,7.185-6.023,2.381-12.146,4.474-18.342,6.339-12.835,3.886-25.555,7.8-38.734,10.282a.438.438,0,0,1-.3-.545c7.056-1.549,14.011-3.628,20.923-5.693,12.318-3.657,24.752-7.156,36.74-11.86,5.321-2.094,10.44-4.718,15.818-6.654,4.7-1.678,8.891-3.442,12.691-6.726C1156.5,183.947,1156.854,184.191,1156.7,184.464Z" transform="translate(-1070.074 -184.068)" fill="#5e9163"/>
            </g>
            <g id="Grupo_80384" data-name="Grupo 80384" transform="translate(0 50.653)">
              <path id="Trazado_113963" data-name="Trazado 113963" d="M1161.785,178.268c.316.029.43.531.072.6a107.278,107.278,0,0,1-10.956,1.047c-3.628.272-7.256.559-10.9.7-13.222.5-26.487.531-39.738.43-6.6-.043-13.179-.229-19.775-.516-3.858-.172-7.729-.272-11.573-.717-.158-.057-.33-.1-.488-.158a.527.527,0,0,1-.344-.66c5.335.516,10.8.258,16.119.531,12.864.674,25.7.9,38.576.66,6.568-.115,13.136-.287,19.69-.8,3.155-.244,6.324-.5,9.479-.746A66.4,66.4,0,0,1,1161.785,178.268Z" transform="translate(-1068.063 -178.189)" fill="#5e9163"/>
            </g>
            <g id="Grupo_80385" data-name="Grupo 80385" transform="translate(19.097 16.76)">
              <path id="Trazado_113964" data-name="Trazado 113964" d="M1081.793,154.554c4.632,1.491,9.278,2.9,13.9,4.446,6.482,2.18,13.007,4.2,19.46,6.468,12.792,4.46,25.569,9.379,37.429,16a.273.273,0,0,1-.272.473c-12.29-6.468-25.282-11.214-38.4-15.674q-9.55-3.248-19.059-6.6c-3.269-1.147-6.539-2.266-9.852-3.27-1.162-.359-2.338-.7-3.5-1.061h-.014c0-.014-.014-.014-.014-.029A.507.507,0,0,1,1081.793,154.554Z" transform="translate(-1081.379 -154.554)" fill="#5e9163"/>
            </g>
            <g id="Grupo_80386" data-name="Grupo 80386" transform="translate(46.012 0.885)">
              <path id="Trazado_113965" data-name="Trazado 113965" d="M1100.148,143.484c.832.43,1.664.9,2.481,1.334q3.312,1.742,6.553,3.585a120.3,120.3,0,0,1,12.663,8.231c8.074,6.023,15.316,13.036,22.931,19.6.258.229-.115.588-.373.373-7.83-6.511-15.416-13.394-23.662-19.4a130.665,130.665,0,0,0-12.419-7.988c-2.151-1.233-4.345-2.424-6.554-3.585-.043-.014-.072-.043-.115-.057-.488-.588-.946-1.19-1.405-1.793A.476.476,0,0,1,1100.148,143.484Z" transform="translate(-1100.148 -143.484)" fill="#5e9163"/>
            </g>
            <g id="Grupo_80387" data-name="Grupo 80387" transform="translate(60.281 74.434)">
              <path id="Trazado_113966" data-name="Trazado 113966" d="M1145.605,195.277a21.529,21.529,0,0,1-4.359,4.56c-1.606,1.463-3.241,2.882-4.9,4.288q-4.8,4-9.823,7.715c-5.406,3.972-10.9,7.83-16.42,11.673a.345.345,0,0,1,.086-.215c.574-.674,1.1-1.348,1.606-2.065a.014.014,0,0,0,.014-.014c4.56-3.284,9.149-6.554,13.624-9.967,3.485-2.667,6.941-5.378,10.3-8.2q2.5-2.108,4.89-4.3a29.4,29.4,0,0,1,4.531-3.929A.338.338,0,0,1,1145.605,195.277Z" transform="translate(-1110.098 -194.772)" fill="#5e9163"/>
            </g>
          </g>
          <g id="Grupo_80397" data-name="Grupo 80397" transform="translate(1695.451 208.91)">
            <path id="Trazado_113967" data-name="Trazado 113967" d="M1038.1,222.564a25.145,25.145,0,0,0-4.481,19.424c1.368,8.145,6.246,13.928,12.295,19.2a56.291,56.291,0,0,0,8.034,5.827h.022a75.9,75.9,0,0,0,7.725,4.106h.022c2.87,1.346,5.827,2.538,8.829,3.686,4.812,1.832,9.69,3.4,14.524,5.121,4.878,1.766,9.138,4.083,12.206,8.366,2.825,3.929,4.834,8.476,7.438,12.537l.993,1.479a22.67,22.67,0,0,0,7.306,6.931c7.9,4.5,16.312,3.112,24.876,2.009,5.364-.706,11.014-1.1,16.312.353,4.569,1.214,8.5,3.951,12.074,6.975.309.221.6.486.883.728.4.331.773.684,1.17,1.015a70.425,70.425,0,0,0,8.962,7.262,25.861,25.861,0,0,0,12.935,3.642c10.418.419,20.616-1.942,30.814-3.62,2.34-.375,4.7-.662,6.975-1.258a1.438,1.438,0,0,0,1.391.839c3.664-.088,6.6-2.892,8.962-5.452a41.578,41.578,0,0,0,4.745-6.2,37.331,37.331,0,0,0,1.987-3.554v-.022a44.259,44.259,0,0,0,4.194-24.391c-1.81-15.826-12.361-30.019-27.922-33.992-.618-.155-1.258-.309-1.92-.441h-.022c-.728-.132-1.457-.265-2.229-.353-4.856-.64-9.823.088-14.7.044a49.789,49.789,0,0,1-16.51-2.384,20.842,20.842,0,0,1-4.547-2.273,25.4,25.4,0,0,1-3.664-2.892c-.022,0-.022,0-.022-.022-4.062-3.73-7.284-8.564-10.419-12.891-4.724-6.489-9.69-12.824-17.857-14.921-9.2-2.384-19.093,1.06-28.1,2.936-.883.177-1.744.353-2.627.508-.75.155-1.5.287-2.251.419a54.526,54.526,0,0,1-10.9.839c-5.5-.221-10.4-1.876-15.517-3.775-6.622-2.45-13.354-5.187-20.351-6.445-.772-.132-1.545-.265-2.318-.353a38.656,38.656,0,0,0-6-.353C1052.713,211.417,1043.442,215.545,1038.1,222.564Z" transform="translate(-1033.233 -211.21)" fill="#add031"/>
            <g id="Grupo_80389" data-name="Grupo 80389" transform="translate(5.292 18.434)">
              <path id="Trazado_113968" data-name="Trazado 113968" d="M1035.771,220.114c2.984,1.527,5.613,3.746,8.465,5.5,6.189,3.81,12.683,7.2,19.078,10.652,20.154,10.873,40.568,21.356,61.215,31.262,7.825,3.755,15.634,7.522,23.766,10.564,6.635,2.483,13.361,4.708,20.1,6.865,15.746,5.037,31.619,9.683,47.534,14.151,6.945,1.949,13.913,4.042,20.954,5.609,2.307.514,4.616,1.042,6.955,1.368a24.163,24.163,0,0,0,2.437.261c.475.018,1.878.124.9-.009,1.607.216,2.3-2.243.68-2.461.168.022-.634-.214-.967-.344-.594-.232-1.187-.461-1.787-.678-1.852-.662-3.739-1.212-5.624-1.775-5.754-1.717-11.584-3.194-17.371-4.8-15.687-4.348-31.348-8.794-46.9-13.606a382.587,382.587,0,0,1-41.014-14.784q-32.834-14.419-64.5-31.185c-11.091-5.876-21.949-12.606-33.69-17.129-.309-.119-.519.384-.225.534Z" transform="translate(-1035.63 -219.562)" fill="#36753c"/>
            </g>
            <g id="Grupo_80390" data-name="Grupo 80390" transform="translate(20.738 55.809)">
              <path id="Trazado_113969" data-name="Trazado 113969" d="M1101.96,240.2a7,7,0,0,1,2.538-.221.54.54,0,0,1,.265.993,2.807,2.807,0,0,1-.552.331c-2.406,1.457-6.18,1.523-8.829,1.854a103.923,103.923,0,0,1-10.816.772,152.045,152.045,0,0,1-22.625-1.346q-5.828-.795-11.567-1.987h-.022a75.915,75.915,0,0,1-7.725-4.106,176.561,176.561,0,0,0,19.755,3.907,152.245,152.245,0,0,0,22.183,1.457,100.807,100.807,0,0,0,10.33-.464c1.876-.2,3.73-.486,5.584-.861C1100.989,240.445,1101.474,240.313,1101.96,240.2Z" transform="translate(-1042.628 -236.494)" fill="#36753c"/>
            </g>
            <g id="Grupo_80391" data-name="Grupo 80391" transform="translate(83.271 9.676)">
              <path id="Trazado_113970" data-name="Trazado 113970" d="M1073.209,215.594c.508.552,1.016,1.126,1.523,1.678a116.171,116.171,0,0,1,14.59,18.718c7.593,12.471,15.341,27.26,15.849,42.2.022.53.022,1.037.022,1.567a.8.8,0,0,1-1.589,0c-.022-.728-.067-1.457-.133-2.207-1.148-14.369-8.5-28.518-15.87-40.548a122.667,122.667,0,0,0-14.546-18.652c-.706-.772-1.412-1.545-2.1-2.34C1071.708,215.881,1072.459,215.749,1073.209,215.594Z" transform="translate(-1070.958 -215.594)" fill="#36753c"/>
            </g>
            <g id="Grupo_80392" data-name="Grupo 80392" transform="translate(34.181 0.361)">
              <path id="Trazado_113971" data-name="Trazado 113971" d="M1048.718,211.374c.772.088,1.545.221,2.318.353a112.539,112.539,0,0,1,9.293,12.56,90.6,90.6,0,0,1,8.123,15.8c2.251,5.717,4.039,11.588,6.4,17.261.088.243.2.464.287.706.287.706-.728,1.324-1.037.618-.331-.728-.662-1.457-.971-2.185-4.238-9.845-7.151-20.064-12.78-29.313a114.906,114.906,0,0,0-10.4-14.369C1049.535,212.323,1049.137,211.838,1048.718,211.374Z" transform="translate(-1048.718 -211.374)" fill="#36753c"/>
            </g>
            <g id="Grupo_80393" data-name="Grupo 80393" transform="translate(71.484 77.282)">
              <path id="Trazado_113972" data-name="Trazado 113972" d="M1065.618,258.565a162.992,162.992,0,0,0,24.258-3.024,135.933,135.933,0,0,0,13.862-3.6,59.514,59.514,0,0,0,7.351-2.847c1.368-.64,2.648-1.435,3.995-2.1.53-.265,1.082-.508,1.633-.728.8-.287,1.259.795.773,1.324l-.2.2c-2.958,3.2-8.035,4.79-12.052,6.136a109.8,109.8,0,0,1-14.811,3.62,166.335,166.335,0,0,1-23.817,2.494Z" transform="translate(-1065.618 -246.222)" fill="#36753c"/>
            </g>
            <g id="Grupo_80394" data-name="Grupo 80394" transform="translate(144.545 34.067)">
              <path id="Trazado_113973" data-name="Trazado 113973" d="M1098.718,226.644a25.4,25.4,0,0,0,3.664,2.892,122.119,122.119,0,0,1,6.578,21.676c1.766,8.5,3.178,17.769,1.876,26.487-.088.662-.2,1.3-.331,1.942-.132.728-1.413.574-1.324-.177q.133-1.093.2-2.185a75.715,75.715,0,0,0-.287-10.97,120.943,120.943,0,0,0-8.719-35.8C1099.844,229.2,1099.292,227.924,1098.718,226.644Z" transform="translate(-1098.718 -226.644)" fill="#36753c"/>
            </g>
            <g id="Grupo_80395" data-name="Grupo 80395" transform="translate(133.045 93.627)">
              <path id="Trazado_113974" data-name="Trazado 113974" d="M1136.749,254.547a6.65,6.65,0,0,1-.353.684c-2.1,3.465-7.792,5.452-11.169,6.887a99.418,99.418,0,0,1-13.376,4.547,84.682,84.682,0,0,1-16.29,2.45c-.4-.331-.773-.684-1.17-1.015-.287-.243-.574-.508-.883-.728a.484.484,0,0,1,.177-.022,86.359,86.359,0,0,0,17.923-2.8,98.752,98.752,0,0,0,13.6-4.878,54.913,54.913,0,0,0,5.982-3.112c.993-.618,1.942-1.346,2.958-1.965h.022a10.083,10.083,0,0,1,1.9-.927C1136.616,253.466,1136.947,254.106,1136.749,254.547Z" transform="translate(-1093.508 -253.627)" fill="#36753c"/>
            </g>
            <g id="Grupo_80396" data-name="Grupo 80396" transform="translate(186.219 41.925)">
              <path id="Trazado_113975" data-name="Trazado 113975" d="M1117.6,230.2c.662.132,1.3.287,1.92.441,1.192,3.6,2.207,7.262,3.156,10.948a181.377,181.377,0,0,1,4.437,21.19c.927,7,2.252,14.9.663,21.9a3.87,3.87,0,0,1-.111.486c-.221.949-1.677.53-1.457-.419a3.438,3.438,0,0,0,.088-.464c.794-3.664.53-7.372.243-11.1-.353-4.061-.751-8.1-1.369-12.14-.993-6.4-2.56-12.714-4.172-19C1119.982,238.062,1118.9,234.089,1117.6,230.2Z" transform="translate(-1117.598 -230.204)" fill="#36753c"/>
            </g>
          </g>
          <g id="Grupo_80406" data-name="Grupo 80406" transform="translate(811.179 83.421)">
            <path id="Trazado_113976" data-name="Trazado 113976" d="M943.646,162.16a16.339,16.339,0,0,0,3.929-12.34c-.454-5.346-3.307-9.35-6.944-13.086a36.46,36.46,0,0,0-4.893-4.2h-.014a49.26,49.26,0,0,0-4.785-3.069h-.014c-1.787-1.024-3.638-1.953-5.521-2.855-3.019-1.441-6.095-2.715-9.133-4.086-3.065-1.4-5.7-3.128-7.462-6.063-1.62-2.695-2.68-5.745-4.152-8.513l-.565-1.011a14.734,14.734,0,0,0-4.364-4.874c-4.879-3.334-10.4-2.88-16-2.619a26.907,26.907,0,0,1-10.543-1.093,20.643,20.643,0,0,1-7.45-5.157c-.188-.159-.36-.346-.532-.518-.24-.237-.465-.485-.7-.72a45.812,45.812,0,0,0-5.418-5.177,16.812,16.812,0,0,0-8.183-3.044c-6.724-.823-13.453.166-20.144.711-1.536.119-3.08.181-4.583.446a.933.933,0,0,0-.856-.617c-2.378-.138-4.427,1.523-6.092,3.055a27.03,27.03,0,0,0-3.4,3.766,24.33,24.33,0,0,0-1.474,2.2v.014a28.752,28.752,0,0,0-4.008,15.571c.334,10.344,6.413,20.094,16.279,23.491.391.132.8.267,1.22.387h.014c.465.123.929.248,1.424.346,3.11.673,6.366.463,9.522.751a32.345,32.345,0,0,1,10.565,2.418,13.6,13.6,0,0,1,2.824,1.714,16.381,16.381,0,0,1,2.218,2.066c.014,0,.014,0,.014.014a54.534,54.534,0,0,1,6.063,8.9c2.715,4.453,5.594,8.818,10.771,10.608,5.834,2.032,12.42.326,18.35-.412.582-.067,1.149-.136,1.728-.189.495-.062.988-.108,1.48-.153a35.449,35.449,0,0,1,7.106.034,32.375,32.375,0,0,1,9.848,3.267c4.159,1.937,8.372,4.067,12.836,5.252.493.128.987.254,1.483.351a25.11,25.11,0,0,0,3.869.548A20.078,20.078,0,0,0,943.646,162.16Z" transform="translate(-810.246 -83.421)" fill="#36753c"/>
            <g id="Grupo_80398" data-name="Grupo 80398" transform="translate(0 6.673)">
              <path id="Trazado_113977" data-name="Trazado 113977" d="M943.706,155.167c-1.852-1.147-3.436-2.723-5.19-4.011-3.806-2.8-7.831-5.336-11.789-7.909-12.473-8.108-25.138-15.977-37.981-23.487-4.867-2.845-9.724-5.7-14.83-8.1-4.164-1.959-8.4-3.756-12.654-5.511-9.929-4.1-19.962-7.943-30.031-11.68-4.392-1.629-8.794-3.354-13.271-4.742-1.466-.455-2.932-.919-4.431-1.255a15.771,15.771,0,0,0-1.565-.3c-.305-.037-1.209-.179-.579-.042-1.028-.225-1.609,1.329-.571,1.557-.107-.024.4.172.607.274.373.182.744.361,1.123.533,1.165.528,2.358.982,3.548,1.447,3.635,1.418,7.331,2.682,10.993,4.027,9.928,3.647,19.833,7.357,29.651,11.3a248.169,248.169,0,0,1,25.774,11.748q20.5,11.076,40.113,23.609c6.87,4.393,13.546,9.326,20.908,12.876.194.095.357-.221.174-.334Z" transform="translate(-810.269 -88.075)" fill="#4f9638"/>
            </g>
            <g id="Grupo_80399" data-name="Grupo 80399" transform="translate(85.294 41.942)">
              <path id="Trazado_113978" data-name="Trazado 113978" d="M871.708,114.294a4.552,4.552,0,0,1-1.655.009.35.35,0,0,1-.119-.657,1.757,1.757,0,0,1,.376-.185c1.635-.816,4.083-.66,5.815-.733a67.523,67.523,0,0,1,7.044.072,98.738,98.738,0,0,1,14.578,2.071q3.732.824,7.384,1.9h.014a49.276,49.276,0,0,1,4.786,3.069,114.741,114.741,0,0,0-12.585-3.577,98.867,98.867,0,0,0-14.287-2.12,65.582,65.582,0,0,0-6.713-.247c-1.226.029-2.441.116-3.663.261C872.35,114.188,872.029,114.248,871.708,114.294Z" transform="translate(-869.746 -112.669)" fill="#4f9638"/>
            </g>
            <g id="Grupo_80400" data-name="Grupo 80400" transform="translate(63.671 31.854)">
              <path id="Trazado_113979" data-name="Trazado 113979" d="M872.082,149.332c-.3-.384-.6-.783-.9-1.167a75.477,75.477,0,0,1-8.457-12.894c-4.256-8.478-8.49-18.465-8.026-28.168.014-.344.042-.673.069-1.015a.517.517,0,0,1,1.03.083c-.024.473-.034.948-.032,1.437-.019,9.366,3.992,18.917,8.128,27.1a79.714,79.714,0,0,0,8.431,12.848c.416.538.833,1.076,1.233,1.626C873.07,149.225,872.577,149.271,872.082,149.332Z" transform="translate(-854.668 -105.634)" fill="#4f9638"/>
            </g>
            <g id="Grupo_80401" data-name="Grupo 80401" transform="translate(99.18 52.103)">
              <path id="Trazado_113980" data-name="Trazado 113980" d="M894.086,151.954c-.5-.1-.99-.224-1.483-.351a73.18,73.18,0,0,1-5.352-8.624,58.986,58.986,0,0,1-4.423-10.664c-1.154-3.822-2-7.718-3.229-11.517-.044-.162-.1-.31-.149-.472-.148-.473.542-.82.706-.346s.351.978.512,1.466c2.223,6.6,3.568,13.371,6.723,19.658a74.5,74.5,0,0,0,5.971,9.856C893.607,151.3,893.838,151.633,894.086,151.954Z" transform="translate(-879.43 -119.754)" fill="#4f9638"/>
            </g>
            <g id="Grupo_80402" data-name="Grupo 80402" transform="translate(60.083 23.389)">
              <path id="Trazado_113981" data-name="Trazado 113981" d="M886.494,100.869a105.871,105.871,0,0,0-15.868.673,88.752,88.752,0,0,0-9.167,1.595,38.523,38.523,0,0,0-4.91,1.456c-.921.341-1.791.789-2.7,1.146-.357.143-.727.271-1.1.384-.531.145-.773-.581-.43-.9l.139-.119c2.085-1.914,5.457-2.674,8.128-3.334a71.253,71.253,0,0,1,9.783-1.559,108.165,108.165,0,0,1,15.554-.354Z" transform="translate(-852.166 -99.732)" fill="#4f9638"/>
            </g>
            <g id="Grupo_80403" data-name="Grupo 80403" transform="translate(38.171 21.415)">
              <path id="Trazado_113982" data-name="Trazado 113982" d="M842.873,133.571a16.392,16.392,0,0,0-2.219-2.066,79.309,79.309,0,0,1-3.11-14.385c-.694-5.6-1.117-11.673.188-17.25.092-.424.2-.833.317-1.24.125-.465.945-.3.849.185-.1.466-.178.935-.245,1.4a49.18,49.18,0,0,0-.394,7.119,78.557,78.557,0,0,0,3.749,23.645C842.281,131.853,842.571,132.711,842.873,133.571Z" transform="translate(-836.886 -98.355)" fill="#4f9638"/>
            </g>
            <g id="Grupo_80404" data-name="Grupo 80404" transform="translate(26.756 8.523)">
              <path id="Trazado_113983" data-name="Trazado 113983" d="M828.98,96.628a4.523,4.523,0,0,1,.265-.424c1.542-2.132,5.333-3.118,7.6-3.868a64.9,64.9,0,0,1,8.9-2.236,55.027,55.027,0,0,1,10.678-.723c.24.235.465.483.7.72.172.172.344.359.532.518a.309.309,0,0,1-.115.006,56.159,56.159,0,0,0-11.755.865,64.294,64.294,0,0,0-9.062,2.438,35.515,35.515,0,0,0-4.038,1.7c-.677.347-1.329.769-2.019,1.114h-.014a6.574,6.574,0,0,1-1.279.5C829.009,97.335,828.828,96.9,828.98,96.628Z" transform="translate(-828.926 -89.365)" fill="#36753c"/>
            </g>
            <g id="Grupo_80405" data-name="Grupo 80405" transform="translate(12.906 12.899)">
              <path id="Trazado_113984" data-name="Trazado 113984" d="M823.953,128.852c-.422-.12-.829-.255-1.22-.387-.581-2.393-1.044-4.82-1.464-7.258a117.561,117.561,0,0,1-1.75-13.956c-.229-4.579-.668-9.766.731-14.213a2.251,2.251,0,0,1,.1-.308c.192-.6,1.114-.254.921.348a2,2,0,0,0-.082.3,24.791,24.791,0,0,0-.746,7.176c.013,2.649.057,5.286.242,7.935.3,4.2.985,8.368,1.7,12.526C822.826,123.638,823.315,126.268,823.953,128.852Z" transform="translate(-819.268 -92.416)" fill="#36753c"/>
            </g>
          </g>
          <g id="Grupo_80410" data-name="Grupo 80410" transform="translate(2202.28 88.154)">
            <g id="Grupo_80407" data-name="Grupo 80407" transform="translate(0 0.163)">
              <path id="Trazado_113985" data-name="Trazado 113985" d="M1075.613,86.875c-9.148,3.217-18.648,5.566-27.015,10.675a59.935,59.935,0,0,0-10.925,8.482,40.335,40.335,0,0,0-7.9,10.133c-1.52,3.036-3.2,7.35-1.074,10.5,1.787,2.644,5.3,3.273,8.261,2.86,8.994-1.259,11.105-11.706,14.219-18.661,3.783-8.452,10.324-14.765,18.1-19.348,2.631-.711,5.214-1.6,7.044-3.426C1076.813,87.6,1076.318,86.627,1075.613,86.875Z" transform="translate(-956.758 -86.835)" fill="#add031"/>
              <path id="Trazado_113986" data-name="Trazado 113986" d="M1032.785,110.13q6.186-2.943,12.224-6.179a125.464,125.464,0,0,0,11-6.848c2.171-1.461,4.388-2.825,6.521-4.344.9-.641,1.791-1.3,2.664-1.976.311-.241,1-.605,1.076-1.047a.607.607,0,0,0-.185-.568.488.488,0,0,0-.046-.12l-.1-.132a.657.657,0,0,0-.285-.168l.129.054c-.115-.049-.228-.115-.347-.153-.07-.023-.143-.037-.215-.057a3.634,3.634,0,0,1-.415-.143l-.1-.043c-.013-.622-.605-1.228-1.246-.764-12.459,9-27.522,12.977-42.289,16.325a110.6,110.6,0,0,1-12.74,2.173c-4.162.449-8.312.188-12.489.436-4.556.271-9.393.115-13.677,1.952-3.426,1.468-5.448,5.124-2.875,8.428,2.5,3.212,7.521,4.169,11.35,4.352,6.766.327,13.879-1.146,20.354-2.957A136.125,136.125,0,0,0,1032.785,110.13Z" transform="translate(-978.229 -86.556)" fill="#add031"/>
            </g>
            <g id="Grupo_80408" data-name="Grupo 80408" transform="translate(76.27)">
              <path id="Trazado_113987" data-name="Trazado 113987" d="M1031.877,123.157c4.192-9.3,9.938-18.575,18.644-24.253a73.251,73.251,0,0,1,13.145-6.495c2.241-.888,4.534-1.6,6.826-2.349,2.177-.708,4.48-1.358,6.294-2.805.257-.205-.023-.6-.3-.525-2.535.68-4.988,1.714-7.5,2.479-2.461.749-4.852,1.628-7.226,2.613a68.672,68.672,0,0,0-13.091,6.764c-8.216,5.729-13.945,15.069-17.234,24.38-.092.26.334.446.45.189Z" transform="translate(-1031.414 -86.722)" fill="#4f9638"/>
            </g>
            <g id="Grupo_80409" data-name="Grupo 80409" transform="translate(2.568 2.409)">
              <path id="Trazado_113988" data-name="Trazado 113988" d="M980.231,114.057c2.128,1.093,4.515,1.063,6.852,1.067,3,0,5.974.277,8.974.234a87.322,87.322,0,0,0,18.5-2.722,152.81,152.81,0,0,0,34.667-12.564c5.541-2.808,11.586-6.1,15.43-11.092.3-.39-.308-.751-.634-.489a75.929,75.929,0,0,1-13.837,9.46c-5.244,2.606-10.515,5.111-15.988,7.21-5.386,2.068-10.882,3.673-16.442,5.2a112.65,112.65,0,0,1-17.877,3.86,53.627,53.627,0,0,1-10.087.009c-3-.25-6.344.463-9.142-.885-.476-.229-.9.47-.417.716Z" transform="translate(-980.02 -88.402)" fill="#4f9638"/>
            </g>
          </g>
          <g id="Grupo_80412" data-name="Grupo 80412" transform="translate(938.56 84.544)">
            <path id="Trazado_113989" data-name="Trazado 113989" d="M901.077,86.8c1.322,4.134-.218,9.413,0,13.768.241,4.787.551,9.753,1.2,14.5.63,4.582,1.576,9.536,4.5,13.269,3.612,4.61,6.09,2.31,6.434-2.66.248-3.574-.717-12.446,1.672-14.828,2.2,10.083,3.862,20.131,10.814,28.179,1.688,1.952,6.961,8.249,9.8,5.936,2.339-1.906.042-11.7-.932-14.163,5.75,7.608,16.307,16.417,26.566,15.931,12.359-.585-8.805-18.048-12.361-20.473-3.944-2.689-8.014-5.293-12-7.654,6.874-1.021,16.813,3.582,23.176-1.055,10.135-7.39-8.583-12.729-13.806-13.517a97,97,0,0,0-12.773-1.212c5.087,0,11.026.653,15.773-1.477,7.5-3.364-1.129-6.8-5.109-8.388-8.939-3.574-19.218-2.918-28.721-2.894-3.485.009-9.991.407-13.047-1.483Z" transform="translate(-898.243 -83.078)" fill="#4f9638"/>
            <g id="Grupo_80411" data-name="Grupo 80411">
              <path id="Trazado_113990" data-name="Trazado 113990" d="M899.118,84.786c.912,2.488,2.7,4.579,4.354,6.618,1.068,1.315,2.1,2.66,3.141,3.991a.354.354,0,0,0,.222.283c.462.588.932,1.172,1.39,1.764a.3.3,0,0,0-.113.182c-.415,2.066-.049,4.378-.07,6.486-.023,2.135-.1,4.269-.149,6.4a57.1,57.1,0,0,0,.878,12.8c.064.317.605.251.572-.077a107.205,107.205,0,0,1-.258-12.967c.045-2.135.109-4.271.12-6.406a25.993,25.993,0,0,0-.175-5.4c.136.178.281.35.417.529,3.708,4.874,7.664,9.529,11.609,14.21,7.155,8.488,14.2,17.559,23.939,23.224.568.331,1.035-.506.508-.87-9.151-6.324-16.072-15.212-23.146-23.655-1.1-1.318-2.194-2.646-3.288-3.972.9.04,1.816-.013,2.673.014,1.545.049,3.085.129,4.626.224,3.32.2,6.631.485,9.926.949a113.1,113.1,0,0,1,18.733,4.073c.056.017.078-.067.025-.087-3.095-1.1-6.089-2.284-9.281-3.09q-4.87-1.228-9.839-2.006c-3.062-.482-6.145-.873-9.235-1.113-1.649-.128-3.3-.206-4.955-.262a19.3,19.3,0,0,0-3.764-.019q-3.575-4.341-7.16-8.676c-.609-.733-1.239-1.45-1.864-2.171.644-.069,1.288-.181,1.92-.237q2.261-.2,4.532-.235a76.957,76.957,0,0,1,8.8.337c5.785.556,11.332,2.105,17.191,1.892a.1.1,0,0,0,0-.2c-5.907-.4-11.6-2.406-17.505-2.958a76.367,76.367,0,0,0-9.128-.314q-2.269.058-4.533.268a17.231,17.231,0,0,0-2.273.283c-.987-1.13-1.972-2.262-2.93-3.416-1.826-2.207-3.376-4.6-5.144-6.84C899.6,83.99,898.966,84.373,899.118,84.786Z" transform="translate(-899.095 -84.205)" fill="#36753c"/>
              <path id="Trazado_113991" data-name="Trazado 113991" d="M916.272,110.866c-.424-1.847-.478-3.969-1.253-5.7a.226.226,0,0,0-.409.053c-.377,1.826.272,3.911.684,5.69.456,1.969,1.018,3.912,1.642,5.835,1.291,3.987,2.91,7.853,4.433,11.755.133.343.687.205.562-.155-1.348-3.879-2.773-7.732-4.028-11.642C917.285,114.781,916.727,112.837,916.272,110.866Z" transform="translate(-892.41 -75.152)" fill="#36753c"/>
            </g>
          </g>
          <g id="Grupo_80427" data-name="Grupo 80427" transform="translate(1501.835 208.909)">
            <path id="Trazado_114004" data-name="Trazado 114004" d="M967.172,221.33c-8.759,1.1-11.192,9.339-10.188,17.058.862,6.634,5.325,13.029,4.915,19.792-.292,4.8-5.217,3.562-8.541,2.715-4.2-1.07-8.558-2.579-12.954-2.246-3.352.254-6.744,2.045-7.773,5.469-.878,2.915.8,5.574,2.908,7.466,6.154,5.531,15.6,7.9,23.143,10.735,2.8,1.052,11.536,2.2,12.246,5.561.5,2.348-4.648,2.487-6.141,2.595-5.556.408-11.1-.318-16.65-.193-3.652.082-12.865.544-12.036,6.175.567,3.832,4.717,6.824,7.789,8.595a94.939,94.939,0,0,0,14.364,6.66,125.2,125.2,0,0,0,19.273,5.038,143.591,143.591,0,0,0,19.063,2.815c2.936.182,5.872.131,8.805.38a1.484,1.484,0,0,0,1.065,1.247,98.163,98.163,0,0,0,17.187,4.07c4.591.588,9.6.511,13.471-2.369,4.4-3.269,6.957-8.782,10.047-13.173,2.843-4.045,6.3-7.863,8.348-12.4,2.1-4.661,4.16-12.727-1.442-15.86-7.119-3.978-15.447,3.228-22.479,3.968-1.714.18-4.635.023-5.359-1.968-.493-1.36.531-2.949,1.232-4.039,2.109-3.277,5.179-5.977,8.04-8.574,4.958-4.5,10.943-9.5,7.894-17.015-3.467-8.548-14.772-8.99-21.47-4.186-3.737,2.682-6.111,6.7-7.869,10.863a40.89,40.89,0,0,0-1.848,5.5c-.842,3.175-2.918,4.714-6.093,2.669-4.848-3.123-6.467-10.458-8.341-15.473a89.984,89.984,0,0,0-7.676-16.6C984.961,228.421,977.866,219.985,967.172,221.33Z" transform="translate(-932.391 -221.188)" fill="#add031"/>
            <g id="Grupo_80421" data-name="Grupo 80421" transform="translate(33.831 13.96)">
              <path id="Trazado_114005" data-name="Trazado 114005" d="M945.582,227.6a64.664,64.664,0,0,0,3.344,14.944,108.322,108.322,0,0,0,6.136,13.183,158.2,158.2,0,0,0,16.478,24.691,163.628,163.628,0,0,0,21.182,21.38q5.4,4.581,11.14,8.785c3.978,2.913,8.431,6.514,13.33,7.6.644.144,1.232-.675.682-1.173-3.475-3.141-7.956-5.238-11.782-7.943-4-2.831-7.886-5.854-11.649-9A147.2,147.2,0,0,1,974.6,279.727a159.432,159.432,0,0,1-16-24.021c-4.748-8.692-9.241-18.567-11.048-28.368-.2-1.1-2.117-.857-1.968.267Z" transform="translate(-945.574 -226.627)" fill="#4f9638"/>
            </g>
            <g id="Grupo_80422" data-name="Grupo 80422" transform="translate(93.175 64.749)">
              <path id="Trazado_114006" data-name="Trazado 114006" d="M970.135,273.1c2.833-4.412,5.5-8.928,8.389-13.306,1.409-2.138,2.867-4.242,4.422-6.275,1.635-2.138,3.531-4.142,4.966-6.421.226-.357-.239-.867-.6-.6a27.143,27.143,0,0,0-5.258,5.595c-1.632,2.117-3.164,4.306-4.635,6.536-2.966,4.5-5.695,9.159-8.595,13.7-.528.832.788,1.594,1.314.77Z" transform="translate(-968.698 -246.418)" fill="#4f9638"/>
            </g>
            <g id="Grupo_80423" data-name="Grupo 80423" transform="translate(50.342 10.47)">
              <path id="Trazado_114007" data-name="Trazado 114007" d="M958.963,269.246c2.569-6.968,2.032-14.89.8-22.073a90.226,90.226,0,0,0-2.9-11.949c-1-3.177-2.025-7.081-4.06-9.773-.267-.354-.916-.172-.77.326.929,3.118,2.541,6.062,3.565,9.175a90.961,90.961,0,0,1,2.964,11.556c1.36,7.258,2.423,15.483.095,22.653-.064.2.239.275.311.085Z" transform="translate(-952.008 -225.267)" fill="#4f9638"/>
            </g>
            <g id="Grupo_80424" data-name="Grupo 80424" transform="translate(3.087 45.468)">
              <path id="Trazado_114008" data-name="Trazado 114008" d="M980.216,247.236c-4.178-.388-8.274-.534-12.439-1.114-3.975-.552-7.992-.762-11.959-1.383a106.214,106.214,0,0,1-12.005-2.52c-3.275-.911-6.372-3.128-9.791-3.313a.446.446,0,0,0-.223.824c6.567,4.188,14.854,5.682,22.448,6.721,3.76.513,7.55.816,11.328,1.163,4.234.387,8.41.072,12.641.305.441.023.431-.642,0-.683Z" transform="translate(-933.594 -238.905)" fill="#4f9638"/>
            </g>
            <g id="Grupo_80425" data-name="Grupo 80425" transform="translate(10.856 75.549)">
              <path id="Trazado_114009" data-name="Trazado 114009" d="M936.931,251.788c8.849,4.206,18.57,5.885,28.276,6.862a106.372,106.372,0,0,0,15.716.187c2.543-.123,5.087-.285,7.63-.4,2.281-.1,4.843.308,6.891-.793a.648.648,0,0,0,0-1.109c-1.812-.929-3.806-.552-5.8-.472-2.543.1-5.086.244-7.63.354a124.667,124.667,0,0,1-15.264-.113,130.2,130.2,0,0,1-29.339-5.654c-.662-.21-1.124.829-.48,1.134Z" transform="translate(-936.622 -250.626)" fill="#4f9638"/>
            </g>
            <g id="Grupo_80426" data-name="Grupo 80426" transform="translate(72.761 29.605)">
              <path id="Trazado_114010" data-name="Trazado 114010" d="M961.342,276.719c1.889-4.6,3.849-9.105,6.139-13.522a80.687,80.687,0,0,1,7.938-11.993,59.963,59.963,0,0,1,10.158-9.809c1.676-1.365,3.211-2.892,4.909-4.229,1.522-1.2,3.67-2,4.989-3.362a.627.627,0,0,0-.275-1.039c-3.5-.549-7.314,4.442-9.626,6.477-1.791,1.576-3.767,2.91-5.494,4.565-1.927,1.848-3.6,3.924-5.418,5.877A49.537,49.537,0,0,0,966.146,262c-2.24,4.637-3.724,9.7-5.384,14.564-.128.372.437.508.58.159Z" transform="translate(-960.744 -232.724)" fill="#4f9638"/>
            </g>
          </g>
          <g id="Grupo_80430" data-name="Grupo 80430" transform="translate(1924.793 232.779)">
            <g id="Grupo_80428" data-name="Grupo 80428" transform="translate(15.201 0)">
              <path id="Trazado_114011" data-name="Trazado 114011" d="M990.649,255.44a1.987,1.987,0,0,0,.272,1.886,1.1,1.1,0,0,0,.349.3c7.093,2.879,14.551,3.847,22.119,4.527,6.1.547,13.317,1.694,19.176-.66,1.655-.665,3.721-1.845,3.76-3.878.033-1.866-1.427-2.867-3.044-3.27a39.106,39.106,0,0,0-6.68-.76c-3.169-.221-6.323-.513-9.5-.616-4.542-.146-9.1-.4-13.643-.462a35.172,35.172,0,0,0-11.269,1.347A3.968,3.968,0,0,0,990.649,255.44Z" transform="translate(-990.513 -196.733)" fill="#4f9638"/>
              <path id="Trazado_114012" data-name="Trazado 114012" d="M999.056,240.152a35.162,35.162,0,0,0-5.615,13.568,57.043,57.043,0,0,0-.233,20.523,1.2,1.2,0,0,0,.09.241,41.8,41.8,0,0,0,10.378-14.574c.064-.149.116-.3.18-.452.375-1.24.711-2.484,1.019-3.7a52.46,52.46,0,0,0,1.535-10.309,29.691,29.691,0,0,0,.01-4.984c-.246-1.7-1.1-3.683-3.136-3.577C1001.474,236.987,1000.006,238.789,999.056,240.152Z" transform="translate(-987.58 -221.187)" fill="#4f9638"/>
              <path id="Trazado_114013" data-name="Trazado 114013" d="M999.607,249.488a1.239,1.239,0,0,0,1.091.749c9.852.624,19.679,2.112,29.554,2.3,5.046.1,14.289.328,16.647-5.392a1.318,1.318,0,0,0-.6-1.483c-5.336-3.144-12.6-1.979-18.465-1.607C1024.231,244.286,1005.055,247.1,999.607,249.488Z" transform="translate(-976.269 -210.778)" fill="#4f9638"/>
              <path id="Trazado_114014" data-name="Trazado 114014" d="M1040.852,234.588c-4.65,1-9.049,2.743-13.548,4.227-3.754,1.237-7.609,2.215-11.251,3.77-2.689,1.15-7.373,3.208-7.519,6.693a.913.913,0,0,0,.1.421c.852.672,2.838.588,3.606.59,5.1.023,10.24-1.178,15.177-2.415,2.435-.775,4.848-1.594,7.231-2.32,1.936-.59,3.891-1.127,5.823-1.722a24.928,24.928,0,0,1,2.518-.837c.616-.218,1.234-.436,1.84-.688,2.923-1.2,6.6-3.074,8.066-6.059a.65.65,0,0,0-.19-.875C1049.057,233.112,1044.886,233.725,1040.852,234.588Z" transform="translate(-962.286 -226.012)" fill="#4f9638"/>
              <path id="Trazado_114015" data-name="Trazado 114015" d="M1008.626,234.847c-3.924,5.058-4.661,13.23-5.715,18.906a21.5,21.5,0,0,0,.016,9,.808.808,0,0,0,.2-.031c1.85-.8,3.033-2.592,4.2-4.15a73.514,73.514,0,0,0,7.625-12.524c.965-2.069,5.52-17.5-1.23-15.011A11.335,11.335,0,0,0,1008.626,234.847Z" transform="translate(-971.83 -230.77)" fill="#4f9638"/>
            </g>
            <g id="Grupo_80429" data-name="Grupo 80429" transform="translate(0 8.569)">
              <path id="Trazado_114016" data-name="Trazado 114016" d="M987.306,306.292c3.067-7.809,9.48-13.94,14.969-20.087,6.005-6.724,12.842-12.542,19.789-18.242,7.4-6.072,15.187-11.507,22.935-17.133,3.516-2.551,5.826-4.935,9.188-7.689,2.5-2.045,10-6.072,7.964-8.762-1.719-2.274-16.076,10.4-19.91,13.142-8.12,5.815-16,12-23.628,18.449a186.5,186.5,0,0,0-20.5,19.579c-5.323,6.118-10.715,12.236-13.435,20.015-.585,1.678,2,2.328,2.631.726Z" transform="translate(-984.59 -234.109)" fill="#add031"/>
            </g>
          </g>
        </g>
      </g>
    </g>
  </g>
</svg>
