<svg xmlns="http://www.w3.org/2000/svg" xmlns:xlink="http://www.w3.org/1999/xlink" width="220.64" height="26.227" viewBox="0 0 220.64 26.227">
  <defs>
    <clipPath id="clip-path">
      <rect id="Rectángulo_52749" data-name="Rectángulo 52749" width="23.962" height="25.727" fill="none"/>
    </clipPath>
  </defs>
  <g id="Grupo_968583" data-name="Grupo 968583" transform="translate(-180 -684.558)">
    <path id="Trazado_126968" data-name="Trazado 126968" d="M-3871-3636.44h193.14" transform="translate(4078.5 4346.725)" fill="none" stroke="#ffa686" stroke-width="1"/>
    <g id="Grupo_84995" data-name="Grupo 84995" transform="translate(180 684.558)">
      <g id="Grupo_84994" data-name="Grupo 84994" clip-path="url(#clip-path)">
        <path id="Trazado_156376" data-name="Trazado 156376" d="M6.47,10.023C3.679,9.179.858,10.313,0,13.205l.058-.014C1.514,9.213,6.7,8.985,7.773,15.481c.019-.058.047-.094.09-.1.188-.037.3.53.692.619.414.093.916-.385,1.158-.786C10.471,13.95,9.7,11,6.47,10.023" transform="translate(0 -6.348)" fill="#64cf00"/>
        <path id="Trazado_156377" data-name="Trazado 156377" d="M.167,14.34c1.778-.429,2.571-.113,2.962.28.713.715.131,1.711,1.042,2.988,1.217,1.7,2.69,1.36,3.241.74.5-.565.371-1.423.469-1.718C6.8,10.122,1.623,10.361.167,14.34" transform="translate(-0.109 -7.496)" fill="#64cf00"/>
        <path id="Trazado_156378" data-name="Trazado 156378" d="M6.131,18.191c-.477-1.666-2.686-2.032-4.114-.607,1.331-.214,1.975.07,2.316.411.713.715.131,1.711,1.042,2.988a2.67,2.67,0,0,0,1.991,1.248,2.068,2.068,0,0,0,.567-.088c-1.1-.819-1.529-2.481-1.8-3.952" transform="translate(-1.312 -10.872)" fill="#006d00"/>
        <path id="Trazado_156379" data-name="Trazado 156379" d="M.167,14.6q.348-.084.647-.132c1.4-1.4,3.628-1.092,4.114.607.273,1.471.7,3.133,1.8,3.952,1.288-.393,1.023-1.752,1.152-2.138,1.1.389,2.055-.262,1.965-1.859a1.977,1.977,0,0,0-.556-1.366c-.06.022.274.645,0,1.2-.1.209-.316.448-.448.406-.234-.075.087-.929-.321-1.857-.223-.507-.582-.853-.663-.811s.192.479.107,1.089c-.048.344-.217.79-.395.79-.256,0-.173-.922-.824-1.687a2.7,2.7,0,0,0-1.6-.875c0,.007.625.165.77.619a.5.5,0,0,1-.072.5c-.22.181-.674-.167-1.2-.357A3.831,3.831,0,0,0,.167,14.6" transform="translate(-0.109 -7.755)" fill="#00ab00"/>
        <path id="Trazado_156380" data-name="Trazado 156380" d="M32.348,6.237c-2.55-.12-2.922-2.7-2.443-3.99C30.589.409,34.1-.515,38.611.3a8.366,8.366,0,0,1-.178,5.587c-.4.956-1.138,2.705-2.665,2.926a3.292,3.292,0,0,1-3.421-2.572" transform="translate(-19.332 0)" fill="#dada2d"/>
        <path id="Trazado_156381" data-name="Trazado 156381" d="M38.938,1.959a6.9,6.9,0,0,1-.611,3.249c-.617,1.155-1.773,2.386-3.161,2.386-.848.077-1.234-.923-.925-1.693a4.826,4.826,0,0,1-4.177-.384,2.542,2.542,0,0,0,2.5,1.995,3.294,3.294,0,0,0,3.421,2.572c1.527-.221,2.263-1.97,2.666-2.926a8.216,8.216,0,0,0,.285-5.2" transform="translate(-19.552 -1.275)" fill="#006d00"/>
        <path id="Trazado_156382" data-name="Trazado 156382" d="M38.284.7a2.715,2.715,0,0,1-2.147,2,2.062,2.062,0,0,1,1.146-1.377,2.184,2.184,0,0,0-1.227.567c-.608.519-.506.917-1.1,1.375-.418.32-1.041.564-1.225.377s.09-.851.467-1.269a2.98,2.98,0,0,1,.793-.573,4.232,4.232,0,0,0-2.219,1.465c-.411.536-.484.952-.592.932s-.223-.6-.025-1.119c.306-.806,1.165-1.07,1.12-1.159a1.825,1.825,0,0,0-1.5.771,2.013,2.013,0,0,0-.38,1.014,1.8,1.8,0,0,1,.065-2.51A2.751,2.751,0,0,0,29.814,4.7a2.552,2.552,0,0,0,4.177.383c-1.863,1.673.261,3.274,1.844,3.093C37.8,7.95,39.6,4.044,38.582.752l-.3-.05" transform="translate(-19.303 -0.457)" fill="#64cf00"/>
        <path id="Trazado_156383" data-name="Trazado 156383" d="M26.249,21.419c-.692-1.7-.26-4.694,5.087-10.313a20.513,20.513,0,0,0-4.559,4.543,4.234,4.234,0,0,1-.042-2.545,6.686,6.686,0,0,0-.551,1.87,10.5,10.5,0,0,0-.164,1.824c-4.287,7.442,2.107,6.554,1.89,13.742l3.065.076c-.079-5.549-3.833-7-4.727-9.2" transform="translate(-15.959 -7.23)" fill="#64cf00"/>
        <path id="Trazado_156384" data-name="Trazado 156384" d="M30.345,24.525a40.924,40.924,0,0,1-3.235-3.572A4.672,4.672,0,0,1,25.8,18.183C25.512,14.158,30.285,9.21,33.6,6.9a21.076,21.076,0,0,0-6.832,6.01,4.135,4.135,0,0,1-.136-.478,2.876,2.876,0,0,0-.621,1.617,16.427,16.427,0,0,0-1.016,2.185,9.074,9.074,0,0,0-.433,1.165l.03.121c-.674,4.146,3.487,4.405,3.31,10.281l3.065.076a9.992,9.992,0,0,0-.62-3.356" transform="translate(-15.945 -4.495)" fill="#00ab00"/>
        <path id="Trazado_156385" data-name="Trazado 156385" d="M29.494,16.8a6.691,6.691,0,0,0-.551,1.87,10.454,10.454,0,0,0-.164,1.8A13.341,13.341,0,0,1,29.43,19a4.408,4.408,0,0,1,.064-2.195" transform="translate(-18.717 -10.939)" fill="#006d00"/>
        <path id="Trazado_156386" data-name="Trazado 156386" d="M17.192,18.894a13.967,13.967,0,0,0-.992,2.133,9.653,9.653,0,0,0-1.534-3.615A9.8,9.8,0,0,0,11,14.274a9.228,9.228,0,0,1,3.978,4.538,9.5,9.5,0,0,1,.764,4.63c.22,3.272,3.525,3.818,3.364,9.151l.54.044a6.971,6.971,0,0,0-.35-4.658c-1.029-2.123-3.073-2.382-2.67-6.658a9.249,9.249,0,0,1,.566-2.427" transform="translate(-7.154 -9.292)" fill="#006d00"/>
        <path id="Trazado_156387" data-name="Trazado 156387" d="M30.2,10.046c-.38-.228-1.728.733-1.816,1.817a9.3,9.3,0,0,0,.173,1.174c.131.76.2,1.327,1,.242a4.213,4.213,0,0,0,.727-2.349c.034-.534.051-.8-.087-.884" transform="translate(-18.461 -6.518)" fill="#006d00"/>
        <path id="Trazado_156388" data-name="Trazado 156388" d="M31.749,10.042a4.255,4.255,0,0,0-.8,3.535,4.023,4.023,0,0,0,.946-2.628c.023-.367.1-.842-.146-.907" transform="translate(-20.066 -6.537)" fill="#00ab00"/>
        <path id="Trazado_156389" data-name="Trazado 156389" d="M9.513,55.724c.376-.288.162-.656.556-1.233.028-.042.575-.822,1.266-.794.477.02.635.41.867.311.349-.149.015-1.032.585-1.845a1.294,1.294,0,0,1,1.322-.574,1.07,1.07,0,0,1,1.367-.7c.285.147.208.394.494.669.474.459,1.395-.015,1.618,1.522a3.233,3.233,0,0,1,1.72-1.106c1.491-.279,1.723.576,3.173,1.807a1.842,1.842,0,0,1,3.137.3,2.128,2.128,0,0,1,1.7,2.159,1.466,1.466,0,0,1,1.321,2.445l-20.015.124a1.742,1.742,0,0,1-.232-2.794c.438-.282.749-.007,1.118-.289" transform="translate(-5.073 -33.081)" fill="#070a0b"/>
        <path id="Trazado_156390" data-name="Trazado 156390" d="M26.357,58.984c0,.215-.184.235-.258.522-.118.458.271.684.126.9-.187.28-.872-.051-1.51.319-.31.18-.234.3-.644.561a1.414,1.414,0,0,1-1.078.316.83.83,0,0,1-.582-.677c-.05-.478.5-.638.446-1.041-.065-.469-.844-.509-.9-.936s.645-.974,1.217-.935c.471.032.533.441,1.048.483s.67-.359,1.187-.312c.485.045.948.452.943.8" transform="translate(-14.282 -37.765)" fill="#745f69"/>
        <path id="Trazado_156391" data-name="Trazado 156391" d="M26.368,52.8c.622-.023,1.144.521.649,1.195a.917.917,0,0,1-.76.368c-.291-.034-.25-.291-.64-.464-.361-.161-.56-.014-.759-.178a.545.545,0,0,1-.007-.806c.188-.106.442.082.576-.03s-.091-.361.056-.547c.283-.359,1.093-.066.886.461" transform="translate(-16.049 -33.968)" fill="#4d3640"/>
        <path id="Trazado_156392" data-name="Trazado 156392" d="M26.961,53.634c.414-.015.761.346.431.794a.611.611,0,0,1-.506.245c-.193-.022-.166-.193-.425-.309-.24-.107-.372-.009-.5-.118a.363.363,0,0,1,0-.536c.125-.07.294.054.383-.02s-.06-.239.037-.363c.2-.254.723-.035.589.306" transform="translate(-16.803 -34.644)" fill="#745f69"/>
        <path id="Trazado_156393" data-name="Trazado 156393" d="M34.685,63.456c.107.333-.258.566-.107.777.1.136.274.071.455.256a.487.487,0,0,1-.144.81c-.222.1-.347-.036-.609.058-.223.079-.188.2-.405.272a1,1,0,0,1-.679-.06c-.185-.084-.16-.146-.427-.313s-.318-.123-.444-.232a.608.608,0,0,1-.157-.775c.155-.193.916-.3,1.071-.458.14-.143.04-.239.165-.424a.806.806,0,0,1,.751-.328.674.674,0,0,1,.531.417" transform="translate(-20.866 -41.032)" fill="#4d3640"/>
        <path id="Trazado_156394" data-name="Trazado 156394" d="M53.272,68.526c-.234-.075-.182-.45-.387-.491-.149-.03-.224.157-.477.25A1.145,1.145,0,0,1,51.256,68c-.23-.26-.322-.717-.055-.9a.753.753,0,0,1,.766.036c.271.184.2.486.387.532s.319-.265.62-.292c.422-.037,1.008.5.869.858a.543.543,0,0,1-.572.291" transform="translate(-33.193 -43.624)" fill="#745f69"/>
        <path id="Trazado_156395" data-name="Trazado 156395" d="M16.721,66.865c.219.121.242.572.007.848-.509.6-2.037.09-1.976-.291.024-.152.312-.155.382-.362s-.17-.321-.107-.488c.1-.26.828-.374.986-.188.117.138-.135.382-.014.492s.5-.136.723-.013" transform="translate(-9.593 -43.157)" fill="#745f69"/>
        <path id="Trazado_156396" data-name="Trazado 156396" d="M16.18,61.144c.191.146.049.321.25.561.258.309.643.195.812.46a.561.561,0,0,1-.243.762c-.177.067-.379-.019-.662-.14-.4-.17-.4-.289-.673-.366-.412-.116-.632.09-.814-.036-.254-.177-.189-.839.278-1.153a1.036,1.036,0,0,1,1.052-.089" transform="translate(-9.562 -39.735)" fill="#4d3640"/>
        <path id="Trazado_156397" data-name="Trazado 156397" d="M40.292,55.773c.179.351-.184,1.6.036,1.987.248.435.749.345.99.788.484.89-.729,1.433-1.4,1.02-.236-.144-.163-.312-.4-.433-.482-.241-1.225.505-1.315-.818-.022-.316.083-.346.018-.5-.152-.359-.753-.243-1.065-.628a.727.727,0,0,1,.043-.991c.272-.179.676.089.879-.09s-.126-.509.07-.773c.312-.42,1.789-.274,2.151.437" transform="translate(-24.048 -35.872)" fill="#745f69"/>
        <path id="Trazado_156398" data-name="Trazado 156398" d="M40.986,57.118c.138.271-.15,1.221.028,1.533.191.335.578.266.764.608.374.687-.562,1.106-1.084.787-.182-.111-.126-.241-.312-.334-.372-.186-.945.39-1.015-.632-.017-.244.064-.267.014-.384-.117-.277-.581-.188-.822-.485a.562.562,0,0,1,.033-.765c.21-.138.522.069.679-.07s-.1-.393.054-.6c.253-.342,1.39-.193,1.66.337" transform="translate(-24.992 -36.845)" fill="#4d3640"/>
        <path id="Trazado_156399" data-name="Trazado 156399" d="M51.06,59.805c.3.295.224.58.514.682s.446-.134.87-.068c1.366.213.531,1.8-.491,2a1.367,1.367,0,0,1-1.163-.242c-.215-.227-.063-.42-.3-.621s-.445-.09-.873-.244c-.119-.043-.666-.239-.8-.618-.3-.83,1.217-1.883,2.242-.886" transform="translate(-31.725 -38.669)" fill="#4d3640"/>
      </g>
    </g>
  </g>
</svg>
