<svg xmlns="http://www.w3.org/2000/svg" width="134" height="134" viewBox="0 0 134 134">
  <g id="Grupo_968593" data-name="Grupo 968593" transform="translate(9317 7790)">
    <circle id="Elipse_5005" data-name="Elipse 5005" cx="67" cy="67" r="67" transform="translate(-9317 -7790)" fill="#cee284"/>
    <g id="Grupo_957189" data-name="Grupo 957189" transform="translate(-9325.25 -7771.342)">
      <g id="Grupo_957190" data-name="Grupo 957190" transform="translate(35.597 1.201)">
        <path id="Trazado_157578" data-name="Trazado 157578" d="M68.668,95.483a5.844,5.844,0,0,0-.916-.176c-3.8-.131-7.624-.086-11.411-.408a30.186,30.186,0,0,1-13.8-4.376,13.846,13.846,0,0,1-6.565-8.511,12.216,12.216,0,0,1,2.353-10.656,17.8,17.8,0,0,1,1.247-1.477c1.362-1.462,1.776-1.526,3.473-.6.6,1.285.131,2.251-.806,3.185a11.323,11.323,0,0,0-1.663,2.192,8.231,8.231,0,0,0-.106,8.74,13,13,0,0,0,6.252,5.225,35.467,35.467,0,0,0,14.77,2.942q12.8.2,25.605.2a40.738,40.738,0,0,0,6.586-.553,25.288,25.288,0,0,0,12.325-5.38c4.764-3.949,5.537-9.6,1.887-14.239a18.9,18.9,0,0,0-7.264-5.5A25.327,25.327,0,0,0,88,63.9c-3.788.3-7.573.657-11.358,1-2.747.25-5.494.5-8.237.79a35.9,35.9,0,0,1-10.63-.2c-1.642-.316-3.257-.771-4.884-1.164-1.064-.586-2.177-1.1-3.183-1.771-6.173-4.133-7.03-11.454-1.9-16.835a64.227,64.227,0,0,1,4.885-4.244,48.491,48.491,0,0,1-4.1-2.809,9.091,9.091,0,0,1-3.423-6.96c-.053-1.744.545-2.408,2.291-2.437a1.867,1.867,0,0,1,1.324,1.707c0,3.168,1.812,5.115,4.424,6.452a18.774,18.774,0,0,0,12.281,1.55c5.786-1.073,11.548-2.277,17.311-3.467a21.168,21.168,0,0,0,9.212-3.934c3.407-2.724,3.6-6.527.146-9.162S84.823,18.436,80.3,19.551c-4.43,1.093-8.939,1.864-13.407,2.811A19.3,19.3,0,0,1,54.659,21.4a10.413,10.413,0,0,1-3.872-3.03,7.672,7.672,0,0,1,.075-9.62,13.169,13.169,0,0,1,8.892-5.211C65.542,2.657,71.337,1.7,77.166,1.252A12.722,12.722,0,0,1,88.847,6.214a6.927,6.927,0,0,1-.647,9.023c-.227.244-.458.485-.641.68,1.629.717,3.3,1.327,4.847,2.162a10.586,10.586,0,0,1,5.53,6.349c1.086,3.726-.182,6.806-2.9,9.39-.636.606-1.35,1.132-1.939,1.621,1.815.719,3.711,1.341,5.489,2.2a15.1,15.1,0,0,1,6.362,5.562,10.583,10.583,0,0,1-1,12.88,19.292,19.292,0,0,1-5.45,4.459c-.258.142-.5.311-.645.4,2.228,1,4.536,1.875,6.687,3.039a18.593,18.593,0,0,1,7.514,7.262,12.819,12.819,0,0,1-1.848,15.622c-3.841,4.17-8.732,6.436-14.161,7.66-1.639.37-3.327.523-4.991.784-.1.015-.182.111-.273.17H80.281l-2.776-.151-3.307.151ZM63.486,62.33c1.191-.087,3.151-.2,5.1-.378,6.5-.608,13.013-1.191,19.508-1.887a21.516,21.516,0,0,0,10.32-3.832,11.5,11.5,0,0,0,3.611-3.87c1.789-3.326,1.006-6.757-2.08-9.368A17.761,17.761,0,0,0,85.792,38.88c-4.49.561-8.906,1.694-13.369,2.488-3.464.616-6.947,1.127-10.43,1.625-.93.133-1.93-.117-2.831.094a15.837,15.837,0,0,0-9.745,6.583,6.226,6.226,0,0,0-.408,6.949,8.692,8.692,0,0,0,3.655,3.4c3.139,1.684,6.568,2.092,10.822,2.307m-1.5-43.077a20.269,20.269,0,0,0,2.288-.187q6.809-1.31,13.605-2.686a15.509,15.509,0,0,0,6.935-2.994c2.18-1.777,2.34-4.166.2-5.957a11.338,11.338,0,0,0-9.393-2.373C70.873,5.762,66.1,6.364,61.341,7a10.988,10.988,0,0,0-7,3.307c-2.319,2.528-1.952,5.408.96,7.212a12.493,12.493,0,0,0,6.682,1.734" transform="translate(-35.597 -1.201)" fill="#020203"/>
        <path id="Trazado_157579" data-name="Trazado 157579" d="M202.8,409.1l3.307-.151c0,.05.009.1.011.151Z" transform="translate(-164.203 -314.814)" fill="#939393"/>
        <path id="Trazado_157580" data-name="Trazado 157580" d="M217.138,409.1c0-.051-.006-.1-.011-.151l2.776.151Z" transform="translate(-175.219 -314.814)" fill="#6c6c6d"/>
        <path id="Trazado_157581" data-name="Trazado 157581" d="M65.112,272.931c1.627.392,3.242.847,4.884,1.164a35.9,35.9,0,0,0,10.63.2c2.743-.29,5.49-.54,8.237-.79,3.785-.345,7.57-.7,11.358-1a25.326,25.326,0,0,1,12.632,2.194,18.907,18.907,0,0,1,7.263,5.5c3.65,4.639,2.877,10.291-1.887,14.24a25.291,25.291,0,0,1-12.325,5.38,40.719,40.719,0,0,1-6.586.553q-12.8,0-25.605-.2a35.463,35.463,0,0,1-14.77-2.942A13,13,0,0,1,52.691,292a8.231,8.231,0,0,1,.106-8.74,11.318,11.318,0,0,1,1.663-2.192c.938-.934,1.411-1.9.806-3.185l.723-.531a6.3,6.3,0,0,0,2.136.458c1.163-.172,1.536-1.073,1.382-2.664l5.6-2.216m41.12,2.933c-1.394-.029-2.169.54-2.309,1.472a1.834,1.834,0,0,0,1.477,2.109,5.327,5.327,0,0,0,.721.127,14.994,14.994,0,0,1,7.283,2.836,5.2,5.2,0,0,1,2.241,3.035,1.707,1.707,0,0,0,2.068,1.236,1.76,1.76,0,0,0,1.426-2.127,8.579,8.579,0,0,0-1.357-2.958c-3.05-3.705-7.238-5.186-11.55-5.73" transform="translate(-47.819 -209.802)" fill="#5b636f"/>
        <path id="Trazado_157582" data-name="Trazado 157582" d="M94.178,81.223a19.3,19.3,0,0,0,12.238.965c4.467-.947,8.976-1.718,13.407-2.811,4.52-1.115,8.4.234,11.854,2.868s3.26,6.438-.147,9.162a21.165,21.165,0,0,1-9.212,3.935c-5.763,1.191-11.525,2.394-17.311,3.467a18.776,18.776,0,0,1-12.281-1.55c-2.611-1.338-4.425-3.285-4.424-6.452A1.868,1.868,0,0,0,86.978,89.1l.381-1.437a1.941,1.941,0,0,0,2.461-.5c.608-.752.588-1.434-.077-2.583q1.817-1.354,3.633-2.709c.275-.207.535-.434.8-.652m30.317,1.5c-1.291.237-2.6.413-3.868.733a1.794,1.794,0,0,0,.123,3.449,3.154,3.154,0,0,0,1.366-.05,7.238,7.238,0,0,1,5.19.383,1.77,1.77,0,0,0,2.424-.831,1.818,1.818,0,0,0-.9-2.481,10.016,10.016,0,0,0-4.337-1.2" transform="translate(-75.116 -61.027)" fill="#b6c7d0"/>
        <path id="Trazado_157583" data-name="Trazado 157583" d="M73.8,281.112c.154,1.591-.22,2.493-1.382,2.664a6.3,6.3,0,0,1-2.136-.458c-.034-.176-.055-.355-.1-.527a1.9,1.9,0,0,1,.867-2.362,1.923,1.923,0,0,1,2.405.4c.106.1.232.188.349.281" transform="translate(-62.11 -215.767)" fill="#030304"/>
        <path id="Trazado_157584" data-name="Trazado 157584" d="M88.205,101.886c.665,1.149.686,1.831.077,2.583a1.941,1.941,0,0,1-2.461.5c-.954-.957-1.094-1.82-.44-2.717s1.505-1,2.824-.361" transform="translate(-73.579 -78.329)" fill="#050506"/>
        <path id="Trazado_157585" data-name="Trazado 157585" d="M105.268,187.321c-4.254-.216-7.683-.624-10.822-2.307a8.691,8.691,0,0,1-3.655-3.4,6.226,6.226,0,0,1,.408-6.949,15.838,15.838,0,0,1,9.745-6.583c.9-.211,1.9.039,2.831-.094,3.483-.5,6.966-1.009,10.43-1.625,4.464-.794,8.88-1.927,13.369-2.488a17.762,17.762,0,0,1,14.158,4.115c3.087,2.611,3.869,6.043,2.08,9.368a11.5,11.5,0,0,1-3.611,3.87,21.512,21.512,0,0,1-10.32,3.832c-6.5.7-13,1.279-19.508,1.887-1.953.182-3.914.291-5.1.378m25.067-20.542c-.523.056-1.538.107-2.529.287a1.788,1.788,0,0,0-1.5,2,1.819,1.819,0,0,0,1.91,1.614c.3,0,.609-.06.914-.084,3.376-.266,6.562.044,8.986,2.834a1.8,1.8,0,0,0,2.957-1.877,5.066,5.066,0,0,0-1.169-1.61c-2.578-2.306-5.7-3.127-9.567-3.167" transform="translate(-77.38 -126.192)" fill="#909aa3"/>
        <path id="Trazado_157586" data-name="Trazado 157586" d="M119.409,31.523a12.494,12.494,0,0,1-6.682-1.733c-2.912-1.8-3.279-4.685-.96-7.212a10.986,10.986,0,0,1,7-3.307c4.764-.636,9.532-1.238,14.285-1.944a11.337,11.337,0,0,1,9.393,2.373c2.137,1.791,1.977,4.18-.2,5.957A15.51,15.51,0,0,1,135.3,28.65q-6.8,1.374-13.605,2.686a20.27,20.27,0,0,1-2.288.187m15.838-11.8c-2.07.5-4.16.942-6.215,1.511a1.7,1.7,0,0,0-1.059,2.168,1.83,1.83,0,0,0,2.068,1.27,29,29,0,0,0,2.86-.65,7.256,7.256,0,0,1,4.5.031,1.815,1.815,0,1,0,1.263-3.4c-1.081-.392-2.224-.611-3.419-.926" transform="translate(-93.018 -13.472)" fill="#5b636f"/>
        <path id="Trazado_157587" data-name="Trazado 157587" d="M280.847,287.355c4.312.545,8.5,2.025,11.55,5.73a8.58,8.58,0,0,1,1.357,2.958,1.76,1.76,0,0,1-1.426,2.127,1.707,1.707,0,0,1-2.068-1.236,5.2,5.2,0,0,0-2.241-3.035,14.994,14.994,0,0,0-7.283-2.836,5.332,5.332,0,0,1-.721-.127,1.834,1.834,0,0,1-1.477-2.109c.14-.932.915-1.5,2.309-1.472" transform="translate(-222.434 -221.293)" fill="#010102"/>
        <path id="Trazado_157588" data-name="Trazado 157588" d="M232.455,95.192a10.016,10.016,0,0,1,4.337,1.2,1.818,1.818,0,0,1,.9,2.481,1.77,1.77,0,0,1-2.424.831,7.238,7.238,0,0,0-5.19-.383,3.154,3.154,0,0,1-1.366.05,1.794,1.794,0,0,1-.123-3.449c1.27-.32,2.577-.5,3.868-.733" transform="translate(-183.076 -73.493)" fill="#020304"/>
        <path id="Trazado_157589" data-name="Trazado 157589" d="M251.514,177.007c3.872.041,6.989.861,9.567,3.167a5.065,5.065,0,0,1,1.169,1.61,1.8,1.8,0,0,1-2.957,1.877c-2.424-2.79-5.61-3.1-8.986-2.834-.305.024-.609.085-.914.084a1.819,1.819,0,0,1-1.91-1.614,1.788,1.788,0,0,1,1.5-2c.991-.181,2.005-.231,2.529-.287" transform="translate(-198.558 -136.421)" fill="#020203"/>
        <path id="Trazado_157590" data-name="Trazado 157590" d="M194.019,28.275c1.2.315,2.339.534,3.419.926a1.815,1.815,0,1,1-1.263,3.4,7.256,7.256,0,0,0-4.5-.031,29,29,0,0,1-2.86.65,1.83,1.83,0,0,1-2.068-1.27,1.7,1.7,0,0,1,1.059-2.168c2.055-.57,4.145-1.016,6.215-1.511" transform="translate(-151.791 -22.025)" fill="#020203"/>
      </g>
    </g>
  </g>
</svg>
