<svg xmlns="http://www.w3.org/2000/svg" width="134" height="134" viewBox="0 0 134 134">
  <g id="Grupo_968595" data-name="Grupo 968595" transform="translate(8810 7790)">
    <circle id="Elipse_5007" data-name="Elipse 5007" cx="67" cy="67" r="67" transform="translate(-8810 -7790)" fill="#cee284"/>
    <g id="Grupo_957195" data-name="Grupo 957195" transform="translate(-8791.752 -7772.581)">
      <g id="Grupo_957196" data-name="Grupo 957196" transform="translate(5.752 6.581)">
        <path id="Trazado_157609" data-name="Trazado 157609" d="M29.116,155.5a6.355,6.355,0,0,1,1.063-.178q14.556-.015,29.111-.014a7.764,7.764,0,0,0,1.007-.129A19.224,19.224,0,0,0,70,156.657v-2.666c-1.565-.072-3.081-.04-4.57-.227a13.9,13.9,0,0,1-2.45-27.027,22.058,22.058,0,0,1,10.512-.35,19.488,19.488,0,0,1,8.323,34.756l.644,1.046c-1.055.5-2.088,1.06-3.17,1.5-1.253.508-2.547.912-3.824,1.361-.289.009-.578.026-.867.026H36.583v1.4H31.064v-1.345H25.433v1.345H19.914q-.031-.678-.063-1.357a2.826,2.826,0,0,0-.312-.04q-6.789.008-13.579.019v-4.217H20.64a5.784,5.784,0,0,0,6.345.8c1.071-.508,2.124-1.053,3.184-1.584,1.279-.64,2.556-1.284,3.934-1.976l-4.987-2.62m43.7-12.735c-1.374,0-2.7.015-4.031-.005a1.394,1.394,0,1,1,.027-2.777c.928-.018,1.859-.027,2.787,0a4.175,4.175,0,0,1-.036,8.346c-1.538.035-3.078.04-4.616-.007a8.339,8.339,0,0,1-1.907-16.376,18.508,18.508,0,0,1,7.006-.167,13.925,13.925,0,0,1-2.12,27.709c-7.055.015-14.109,0-21.164,0H47.8v2.789h.546q10.93,0,21.861-.011a16.258,16.258,0,0,0,2.513-.2A16.73,16.73,0,0,0,76.209,130c-2.941-1.18-5.993-1.211-9.075-1.169a11.212,11.212,0,0,0-10.967,10.048,10.962,10.962,0,0,0,8.45,11.86,31.162,31.162,0,0,0,7.443.338,6.921,6.921,0,0,0,.736-13.7,19.844,19.844,0,0,0-4.682-.119,4.159,4.159,0,0,0,.077,8.259c1.521.115,3.059.023,4.624.023Z" transform="translate(-5.911 -98.152)" fill="#cacfd7"/>
        <path id="Trazado_157610" data-name="Trazado 157610" d="M82.3,89l-.644-1.046A19.488,19.488,0,0,0,73.335,53.2a22.058,22.058,0,0,0-10.512.35,13.9,13.9,0,0,0,2.45,27.027c1.489.188,3.005.155,4.57.227v2.666a19.225,19.225,0,0,1-9.706-1.474,17.825,17.825,0,0,1-6.62-5.44l-2.326-4.215H28.131V69.557H50.414v-4.33a3.262,3.262,0,0,0,.107-.416A16.557,16.557,0,0,1,56.983,53.5l.78-.616H36.1a11.147,11.147,0,0,1,.077,5.2A11.579,11.579,0,0,1,30.9,65.337a13.091,13.091,0,0,1-3,1.087,62.8,62.8,0,0,1-6.933.343,6.932,6.932,0,0,1-1.134-13.752,24.281,24.281,0,0,1,4.078-.155,4.185,4.185,0,0,1,4.153,3.706,4.029,4.029,0,0,1-3.322,4.511,35.818,35.818,0,0,1-4.962.045v-2.7c1.335,0,2.611.009,3.887,0,1.014-.009,1.638-.565,1.623-1.415a1.415,1.415,0,0,0-1.583-1.367c-.9-.013-1.8-.022-2.7,0a4.174,4.174,0,0,0-.036,8.345c1.567.041,3.137.046,4.7-.008a8.34,8.34,0,0,0,1.9-16.366,18.361,18.361,0,0,0-7.005-.178,13.924,13.924,0,0,0,2.038,27.712c7.084.018,14.169,0,21.253,0h.983v2.789h-.9q-10.538,0-21.076,0A16.719,16.719,0,0,1,20.31,44.654a22.394,22.394,0,0,1,7.705.187,10.991,10.991,0,0,1,6.6,4.655,1.342,1.342,0,0,0,.922.541c7.838.028,15.677.063,23.514,0A11.132,11.132,0,0,0,69.9,38.9a5.578,5.578,0,0,0-11.12-.624,2.9,2.9,0,0,0,2.368,3.4c1.592.234,2.877-.848,3.212-2.732h2.663A5.423,5.423,0,0,1,60.639,44.4c-3.719-.652-5.56-4.226-4.252-8.119A8.382,8.382,0,0,1,72.6,40.356c-.2,1.364-.583,2.7-.9,4.128,1.868,0,3.8.054,5.724-.043.412-.02.83-.549,1.19-.9a5.8,5.8,0,0,1,5.489-1.677,2.447,2.447,0,0,1,.583.166c2.568,1.244,5.131,2.5,7.869,3.831L88,48.147c-.8.4-1.6.813-2.407,1.206a5.628,5.628,0,0,1-6.99-1.186,2.651,2.651,0,0,0-2.179-.916c-1.971.077-3.948,0-5.921.045a1.674,1.674,0,0,0-1,.474c-.747.712-1.435,1.486-2.113,2.2,12.321-.1,20.989,5.222,24.21,17.566a21.514,21.514,0,0,1-8.307,22.615L82.3,89m3.847-43.121c-2.511-1.551-4.192-2.162-5.795.046,1.51,1.779,2.957,1.779,5.795-.046" transform="translate(-5.752 -24.961)" fill="#020303"/>
        <path id="Trazado_157611" data-name="Trazado 157611" d="M54.111,131.47v-1.4h-.983c-7.084,0-14.169.014-21.253,0a13.924,13.924,0,0,1-2.038-27.712,18.361,18.361,0,0,1,7.005.178,8.34,8.34,0,0,1-1.9,16.366c-1.566.053-3.136.049-4.7.008a4.174,4.174,0,0,1,.036-8.345c.9-.025,1.8-.016,2.7,0a1.415,1.415,0,0,1,1.583,1.367c.015.85-.609,1.406-1.623,1.415-1.276.011-2.552,0-3.887,0v2.7a35.819,35.819,0,0,0,4.962-.045,4.029,4.029,0,0,0,3.322-4.511,4.185,4.185,0,0,0-4.153-3.706,24.283,24.283,0,0,0-4.078.155,6.932,6.932,0,0,0,1.134,13.752,62.8,62.8,0,0,0,6.933-.343,13.128,13.128,0,0,0,3-1.087c.4.02.808.061,1.212.057q9.15-.079,18.3-.168v4.33H37.4v2.781H60.46l2.326,4.215H54.111" transform="translate(-15.019 -79.878)" fill="#e4e7eb"/>
        <path id="Trazado_157612" data-name="Trazado 157612" d="M137.557,295.484v-1.4h38.019c.289,0,.578-.017.867-.026a27.6,27.6,0,0,1,3.963.378,9.678,9.678,0,0,1,7.318,10.348A9.83,9.83,0,0,1,178.3,313.6c-2.155.073-4.22-.078-6.006-1.507a6.961,6.961,0,0,1,4.3-12.431,4.18,4.18,0,0,1,.107,8.359c-.461.014-.923,0-1.437,0v-2.787c.372,0,.765.008,1.157,0,.985-.025,1.618-.62,1.571-1.466a1.446,1.446,0,0,0-1.718-1.31,4.219,4.219,0,0,0-3.844,3.937,4.127,4.127,0,0,0,3.554,4.357c2.863.337,5.538-.123,7.441-2.575a6.965,6.965,0,0,0-5.529-11.3q-19.636-.03-39.271-.009H137.62l-.063-1.388" transform="translate(-106.886 -227.16)" fill="#020202"/>
        <path id="Trazado_157613" data-name="Trazado 157613" d="M72.523,13.559c-3.7,2.078-6.642,4.993-10.537,6.326-4.357,1.491-8.549.41-11.135-2.772a3.948,3.948,0,0,1-.736-1.068c-.339-.956-.979-1.147-1.923-1.113-2.024.072-4.053.022-6.131.022v-2.79c1.739,0,3.5-.076,5.252.024A2.978,2.978,0,0,0,50.476,10.6c2.14-3.466,6.366-4.76,10.757-3.6a8.721,8.721,0,0,1,2.351.867c2.947,1.817,5.845,3.713,8.939,5.7m-5.149.006c-.866-.579-1.634-1.08-2.39-1.6a13.923,13.923,0,0,0-4.63-2.321c-3.576-.85-6.636.381-8.12,3.364a1.4,1.4,0,0,0-.007,1.09,6.627,6.627,0,0,0,7,3.588c3.2-.388,5.476-2.461,8.142-4.121" transform="translate(-33.612 -6.581)" fill="#030303"/>
        <path id="Trazado_157614" data-name="Trazado 157614" d="M101.16,323.681c-1.942,1.449-3.742,2.865-5.615,4.175a7.734,7.734,0,0,1-10.929-2.1,1.354,1.354,0,0,0-1.322-.7c-1.762.046-3.525.016-5.33.016v-2.79c1.823,0,3.639-.02,5.455.013a1.155,1.155,0,0,0,1.122-.579,7.756,7.756,0,0,1,11.391-1.951c1.723,1.265,3.423,2.561,5.229,3.915m-4.465.127c-1.142-.842-1.955-1.5-2.823-2.071a4.97,4.97,0,0,0-7,1.507.954.954,0,0,0-.029.824,4.675,4.675,0,0,0,5.377,2.2,30.683,30.683,0,0,0,4.473-2.459" transform="translate(-61.159 -245.601)" fill="#030302"/>
        <path id="Trazado_157615" data-name="Trazado 157615" d="M47.579,247.869l4.987,2.62c-1.377.692-2.655,1.335-3.934,1.976-1.06.531-2.113,1.076-3.184,1.583a5.783,5.783,0,0,1-6.345-.8,3.071,3.071,0,0,0-3.072-1.411c-1.985.117-3.981.03-6.009.03v-2.79c2.36,0,4.7.023,7.035-.022a1.907,1.907,0,0,0,1.185-.486c2.648-2.568,4.767-2.91,8.072-1.251.41.206.843.369,1.265.552M40.4,250.481c1.633,2.02,3.489,1.611,5.768-.067-2.882-1.765-4.268-1.759-5.768.067" transform="translate(-24.374 -190.517)" fill="#030302"/>
        <rect id="Rectángulo_52998" data-name="Rectángulo 52998" width="13.868" height="2.689" transform="translate(33.538 19.574)"/>
        <path id="Trazado_157616" data-name="Trazado 157616" d="M5.96,294.2q6.789-.01,13.579-.019a2.844,2.844,0,0,1,.312.041l.063,1.357v1.341H5.96Z" transform="translate(-5.911 -227.258)"/>
        <path id="Trazado_157617" data-name="Trazado 157617" d="M89.642,295.757v-1.345h5.631V297.1H89.7c-.02-.44-.041-.891-.061-1.341" transform="translate(-70.121 -227.433)"/>
        <path id="Trazado_157618" data-name="Trazado 157618" d="M210.788,152.31v2.768c-1.565,0-3.1.093-4.624-.023a4.159,4.159,0,0,1-.077-8.259,19.844,19.844,0,0,1,4.682.119,6.921,6.921,0,0,1-.736,13.7,31.164,31.164,0,0,1-7.443-.338,10.962,10.962,0,0,1-8.45-11.86,11.212,11.212,0,0,1,10.967-10.048c3.082-.042,6.135-.012,9.075,1.169a16.73,16.73,0,0,1-3.485,32.079,16.257,16.257,0,0,1-2.513.2q-10.931.024-21.861.011h-.546v-2.789h.955c7.055,0,14.11.012,21.164,0a13.925,13.925,0,0,0,2.12-27.709,18.507,18.507,0,0,0-7.006.167,8.339,8.339,0,0,0,1.907,16.376c1.537.047,3.078.042,4.616.007a4.175,4.175,0,0,0,.036-8.346c-.928-.03-1.858-.021-2.787,0a1.394,1.394,0,1,0-.027,2.777c1.328.02,2.657.005,4.031.005" transform="translate(-143.885 -107.694)" fill="#020202"/>
        <path id="Trazado_157620" data-name="Trazado 157620" d="M332.138,91.867c-2.838,1.825-4.285,1.826-5.795.046,1.6-2.208,3.284-1.6,5.795-.046" transform="translate(-251.741 -70.951)" fill="#9ccf65"/>
        <path id="Trazado_157621" data-name="Trazado 157621" d="M100.546,22.8c-2.666,1.661-4.944,3.733-8.142,4.121a6.627,6.627,0,0,1-7-3.588,1.4,1.4,0,0,1,.007-1.09c1.484-2.983,4.544-4.214,8.12-3.364a13.922,13.922,0,0,1,4.63,2.321c.755.52,1.523,1.021,2.39,1.6" transform="translate(-66.784 -15.813)" fill="#b2da7d"/>
        <path id="Trazado_157622" data-name="Trazado 157622" d="M125.723,333.048a30.686,30.686,0,0,1-4.473,2.459,4.675,4.675,0,0,1-5.377-2.2.954.954,0,0,1,.029-.824,4.97,4.97,0,0,1,7-1.507c.868.573,1.681,1.229,2.823,2.071" transform="translate(-90.187 -254.842)" fill="#b1d97d"/>
        <path id="Trazado_157623" data-name="Trazado 157623" d="M74.63,259.714c1.5-1.826,2.886-1.832,5.768-.067-2.279,1.678-4.135,2.086-5.768.067" transform="translate(-58.602 -199.751)" fill="#9ccf65"/>
      </g>
    </g>
  </g>
</svg>
