<svg xmlns="http://www.w3.org/2000/svg" width="134" height="134" viewBox="0 0 134 134">
  <g id="Grupo_968592" data-name="Grupo 968592" transform="translate(9570 7790)">
    <circle id="Elipse_5004" data-name="Elipse 5004" cx="67" cy="67" r="67" transform="translate(-9570 -7790)" fill="#cee284"/>
    <g id="Grupo_957182" data-name="Grupo 957182" transform="translate(-9550.955 -7771.666)">
      <g id="Grupo_957184" data-name="Grupo 957184" transform="translate(5.955 6.666)">
        <path id="Trazado_157551" data-name="Trazado 157551" d="M27.964,143.185,26.9,140.715l7.549-3.243c-.622-.62-1.177-1.231-1.8-1.757-.15-.125-.567-.028-.815.077-2.485,1.046-4.96,2.115-7.438,3.178-.124.053-.248.1-.441.184L22.877,136.7l7.638-3.282c-.673-.627-1.255-1.216-1.9-1.731-.142-.114-.517-.03-.742.064-2.51,1.056-5.012,2.132-7.517,3.2-.123.053-.247.1-.434.179l-1.066-2.449,7.619-3.274a22.117,22.117,0,0,1-2.316-2.258,9.252,9.252,0,0,0-6.687-3.483c-3.422-.431-6.8-1.193-10.2-1.8a1.353,1.353,0,0,1-.129-2.684c2.568-.73,5.132-1.478,7.707-2.184a1.274,1.274,0,0,0,1.023-1.005c.689-2.522,1.422-5.031,2.146-7.543.271-.94.76-1.386,1.47-1.31.824.089,1.143.634,1.282,1.408q1.208,6.743,2.469,13.476a1.339,1.339,0,0,0,.265.673c1.556,1.594,3.133,3.167,4.8,4.844l3.25-7.557,2.471,1.063c-1.132,2.639-2.216,5.222-3.354,7.781a.966.966,0,0,0,.273,1.35,17.4,17.4,0,0,1,1.365,1.413L35.578,124l2.455,1.049c-.206.506-.394.985-.6,1.457-.93,2.172-1.855,4.346-2.806,6.508a.736.736,0,0,0,.173,1.012c.516.456.965.988,1.531,1.58l3.262-7.588,2.467,1.053c-.5,1.176-.984,2.315-1.471,3.454-.645,1.508-1.277,3.021-1.949,4.517a.735.735,0,0,0,.186,1.009c.514.457.968.982,1.528,1.562l3.259-7.584L46.08,133.1c-.885,2.076-1.756,4.108-2.617,6.146-.334.79-1,1.661-.866,2.366s1.092,1.261,1.692,1.878c.134.138.284.26.476.433,1.488-1.494,2.955-2.975,4.431-4.447,2.328-2.321,5.373-1.832,6.864,1.111.389.768.717,1.566,1.066,2.353.214.481.5.541.757.076.421-.773.783-1.579,1.195-2.421-2.11-.679-3.281-1.994-3.257-4.135.021-1.861,1.153-3.158,3.271-3.857l-1.068-2.805a7.771,7.771,0,0,1-6.843,1.041,32.167,32.167,0,0,1-4.36-2.073,1.2,1.2,0,0,1-.57-1.517,20.339,20.339,0,0,1,10.438-12.555c2.567-1.306,5.655-1.172,8.771.142-.084-.393-.127-.732-.23-1.052a12.611,12.611,0,0,0-6.783-7.857c-1.578-.756-1.736-1.419-.641-2.822q2.264-2.9,4.533-5.8c.9-1.15,1.554-1.211,2.62-.2a17.777,17.777,0,0,1,5.524,10.784c.025.188.059.374.1.655.247-.16.427-.264.593-.386A11.8,11.8,0,0,1,78.02,105.8c1.7-.04,3.4-.022,5.106-.011a1.378,1.378,0,0,1,1.542,1.629,12.146,12.146,0,0,1-3.88,8.55l.707.535a20.907,20.907,0,0,1,7.357,10.313c.394,1.188.191,1.663-.914,2.23q-1.187.61-2.381,1.208c-2.856,1.43-5.217,1.321-8.335-.426-.186.453-.377.895-.55,1.343s-.343.929-.512,1.391c2.29.954,3.293,2.221,3.264,4.08-.028,1.821-1.084,3.152-3.266,3.962.42.842.819,1.678,1.261,2.49.064.119.327.174.5.182a7.3,7.3,0,0,1,4.025,1.45c.723.521,1.48.995,2.2,1.52a1.269,1.269,0,0,1,.407,1.893c-1.664,2.67-3.26,5.39-5.067,7.961a7.963,7.963,0,0,1-11.218,1.653c-.2-.149-.393-.305-.642-.5a8.107,8.107,0,0,1-12.1-1.393c-3.679,3.8-8.054,4.164-12.765,2.7a20.428,20.428,0,0,1-3.8-1.685,3.938,3.938,0,0,1-.9-6.272c.77-.807,1.572-1.584,2.364-2.371.771-.767,1.547-1.529,2.463-2.433-.742-.7-1.437-1.4-2.193-2.034-.154-.128-.566-.053-.808.049-2.611,1.1-5.213,2.225-7.9,3.38l-1.071-2.469,7.545-3.235c-.639-.641-1.211-1.265-1.847-1.814-.126-.109-.52.021-.756.122-2.607,1.107-5.208,2.229-7.893,3.383m34.611-41.764L60.53,103.96a15.777,15.777,0,0,1,7.03,8.271l.339-.085q.012-1.081.025-2.162a14.985,14.985,0,0,0-4.092-10.251l-1.257,1.689m7.55,15.056c.864.008,1.728.038,2.591.019a9.382,9.382,0,0,0,9.157-8.022c-1.3,0-2.521-.019-3.743,0a9.338,9.338,0,0,0-8.65,6.356l-.456,1.644h1.1M67.28,151.342a15.854,15.854,0,0,1-2-.086,5.1,5.1,0,0,1-3.828-2.8,4.169,4.169,0,0,0-3.386-2.4,3.34,3.34,0,0,0,0,.42,11.469,11.469,0,0,1-.758,6.625.828.828,0,0,0,.045.614,5.35,5.35,0,0,0,7.913,1.908,2.67,2.67,0,0,0,.347-.215c1.616-1.369,2.383-1.374,3.976-.017a5.36,5.36,0,0,0,7.867-1.021c.7-1,1.323-2.059,1.975-3.094.723-1.147,1.439-2.3,2.2-3.511-.635-.426-1.192-.835-1.783-1.187a4.071,4.071,0,0,0-3.684-.323,4.459,4.459,0,0,0-2.391,2.21,5.081,5.081,0,0,1-4.823,2.853c-.556,0-1.113.013-1.669.02m4.353-27.667a15.956,15.956,0,0,1,6.113,3.147c2.935,2.552,5.484,1.964,8.29.07a18.005,18.005,0,0,0-7.188-8.941.816.816,0,0,0-.667-.11,14.539,14.539,0,0,1-7.219,1.37,2.875,2.875,0,0,0-.5-.026,7.369,7.369,0,0,1-5.739-1.631,6.464,6.464,0,0,0-5.125-.969c-2.228.329-3.912,1.691-5.523,3.119a17.5,17.5,0,0,0-4.9,7.278c.651.334,1.237.65,1.836.94a5.264,5.264,0,0,0,5.878-.628c.465-.355.906-.744,1.383-1.081a16.062,16.062,0,0,1,13.358-2.539m-3.009,24.938a2.366,2.366,0,0,0,2.593-1.108,8.091,8.091,0,0,1,3.544-3.594c-2.91-5.322-2.31-10.565.342-15.864l-2.969-1.325a13.089,13.089,0,0,0-11.961,1.416c2.613,5.221,3.2,10.452.3,15.78a7.954,7.954,0,0,1,3.592,3.652,2.1,2.1,0,0,0,1.887,1.058c.891.024,1.784-.008,2.676-.015m-20.4,8.065a7.653,7.653,0,0,0,7.218-6.7,13.02,13.02,0,0,0-2.035-8.609,1.252,1.252,0,0,0-2.069-.232q-5.671,5.631-11.3,11.3a1.3,1.3,0,0,0,.311,2.173,15.342,15.342,0,0,0,7.877,2.071m-27.8-35.145-1.245-6.849a10.829,10.829,0,0,0-.89,2.6,2.328,2.328,0,0,1-2.1,2.11,24.739,24.739,0,0,0-2.639.768l.043.127,6.836,1.242m39.307,13.944-.362-.2c-.266.322-.711.622-.752.97a2.026,2.026,0,0,0,.4,1.332c.3.4.671.213.7-.291.04-.6.01-1.2.01-1.807m15.779.006a13.427,13.427,0,0,0,.027,1.728c.024.182.445.5.551.452a1.134,1.134,0,0,0,.561-1.416.866.866,0,0,0-1.139-.764" transform="translate(-6.005 -76.327)" fill="#030303"/>
        <path id="Trazado_157552" data-name="Trazado 157552" d="M7.525,26.6a20.1,20.1,0,0,0-.749-1.983A6.713,6.713,0,0,1,7.063,17.7a1.727,1.727,0,0,0,.253-.981,6.787,6.787,0,0,1,6.094-7.377,1.777,1.777,0,0,0,1.024-.52,6.647,6.647,0,0,1,7.659-1.538,1.293,1.293,0,0,0,1.232-.011,6.539,6.539,0,0,1,7.745,1.7,1.04,1.04,0,0,0,1.043.42,6.4,6.4,0,0,1,5.438,2.024c.361.375.678.708,1.253.641a1.272,1.272,0,0,1,.572.108c1.85.711,3.768,1.223,5.63,1.887A5.433,5.433,0,0,1,47.938,16.8a.967.967,0,0,0,1.024.594q7.073-.032,14.146-.005a5.792,5.792,0,0,0,4.232-1.666,8.109,8.109,0,0,1,5.727-2.353,3.815,3.815,0,0,1,2.063,7.062c-1.186.76-1.181,1.176.023,1.945a3.82,3.82,0,0,1-2.022,7.053,7.786,7.786,0,0,1-5.549-2.15A6.593,6.593,0,0,0,62.665,25.4c-4.547.056-9.1.025-13.643.008a1.051,1.051,0,0,0-1.1.611,6.567,6.567,0,0,1-5.337,3.408,1.648,1.648,0,0,0-.7.173,7.28,7.28,0,0,1-3.522,1.182.914.914,0,0,0-.533.316,6.736,6.736,0,0,1-5.908,2.32.94.94,0,0,0-.683.262c-.5.554-1.035.976-1.816.609-.751-.353-.864-.964-.737-1.748a2.665,2.665,0,0,0-2.433-3.1c-1.134-.127-1.422-.417-1.547-1.558a2.68,2.68,0,0,0-5.345.042c-.111,1.073-.439,1.4-1.5,1.513a2.678,2.678,0,0,0-2.515,2.558,1.384,1.384,0,0,1-1.64,1.447,6.719,6.719,0,0,1-6.4-6.75l.224-.091m5.3,3.9c1.291-2.317,1.294-2.311,3.7-3.554a1.074,1.074,0,0,0,.421-.548,5.372,5.372,0,0,1,10.178-.015,1.245,1.245,0,0,0,.642.641,5.706,5.706,0,0,1,3.2,2.9,1.492,1.492,0,0,0,.821.681,3.755,3.755,0,0,0,4.234-1.584,2.059,2.059,0,0,1,1.857-.982,6.145,6.145,0,0,0,2.5-.729,3.81,3.81,0,0,1,1.851-.579,3.948,3.948,0,0,0,3.824-4.721,3.325,3.325,0,0,1-.019-1.156,4.035,4.035,0,0,0-4.006-4.827,2.852,2.852,0,0,1-1.446-.457,4.289,4.289,0,0,0-2.821-.838,1.637,1.637,0,0,1-1.672-.839,3.867,3.867,0,0,0-4.5-1.683c-1.13.3-1.481.161-2.068-.819a3.869,3.869,0,0,0-5.626-1.353,1.888,1.888,0,0,1-2.421-.024,3.817,3.817,0,0,0-5.328,1.009,2.109,2.109,0,0,1-2.074,1.033,3.918,3.918,0,0,0-3.962,4.79,2.062,2.062,0,0,1-.5,1.99,3.824,3.824,0,0,0-.06,5.059,2.234,2.234,0,0,1,.522,2.212A3.778,3.778,0,0,0,12.822,30.5m35.937-7.761h.955c4.269,0,8.539.052,12.807-.019a9.147,9.147,0,0,1,6.9,2.611,5.19,5.19,0,0,0,3.571,1.419,1.127,1.127,0,0,0,1.215-.825,1.046,1.046,0,0,0-.592-1.331,3.57,3.57,0,0,1-.041-6.41,1.6,1.6,0,0,0,.6-1.29c-.044-.605-.6-.878-1.245-.847a5.486,5.486,0,0,0-3.685,1.564,8.6,8.6,0,0,1-6.363,2.462c-4.38-.041-8.761-.012-13.142-.012h-.984Z" transform="translate(-5.955 -6.666)" fill="#030202"/>
        <path id="Trazado_157553" data-name="Trazado 157553" d="M25.808,312.769l-1.667-2.532,2.234-1.481c.673,1.007,1.319,1.978,1.971,2.945a1.083,1.083,0,0,0,1.866-.016c.652-.966,1.3-1.937,1.969-2.94l2.225,1.488-1.513,2.292a14.123,14.123,0,0,1,1.558,2.7,3.916,3.916,0,0,1-3.643,4.975c-.919.039-1.841.016-2.762.009a4.006,4.006,0,0,1-2.617-7.143c.1-.09.215-.173.376-.3m3.448,2.095v0c-.444,0-.89-.022-1.332,0a1.324,1.324,0,0,0-1.325,1.325,1.308,1.308,0,0,0,1.314,1.334c.915.035,1.833.037,2.747,0a1.327,1.327,0,0,0,.012-2.653c-.47-.034-.943-.006-1.415-.006" transform="translate(-19.892 -241.206)" fill="#020202"/>
        <path id="Trazado_157554" data-name="Trazado 157554" d="M337.695,81.176l2.226,1.486-1.51,2.291a14.019,14.019,0,0,1,1.559,2.695,3.916,3.916,0,0,1-3.63,4.982c-.918.04-1.84.017-2.761.009a4.029,4.029,0,0,1-3.893-2.624,3.975,3.975,0,0,1,1.266-4.514c.1-.09.216-.171.384-.3-.281-.424-.552-.833-.823-1.242s-.548-.831-.85-1.289l2.228-1.488c.67,1,1.315,1.973,1.966,2.94a1.079,1.079,0,0,0,1.865,0c.653-.966,1.3-1.936,1.972-2.941m-2.947,8.782c.472,0,.946.026,1.415-.006a1.322,1.322,0,0,0,1.3-1.351,1.3,1.3,0,0,0-1.259-1.3c-.942-.041-1.888-.042-2.83,0a1.3,1.3,0,0,0-1.257,1.3,1.323,1.323,0,0,0,1.3,1.35c.442.031.888.006,1.332.006" transform="translate(-257.105 -64.517)" fill="#020202"/>
        <path id="Trazado_157555" data-name="Trazado 157555" d="M169.587,133.1l-1.658-2.515,2.22-1.5c.655.982,1.295,1.945,1.938,2.905A1.093,1.093,0,0,0,174,132c.636-.945,1.267-1.894,1.949-2.915l2.223,1.477-1.651,2.533a4.05,4.05,0,0,1,1.718,4.54,3.964,3.964,0,0,1-3.676,2.9c-.919.031-1.84.016-2.761.007a4.042,4.042,0,0,1-3.875-2.652,3.978,3.978,0,0,1,1.242-4.451c.124-.109.255-.21.415-.342m3.438,4.759c.5,0,1,.038,1.5-.009a1.292,1.292,0,0,0,1.195-1.359,1.234,1.234,0,0,0-1.188-1.275,25.313,25.313,0,0,0-2.913-.008,1.292,1.292,0,0,0-1.24,1.318,1.313,1.313,0,0,0,1.233,1.328c.468.04.943.008,1.415.006" transform="translate(-131.526 -101.709)" fill="#020202"/>
        <path id="Trazado_157556" data-name="Trazado 157556" d="M256.673,250.992c-.892.008-1.784.04-2.676.015a2.1,2.1,0,0,1-1.887-1.058,7.954,7.954,0,0,0-3.592-3.652c2.908-5.328,2.318-10.559-.3-15.78a13.089,13.089,0,0,1,11.961-1.416,70.655,70.655,0,0,1-.465,10.705,50.806,50.806,0,0,1-3.046,11.185M258.4,238.3l-.056-.008c0-.222.016-.446,0-.667A3.1,3.1,0,0,0,256.1,235a2.7,2.7,0,0,0-2.57,1.2,3.9,3.9,0,0,0-.537,2.551,3.078,3.078,0,0,0,2.448,2.875,2.847,2.847,0,0,0,2.757-2.109,9.01,9.01,0,0,0,.2-1.219" transform="translate(-194.056 -178.706)" fill="#f8ddb0"/>
        <path id="Trazado_157557" data-name="Trazado 157557" d="M221.5,193.374a16.062,16.062,0,0,0-13.358,2.538c-.478.337-.918.726-1.383,1.081a5.264,5.264,0,0,1-5.878.628c-.6-.29-1.185-.606-1.836-.94a17.5,17.5,0,0,1,4.9-7.278c1.611-1.428,3.295-2.79,5.523-3.119a6.464,6.464,0,0,1,5.125.969,7.371,7.371,0,0,0,5.739,1.631,2.856,2.856,0,0,1,.5.026c.031.217.06.434.093.65q.288,1.907.578,3.814" transform="translate(-155.87 -146.026)" fill="#e27b6d"/>
        <path id="Trazado_157558" data-name="Trazado 157558" d="M164.744,310.533a15.343,15.343,0,0,1-7.877-2.071,1.3,1.3,0,0,1-.311-2.173q5.633-5.668,11.3-11.3a1.252,1.252,0,0,1,2.069.232,13.021,13.021,0,0,1,2.035,8.609,7.653,7.653,0,0,1-7.218,6.7m2.659-6.7a2,2,0,1,0-2.01-2.021,2.027,2.027,0,0,0,2.01,2.021" transform="translate(-122.528 -230.182)" fill="#d2cbbf"/>
        <path id="Trazado_157559" data-name="Trazado 157559" d="M297.149,198.053q-.289-1.907-.578-3.814c-.033-.216-.062-.433-.093-.65a14.54,14.54,0,0,0,7.219-1.37.815.815,0,0,1,.667.11,18.006,18.006,0,0,1,7.188,8.941c-2.807,1.895-5.355,2.482-8.291-.069a15.956,15.956,0,0,0-6.113-3.147" transform="translate(-231.522 -150.704)" fill="#c46a5f"/>
        <path id="Trazado_157560" data-name="Trazado 157560" d="M273.024,323.5c.556-.007,1.113-.024,1.669-.02a5.081,5.081,0,0,0,4.823-2.853,4.459,4.459,0,0,1,2.391-2.21,4.071,4.071,0,0,1,3.684.323c.591.352,1.148.762,1.783,1.187-.758,1.212-1.473,2.363-2.2,3.511-.652,1.036-1.271,2.1-1.976,3.094a5.36,5.36,0,0,1-7.867,1.021c-1.594-1.356-2.361-1.352-3.976.017a2.715,2.715,0,0,1-.347.215c.074-.2.131-.409.223-.6.592-1.231,1.192-2.458,1.789-3.686" transform="translate(-211.749 -248.485)" fill="#c46a5f"/>
        <path id="Trazado_157561" data-name="Trazado 157561" d="M289.852,156.775a9.337,9.337,0,0,1,8.65-6.356c1.222-.023,2.445,0,3.743,0a9.381,9.381,0,0,1-9.157,8.022c-.863.019-1.727-.011-2.591-.019l-.645-1.644" transform="translate(-226.377 -118.269)" fill="#77b55a"/>
        <path id="Trazado_157562" data-name="Trazado 157562" d="M245.248,323.84c-.6,1.228-1.2,2.455-1.789,3.686-.092.192-.15.4-.223.6a5.35,5.35,0,0,1-7.913-1.909.83.83,0,0,1-.045-.613,11.47,11.47,0,0,0,.758-6.625,3.391,3.391,0,0,1,0-.42,4.168,4.168,0,0,1,3.386,2.4,5.1,5.1,0,0,0,3.828,2.8,15.816,15.816,0,0,0,2,.086" transform="translate(-183.974 -248.825)" fill="#e17a6d"/>
        <path id="Trazado_157563" data-name="Trazado 157563" d="M286.018,253.956a50.822,50.822,0,0,0,3.046-11.185,70.657,70.657,0,0,0,.465-10.705l2.969,1.325c-2.652,5.3-3.252,10.542-.342,15.864a8.091,8.091,0,0,0-3.544,3.594,2.366,2.366,0,0,1-2.593,1.107" transform="translate(-223.4 -181.67)" fill="#f1cc86"/>
        <path id="Trazado_157564" data-name="Trazado 157564" d="M257.217,127.461q-.012,1.081-.025,2.162l-.339.085a15.778,15.778,0,0,0-7.03-8.271l2.045-2.539a41.842,41.842,0,0,1,4.878,7.947,4.018,4.018,0,0,0,.471.615" transform="translate(-195.298 -93.806)" fill="#bd8b57"/>
        <path id="Trazado_157565" data-name="Trazado 157565" d="M264.319,121.6a4.02,4.02,0,0,1-.471-.615,41.841,41.841,0,0,0-4.878-7.947l1.257-1.689a14.985,14.985,0,0,1,4.092,10.251" transform="translate(-202.4 -87.942)" fill="#956846"/>
        <path id="Trazado_157566" data-name="Trazado 157566" d="M46.548,185.07l-6.836-1.242-.043-.126a24.691,24.691,0,0,1,2.639-.768,2.328,2.328,0,0,0,2.1-2.11,10.823,10.823,0,0,1,.89-2.6l1.245,6.849" transform="translate(-32.131 -139.864)" fill="#cdc7bb"/>
        <path id="Trazado_157567" data-name="Trazado 157567" d="M242.339,270.513c0,.6.031,1.207-.009,1.807-.034.5-.4.689-.7.291a2.027,2.027,0,0,1-.4-1.332c.041-.348.486-.649.752-.971l.362.2" transform="translate(-188.615 -211.363)" fill="#603c23"/>
        <path id="Trazado_157568" data-name="Trazado 157568" d="M316.762,271.154a.866.866,0,0,1,1.139.764,1.134,1.134,0,0,1-.561,1.416c-.106.047-.527-.27-.551-.452a13.432,13.432,0,0,1-.027-1.728" transform="translate(-247.259 -211.997)" fill="#402317"/>
        <path id="Trazado_157569" data-name="Trazado 157569" d="M288.268,178.884l.645,1.644h-1.1l.456-1.644" transform="translate(-224.793 -140.379)" fill="#91c67a"/>
        <path id="Trazado_157570" data-name="Trazado 157570" d="M22.081,39.766a3.778,3.778,0,0,1-2.752-4.393,2.234,2.234,0,0,0-.521-2.212,3.824,3.824,0,0,1,.06-5.059,2.062,2.062,0,0,0,.5-1.99,3.918,3.918,0,0,1,3.961-4.79A2.108,2.108,0,0,0,25.4,20.289,3.817,3.817,0,0,1,30.73,19.28a1.888,1.888,0,0,0,2.421.023,3.869,3.869,0,0,1,5.626,1.354c.587.98.938,1.119,2.068.819a3.866,3.866,0,0,1,4.5,1.683A1.637,1.637,0,0,0,47.022,24a4.291,4.291,0,0,1,2.822.838,2.848,2.848,0,0,0,1.446.457,4.035,4.035,0,0,1,4.005,4.827,3.325,3.325,0,0,0,.019,1.156A3.948,3.948,0,0,1,51.49,36a3.812,3.812,0,0,0-1.851.579,6.145,6.145,0,0,1-2.5.729,2.059,2.059,0,0,0-1.857.982,3.755,3.755,0,0,1-4.234,1.584,1.493,1.493,0,0,1-.821-.681,5.707,5.707,0,0,0-3.2-2.9,1.245,1.245,0,0,1-.642-.641,5.372,5.372,0,0,0-10.178.015,1.077,1.077,0,0,1-.421.548c-2.408,1.242-2.411,1.236-3.7,3.554" transform="translate(-15.214 -15.934)" fill="#966846"/>
        <path id="Trazado_157571" data-name="Trazado 157571" d="M197.4,55.3V52.621h.984c4.38,0,8.762-.03,13.142.012a8.6,8.6,0,0,0,6.363-2.462,5.486,5.486,0,0,1,3.685-1.564c.641-.031,1.2.242,1.245.847a1.6,1.6,0,0,1-.6,1.29,3.57,3.57,0,0,0,.041,6.41,1.046,1.046,0,0,1,.592,1.331,1.127,1.127,0,0,1-1.215.825,5.19,5.19,0,0,1-3.571-1.419,9.147,9.147,0,0,0-6.9-2.611c-4.268.071-8.538.019-12.807.019Z" transform="translate(-154.595 -39.228)" fill="#f2cd86"/>
        <path id="Trazado_157572" data-name="Trazado 157572" d="M38.607,336.069c.472,0,.946-.028,1.415.006a1.327,1.327,0,0,1-.012,2.653c-.914.04-1.833.037-2.747,0A1.308,1.308,0,0,1,35.95,337.4a1.324,1.324,0,0,1,1.325-1.325c.442-.027.888,0,1.332,0v0" transform="translate(-29.244 -262.411)" fill="#75b259"/>
        <path id="Trazado_157573" data-name="Trazado 157573" d="M344.084,111.114c-.444,0-.89.025-1.332-.006a1.323,1.323,0,0,1-1.3-1.35,1.3,1.3,0,0,1,1.257-1.3c.942-.042,1.888-.042,2.83,0a1.3,1.3,0,0,1,1.259,1.3,1.322,1.322,0,0,1-1.3,1.351c-.47.032-.943.006-1.415.006" transform="translate(-266.44 -85.673)" fill="#75b259"/>
        <path id="Trazado_157574" data-name="Trazado 157574" d="M182.365,159.006c-.472,0-.947.034-1.415-.007a1.313,1.313,0,0,1-1.233-1.328,1.292,1.292,0,0,1,1.24-1.318,25.317,25.317,0,0,1,2.913.008,1.234,1.234,0,0,1,1.188,1.275A1.292,1.292,0,0,1,183.863,159c-.5.047-1,.009-1.5.01" transform="translate(-140.867 -122.857)" fill="#75b259"/>
        <path id="Trazado_157575" data-name="Trazado 157575" d="M274.926,261.607a9.023,9.023,0,0,1-.2,1.219,2.847,2.847,0,0,1-2.757,2.109,3.078,3.078,0,0,1-2.448-2.875,3.9,3.9,0,0,1,.537-2.551,2.7,2.7,0,0,1,2.57-1.2,3.1,3.1,0,0,1,2.238,2.624c.018.221,0,.444,0,.667l.056.008" transform="translate(-210.586 -202.009)" fill="#030202"/>
        <path id="Trazado_157576" data-name="Trazado 157576" d="M199.682,322.143a2,2,0,1,1,2-2.029,2.029,2.029,0,0,1-2,2.029" transform="translate(-154.808 -248.495)" fill="#040303"/>
      </g>
    </g>
  </g>
</svg>
