<svg xmlns="http://www.w3.org/2000/svg" width="134" height="134" viewBox="0 0 134 134">
  <g id="Grupo_968594" data-name="Grupo 968594" transform="translate(9065 7790)">
    <circle id="Elipse_5006" data-name="Elipse 5006" cx="67" cy="67" r="67" transform="translate(-9065 -7790)" fill="#cee284"/>
    <g id="Grupo_957192" data-name="Grupo 957192" transform="translate(-9043.168 -7768.341)">
      <g id="Grupo_957193" data-name="Grupo 957193" transform="translate(0 0.684)">
        <path id="Trazado_157592" data-name="Trazado 157592" d="M76.461,139.376c-.182,1.09-.419,1.314-1.631,1.326-3.715.038-7.43.018-11.144.092a20.8,20.8,0,0,0-3.443.438c-.629.12-1.446.284-1.428,1.136.016.792.793.908,1.4,1.063.953.244,1.934.387,2.871.677a8.894,8.894,0,0,1,2.211.97,3.64,3.64,0,0,1,.294,5.992,12.38,12.38,0,0,1-5.892,2.406c-3.111.525-6.256.843-9.386,1.257a4.378,4.378,0,0,0-.607.169H39.591a1.2,1.2,0,0,0-.345-.169c-2.876-.357-5.783-.552-8.62-1.107a29.316,29.316,0,0,1-5.983-1.985,3.536,3.536,0,0,1-2.327-3.8,3.937,3.937,0,0,1,2.858-3.386c.836-.313,1.721-.493,2.587-.723a13.668,13.668,0,0,0,1.923-.515c.34-.147.777-.576.773-.873s-.449-.668-.781-.886a2.284,2.284,0,0,0-1.068-.327c-2.429-.158-4.859-.391-7.29-.4a101.924,101.924,0,0,1-15.209-.663c-2.453-.376-4.872-.919-6.111-3.477v-1.744c.929-1.944,2.723-2.639,4.63-2.931,3.036-.466,6.1-.723,9.155-1.086,1.843-.219,3.687-.438,5.52-.726.593-.093,1.443-.159,1.467-.961.026-.843-.817-.954-1.45-1.1-1.324-.31-2.67-.531-3.989-.861a5.3,5.3,0,0,1-1.574-.7,3.365,3.365,0,0,1-.227-5.651,11.217,11.217,0,0,1,5.763-2c2.967-.334,5.954-.487,8.934-.71.343-.026.69,0,1.087,0a15.03,15.03,0,0,1,.339-7.12,20.522,20.522,0,0,1,1.512-3.588c1.769-3.192,3.647-6.324,5.445-9.5a1.454,1.454,0,0,1,1.92-.846c.888.789.951,1.127.35,2.17q-2.671,4.638-5.356,9.269a12.962,12.962,0,1,0,22.337.2c-3.59-6.335-7.263-12.623-10.9-18.929a5.491,5.491,0,0,0-.341-.458c-.6,1.037-1.15,1.986-1.705,2.93-.6,1.021-.959,1.15-2.06.762a1.389,1.389,0,0,1-.25-2c.944-1.564,1.824-3.165,2.749-4.74.744-1.267,1.865-1.262,2.606.019q6.142,10.617,12.26,21.247a15.058,15.058,0,0,1,1.806,10.167,1.942,1.942,0,0,0,0,.324c2.433.146,4.878.183,7.294.472a60.579,60.579,0,0,1,6.3,1.223,5.758,5.758,0,0,1,1.861.915c2.447,1.663,2.285,4.85-.408,6.09a24.211,24.211,0,0,1-4.346,1.146,4.982,4.982,0,0,0-1.265.274,4.813,4.813,0,0,0-.952.982c.315.291.591.761.953.84a41.364,41.364,0,0,0,4.2.7c3.347.38,6.71.628,10.045,1.084a11.868,11.868,0,0,1,3.778,1.208,3.109,3.109,0,0,1,.3,5.533,11.691,11.691,0,0,1-5.849,1.755c-.674.068-1.032-.433-1.221-1.038.051-1.144.286-1.353,1.388-1.6,1.261-.281,2.515-.616,3.743-1.016.326-.106.546-.537.815-.819-.278-.261-.519-.678-.842-.757-1.562-.384-3.146-.677-4.722-1-1.93-.183-3.861-.357-5.789-.551-2.7-.271-5.43-.384-7.943-1.587-1.535-1.26-1.952-2.323-1.3-3.782a9.219,9.219,0,0,1,1.281-1.692l1.71-.794.39-.124-.006.006c1.245-.233,2.5-.438,3.734-.713.622-.138,1.281-.377,1.345-1.151.066-.8-.6-1.13-1.19-1.283-1.583-.412-3.194-.715-4.794-1.061-2.78-.182-5.562-.342-8.339-.56a1.229,1.229,0,0,0-1.407.874c-2.525,5.324-6.725,8.489-12.6,9.037-7.129.666-12.888-2.858-15.889-9.364a.986.986,0,0,0-.72-.512c-3.447.207-6.9.39-10.332.741a15.666,15.666,0,0,0-3.741,1.079,1.337,1.337,0,0,0-.708,1.04,1.472,1.472,0,0,0,.825.962,9.086,9.086,0,0,0,2.009.518,10.545,10.545,0,0,1,4.484,1.536,2.984,2.984,0,0,1-.357,5.26,10.914,10.914,0,0,1-3.385,1.027c-3.4.433-6.822.661-10.219,1.1a30.6,30.6,0,0,0-4.9,1.1c-.881.265-.893.9-.069,1.339a8.516,8.516,0,0,0,2.268.832,67.379,67.379,0,0,0,12.5.854c3.281.046,6.568.035,9.838.26a8.955,8.955,0,0,1,3.759,1.192,3.111,3.111,0,0,1-.039,5.5,14.408,14.408,0,0,1-2.82,1.1c-.933.31-1.922.468-2.829.833-1.223.493-1.294,1.478-.225,2.218a3.154,3.154,0,0,0,.836.459,46.291,46.291,0,0,0,5.244,1.52,79.909,79.909,0,0,0,21.452.68c1.349-.123,2.682-.411,4.023-.623.484-.067.977-.1,1.45-.207a13.784,13.784,0,0,0,5.09-1.881c.935-.671.87-1.614-.175-2.1-.727-.335-1.543-.468-2.3-.737a20.358,20.358,0,0,1-3.694-1.418,3.074,3.074,0,0,1-.486-4.875c.16-.164.326-.323.49-.484a11.631,11.631,0,0,1,5.762-1.385c3.884-.078,7.77-.064,11.655-.1a1.43,1.43,0,0,1,1.432.778q.019.261.037.523" transform="translate(0 -65.587)" fill="#030404"/>
        <path id="Trazado_157594" data-name="Trazado 157594" d="M181.146,384h0Z" transform="translate(-138.939 -294.686)" fill="#212121"/>
        <path id="Trazado_157595" data-name="Trazado 157595" d="M195.368,384h0Z" transform="translate(-149.847 -294.686)" fill="#212121"/>
        <path id="Trazado_157596" data-name="Trazado 157596" d="M145.15,106.158c1.1.388,1.46.258,2.06-.762.555-.945,1.1-1.894,1.705-2.93a5.456,5.456,0,0,1,.341.458c3.64,6.307,7.313,12.594,10.9,18.929a12.879,12.879,0,0,1-3.165,16.628,12.965,12.965,0,0,1-19.172-16.828q2.686-4.63,5.356-9.269c.6-1.044.538-1.381-.35-2.17l2.323-4.056m4.615,32.471c.355-.054.907-.1,1.443-.225a10.1,10.1,0,0,0,6.59-4.752,1.318,1.318,0,0,0-.33-1.915,1.345,1.345,0,0,0-1.877.505c-.067.095-.12.2-.184.3a7.523,7.523,0,0,1-4.988,3.355c-.567.109-1.161.083-1.727.2a1.283,1.283,0,0,0,.181,2.538c.231.017.464,0,.892,0" transform="translate(-104.297 -78.751)" fill="#81d3f0"/>
        <path id="Trazado_157597" data-name="Trazado 157597" d="M230.688,48.594a7.623,7.623,0,0,1-6.818-11.164c1.758-3.293,3.694-6.492,5.576-9.719a1.32,1.32,0,0,1,2.465.038c1.855,3.175,3.749,6.331,5.507,9.559a7.642,7.642,0,0,1-6.731,11.286M230.669,30.8c-1.558,2.711-3.076,5.245-4.485,7.839a4.956,4.956,0,0,0,1.3,6.212,5.1,5.1,0,0,0,6.364.009,4.954,4.954,0,0,0,1.313-6.206c-1.4-2.6-2.926-5.134-4.487-7.853" transform="translate(-171.02 -20.778)" fill="#030404"/>
        <path id="Trazado_157598" data-name="Trazado 157598" d="M133.744,16.634a5.7,5.7,0,0,1-5.131-8.307c1.215-2.334,2.585-4.589,3.922-6.858a1.3,1.3,0,0,1,2.375-.026c1.355,2.292,2.752,4.566,3.965,6.933a5.7,5.7,0,0,1-5.13,8.258M133.732,4.62c-.971,1.679-1.894,3.207-2.749,4.773a3.1,3.1,0,0,0,.824,3.98,3.2,3.2,0,0,0,3.87-.025,3.083,3.083,0,0,0,.78-3.987C135.61,7.815,134.7,6.3,133.732,4.62" transform="translate(-98.149 -0.684)" fill="#030404"/>
        <path id="Trazado_157599" data-name="Trazado 157599" d="M328.033,299.662q-.018-.261-.037-.523a32,32,0,0,0,4.361-1.2,1.973,1.973,0,0,0,.317-3.659c1.576.325,3.16.618,4.722,1,.323.079.564.5.842.757-.269.282-.489.712-.815.819-1.228.4-2.481.735-3.743,1.016-1.1.246-1.337.455-1.388,1.6l-4.26.187" transform="translate(-251.572 -225.874)" fill="#a0ddf3"/>
        <path id="Trazado_157600" data-name="Trazado 157600" d="M89.635,250.5a1.973,1.973,0,0,1-.317,3.659,32.012,32.012,0,0,1-4.361,1.2,1.43,1.43,0,0,0-1.432-.778c-3.885.036-7.771.023-11.655.1a11.632,11.632,0,0,0-5.762,1.385,10.077,10.077,0,0,0-4.469.812,2.044,2.044,0,0,0-1.32,2.273,1.9,1.9,0,0,0,1.483,1.717c.7.253,1.445.389,2.162.6a19.653,19.653,0,0,1,2.949.956c1.705.826,2.374,2.908.348,4.366-.488.351-1.014.648-1.523.97-1.341.212-2.674.5-4.023.623a79.906,79.906,0,0,1-21.452-.68,46.267,46.267,0,0,1-5.244-1.52,3.155,3.155,0,0,1-.836-.459c-1.069-.74-1-1.725.225-2.218.907-.366,1.9-.523,2.829-.833a14.4,14.4,0,0,0,2.82-1.1,3.111,3.111,0,0,0,.039-5.5,8.959,8.959,0,0,0-3.759-1.192c-3.27-.225-6.557-.214-9.839-.26a67.4,67.4,0,0,1-12.5-.854,8.525,8.525,0,0,1-2.268-.832c-.824-.437-.812-1.074.069-1.339a30.6,30.6,0,0,1,4.9-1.1c3.4-.434,6.822-.662,10.219-1.1a10.922,10.922,0,0,0,3.385-1.027,2.984,2.984,0,0,0,.357-5.26,10.545,10.545,0,0,0-4.484-1.536,9.069,9.069,0,0,1-2.009-.518,1.471,1.471,0,0,1-.825-.962,1.336,1.336,0,0,1,.708-1.04,15.666,15.666,0,0,1,3.74-1.079c3.434-.352,6.885-.535,10.332-.741a.985.985,0,0,1,.72.512c3,6.506,8.76,10.03,15.889,9.364,5.874-.548,10.074-3.714,12.6-9.037a1.229,1.229,0,0,1,1.407-.874c2.777.218,5.559.378,8.339.56,1.9,1.713,1.9,1.713.9,4.038a.437.437,0,0,0,0,.171l.006-.005-.39.124-1.71.794a8.883,8.883,0,0,0-1.771.109,14.4,14.4,0,0,0-3.394,1.124,1.775,1.775,0,0,0,.245,3.149,48.907,48.907,0,0,0,4.936,1.093c2.513,1.2,5.245,1.316,7.943,1.587,1.929.194,3.859.368,5.789.551" transform="translate(-8.532 -182.086)" fill="#b8ecfa"/>
        <path id="Trazado_157601" data-name="Trazado 157601" d="M227.64,329.836c.509-.322,1.036-.619,1.523-.97,2.025-1.458,1.357-3.54-.348-4.366a19.65,19.65,0,0,0-2.949-.956c-.717-.215-1.46-.35-2.162-.6a1.9,1.9,0,0,1-1.483-1.717,2.044,2.044,0,0,1,1.321-2.273,10.08,10.08,0,0,1,4.469-.812c-.163.161-.329.32-.49.484a3.074,3.074,0,0,0,.486,4.875,20.339,20.339,0,0,0,3.694,1.418c.76.269,1.577.4,2.3.737,1.045.481,1.11,1.425.175,2.1a13.791,13.791,0,0,1-5.09,1.881c-.473.111-.966.14-1.45.207" transform="translate(-170.436 -244.165)" fill="#a0def5"/>
        <path id="Trazado_157602" data-name="Trazado 157602" d="M269.309,267.084a48.916,48.916,0,0,1-4.936-1.093,1.775,1.775,0,0,1-.245-3.149,14.4,14.4,0,0,1,3.394-1.124,8.884,8.884,0,0,1,1.771-.109,9.21,9.21,0,0,0-1.281,1.692c-.655,1.459-.239,2.522,1.3,3.782" transform="translate(-201.939 -200.814)" fill="#a1dff5"/>
        <path id="Trazado_157603" data-name="Trazado 157603" d="M295.082,243.841a.442.442,0,0,1,0-.171c.994-2.325.994-2.325-.9-4.038,1.6.346,3.211.649,4.794,1.061.592.154,1.256.48,1.19,1.284-.064.775-.723,1.014-1.345,1.152-1.237.274-2.488.479-3.734.712" transform="translate(-225.632 -183.957)" fill="#9fddf3"/>
        <path id="Trazado_157604" data-name="Trazado 157604" d="M296.414,257.795l.39-.124-.39.124" transform="translate(-227.349 -197.792)" fill="#9fddf3"/>
        <path id="Trazado_157605" data-name="Trazado 157605" d="M188.22,234.315c-.428,0-.661.015-.892,0a1.283,1.283,0,0,1-.181-2.538c.566-.112,1.16-.086,1.727-.2a7.523,7.523,0,0,0,4.988-3.355c.065-.1.117-.2.184-.3a1.345,1.345,0,0,1,1.877-.505,1.318,1.318,0,0,1,.33,1.915,10.1,10.1,0,0,1-6.59,4.752c-.536.121-1.087.171-1.443.225" transform="translate(-142.751 -174.435)" fill="#020304"/>
        <path id="Trazado_157606" data-name="Trazado 157606" d="M239.306,43.71c1.561,2.719,3.084,5.254,4.487,7.853a4.954,4.954,0,0,1-1.313,6.206,5.1,5.1,0,0,1-6.364-.009,4.956,4.956,0,0,1-1.3-6.212c1.409-2.594,2.927-5.128,4.485-7.839" transform="translate(-179.657 -33.685)" fill="#b8ebf9"/>
        <path id="Trazado_157607" data-name="Trazado 157607" d="M142.357,17.578c.971,1.683,1.879,3.2,2.725,4.741a3.083,3.083,0,0,1-.78,3.987,3.2,3.2,0,0,1-3.87.025,3.1,3.1,0,0,1-.824-3.98c.855-1.566,1.778-3.094,2.749-4.773" transform="translate(-106.775 -13.642)" fill="#80d1ee"/>
      </g>
    </g>
  </g>
</svg>
