<svg xmlns="http://www.w3.org/2000/svg" width="54" height="48" viewBox="0 0 54 48">
  <g id="Grupo_957170" data-name="Grupo 957170" transform="translate(9624 8402)">
    <rect id="Rectángulo_52993" data-name="Rectángulo 52993" width="54" height="48" transform="translate(-9624 -8402)" fill="none"/>
    <g id="Grupo_957171" data-name="Grupo 957171" transform="translate(-9625.51 -8407.085)">
      <g id="Grupo_957173" data-name="Grupo 957173" transform="translate(8.164 8.944)">
        <path id="Trazado_157487" data-name="Trazado 157487" d="M23.864,36.064q0-.4,0-.79c.4-.062.417-.354.417-.677q-.005-8.671,0-17.343c0-.11,0-.219,0-.329a.429.429,0,0,1,.47-.495c1.164,0,2.329-.016,3.492.014.16,0,.443.224.449.353.039.911.021,1.824.021,2.753-.306,0-.566,0-.825,0s-.467.119-.474.4c-.008.309.2.425.487.423.268,0,.535,0,.8,0v4.439c-.288,0-.559,0-.829,0s-.459.134-.458.416.19.405.463.4h.818v4.439c-.282,0-.541,0-.8,0-.288,0-.491.129-.482.433.009.283.21.392.48.389s.537,0,.8,0v4.439c-.29,0-.55,0-.81,0s-.461.127-.465.409.182.41.456.411.541,0,.827,0v4.439H27.9c-.287,0-.494.121-.489.427,0,.283.2.4.473.4s.538,0,.8,0v4.438a3.175,3.175,0,0,0-.354,0c-.348.042-.83-.178-.923.4-.05.317.186.416.9.418h.4c0,.7,0,1.348,0,1.992,0,.543.1.637.651.638.652,0,1.3,0,1.978,0,0,.311,0,.57,0,.829s.1.466.393.475c.312.01.429-.191.43-.479,0-.268,0-.537,0-.807H36.6c0,.287,0,.557,0,.827s.118.458.407.46.409-.184.413-.454,0-.541,0-.827h4.438c0,.281,0,.539,0,.8,0,.287.111.491.424.485.289-.006.4-.2.4-.47s0-.538,0-.806h4.438c0,.274,0,.52,0,.766,0,.281.085.5.4.509.341.006.429-.23.424-.526,0-.254,0-.508,0-.757h4.438c0,.29,0,.561,0,.831s.125.456.414.453.4-.191.407-.461,0-.54,0-.818h4.438c0,.284,0,.542,0,.8,0,.289.119.489.43.478.289-.01.392-.209.392-.476s0-.537,0-.828c.874,0,1.694,0,2.514,0,.484,0,.607.124.608.6,0,1.027,0,2.055,0,3.082,0,.692-.058.751-.745.751H32.178v-.5l25.829,0c.109,0,.264.028.317-.03.123-.134.294-.332.269-.471-.05-.274-.312-.324-.584-.324q-12.915.008-25.829.006a1.283,1.283,0,0,0-1.455-1.31H26.905c0-1.3,0-2.542,0-3.786a1.294,1.294,0,0,0-1.317-1.492q0-14.138,0-28.277c0-.1.033-.222-.015-.281-.111-.138-.252-.319-.4-.338-.116-.015-.282.169-.382.3-.055.071-.025.211-.025.32q0,14.138,0,28.277h-.494v-.476c0-2.335,0-4.669.005-7,0-.327-.076-.562-.416-.649q0-.4,0-.79c.138-.14.389-.284.383-.418-.006-.15-.243-.292-.38-.437M60.235,53.246c.136,0,.3.046.4-.011a2.653,2.653,0,0,0,.452-.377,2.916,2.916,0,0,0-.46-.422c-.1-.06-.266-.01-.4-.012-.329,0-.695-.048-.767.4-.048.3.2.421.774.42" transform="translate(-22.138 -15.604)" fill="#71c1e7"/>
        <path id="Trazado_157488" data-name="Trazado 157488" d="M18.2,46.584v.5H46.869c.688,0,.745-.058.745-.751,0-1.027,0-2.055,0-3.082,0-.48-.124-.6-.608-.6-.82,0-1.64,0-2.514,0,0,.291,0,.559,0,.828s-.1.466-.392.476c-.312.011-.43-.189-.43-.478,0-.259,0-.517,0-.8H39.231c0,.278,0,.548,0,.818s-.118.459-.407.461-.41-.182-.414-.453,0-.541,0-.831H33.972c0,.25,0,.5,0,.757,0,.3-.083.532-.424.526-.315-.005-.4-.228-.4-.509,0-.246,0-.492,0-.766H28.711c0,.268,0,.537,0,.806s-.109.464-.4.47c-.313.006-.425-.2-.424-.485,0-.258,0-.516,0-.8H23.451c0,.286,0,.556,0,.827s-.124.456-.413.454-.405-.19-.407-.46,0-.54,0-.827H18.192c0,.271,0,.539,0,.807,0,.288-.118.489-.43.479-.289-.009-.393-.207-.392-.475s0-.518,0-.829c-.674,0-1.326,0-1.978,0-.555,0-.65-.095-.652-.638,0-.644,0-1.287,0-1.992h-.4c-.714,0-.95-.1-.9-.419.093-.581.575-.36.923-.4a3.15,3.15,0,0,1,.354,0V34.757c-.266,0-.536,0-.8,0s-.468-.112-.473-.4c0-.305.2-.426.489-.427h.795V29.5H13.89c-.274,0-.46-.128-.456-.411s.2-.406.465-.409.52,0,.81,0V24.236c-.258,0-.527,0-.795,0s-.471-.106-.48-.389c-.01-.3.194-.431.482-.433.259,0,.517,0,.8,0V18.974H13.9c-.273,0-.462-.121-.463-.4s.188-.41.458-.416.541,0,.829,0V13.714c-.264,0-.532,0-.8,0-.288,0-.5-.114-.487-.423.008-.281.206-.4.474-.4s.518,0,.825,0c0-.929.019-1.842-.021-2.753-.006-.129-.289-.349-.449-.353-1.163-.03-2.328-.019-3.492-.014a.429.429,0,0,0-.469.495c0,.11,0,.219,0,.329q0,8.671,0,17.343c0,.323-.012.615-.417.677-.317-.053-.411-.254-.411-.557q.006-8.917.005-17.833A1.235,1.235,0,0,1,10.79,8.948c1.1-.007,2.191,0,3.287,0,1.016,0,1.486.465,1.486,1.472q0,13.888,0,27.777v3.631H46.9c1.1,0,1.541.443,1.541,1.54q0,1.5,0,3c0,1.108-.431,1.544-1.531,1.544H18.239c-.216,1.026-.573,1.315-1.605,1.315H9.69c-1.081,0-1.526-.44-1.526-1.508q0-3.493,0-6.985A1.328,1.328,0,0,1,9.48,39.165V36.009c0-1.452,0-2.9,0-4.355,0-.314.088-.533.415-.6.341.087.417.322.416.649-.009,2.335-.005,4.669-.005,7v.477h1.313a1.294,1.294,0,0,1,1.317,1.492c0,1.244,0,2.488,0,3.786h3.819a1.283,1.283,0,0,1,1.455,1.31l0,.817M13.185,48.4q1.785,0,3.571,0c.5,0,.611-.107.613-.593q0-.965,0-1.929c0-.478-.125-.6-.613-.6-1.341,0-2.681,0-4.022,0-.518,0-.623-.106-.624-.624,0-1.355,0-2.709,0-4.064,0-.433-.133-.567-.558-.571q-1.005-.008-2.011,0c-.421,0-.551.14-.551.577q0,3.612,0,7.225c0,.46.119.578.585.579,1.2,0,2.408,0,3.612,0" transform="translate(-8.164 -8.944)" fill="#020203"/>
        <path id="Trazado_157489" data-name="Trazado 157489" d="M148.643,64.14c0,1.549,0,3.054,0,4.558,0,.632-.071.7-.709.7h-7.355c-.554,0-.648-.094-.648-.64q0-11.61,0-23.22c0-.518.113-.636.616-.636h20.627c.5,0,.618.119.618.635q0,8.98,0,17.959c0,.547-.094.64-.647.64h-12.5Zm-.413-4.922c-.318-.052-.415-.256-.413-.558.008-.835,0-1.671,0-2.506,0-.651.078-.729.731-.729h12.389V53.618c-1.985,0-3.942,0-5.9,0-.553,0-.647-.095-.648-.641q0-3.39,0-6.779v-.444h-8.382v.474q0,3.369,0,6.738c0,.557-.092.652-.636.653-.958,0-1.917,0-2.875,0h-1.725V68.564h1.832c.025-.1.048-.187.071-.276a3.01,3.01,0,0,1,2.579-2.317c.579-.085.754.063.755.641,0,.652,0,1.3,0,1.948h1.807V68.1c0-1.945,0-3.889,0-5.834,0-.318.092-.532.415-.608a.513.513,0,0,1,.415.609c-.016.338,0,.677,0,1.025h12.3V56.248h-.316c-1.287,0-2.575.006-3.862-.005-.249,0-.274.131-.323.32a3.036,3.036,0,0,1-2.6,2.3c-.626.061-.758-.057-.758-.682s0-1.275,0-1.913h-4.437c0,.811-.005,1.6,0,2.393,0,.3-.1.505-.415.556m-7.452-13.483v7.03h4.389v-1.61c-.154-.039-.288-.069-.419-.106a3.078,3.078,0,0,1-2.18-2.659c-.038-.52.1-.672.617-.676.654,0,1.308,0,1.972,0V45.735Zm14.458,1.778h5.707V45.742h-5.707Zm5.71.871h-5.7v1.763h5.7Zm-5.71,4.39h5.707V51.017h-5.707ZM145.17,50.294V48.57h-1.7a2.1,2.1,0,0,0,1.7,1.724m8.751,7.683A1.953,1.953,0,0,0,155.6,56.27h-1.678ZM143.5,68.528h1.673V66.85a2.039,2.039,0,0,0-1.673,1.678" transform="translate(-125.466 -40.956)" fill="#030202"/>
        <path id="Trazado_157490" data-name="Trazado 157490" d="M240.721,240.045q-2.176,0-4.352,0c-.52,0-.619-.1-.62-.625,0-.753,0-1.506,0-2.258,0-.431.132-.567.559-.568q4.454,0,8.909,0c.425,0,.556.138.558.569q.006,1.15,0,2.3c0,.465-.116.582-.58.583q-2.237,0-4.475,0m-4.138-.857h8.345v-1.743h-8.345Z" transform="translate(-210.765 -211.601)" fill="#020403"/>
        <path id="Trazado_157491" data-name="Trazado 157491" d="M334.3,21.748c-.725,0-1.395,0-2.064,0-.289,0-.549-.057-.555-.395-.007-.36.257-.434.565-.432.767.005,1.534,0,2.3,0,.436,0,.573.132.575.552,0,.781,0,1.561,0,2.342,0,.29-.061.542-.4.546-.371,0-.426-.263-.423-.567.006-.669,0-1.338,0-2.052" transform="translate(-296.167 -19.608)" fill="#040404"/>
        <path id="Trazado_157492" data-name="Trazado 157492" d="M334.3,263.29c0-.709.006-1.378,0-2.046,0-.311.071-.576.424-.571.324,0,.407.254.4.551q-.013,1.171,0,2.342c0,.378-.154.554-.538.55-.794-.008-1.588-.005-2.382,0-.3,0-.535-.088-.525-.425.009-.306.233-.4.514-.4.684,0,1.368,0,2.105,0" transform="translate(-296.163 -233.039)" fill="#040404"/>
        <path id="Trazado_157493" data-name="Trazado 157493" d="M116.772,21.75c0,.729,0,1.4,0,2.068,0,.288-.055.542-.4.551-.368.01-.432-.252-.429-.558.005-.779.008-1.558,0-2.336,0-.379.165-.552.542-.549.779.005,1.557,0,2.336,0,.278,0,.5.086.507.4.008.345-.225.425-.521.423-.666,0-1.332,0-2.038,0" transform="translate(-104.114 -19.61)" fill="#040404"/>
        <path id="Trazado_157494" data-name="Trazado 157494" d="M116.776,263.283c.7,0,1.35,0,2,0,.307,0,.566.069.555.436-.01.348-.27.392-.555.39-.751,0-1.5,0-2.254,0-.447,0-.569-.118-.572-.547,0-.792,0-1.585,0-2.377,0-.286.1-.508.4-.517.322-.01.434.217.431.522-.006.681,0,1.363,0,2.1" transform="translate(-104.118 -233.031)" fill="#040404"/>
        <path id="Trazado_157495" data-name="Trazado 157495" d="M20.8,195.323c.137.145.374.287.38.437.005.134-.246.279-.383.418-.136-.141-.382-.287-.377-.424s.244-.288.38-.432" transform="translate(-19.079 -174.863)" fill="#090b0c"/>
        <path id="Trazado_157496" data-name="Trazado 157496" d="M32.885,50.033h-.819q0-14.138,0-28.277c0-.109-.03-.249.025-.32.1-.129.266-.314.382-.3.147.019.288.2.4.338.048.059.015.186.015.281q0,14.138,0,28.277" transform="translate(-29.434 -19.798)" fill="#c4e4fd"/>
        <path id="Trazado_157497" data-name="Trazado 157497" d="M99.622,345.147q0-.409,0-.817,12.915,0,25.829-.006c.272,0,.534.05.584.324.025.14-.146.337-.269.471-.053.058-.208.03-.317.03l-25.829,0" transform="translate(-89.582 -307.507)" fill="#c3e3fd"/>
        <path id="Trazado_157498" data-name="Trazado 157498" d="M348.882,345.031c-.578,0-.822-.121-.774-.42.072-.449.438-.406.767-.4.136,0,.3-.048.4.012a2.92,2.92,0,0,1,.46.422,2.653,2.653,0,0,1-.452.377c-.106.056-.267.011-.4.011" transform="translate(-310.785 -307.389)" fill="#c2e3fc"/>
        <path id="Trazado_157499" data-name="Trazado 157499" d="M19.852,300.378c-1.2,0-2.408,0-3.612,0-.466,0-.585-.118-.585-.579q0-3.612,0-7.225c0-.437.13-.574.551-.577q1.005-.009,2.011,0c.425,0,.557.138.558.57,0,1.355,0,2.709,0,4.064,0,.518.105.624.624.624,1.341,0,2.681,0,4.022,0,.488,0,.611.122.613.6q0,.965,0,1.929c0,.485-.111.592-.613.593q-1.785,0-3.571,0m-2.883-1.321v-.511c0-1.808,0-3.617,0-5.425,0-.317-.05-.627-.421-.621s-.408.321-.407.635c.006,2.028,0,4.055,0,6.083,0,.564.1.661.674.662q1.829,0,3.657,0c.321,0,.748.075.744-.406,0-.46-.413-.417-.745-.417-1.148,0-2.3,0-3.508,0m5.8.82v0h.287c.268,0,.474-.114.475-.393s-.2-.428-.489-.43a1.43,1.43,0,0,0-.566.018c-.166.078-.275.279-.409.426a3.8,3.8,0,0,0,.42.369c.066.044.186.007.282.007" transform="translate(-14.831 -260.92)" fill="#aeaeae"/>
        <path id="Trazado_157500" data-name="Trazado 157500" d="M155.089,68.545c-.324.077-.417.29-.415.608.009,1.945,0,3.889,0,5.834v.459h-1.807c0-.645,0-1.3,0-1.948,0-.578-.176-.726-.755-.641a3.01,3.01,0,0,0-2.578,2.317c-.023.089-.046.178-.071.276h-1.832V60.506h1.725c.958,0,1.917,0,2.875,0,.545,0,.636-.1.636-.653q0-3.369,0-6.738v-.473h8.382v.444q0,3.389,0,6.779c0,.547.1.641.648.641,1.956,0,3.913,0,5.9,0v1.807H155.41c-.653,0-.731.078-.731.729,0,.835.005,1.671,0,2.506,0,.3.094.505.413.557q0,.4,0,.794c-.136.143-.374.284-.379.432s.242.279.378.419q0,.4,0,.794" transform="translate(-132.324 -47.844)" fill="#efbf20"/>
        <path id="Trazado_157501" data-name="Trazado 157501" d="M215.537,153.609q0-.4,0-.794c.137-.14.385-.284.38-.419s-.243-.289-.38-.432q0-.4,0-.794c.319-.051.418-.254.415-.556-.008-.791,0-1.582,0-2.393h4.437q0,.957,0,1.913c0,.625.132.743.758.682a3.036,3.036,0,0,0,2.6-2.3c.049-.189.073-.322.323-.32,1.287.011,2.575.005,3.862.005h.316v7.043h-12.3c0-.348-.012-.687,0-1.025a.513.513,0,0,0-.415-.609" transform="translate(-192.772 -132.908)" fill="#fa5c3d"/>
        <path id="Trazado_157502" data-name="Trazado 157502" d="M147.654,52.477h4.379v1.978c-.664,0-1.318,0-1.972,0-.521,0-.655.156-.617.676a3.078,3.078,0,0,0,2.18,2.659c.131.038.265.067.419.106v1.61h-4.389Z" transform="translate(-132.341 -47.698)" fill="#fa5c3c"/>
        <rect id="Rectángulo_52994" data-name="Rectángulo 52994" width="5.707" height="1.771" transform="translate(29.771 4.786)" fill="#71bfe6"/>
        <rect id="Rectángulo_52995" data-name="Rectángulo 52995" width="5.7" height="1.763" transform="translate(29.781 7.427)" fill="#71bfe6"/>
        <rect id="Rectángulo_52996" data-name="Rectángulo 52996" width="5.707" height="1.757" transform="translate(29.771 10.061)" fill="#71bfe6"/>
        <path id="Trazado_157503" data-name="Trazado 157503" d="M173.838,80.026a2.1,2.1,0,0,1-1.7-1.724h1.7Z" transform="translate(-154.135 -70.688)" fill="#f2593b"/>
        <path id="Trazado_157504" data-name="Trazado 157504" d="M267.368,150.149v-1.708h1.678a1.953,1.953,0,0,1-1.678,1.708" transform="translate(-238.914 -133.128)" fill="#f55a3b"/>
        <path id="Trazado_157505" data-name="Trazado 157505" d="M172.4,246.494a2.039,2.039,0,0,1,1.673-1.678v1.678Z" transform="translate(-154.373 -218.923)" fill="#e7b91f"/>
        <rect id="Rectángulo_52997" data-name="Rectángulo 52997" width="8.345" height="1.743" transform="translate(25.819 25.845)" fill="#13bd6c"/>
        <path id="Trazado_157506" data-name="Trazado 157506" d="M20.942,303.176c1.212,0,2.36,0,3.508,0,.332,0,.742-.044.745.417,0,.48-.423.4-.744.406q-1.829,0-3.657,0c-.575,0-.674-.1-.674-.662,0-2.028,0-4.055,0-6.083,0-.314.039-.628.407-.635s.422.3.421.621c-.005,1.808,0,3.617,0,5.425v.511" transform="translate(-18.805 -265.039)" fill="#ededed"/>
        <path id="Trazado_157507" data-name="Trazado 157507" d="M74.786,357.006c-.1,0-.215.037-.282-.007a3.792,3.792,0,0,1-.42-.369c.134-.147.242-.348.409-.426a1.43,1.43,0,0,1,.566-.018c.288,0,.49.138.489.43s-.207.393-.475.393h-.287Z" transform="translate(-66.848 -318.049)" fill="#ececec"/>
        <path id="Trazado_157508" data-name="Trazado 157508" d="M212.471,182.529c.136.144.374.284.38.433s-.244.279-.38.419c-.136-.14-.383-.284-.378-.419s.243-.288.379-.432" transform="translate(-189.705 -163.473)" fill="#0b0602"/>
      </g>
    </g>
  </g>
</svg>
