<svg xmlns="http://www.w3.org/2000/svg" width="81.45" height="80.974" viewBox="0 0 81.45 80.974"><g transform="translate(0 -1.664)"><g transform="translate(0 1.663)"><path d="M0,128.128c.156-.566.327-1.129.467-1.7.7-2.853,1.771-5.511,4.242-7.311a9.675,9.675,0,0,1,6.942-2.195,6.994,6.994,0,0,1,4.843,11.165c-2.739,3.879-6.583,5.185-11.177,4.584-.811-.106-1.609-.308-2.414-.455A3.618,3.618,0,0,1,0,130.194v-2.066m9.69-8.706a2.352,2.352,0,0,0-.311.039c-4.227,1.106-7.111,5.3-6.933,10.145a15.261,15.261,0,0,0,5.657.733,7.766,7.766,0,0,0,6.55-3.8,4.4,4.4,0,0,0-.027-5.319,4.413,4.413,0,0,0-4.936-1.794" transform="translate(0 -92.409)" fill="#040403"/><path d="M312.154,207.822A21.772,21.772,0,0,1,311,214.784a2.763,2.763,0,0,1-3.226,1.915,19.542,19.542,0,0,1-8.576-3.041,11.656,11.656,0,0,1-4.99-8.9,7.431,7.431,0,0,1,4.215-7.637,7.586,7.586,0,0,1,8.7.815c3.328,2.534,5.184,5.867,5.036,9.885m-6.861,5.92c.876.187,1.756.355,2.625.57.528.131.754-.04.911-.557a18.792,18.792,0,0,0,.927-6.64,9.505,9.505,0,0,0-5.026-7.87,4.276,4.276,0,0,0-3.261-.613,5.5,5.5,0,0,0-4.844,6.5c.912,4.792,3.667,7.419,8.669,8.611" transform="translate(-231.717 -154.834)" fill="#040403"/><path d="M101.314,173.411a11.339,11.339,0,0,1-2.521,7.609,43.528,43.528,0,0,1-4.12,4.372,2.5,2.5,0,0,1-3.351.15,17.808,17.808,0,0,1-6.292-8.27,11.518,11.518,0,0,1,1.156-9.835,7.445,7.445,0,0,1,7.7-3.659,7.646,7.646,0,0,1,6.47,5.039,12.227,12.227,0,0,1,.959,4.593m-9.074-7.249a4.992,4.992,0,0,0-4.129,2.674,9.494,9.494,0,0,0-1.168,6.184c.424,3.086,2.26,5.382,4.475,7.421.284.275.583.535.848.828.424.469.815.5,1.257.015,1.168-1.292,2.445-2.5,3.508-3.871a9.4,9.4,0,0,0,1.533-8.5c-.851-3.317-3.22-5.089-6.323-4.747" transform="translate(-66.496 -129.313)" fill="#040403"/><path d="M205.364,138.367c.169,1.2.019,1.459-1.13,1.9a11.778,11.778,0,0,1-9.892-.622,7.969,7.969,0,0,1,1.134-14.714,11.957,11.957,0,0,1,12.489,2.443,36.58,36.58,0,0,1,3.62,3.766,2.655,2.655,0,0,1-.155,3.794c-.57.624-1.168,1.226-1.783,1.805-.769.723-1.143.733-2.017.142a1.406,1.406,0,0,1,.39-1.9c.555-.485,1.039-1.052,1.574-1.561a.6.6,0,0,0,.041-.954,18.937,18.937,0,0,0-5.065-4.617A7.99,7.99,0,0,0,200.3,126.6a9.591,9.591,0,0,0-5.05,1.027,5.525,5.525,0,0,0-.31,9.634,9.705,9.705,0,0,0,5.678,1.354,27.263,27.263,0,0,0,2.823-.622,1.591,1.591,0,0,1,1.92.374" transform="translate(-149.613 -98.145)" fill="#040403"/><path d="M114.114,35.767a10.648,10.648,0,0,1-5.189,8.4,6.894,6.894,0,0,1-7.918-.086,7.139,7.139,0,0,1-3.4-7.113c.468-5.225,3.469-8.508,8.217-10.353a31.331,31.331,0,0,1,3.317-1.04,2.531,2.531,0,0,1,3.093,1.436,20.126,20.126,0,0,1,1.876,8.757m-7.075-7.023c-4.5,1.561-6.7,4.306-7.073,8.674a4.977,4.977,0,0,0,4.374,5.4,4.158,4.158,0,0,0,3.507-.774,8.66,8.66,0,0,0,3.649-5.283c.7-3.022-.187-5.847-1.372-8.593a.615.615,0,0,0-.541-.246c-.857.243-1.7.543-2.545.823" transform="translate(-76.857 -20.416)" fill="#040403"/><path d="M201.842,248.633a16.959,16.959,0,0,1,2.02-7.191,2.343,2.343,0,0,1,2.667-1.277,15.173,15.173,0,0,1,7.929,4.226,9.919,9.919,0,0,1,2.619,8.8,6.962,6.962,0,0,1-11.176,4.1,11.02,11.02,0,0,1-4.059-8.654m3.8-5.347c-.33.884-.715,1.753-.981,2.656a8.461,8.461,0,0,0,1.745,8.558A4.62,4.62,0,0,0,210,256.355a4.41,4.41,0,0,0,4.758-3.8,7.854,7.854,0,0,0-3.987-8.083,40.2,40.2,0,0,0-3.953-1.778c-.66-.3-1.045-.126-1.175.591" transform="translate(-158.992 -189.479)" fill="#040403"/><path d="M328.147,52.289a10.422,10.422,0,0,1-2,6.18A7,7,0,0,1,314.23,56.7a10.03,10.03,0,0,1,.645-10.066,36.665,36.665,0,0,1,3.765-4.471,2.258,2.258,0,0,1,2.919-.345c2.865,2.025,5.214,4.486,6.185,7.979a21.892,21.892,0,0,1,.4,2.494M319.8,58.526A4.549,4.549,0,0,0,325.2,55.28c1.426-4.148-.864-9.439-4.991-11.4l-1.387,1.459a31.24,31.24,0,0,0-2.395,3.4,7.759,7.759,0,0,0,.206,7.434,4.015,4.015,0,0,0,3.159,2.355" transform="translate(-246.697 -32.989)" fill="#040403"/><path d="M25.163,276.825c-.291-1.154-.06-1.593,1.048-1.988a7.129,7.129,0,0,1,9.38,5.616,10.533,10.533,0,0,1-2.776,9.877,31.185,31.185,0,0,1-3.6,3.093,2.421,2.421,0,0,1-3.491-.309,16.329,16.329,0,0,1-4.483-7.351,10.651,10.651,0,0,1,.6-6.441c.317-.856,1.018-.885,1.776-.7a1.66,1.66,0,0,1,.324,1.95,7.828,7.828,0,0,0-.487,4.123,11.305,11.305,0,0,0,2.9,5.529l1.243,1.436a14.639,14.639,0,0,0,4.917-4.956,7.939,7.939,0,0,0,.211-7.243,4.365,4.365,0,0,0-5.1-2.481,3.193,3.193,0,0,0-.681.158,1.454,1.454,0,0,1-1.79-.313" transform="translate(-16.524 -216.515)" fill="#040403"/><path d="M232.48,28.221c-.817-.07-1.636-.121-2.45-.213a2.258,2.258,0,0,1-2.23-2.336,28.026,28.026,0,0,1,.476-5.349,9.2,9.2,0,0,1,6.138-6.742,6.4,6.4,0,0,1,8.017,8.845c-1.777,3.823-5.215,5.812-9.952,5.8m3.208-12.487a7.466,7.466,0,0,0-.9.269,8.57,8.57,0,0,0-4.519,9.7h3.67a7.225,7.225,0,0,0,6.588-4.985,3.782,3.782,0,0,0-1-4.007,3.605,3.605,0,0,0-3.843-.979" transform="translate(-179.439 -10.702)" fill="#040403"/><path d="M.684,8.985a24.412,24.412,0,0,1,.862-3.509A5.809,5.809,0,0,1,6.853,1.682,5.762,5.762,0,0,1,12.44,4.5,8.839,8.839,0,0,1,13,13.768a27.416,27.416,0,0,1-3.074,4.3,2.15,2.15,0,0,1-2.886.39,15.538,15.538,0,0,1-4.59-4.214A10.158,10.158,0,0,1,.684,8.985m5.391-4.73a3.57,3.57,0,0,0-2.5,2.524c-1,2.96-.036,5.857,2.673,8.069L8.2,16.457a14.39,14.39,0,0,0,2.878-4.167A6.727,6.727,0,0,0,10.6,6.051a3.67,3.67,0,0,0-4.526-1.8" transform="translate(-0.539 -1.663)" fill="#040404"/><path d="M290.824,319.57c3.436-.01,5.717,1.556,6.628,4.219a6.282,6.282,0,0,1-2.395,7.225c-3.407,2.587-7.03,2.53-10.773.854a19.935,19.935,0,0,1-1.9-.969,2.261,2.261,0,0,1-1.1-2.783,15.749,15.749,0,0,1,2.824-5.279,9.063,9.063,0,0,1,6.721-3.268m-1.849,11.066a6.593,6.593,0,0,0,5.843-2.846,3.238,3.238,0,0,0,.544-1.46c.384-2.822-1.881-4.765-4.958-4.29a8.329,8.329,0,0,0-6.771,6.847,12.5,12.5,0,0,0,5.342,1.749" transform="translate(-221.462 -252.08)" fill="#040403"/><path d="M132.38,308c0,.45.027.9-.006,1.35a2.264,2.264,0,0,1-1.858,2.189,13.021,13.021,0,0,1-8.14-.9,8.886,8.886,0,0,1-4.73-5.869,5.8,5.8,0,0,1,2.1-6.178,5.941,5.941,0,0,1,6.478-.9,9.41,9.41,0,0,1,6.005,7.933c.108.784.145,1.579.215,2.368l-.065,0m-5.876,1.285h3.58c-.091-1.28-.108-2.417-.263-3.534a6.868,6.868,0,0,0-4.812-5.937,7.912,7.912,0,0,0-2-.164,3.74,3.74,0,0,0-3.092,4.4,6.923,6.923,0,0,0,6.584,5.232" transform="translate(-92.507 -234.404)" fill="#030303"/><path d="M33.982,285.75a1.454,1.454,0,0,0,1.79.313,3.191,3.191,0,0,1,.681-.158,7.539,7.539,0,0,1,2.133,4.388,9.219,9.219,0,0,1-3.408,8.856,11.305,11.305,0,0,1-2.9-5.529,7.828,7.828,0,0,1,.487-4.123,1.66,1.66,0,0,0-.324-1.95l1.545-1.8" transform="translate(-25.343 -225.44)" fill="#d9b469"/><path d="M243.833,147.459a1.591,1.591,0,0,0-1.92-.374,27.262,27.262,0,0,1-2.823.622c.091-.118.158-.277.277-.347a22.078,22.078,0,0,0,4.832-4.031c.636-.671.862-1.47.415-1.993-1.107-1.3-2.253-2.564-3.463-3.763a25.8,25.8,0,0,0-2.378-1.881,7.99,7.99,0,0,1,4.266,1.258,18.937,18.937,0,0,1,5.065,4.617.6.6,0,0,1-.041.954c-.535.509-1.019,1.075-1.574,1.561a1.406,1.406,0,0,0-.39,1.9l-2.265,1.481" transform="translate(-188.082 -107.237)" fill="#eac171"/><path d="M17.151,139.827a15.261,15.261,0,0,1-5.657-.733c-.177-4.849,2.706-9.039,6.933-10.145a2.389,2.389,0,0,1,.311-.039,4.078,4.078,0,0,0,.381.575A5.955,5.955,0,0,1,19,137.921c-.622.628-1.23,1.27-1.844,1.906" transform="translate(-9.048 -101.896)" fill="#d9b369"/><path d="M38.17,139.244c.614-.636,1.222-1.278,1.844-1.906a5.955,5.955,0,0,0,.125-8.437,4.077,4.077,0,0,1-.381-.575,4.623,4.623,0,0,1,4.962,7.114,7.765,7.765,0,0,1-6.55,3.8" transform="translate(-30.067 -101.313)" fill="#c8a662"/><path d="M314.053,223.076c-5-1.192-7.757-3.819-8.669-8.611a5.5,5.5,0,0,1,4.844-6.5,4.006,4.006,0,0,0,.317.336,11.866,11.866,0,0,1,3.791,5.045c1.154,3.278.66,6.511-.283,9.729" transform="translate(-240.477 -164.169)" fill="#f1d49d"/><path d="M332.384,222.68c.943-3.218,1.437-6.451.283-9.729a11.866,11.866,0,0,0-3.791-5.045,4,4,0,0,1-.317-.336,4.276,4.276,0,0,1,3.261.613,9.505,9.505,0,0,1,5.026,7.87,18.792,18.792,0,0,1-.927,6.64c-.156.517-.383.688-.911.557-.869-.215-1.749-.383-2.625-.57" transform="translate(-258.808 -163.773)" fill="#ecc881"/><path d="M100.414,191.519c-2.214-2.039-4.051-4.335-4.475-7.421a9.494,9.494,0,0,1,1.168-6.184,4.991,4.991,0,0,1,4.129-2.674,17.559,17.559,0,0,1,1.423,1.591A10.738,10.738,0,0,1,104.3,181.8a9.439,9.439,0,0,1-1.343,6.205c-.733,1.237-1.687,2.344-2.542,3.509" transform="translate(-75.493 -138.391)" fill="#f1d49d"/><path d="M117.39,191.364c.855-1.165,1.808-2.272,2.542-3.509a9.439,9.439,0,0,0,1.343-6.205,10.738,10.738,0,0,0-1.638-4.973,17.564,17.564,0,0,0-1.423-1.591c3.1-.342,5.472,1.43,6.323,4.747a9.4,9.4,0,0,1-1.533,8.5c-1.063,1.373-2.34,2.579-3.508,3.871-.442.489-.833.454-1.257-.015-.265-.292-.564-.553-.848-.828" transform="translate(-92.469 -138.236)" fill="#ecc982"/><path d="M208.977,135.654a25.8,25.8,0,0,1,2.378,1.881c1.21,1.2,2.356,2.468,3.463,3.763.447.523.221,1.322-.415,1.993a22.084,22.084,0,0,1-4.832,4.031c-.119.07-.186.229-.277.346a9.7,9.7,0,0,1-5.678-1.354,5.525,5.525,0,0,1,.31-9.634,9.589,9.589,0,0,1,5.05-1.028" transform="translate(-158.287 -107.199)" fill="#edca82"/><path d="M113.156,54.961a4.977,4.977,0,0,1-4.374-5.4c.377-4.368,2.569-7.113,7.073-8.674.34,1.586.717,3.165,1.009,4.759a8.546,8.546,0,0,1-.608,5.006,13.735,13.735,0,0,1-3.1,4.307" transform="translate(-85.673 -32.561)" fill="#d9b369"/><path d="M129.457,51.877a13.735,13.735,0,0,0,3.1-4.307,8.546,8.546,0,0,0,.608-5.006c-.292-1.594-.669-3.173-1.009-4.759.847-.281,1.688-.581,2.545-.824a.615.615,0,0,1,.541.246c1.184,2.746,2.074,5.571,1.372,8.593a8.659,8.659,0,0,1-3.649,5.283,4.157,4.157,0,0,1-3.507.774" transform="translate(-101.974 -29.477)" fill="#c9a662"/><path d="M218.78,268.189a4.621,4.621,0,0,1-3.593-1.855,8.461,8.461,0,0,1-1.745-8.558c.265-.9.65-1.772.981-2.656a9.184,9.184,0,0,1,5.145,5.351,8.071,8.071,0,0,1,.428,5.177,17.229,17.229,0,0,1-1.216,2.541" transform="translate(-167.769 -201.313)" fill="#d9b469"/><path d="M224.12,265.477a17.232,17.232,0,0,0,1.216-2.541,8.071,8.071,0,0,0-.428-5.177,9.184,9.184,0,0,0-5.145-5.351c.13-.717.514-.89,1.175-.591a40.144,40.144,0,0,1,3.953,1.778,7.854,7.854,0,0,1,3.987,8.084,4.411,4.411,0,0,1-4.758,3.8" transform="translate(-173.109 -198.6)" fill="#c8a662"/><path d="M328.665,73.023a4.015,4.015,0,0,1-3.159-2.355,7.759,7.759,0,0,1-.206-7.434,31.235,31.235,0,0,1,2.395-3.4c.16.081.383.119.47.248a17.262,17.262,0,0,1,2.062,3.236c1.325,3.485,1.007,6.8-1.561,9.7" transform="translate(-255.567 -47.486)" fill="#f1d49d"/><path d="M340.724,67.609c2.568-2.9,2.886-6.218,1.561-9.7a17.263,17.263,0,0,0-2.062-3.236c-.087-.13-.31-.168-.47-.248l1.387-1.459c4.127,1.962,6.417,7.252,4.991,11.4a4.549,4.549,0,0,1-5.408,3.246" transform="translate(-267.626 -42.072)" fill="#ecc982"/><path d="M46.329,299.242a9.219,9.219,0,0,0,3.408-8.856A7.539,7.539,0,0,0,47.6,286a4.364,4.364,0,0,1,5.1,2.48,7.94,7.94,0,0,1-.211,7.243,14.642,14.642,0,0,1-4.917,4.956l-1.243-1.436" transform="translate(-36.494 -225.534)" fill="#c8a662"/><path d="M242.316,35.341h-3.67a8.57,8.57,0,0,1,4.519-9.7,7.479,7.479,0,0,1,.9-.269c.132.162.261.328.4.486a4.819,4.819,0,0,1,1.215,2.994,6.714,6.714,0,0,1-2.123,5.083c-.427.456-.825.938-1.237,1.408" transform="translate(-187.815 -20.337)" fill="#d9b369"/><path d="M256.725,34.621c.412-.47.81-.952,1.237-1.408a6.714,6.714,0,0,0,2.123-5.083,4.819,4.819,0,0,0-1.215-2.994c-.136-.159-.265-.324-.4-.486a3.605,3.605,0,0,1,3.843.979,3.782,3.782,0,0,1,1,4.007,7.225,7.225,0,0,1-6.588,4.985" transform="translate(-202.224 -19.618)" fill="#c8a662"/><path d="M26.077,13.174a3.67,3.67,0,0,1,4.526,1.8,6.727,6.727,0,0,1,.479,6.238A14.39,14.39,0,0,1,28.2,25.375l-1.955-1.609a8.915,8.915,0,0,0,1.769-4.653,8.726,8.726,0,0,0-1.941-5.939" transform="translate(-20.541 -10.582)" fill="#f0d39c"/><path d="M15.361,13.872A8.726,8.726,0,0,1,17.3,19.811a8.915,8.915,0,0,1-1.769,4.653c-2.708-2.212-3.677-5.109-2.673-8.069a3.57,3.57,0,0,1,2.5-2.524" transform="translate(-9.825 -11.28)" fill="#f3dcb0"/><path d="M298.2,339.8a12.5,12.5,0,0,1-5.342-1.749,8.329,8.329,0,0,1,6.771-6.847c.148.248.287.5.445.742a4.977,4.977,0,0,1,.506,5.164,10.61,10.61,0,0,1-2.38,2.69" transform="translate(-230.686 -261.245)" fill="#f0d49c"/><path d="M318.02,339.536a10.608,10.608,0,0,0,2.38-2.69,4.977,4.977,0,0,0-.506-5.164c-.157-.242-.3-.494-.445-.742,3.077-.475,5.342,1.468,4.958,4.29a3.238,3.238,0,0,1-.544,1.46,6.593,6.593,0,0,1-5.843,2.846" transform="translate(-250.506 -260.979)" fill="#ebc881"/><path d="M135.438,318.653a6.923,6.923,0,0,1-6.584-5.232,3.74,3.74,0,0,1,3.092-4.4c.14.21.27.428.422.629a20.819,20.819,0,0,1,1.993,2.685c1.026,1.966,1.049,4.157,1.078,6.322" transform="translate(-101.44 -243.768)" fill="#d9b369"/><path d="M147.185,318.653c-.029-2.165-.052-4.356-1.078-6.322a20.819,20.819,0,0,0-1.993-2.685c-.151-.2-.282-.419-.422-.629a7.911,7.911,0,0,1,2,.164,6.868,6.868,0,0,1,4.812,5.937c.155,1.117.172,2.254.263,3.534Z" transform="translate(-113.188 -243.768)" fill="#c8a662"/></g></g></svg>