<svg xmlns="http://www.w3.org/2000/svg" width="1018.016" height="52" viewBox="0 0 1018.016 52">
  <g id="Grupo_968596" data-name="Grupo 968596" transform="translate(9633.508 7610)">
    <line id="Línea_181" data-name="Línea 181" y1="4" x2="1018" transform="translate(-9633.5 -7586.5)" fill="none" stroke="#adce32" stroke-width="4"/>
    <circle id="Elipse_4875" data-name="Elipse 4875" cx="26" cy="26" r="26" transform="translate(-9529 -7610)" fill="#ffa686"/>
    <circle id="Elipse_4876" data-name="Elipse 4876" cx="26" cy="26" r="26" transform="translate(-9276 -7610)" fill="#ffa686"/>
    <circle id="Elipse_4877" data-name="Elipse 4877" cx="26" cy="26" r="26" transform="translate(-9024 -7610)" fill="#ffa686"/>
    <circle id="Elipse_4878" data-name="Elipse 4878" cx="26" cy="26" r="26" transform="translate(-8769 -7610)" fill="#ffa686"/>
    <path id="Trazado_647837" data-name="Trazado 647837" d="M11.136,19H8.165V9.543L5.247,10.4V8.146L10.863,6.2h.272Z" transform="translate(-9512 -7595)" fill="#12263f"/>
    <path id="Trazado_647838" data-name="Trazado 647838" d="M13.5,19H4.57V17.066l4.113-4.324A4.909,4.909,0,0,0,10.2,9.991a1.913,1.913,0,0,0-.36-1.257A1.287,1.287,0,0,0,8.8,8.3a1.3,1.3,0,0,0-1.1.576,2.366,2.366,0,0,0-.422,1.437H4.307A4.2,4.2,0,0,1,4.9,8.141,4.129,4.129,0,0,1,6.53,6.581a4.856,4.856,0,0,1,2.338-.562,4.777,4.777,0,0,1,3.195.958,3.42,3.42,0,0,1,1.121,2.751A4,4,0,0,1,12.9,11.2a6.456,6.456,0,0,1-.875,1.5,22.029,22.029,0,0,1-1.912,2.1L8.464,16.715H13.5Z" transform="translate(-9259 -7595)" fill="#12263f"/>
    <path id="Trazado_647839" data-name="Trazado 647839" d="M7.277,11.362h1.4a1.453,1.453,0,0,0,1.661-1.626A1.406,1.406,0,0,0,9.94,8.7a1.5,1.5,0,0,0-1.116-.4A1.606,1.606,0,0,0,7.8,8.646a1.046,1.046,0,0,0-.435.853H4.4a3.032,3.032,0,0,1,.563-1.8,3.715,3.715,0,0,1,1.56-1.235,5.334,5.334,0,0,1,2.193-.444,5.241,5.241,0,0,1,3.357.976A3.243,3.243,0,0,1,13.3,9.675a2.7,2.7,0,0,1-.505,1.56,3.6,3.6,0,0,1-1.472,1.191,3.441,3.441,0,0,1,1.6,1.121,2.951,2.951,0,0,1,.58,1.859,3.3,3.3,0,0,1-1.318,2.742,5.472,5.472,0,0,1-3.463,1.028A5.675,5.675,0,0,1,6.385,18.7a3.656,3.656,0,0,1-1.63-1.327A3.45,3.45,0,0,1,4.2,15.44H7.181a1.334,1.334,0,0,0,.475,1.02,1.676,1.676,0,0,0,1.169.431,1.755,1.755,0,0,0,1.248-.435,1.454,1.454,0,0,0,.466-1.112,1.7,1.7,0,0,0-.483-1.371,2.021,2.021,0,0,0-1.336-.4H7.277Z" transform="translate(-9007 -7595)" fill="#12263f"/>
    <path id="Trazado_647840" data-name="Trazado 647840" d="M12.393,14h1.3v2.285h-1.3V19H9.431V16.284H4.482l-.176-1.811L9.431,6.229V6.2h2.962ZM7.128,14h2.3V10.062l-.185.3Z" transform="translate(-8752 -7595)" fill="#12263f"/>
  </g>
</svg>
