<svg xmlns="http://www.w3.org/2000/svg" width="74" height="66" viewBox="0 0 74 66"><g transform="translate(9624 8402)"><rect width="74" height="66" transform="translate(-9624 -8402)" fill="none"/><g transform="translate(-9620.858 -8419.508)"><g transform="translate(0 20.044)"><path d="M0,45.469a2.566,2.566,0,0,0,.224-.3,2.161,2.161,0,0,1,2.584-1.207A28.753,28.753,0,0,1,6.2,45a13.126,13.126,0,0,0,10.153-.022,16.024,16.024,0,0,1,5.051-1.232V40.417c-1.024-.1-2.053-.15-3.068-.3-4.352-.652-6.922-3.328-8.1-7.409-.536-1.85-.836-3.772-1.188-5.672a1.1,1.1,0,0,1,1.2-1.369,21.355,21.355,0,0,1,8.69,2.465,27.651,27.651,0,0,1,2.509,1.832c.277-.961.509-2.075.919-3.12a8.779,8.779,0,0,1,4.945-4.952,24.1,24.1,0,0,1,7.326-1.834c1.086-.1,1.591.407,1.437,1.484-.211,1.477-.489,2.944-.744,4.447,3.173.709,6.343,1.533,8.748,4.2.058-.39.094-.7.152-1.006a9.475,9.475,0,0,1,6.306-7.578A25.493,25.493,0,0,1,57.2,20.058c1.116-.1,1.581.428,1.45,1.536A24.285,24.285,0,0,1,56.6,29.267a9.09,9.09,0,0,1-7.367,5.215c-.954.145-1.922.2-2.919.293v8.992c2.239.038,4.208,1.017,6.278,1.661a12.975,12.975,0,0,0,8.918-.423,24.265,24.265,0,0,1,3.394-1.04,2.214,2.214,0,0,1,2.81,2.287c.01,4.255,0,8.509,0,12.764q0,9.093,0,18.187a3.4,3.4,0,0,1-3.763,3.761q-30.085,0-60.169.008A3.469,3.469,0,0,1,.13,78.533c-.018-.051-.085-.084-.13-.126V45.469M26.978,32.1A6.467,6.467,0,0,0,31.3,29.472a2.2,2.2,0,0,0,.4-1.791c-.26-1.412-.054-1.733,1.361-2.163l.639-3.137-2.36.575c-.426.1-.857.188-1.278.307-4.455,1.251-6.341,4-6.383,8.651,0,.368.065.615.5.558.933-.123,1.866-.25,2.8-.375m26.979-9.153c-.7.19-1.4.352-2.092.577A7.308,7.308,0,0,0,46.8,28.307a9.787,9.787,0,0,0-.464,4.18c.934-.086,1.809-.161,2.682-.251a3.894,3.894,0,0,0,.573-.147,6.307,6.307,0,0,0,4.152-2.45,12.337,12.337,0,0,0,1.941-4.448c.218-.881.388-1.775.61-2.8l-2.338.558M37.292,28.829l-3.271-.8A17.641,17.641,0,0,0,36.276,34.9a6.9,6.9,0,0,0,5.516,3.025l2.184.19c.229-4.818-1.77-8.151-6.684-9.283M19.175,37.92l2.187.2c.366-4.637-1.774-8.195-6.413-9.192l-3.418-.9a17.542,17.542,0,0,0,2,6.623,6.953,6.953,0,0,0,5.642,3.27M45.354,71.894a4.449,4.449,0,0,0,4.238-3.72,7.149,7.149,0,0,0-3.876-7.19.916.916,0,0,0-1.15.07,3.461,3.461,0,0,0-.478.21,7.04,7.04,0,0,0-3.459,5.949,4.461,4.461,0,0,0,4.726,4.681m-22.484,0a4.455,4.455,0,0,0,4.215-4.476,7.018,7.018,0,0,0-3.984-6.44.9.9,0,0,0-1.149.09,6.912,6.912,0,0,0-3.858,6.477,4.4,4.4,0,0,0,4.776,4.349M63.2,51.591h2.233V46.064l-2.221.715a1.355,1.355,0,0,0-.255.059,15.787,15.787,0,0,1-13.114,0,25.3,25.3,0,0,0-3.524-.95v5.7Zm.017,2.34c-.088-.007-.175-.021-.263-.021q-8.067,0-16.134,0a4.886,4.886,0,0,0-.54.063c0,1.387.029,2.729-.014,4.07a.989.989,0,0,0,.647,1.046,9.244,9.244,0,0,1,4.88,9.6,6.769,6.769,0,0,1-13.421-1.14,9.27,9.27,0,0,1,3.84-7.746c.593-.454,1.453-.761,1.742-1.354a5.694,5.694,0,0,0,.071-2.282c0-.739,0-1.478,0-2.222H23.687c0,1.4.02,2.756-.011,4.115a.919.919,0,0,0,.569.967,9.306,9.306,0,0,1,4.985,9.613,6.814,6.814,0,0,1-7.74,5.475,6.883,6.883,0,0,1-5.566-8.293A9.408,9.408,0,0,1,21,58.96c.17-.089.406-.281.408-.429.03-1.515.019-3.03.019-4.57H2.253V76.952c0,1.472.265,1.741,1.718,1.741H62.16c.264,0,.528-.015.792-.023.308.006.616.017.924.017,1.278,0,1.587-.311,1.587-1.6q0-11.162,0-22.324v-.832ZM23.715,43.751a20.209,20.209,0,0,1,5.9,1.545,12.359,12.359,0,0,0,8.722-.09,18.425,18.425,0,0,1,5.644-1.457V40.321c-6.13.186-10.008-2.625-11.494-8.683-2.453,2.51-5.542,3-8.77,3.1Zm.009,7.847H43.983V46.015a12.191,12.191,0,0,0-3.995.979,15.171,15.171,0,0,1-6.162,1.256,15.8,15.8,0,0,1-6.406-1.366,10.374,10.374,0,0,0-3.7-.845ZM2.271,51.592H21.383V45.837c-1.382.4-2.706.666-3.934,1.164a15.633,15.633,0,0,1-12.078.091c-.991-.393-2.022-.684-3.1-1.044Z" transform="translate(0 -20.044)" fill="#020201"/><path d="M73.452,236.5c-.264.008-.528.023-.792.023H14.47c-1.453,0-1.718-.269-1.718-1.741q0-11.078,0-22.156V211.8H31.929c0,1.54.012,3.056-.018,4.57,0,.148-.238.34-.408.429a9.408,9.408,0,0,0-5.079,6.861,6.883,6.883,0,0,0,5.566,8.293,6.814,6.814,0,0,0,7.74-5.475,9.306,9.306,0,0,0-4.985-9.613.92.92,0,0,1-.569-.967c.031-1.359.011-2.72.011-4.115H54.527c0,.744,0,1.483,0,2.222a5.687,5.687,0,0,1-.071,2.282c-.289.593-1.149.9-1.742,1.354a9.269,9.269,0,0,0-3.84,7.746,6.769,6.769,0,0,0,13.421,1.14,9.244,9.244,0,0,0-4.88-9.6.99.99,0,0,1-.647-1.046c.044-1.341.014-2.683.014-4.07a4.881,4.881,0,0,1,.541-.063q8.067,0,16.134,0c.087,0,.175.014.263.022q0,11.5-.013,23a11.917,11.917,0,0,1-.254,1.736M17.264,214a1.049,1.049,0,0,0-1.1,1.132,1.108,1.108,0,0,0,1.081,1.11,1.182,1.182,0,0,0,1.161-1.13A1.11,1.11,0,0,0,17.264,214m54.162,0a1.114,1.114,0,0,0-1.123,1.135,1.183,1.183,0,0,0,1.183,1.107,1.11,1.11,0,0,0,1.059-1.133A1.051,1.051,0,0,0,71.426,214m-6.736,0a1.09,1.09,0,0,0-1.149,1.1,1.123,1.123,0,1,0,2.245.047A1.077,1.077,0,0,0,64.69,214m-15.832,1.137A1.078,1.078,0,0,0,47.752,214a1.091,1.091,0,0,0-1.14,1.042,1.186,1.186,0,0,0,1.081,1.2,1.166,1.166,0,0,0,1.165-1.108m-24.834,7.877a1.088,1.088,0,0,0-1.1,1.151,1.1,1.1,0,0,0,1.093,1.1,1.173,1.173,0,0,0,1.152-1.128,1.139,1.139,0,0,0-1.149-1.118m41.763,1.147a1.089,1.089,0,0,0-1.1-1.147,1.137,1.137,0,0,0-1.146,1.122,1.177,1.177,0,0,0,1.09,1.124,1.106,1.106,0,0,0,1.156-1.1m-45.132,5.6a1.123,1.123,0,0,0,.033-2.245,1.181,1.181,0,0,0-1.172,1.111,1.167,1.167,0,0,0,1.14,1.134m48.544-1.1a1.18,1.18,0,0,0-1.14-1.143,1.123,1.123,0,0,0-.03,2.245,1.166,1.166,0,0,0,1.17-1.1m-44.026,4.519a1.181,1.181,0,0,0-1.128-1.156,1.164,1.164,0,0,0-1.117,1.155,1.075,1.075,0,0,0,1.086,1.091,1.093,1.093,0,0,0,1.16-1.09m16.929-.023a1.177,1.177,0,0,0-1.15-1.132,1.165,1.165,0,0,0-1.095,1.176,1.076,1.076,0,0,0,1.108,1.069,1.093,1.093,0,0,0,1.137-1.113m5.617-1.133a1.179,1.179,0,0,0-1.106,1.176,1.093,1.093,0,0,0,1.179,1.069,1.078,1.078,0,0,0,1.066-1.111,1.166,1.166,0,0,0-1.139-1.134m16.929,2.247a1.082,1.082,0,0,0,1.138-1.106,1.167,1.167,0,0,0-1.132-1.141,1.183,1.183,0,0,0-1.113,1.1,1.09,1.09,0,0,0,1.106,1.143M69.2,219.639a1.167,1.167,0,0,0-1.14-1.131,1.068,1.068,0,0,0-1.1,1.068,1.094,1.094,0,0,0,1.074,1.177,1.187,1.187,0,0,0,1.171-1.114m-27.1-4.527A1.09,1.09,0,0,0,40.965,214a1.075,1.075,0,0,0-1.109,1.065,1.123,1.123,0,1,0,2.245.046M24.057,214a1.077,1.077,0,0,0-1.13,1.111,1.123,1.123,0,0,0,2.245.022A1.09,1.09,0,0,0,24.057,214m-5.645,10.167a1.168,1.168,0,0,0-1.125-1.152,1.075,1.075,0,0,0-1.118,1.057,1.092,1.092,0,0,0,1.055,1.189,1.182,1.182,0,0,0,1.187-1.094m54.134-.008a1.082,1.082,0,0,0-1.1-1.144,1.169,1.169,0,0,0-1.147,1.131,1.185,1.185,0,0,0,1.1,1.116,1.09,1.09,0,0,0,1.145-1.1M17.306,234.272a1.132,1.132,0,0,0,1.1-1.094,1.18,1.18,0,0,0-1.135-1.151,1.107,1.107,0,0,0-1.107,1.15,1.064,1.064,0,0,0,1.138,1.095m3.344-13.518a1.107,1.107,0,0,0,1.109-1.147,1.073,1.073,0,0,0-1.14-1.1,1.168,1.168,0,0,0-1.1,1.1,1.181,1.181,0,0,0,1.135,1.147m22.575-1.162a1.132,1.132,0,1,0,2.263.03,1.132,1.132,0,0,0-2.263-.03m29.32,13.555a1.112,1.112,0,0,0-1.138-1.12,1.182,1.182,0,0,0-1.1,1.18,1.131,1.131,0,0,0,1.13,1.065,1.072,1.072,0,0,0,1.112-1.126m-28.172-6.722a1.125,1.125,0,0,0-1.148,1.1,1.131,1.131,0,1,0,2.262-.032,1.127,1.127,0,0,0-1.114-1.071" transform="translate(-10.499 -177.88)" fill="#9f512d"/><path d="M134.3,172.649V167.09a10.374,10.374,0,0,1,3.7.845A15.8,15.8,0,0,0,144.4,169.3a15.173,15.173,0,0,0,6.162-1.256,12.187,12.187,0,0,1,3.995-.98v5.583Z" transform="translate(-110.573 -141.095)" fill="#f99401"/><path d="M12.858,171.81v-5.543c1.077.36,2.108.652,3.1,1.044a15.633,15.633,0,0,0,12.078-.091c1.229-.5,2.552-.763,3.934-1.164v5.755Z" transform="translate(-10.587 -140.262)" fill="#f99501"/><path d="M279.107,172.065H262.226v-5.7a25.319,25.319,0,0,1,3.524.95,15.787,15.787,0,0,0,13.114,0,1.372,1.372,0,0,1,.255-.059q-.006,2.406-.012,4.811" transform="translate(-215.904 -140.518)" fill="#fd9701"/><path d="M356.368,236.611a11.919,11.919,0,0,0,.254-1.736q.027-11.5.013-23h2.243v.832q0,11.162,0,22.324c0,1.289-.309,1.6-1.587,1.6-.308,0-.616-.011-.924-.017" transform="translate(-293.416 -177.986)" fill="#773e22"/><path d="M107.2,263.094a4.4,4.4,0,0,1-4.776-4.349,6.911,6.911,0,0,1,3.858-6.477,9.473,9.473,0,0,1,2.377,3.423c.625,1.938.85,3.854-.259,5.7-.357.594-.8,1.137-1.2,1.7" transform="translate(-84.331 -211.246)" fill="#81592c"/><path d="M234.7,263.036a4.462,4.462,0,0,1-4.726-4.681,7.04,7.04,0,0,1,3.459-5.949,3.456,3.456,0,0,1,.479-.21,2.6,2.6,0,0,0,.28.36,7.521,7.521,0,0,1,2.413,4.429,5.913,5.913,0,0,1-.684,4.444c-.376.556-.812,1.072-1.22,1.606" transform="translate(-189.342 -211.186)" fill="#81592c"/><path d="M72.924,75.13a6.954,6.954,0,0,1-5.642-3.27,17.54,17.54,0,0,1-2-6.623l3.418.9a2.608,2.608,0,0,0,.439.424,7.328,7.328,0,0,1,2.923,3.516,10.8,10.8,0,0,1,.865,5.057" transform="translate(-53.748 -57.254)" fill="#5fa717"/><path d="M200.359,75.126a6.9,6.9,0,0,1-5.516-3.025,17.642,17.642,0,0,1-2.255-6.871l3.272.8c.139.126.271.26.417.377a12.116,12.116,0,0,1,1.824,1.477,10.344,10.344,0,0,1,2.258,7.239" transform="translate(-158.567 -57.248)" fill="#5fa717"/><path d="M265.3,45.61a3.889,3.889,0,0,1-.573.147c-.873.091-1.748.165-2.682.251a9.788,9.788,0,0,1,.464-4.18,7.309,7.309,0,0,1,5.065-4.786c.686-.225,1.394-.386,2.091-.576-.219.981-.392,1.975-.667,2.94a11.018,11.018,0,0,1-3.043,5.512c-.236.21-.437.46-.654.692" transform="translate(-215.711 -33.565)" fill="#5fa717"/><path d="M137.352,45.67c-.933.125-1.865.252-2.8.375-.434.057-.5-.19-.5-.558.042-4.647,1.927-7.4,6.382-8.651.422-.118.852-.205,1.278-.306l-.864,3.973c-.287-.054-.432-.087-.579-.107-.445-.061-.643.135-.5.565a2.715,2.715,0,0,1-.629,2.836c-.377.42-.788.81-1.18,1.217-.208.215-.408.438-.611.657" transform="translate(-110.374 -33.617)" fill="#5fa717"/><path d="M253.072,261.928c.409-.534.844-1.05,1.22-1.606a5.913,5.913,0,0,0,.684-4.445,7.521,7.521,0,0,0-2.413-4.429,2.6,2.6,0,0,1-.28-.36.916.916,0,0,1,1.149-.07,7.149,7.149,0,0,1,3.876,7.19,4.449,4.449,0,0,1-4.238,3.72" transform="translate(-207.718 -210.078)" fill="#614321"/><path d="M125.188,261.911c.4-.566.843-1.109,1.2-1.7,1.108-1.845.884-3.761.259-5.7a9.474,9.474,0,0,0-2.377-3.423.9.9,0,0,1,1.149-.09,7.017,7.017,0,0,1,3.984,6.44,4.455,4.455,0,0,1-4.215,4.476" transform="translate(-102.318 -210.064)" fill="#614321"/><path d="M280.74,43.006c.217-.232.418-.482.654-.692a11.018,11.018,0,0,0,3.043-5.512c.275-.965.448-1.959.667-2.94l2.338-.559c-.222,1.03-.392,1.923-.61,2.8a12.334,12.334,0,0,1-1.941,4.448,6.306,6.306,0,0,1-4.152,2.45" transform="translate(-231.147 -30.962)" fill="#539214"/><path d="M215.607,78.87a10.344,10.344,0,0,0-2.258-7.239,12.116,12.116,0,0,0-1.824-1.477c-.146-.117-.278-.251-.417-.377,4.913,1.132,6.913,4.464,6.684,9.283l-2.184-.19" transform="translate(-173.816 -60.992)" fill="#539114"/><path d="M88.853,79.3a10.8,10.8,0,0,0-.865-5.057,7.328,7.328,0,0,0-2.923-3.516,2.609,2.609,0,0,1-.439-.424c4.638,1,6.779,4.555,6.413,9.192l-2.187-.2" transform="translate(-69.678 -61.428)" fill="#539214"/><path d="M152.722,42.991c.2-.219.4-.441.611-.657.392-.407.8-.8,1.18-1.217a2.715,2.715,0,0,0,.629-2.836c-.143-.43.055-.626.5-.565.147.02.292.053.579.107l.864-3.973,2.36-.575-.64,3.137c-1.415.429-1.621.751-1.361,2.163a2.2,2.2,0,0,1-.4,1.791,6.467,6.467,0,0,1-4.322,2.625" transform="translate(-125.744 -30.938)" fill="#539214"/><path d="M357.789,172.869q.006-2.406.012-4.811l2.221-.715v5.526Z" transform="translate(-294.586 -141.323)" fill="#df7300"/><path d="M33.183,224.524a1.11,1.11,0,0,1,1.146,1.112,1.182,1.182,0,0,1-1.161,1.13,1.109,1.109,0,0,1-1.081-1.111,1.049,1.049,0,0,1,1.1-1.132" transform="translate(-26.418 -188.403)" fill="#050201"/><path d="M339.662,224.522a1.051,1.051,0,0,1,1.119,1.109,1.11,1.11,0,0,1-1.059,1.133,1.183,1.183,0,0,1-1.183-1.107,1.114,1.114,0,0,1,1.123-1.135" transform="translate(-278.735 -188.401)" fill="#050301"/><path d="M301.412,224.521a1.077,1.077,0,0,1,1.1,1.145,1.123,1.123,0,1,1-2.245-.046,1.09,1.09,0,0,1,1.149-1.1" transform="translate(-247.222 -188.4)" fill="#040201"/><path d="M206.674,225.656a1.166,1.166,0,0,1-1.165,1.108,1.186,1.186,0,0,1-1.08-1.2,1.091,1.091,0,0,1,1.14-1.042,1.078,1.078,0,0,1,1.106,1.137" transform="translate(-168.315 -188.399)" fill="#040201"/><path d="M71.449,275.546a1.139,1.139,0,0,1,1.149,1.118,1.173,1.173,0,0,1-1.152,1.128,1.1,1.1,0,0,1-1.093-1.1,1.088,1.088,0,0,1,1.1-1.151" transform="translate(-57.925 -230.412)" fill="#040201"/><path d="M302.506,276.694a1.105,1.105,0,0,1-1.156,1.1,1.177,1.177,0,0,1-1.09-1.124,1.137,1.137,0,0,1,1.146-1.122,1.089,1.089,0,0,1,1.1,1.147" transform="translate(-247.219 -230.412)" fill="#040201"/><path d="M52.172,303.3a1.167,1.167,0,0,1-1.139-1.134A1.181,1.181,0,0,1,52.2,301.05a1.123,1.123,0,0,1-.033,2.245" transform="translate(-42.018 -251.41)" fill="#040201"/><path d="M321.828,302.193a1.167,1.167,0,0,1-1.17,1.1,1.123,1.123,0,0,1,.03-2.245,1.18,1.18,0,0,1,1.141,1.143" transform="translate(-263.13 -251.41)" fill="#040201"/><path d="M72.6,327.715a1.093,1.093,0,0,1-1.159,1.09,1.076,1.076,0,0,1-1.086-1.091,1.164,1.164,0,0,1,1.118-1.155,1.18,1.18,0,0,1,1.128,1.156" transform="translate(-57.925 -272.413)" fill="#050201"/><path d="M168.428,327.695a1.093,1.093,0,0,1-1.137,1.113,1.077,1.077,0,0,1-1.108-1.069,1.165,1.165,0,0,1,1.095-1.177,1.177,1.177,0,0,1,1.15,1.132" transform="translate(-136.827 -272.416)" fill="#050201"/><path d="M205.539,326.559a1.166,1.166,0,0,1,1.139,1.134,1.078,1.078,0,0,1-1.066,1.111,1.094,1.094,0,0,1-1.179-1.069,1.179,1.179,0,0,1,1.106-1.176" transform="translate(-168.319 -272.413)" fill="#050201"/><path d="M301.368,328.8a1.09,1.09,0,0,1-1.106-1.143,1.183,1.183,0,0,1,1.112-1.1,1.166,1.166,0,0,1,1.132,1.141,1.082,1.082,0,0,1-1.138,1.106" transform="translate(-247.22 -272.412)" fill="#050201"/><path d="M321.829,251.168a1.187,1.187,0,0,1-1.171,1.114,1.093,1.093,0,0,1-1.074-1.177,1.067,1.067,0,0,1,1.1-1.067,1.167,1.167,0,0,1,1.14,1.131" transform="translate(-263.129 -209.409)" fill="#050301"/><path d="M168.426,225.632a1.123,1.123,0,1,1-2.245-.046,1.075,1.075,0,0,1,1.109-1.065,1.09,1.09,0,0,1,1.136,1.111" transform="translate(-136.825 -188.4)" fill="#040201"/><path d="M71.481,224.518a1.09,1.09,0,0,1,1.115,1.133,1.123,1.123,0,0,1-2.245-.022,1.077,1.077,0,0,1,1.13-1.111" transform="translate(-57.924 -188.397)" fill="#040201"/><path d="M34.332,276.7a1.182,1.182,0,0,1-1.187,1.094A1.092,1.092,0,0,1,32.09,276.6a1.075,1.075,0,0,1,1.118-1.057,1.168,1.168,0,0,1,1.125,1.152" transform="translate(-26.42 -230.411)" fill="#050201"/><path d="M340.771,276.692a1.09,1.09,0,0,1-1.145,1.1,1.185,1.185,0,0,1-1.1-1.116,1.169,1.169,0,0,1,1.147-1.131,1.082,1.082,0,0,1,1.1,1.144" transform="translate(-278.725 -230.413)" fill="#050201"/><path d="M33.229,328.812a1.064,1.064,0,0,1-1.138-1.095,1.107,1.107,0,0,1,1.107-1.15,1.18,1.18,0,0,1,1.135,1.151,1.132,1.132,0,0,1-1.1,1.094" transform="translate(-26.422 -272.42)" fill="#050201"/><path d="M52.171,252.281a1.181,1.181,0,0,1-1.135-1.147,1.167,1.167,0,0,1,1.1-1.1,1.073,1.073,0,0,1,1.14,1.1,1.107,1.107,0,0,1-1.109,1.147" transform="translate(-42.02 -209.407)" fill="#050301"/><path d="M185.26,251.123a1.132,1.132,0,0,1,2.263.03,1.132,1.132,0,1,1-2.263-.03" transform="translate(-152.534 -209.412)" fill="#040201"/><path d="M340.786,327.682a1.072,1.072,0,0,1-1.112,1.126,1.131,1.131,0,0,1-1.13-1.065,1.182,1.182,0,0,1,1.1-1.18,1.112,1.112,0,0,1,1.138,1.12" transform="translate(-278.74 -272.416)" fill="#040201"/><path d="M186.407,294.852a1.127,1.127,0,0,1,1.114,1.071,1.132,1.132,0,1,1-2.262.032,1.125,1.125,0,0,1,1.148-1.1" transform="translate(-152.533 -246.307)" fill="#030201"/></g></g></g></svg>