<svg xmlns="http://www.w3.org/2000/svg" width="74" height="66" viewBox="0 0 74 66"><g transform="translate(9624 8402)"><rect width="74" height="66" transform="translate(-9624 -8402)" fill="none"/><g transform="translate(-9617.077 -8399.335)"><path d="M328.236,128.781a13.824,13.824,0,0,1-.5,1.963,20.393,20.393,0,0,1-1.46,3.016c-.762,1.23-1.377,1.212-2.253.069-.725,1.152-1.231,2.564-2.943,2.549-1.676-.015-2.161-1.419-2.9-2.583-.075.114-.115.176-.156.236a1.025,1.025,0,0,1-1.863.056,10.322,10.322,0,0,1-2.125-6.4,10.111,10.111,0,0,1,2.288-6.751c2.867-3.38,7.281-3.193,9.9.387a10.5,10.5,0,0,1,1.887,4.853,1.708,1.708,0,0,0,.129.347Zm-11.3,2.668c.094-.2.182-.37.261-.548q1.418-3.188,2.836-6.375a2.272,2.272,0,0,1,.382-.66c.548-.567,1.341-.317,1.726.544.966,2.159,1.921,4.323,2.882,6.484.082.185.175.365.325.674,1.251-3.542,1.2-6.769-1.266-9.645a3.888,3.888,0,0,0-5.826-.145,8.866,8.866,0,0,0-1.32,9.669m4.174-4.378c-.659,1.494-1.247,2.8-1.809,4.125a.7.7,0,0,0,.026.54q.65,1.16,1.358,2.286c.29.464.556.467.843.011.472-.75.923-1.514,1.367-2.281a.581.581,0,0,0,.084-.433c-.586-1.367-1.194-2.725-1.869-4.248" transform="translate(-267.513 -101.007)" fill="#030303"/><path d="M172.416,316.218a3.974,3.974,0,0,0-.566-.232,10.963,10.963,0,0,1-8.149-8.959,6.07,6.07,0,0,1,7.4-6.969,10.954,10.954,0,0,1,8.706,8.773c.255,1.36-.181,1.822-1.548,1.587.132.563.28,1.106.386,1.657a2.379,2.379,0,0,1-2.781,2.863c-.578-.1-1.147-.25-1.8-.395a1.171,1.171,0,0,1-.579,1.674Zm-.882-2.433c-.093-.3-.144-.5-.218-.689-.833-2.171-1.664-4.342-2.509-6.508a1.072,1.072,0,0,1,1.485-1.483q2.477.968,4.959,1.921c.708.273,1.418.539,2.21.839a2.414,2.414,0,0,0-.077-.312,8.9,8.9,0,0,0-6.82-5.533,4,4,0,0,0-4.893,4.458,7.54,7.54,0,0,0,1.5,3.929,9.094,9.094,0,0,0,4.365,3.378m-.117-6.065c.584,1.522,1.113,2.911,1.657,4.294a.493.493,0,0,0,.294.256c.913.24,1.829.472,2.749.68.418.095.6-.144.534-.538a10.838,10.838,0,0,1-.278-1.144,2.518,2.518,0,0,0-2.2-2.518,23.656,23.656,0,0,1-2.756-1.03" transform="translate(-139.464 -255.447)" fill="#030303"/><path d="M51.831,43.319c1.313-.291,2.654-.929,3.845.242s.6,2.526.269,3.894c.166-.027.288-.045.409-.068a1.023,1.023,0,0,1,1.262,1.145,10.831,10.831,0,0,1-10.581,9.385,5.838,5.838,0,0,1-5.654-5.543c-.168-3.477,1.4-6.159,3.936-8.357a9.812,9.812,0,0,1,4.932-2.274c1.368-.224,1.8.188,1.581,1.576m-2.549.758c-3.076,1.016-5.819,4.417-5.912,7.534a4.063,4.063,0,0,0,5.007,4.243A9.11,9.11,0,0,0,53.653,52.7a7.858,7.858,0,0,0,1.525-2.691c-.2.066-.306.1-.412.139q-3.391,1.3-6.779,2.613a1.074,1.074,0,0,1-1.476-1.5q.443-1.127.878-2.257c.62-1.61,1.238-3.222,1.9-4.933m-.158,6.068c1.52-.584,2.865-1.1,4.2-1.624a.572.572,0,0,0,.323-.3c.247-.914.483-1.831.683-2.756.092-.423-.1-.65-.57-.531a18.67,18.67,0,0,1-1.954.472,1.467,1.467,0,0,0-1.333,1.17c-.366,1.157-.855,2.276-1.353,3.57" transform="translate(-35.374 -35.595)" fill="#030303"/><path d="M214.089,177.139a5.859,5.859,0,0,1-1.83,4.017,17.949,17.949,0,0,1-11.595,5.147c-.335.024-.668.076-1,.1a1.029,1.029,0,0,1-1.205-1.122,18.473,18.473,0,0,1,5.293-12.757,6.088,6.088,0,0,1,6.518-1.351,6.226,6.226,0,0,1,3.822,5.971m-13.575,7.144c.318-.037.414-.047.51-.06.117-.015.234-.036.352-.048a15.627,15.627,0,0,0,9.45-4.457,3.855,3.855,0,0,0,1.2-2.633,4.026,4.026,0,0,0-6.928-3.032,15.266,15.266,0,0,0-3.96,6.907c-.281,1.052-.409,2.145-.626,3.323" transform="translate(-169.112 -145.472)" fill="#030202"/><path d="M51.257,276.29a6.166,6.166,0,0,1,4.416,1.842,18.047,18.047,0,0,1,5.143,11.657c.021.3.065.589.088.885a1.06,1.06,0,0,1-1.188,1.265,18.325,18.325,0,0,1-12.6-5.225,6.047,6.047,0,0,1,3.49-10.349c.176-.022.353-.047.529-.068a1.1,1.1,0,0,1,.118-.007m7.567,13.523c-.14-.88-.229-1.664-.392-2.432a15.513,15.513,0,0,0-4.165-7.774,4.017,4.017,0,0,0-6.687,1.273,4.1,4.1,0,0,0,1.056,4.5,16.482,16.482,0,0,0,5.369,3.4,16.927,16.927,0,0,0,4.819,1.029" transform="translate(-38.662 -235.332)" fill="#030202"/><path d="M176.587,13.472a6.085,6.085,0,1,1-12.161.281A17.8,17.8,0,0,1,168.6,2.376c.325-.4.648-.8.987-1.183a1.06,1.06,0,0,1,1.77-.029,18.99,18.99,0,0,1,4.9,9.487c.167.93.223,1.88.33,2.821M170.48,3.295a15.8,15.8,0,0,0-4.026,10.559,4.045,4.045,0,0,0,3.825,4,3.972,3.972,0,0,0,4.1-3.129,9.476,9.476,0,0,0,.012-2.7,15.6,15.6,0,0,0-3.908-8.728" transform="translate(-140.141 -0.703)" fill="#030302"/><path d="M1.027,165.606a10.2,10.2,0,0,1,3.64-7.81,4.517,4.517,0,0,1,6.231,6.463c-.486.571-.968,1.139-.651,1.948a3.513,3.513,0,0,0,.572.88A4.539,4.539,0,0,1,4.1,173.183a10.806,10.806,0,0,1-3.071-7.577m2.036.154a8.457,8.457,0,0,0,2.243,5.749,2.6,2.6,0,0,0,3.742.373,2.54,2.54,0,0,0,.1-3.658,5.145,5.145,0,0,1-.8-1.3,3.629,3.629,0,0,1,.912-3.867,2.452,2.452,0,0,0-.252-3.505,2.507,2.507,0,0,0-3.522.189,8.524,8.524,0,0,0-2.425,6.016" transform="translate(-1.027 -133.644)" fill="#030303"/><path d="M286.026,274.45c-3.642.13-5.723-1.736-5.852-4.229a4.5,4.5,0,0,1,4.3-4.788,1.654,1.654,0,0,0,1.763-1.794,4.53,4.53,0,0,1,4.048-4.253,4.476,4.476,0,0,1,4.92,3.592,8.531,8.531,0,0,1-.808,5.193c-1.882,3.985-5.08,6.053-8.368,6.28m7.233-10.17a2.524,2.524,0,1,0-5.021-.345,3.578,3.578,0,0,1-3.6,3.511,2.514,2.514,0,1,0,.256,5.02,8.544,8.544,0,0,0,8.367-8.186" transform="translate(-238.681 -220.928)" fill="#040303"/><path d="M263.281,48.315a4.537,4.537,0,0,1,.52,9.058c-1.226.086-1.741.59-1.833,1.794a4.531,4.531,0,0,1-9.051-.457,10.573,10.573,0,0,1,10.363-10.395m-8.332,10.248-.156.056a9.062,9.062,0,0,0,.653,1.778,2.368,2.368,0,0,0,2.658.947,2.489,2.489,0,0,0,1.845-2.213c.219-2.393,1.4-3.607,3.662-3.769a2.515,2.515,0,0,0-.151-5.027,8.57,8.57,0,0,0-8.511,8.229" transform="translate(-215.48 -41.235)" fill="#040303"/><path d="M111.579,154.72c-.245,6.076-4.764,10.572-10.42,10.65a4.542,4.542,0,0,1-1.182-8.97,8.564,8.564,0,0,1,.88-.109,1.635,1.635,0,0,0,1.656-1.775,4.537,4.537,0,0,1,6.967-3.571,4.275,4.275,0,0,1,2.1,3.775m-2.042.4a2.531,2.531,0,0,0-2.39-2.875,2.568,2.568,0,0,0-2.641,2.535,4.844,4.844,0,0,1-.386,1.535,3.7,3.7,0,0,1-3.359,2.033,2.424,2.424,0,0,0-2.29,2.706,2.512,2.512,0,0,0,2.612,2.3,8.575,8.575,0,0,0,8.454-8.23" transform="translate(-82.259 -127.979)" fill="#030303"/><path d="M328.554,143.024a8.866,8.866,0,0,1,1.32-9.669,3.888,3.888,0,0,1,5.826.145c2.467,2.876,2.517,6.1,1.266,9.645-.149-.309-.242-.489-.325-.674-.961-2.161-1.916-4.325-2.882-6.484-.385-.861-1.178-1.112-1.726-.544a2.268,2.268,0,0,0-.382.66q-1.424,3.185-2.836,6.375c-.079.178-.167.352-.261.548" transform="translate(-279.131 -112.582)" fill="#e2e2e2"/><path d="M351.05,176.071c.674,1.523,1.282,2.881,1.869,4.248a.581.581,0,0,1-.084.433c-.445.767-.9,1.531-1.367,2.281-.287.456-.552.452-.843-.011q-.706-1.127-1.358-2.286a.7.7,0,0,1-.026-.54c.563-1.321,1.15-2.631,1.809-4.125" transform="translate(-297.453 -150.008)" fill="#759f25"/><path d="M183.16,325.348a9.093,9.093,0,0,1-4.365-3.378,7.539,7.539,0,0,1-1.5-3.929,4,4,0,0,1,4.892-4.458,8.9,8.9,0,0,1,6.82,5.533,2.472,2.472,0,0,1,.077.312c-.792-.3-1.5-.567-2.21-.839q-2.481-.957-4.96-1.921a1.072,1.072,0,0,0-1.485,1.483c.846,2.166,1.676,4.337,2.509,6.508.074.192.125.393.218.689" transform="translate(-151.09 -267.01)" fill="#e1e1e1"/><path d="M216.028,352.424a23.643,23.643,0,0,0,2.756,1.03,2.518,2.518,0,0,1,2.2,2.518,10.835,10.835,0,0,0,.278,1.144c.069.393-.116.632-.534.538-.921-.208-1.836-.44-2.749-.68a.493.493,0,0,1-.294-.256c-.544-1.383-1.073-2.772-1.657-4.294" transform="translate(-184.074 -300.151)" fill="#749f25"/><path d="M60.728,57.776c-.657,1.712-1.275,3.323-1.9,4.933q-.435,1.13-.878,2.257a1.074,1.074,0,0,0,1.476,1.5q3.387-1.314,6.78-2.613c.106-.041.215-.073.412-.139A7.856,7.856,0,0,1,65.1,66.4a9.11,9.11,0,0,1-5.276,3.151,4.063,4.063,0,0,1-5.007-4.243c.093-3.117,2.836-6.518,5.912-7.534" transform="translate(-46.819 -49.294)" fill="#e2e2e2"/><path d="M93.544,68.566c.5-1.295.987-2.413,1.353-3.57a1.467,1.467,0,0,1,1.333-1.17,18.673,18.673,0,0,0,1.954-.472c.469-.119.661.108.57.531-.2.925-.437,1.842-.683,2.756a.572.572,0,0,1-.323.3c-1.339.527-2.684,1.04-4.2,1.624" transform="translate(-79.794 -54.015)" fill="#759f25"/><path d="M212.313,196.1c.217-1.178.345-2.271.626-3.323a15.266,15.266,0,0,1,3.96-6.907,4.026,4.026,0,0,1,6.928,3.032,3.855,3.855,0,0,1-1.2,2.633,15.627,15.627,0,0,1-9.45,4.457c-.118.012-.234.033-.352.048-.1.013-.193.023-.51.06" transform="translate(-180.911 -157.285)" fill="#8b411c"/><path d="M70.712,301.459a16.926,16.926,0,0,1-4.819-1.029,16.48,16.48,0,0,1-5.369-3.4,4.1,4.1,0,0,1-1.056-4.5,4.017,4.017,0,0,1,6.687-1.273,15.513,15.513,0,0,1,4.165,7.775c.163.768.253,1.551.392,2.432" transform="translate(-50.55 -246.977)" fill="#8b411c"/><path d="M182.1,18.144a15.6,15.6,0,0,1,3.908,8.728,9.476,9.476,0,0,1-.012,2.7,3.972,3.972,0,0,1-4.1,3.129,4.045,4.045,0,0,1-3.825-4A15.8,15.8,0,0,1,182.1,18.144" transform="translate(-151.759 -15.552)" fill="#8b411c"/><path d="M14.728,177.616a8.524,8.524,0,0,1,2.425-6.016,2.507,2.507,0,0,1,3.522-.189,2.452,2.452,0,0,1,.252,3.505,3.629,3.629,0,0,0-.912,3.867,5.145,5.145,0,0,0,.8,1.3,2.54,2.54,0,0,1-.1,3.658,2.6,2.6,0,0,1-3.742-.373,8.457,8.457,0,0,1-2.243-5.749" transform="translate(-12.692 -145.501)" fill="#e5a663"/><path d="M304.825,275.83a8.544,8.544,0,0,1-8.367,8.186A2.514,2.514,0,1,1,296.2,279a3.578,3.578,0,0,0,3.6-3.511,2.524,2.524,0,1,1,5.021.344" transform="translate(-250.247 -232.478)" fill="#e6a663"/><path d="M265.7,70.154a8.57,8.57,0,0,1,8.511-8.229,2.515,2.515,0,0,1,.151,5.027c-2.265.162-3.444,1.376-3.663,3.769a2.489,2.489,0,0,1-1.845,2.213,2.368,2.368,0,0,1-2.658-.947,9.06,9.06,0,0,1-.653-1.778l.156-.056" transform="translate(-226.23 -52.826)" fill="#e6a663"/><path d="M121.134,166.807a8.575,8.575,0,0,1-8.454,8.23,2.512,2.512,0,0,1-2.612-2.3,2.424,2.424,0,0,1,2.29-2.706A3.7,3.7,0,0,0,115.717,168a4.845,4.845,0,0,0,.386-1.535,2.567,2.567,0,0,1,2.641-2.535,2.531,2.531,0,0,1,2.39,2.875" transform="translate(-93.856 -139.668)" fill="#e6a663"/></g></g></svg>