<svg xmlns="http://www.w3.org/2000/svg" width="74" height="66" viewBox="0 0 74 66"><g transform="translate(9624 8402)"><rect width="74" height="66" transform="translate(-9624 -8402)" fill="none"/><g transform="translate(-9654.628 -8445.482)"><g transform="translate(35.745 46.693)"><path d="M97.344,58.129c.662.181.418-.347.423-.593A10.813,10.813,0,0,1,101.2,49.7a10.968,10.968,0,1,1,9.974,18.644c-.6.13-1.2.2-1.9.32v.866q0,16.18,0,32.36c0,2.856-1.482,4.35-4.316,4.35-13.136,0-26.272-.032-39.408.027a4.108,4.108,0,0,1-4.382-4.412c.1-5.761.018-11.525.009-17.287.009-.28.024-.559.024-.839q0-10.664,0-21.328a5.829,5.829,0,0,1,.08-1.215c.412-1.913,1.911-3,4.112-3q15.522,0,31.044,0c.3,0,.606-.037.91-.056m5.395,8.908c.026-.027,0-.012-.008.01-.267.521-.527,1.046-.8,1.564-1.983,3.767-4.871,6.508-9.1,7.449-2.574.572-5.225.81-7.847,1.157a20.11,20.11,0,0,0-7.277,2.142,20.646,20.646,0,0,0-5.377,4.921c-2.335,2.69-4.994,4.808-8.936,3.739-.026.057-.065.1-.065.149q-.013,1.95-.018,3.9c0,1.483.469,1.913,1.96,1.645a3.589,3.589,0,0,0,1.6-.666A7.186,7.186,0,0,0,68.543,91.2c1.975-3.385,7.015-4.54,10.42-2.958,2.619,1.217,3.344,3.462,1.955,6a7.572,7.572,0,0,0-.671,1.452c-.875,2.954-.017,5.624,1.426,8.18a.592.592,0,0,0,.413.274c1.393.02,2.787.012,4.253.012-.082-.257-.119-.426-.187-.582a12.437,12.437,0,0,1-1.087-5.348c.05-1.651.228-3.3.321-4.95.118-2.085.2-4.172.311-6.258a5.784,5.784,0,0,1,2.9-5.07,11.9,11.9,0,0,1,7.9-1.417,20.309,20.309,0,0,1,7.482,2.963c1.018.611,2.022,1.244,3.072,1.893.33-1.612.172-2.973-1.264-3.889-.662-.423-1.356-.8-2.035-1.192a19.906,19.906,0,0,1-2.092-1.244,2.97,2.97,0,0,1-1-3.684,6.275,6.275,0,0,1,1.465-2.2c1.428-1.257,2.983-2.374,4.517-3.505.428-.315.659-.6.5-.979l-4.39-1.662m-4.7-6.781c-2.792,0-5.494.006-8.2-.007-.412,0-.559.149-.648.552a9.658,9.658,0,0,1-4.911,6.5,22.616,22.616,0,0,1-6.22,2.267c-3.17.736-6.363,1.379-9.519,2.169a8.876,8.876,0,0,0-4.72,2.665,2.058,2.058,0,0,0-.494,1.21c-.04,3.109-.009,6.22-.035,9.33a.938.938,0,0,0,.645.986,3.871,3.871,0,0,0,3.322-.165,10.949,10.949,0,0,0,3.909-3.36,17.426,17.426,0,0,1,10.735-6.786c2.72-.516,5.486-.8,8.239-1.121,5.378-.624,8.767-3.712,10.75-8.568a.768.768,0,0,0-.077-.673,11.869,11.869,0,0,1-2.782-5m3.075,43.9c1.4,0,2.806.013,4.209,0a1.664,1.664,0,0,0,1.818-1.729c.018-2.474.018-4.948-.013-7.422a.889.889,0,0,0-.465-.6,20.721,20.721,0,0,1-2.085-.909c-1.587-1.016-3.093-2.157-4.671-3.188-1.511-.987-3.033-1.971-4.623-2.817-1.061-.565-1.551-.262-1.955.851-.078.215-.183.42-.272.631a11.5,11.5,0,0,0-.783,7.312,21.419,21.419,0,0,0,4.037,7.651.948.948,0,0,0,.671.221c1.377.02,2.755.01,4.133.009M99.865,57.566a8.88,8.88,0,1,0,9.08-8.792,8.886,8.886,0,0,0-9.08,8.792m7.283,34.955a19.133,19.133,0,0,1,.024-2.744,2.5,2.5,0,0,0-1.539-2.823c-2.51-1.455-4.9-3.119-7.727-3.954a10.147,10.147,0,0,0-8.329.815,2.978,2.978,0,0,0-1.6,2.209c-.137,1.057-.208,2.123-.28,3.187-.107,1.573-.209,3.147-.278,4.722a41.479,41.479,0,0,0-.131,5.624,17.959,17.959,0,0,0,1.233,4.051.918.918,0,0,0,.644.528c1.516.047,3.034.024,4.68.024-.456-.7-.848-1.289-1.22-1.887a15.919,15.919,0,0,1-2.76-8.6,16.89,16.89,0,0,1,1.894-7.017,2.564,2.564,0,0,1,2.488-1.477,7.566,7.566,0,0,1,4.224,1.6c2.139,1.427,4.211,2.955,6.334,4.406.684.468,1.442.829,2.35,1.344M87.106,60.365a1.04,1.04,0,0,0-.189-.086c-3.771-.009-7.542-.024-11.312,0a1.007,1.007,0,0,0-.661.472,17.383,17.383,0,0,1-6.676,6.244,48.213,48.213,0,0,1-4.922,1.963v2.883a1.692,1.692,0,0,0,.316-.126,16.742,16.742,0,0,1,5.961-2.46c3.169-.734,6.36-1.372,9.521-2.139a13.08,13.08,0,0,0,5.479-2.585,7.051,7.051,0,0,0,2.483-4.163m-7.76,43.794c-.136-.337-.222-.567-.32-.791-1.539-3.492-1.845-6.949.164-10.4.715-1.23.313-2.19-1.074-2.814-2.511-1.131-6.253-.46-7.741,2.106a8.311,8.311,0,0,1-.649.945,6.226,6.226,0,0,1-4.477,2.625c-.618.051-1.244.008-1.939.008v1.427c0,1.653.211,1.857,1.91,1.831a5.584,5.584,0,0,0,.607-.063,11.147,11.147,0,0,0,4.97-2.4,19.477,19.477,0,0,1,2.294-1.509,1.653,1.653,0,0,1,2.557,1.218,9.338,9.338,0,0,1,.206,1.969,13.61,13.61,0,0,0,1.257,5.314.918.918,0,0,0,.546.508,12.762,12.762,0,0,0,1.69.024M73.63,97.31c-1.6,1-3.136,2.042-4.754,2.936a7.951,7.951,0,0,1-5.568.73c0,.377,0,.7,0,1.024,0,1.605.554,2.158,2.155,2.16q3.362,0,6.723,0h2.747c-.315-1.17-.677-2.255-.888-3.368-.215-1.136-.281-2.3-.415-3.482M63.324,66.458c2.644.122,8.479-3.817,9.244-6.2-2.534,0-5.056-.016-7.578.009a1.585,1.585,0,0,0-1.654,1.484c-.043,1.55-.012,3.1-.012,4.708m43.785,5.507a13.488,13.488,0,0,0-4.033,3.242c-.9,1.2-.753,2.024.561,2.729,1.135.608,2.3,1.156,3.471,1.738Z" transform="translate(-55.964 -46.693)"/><path d="M77.125,62.124c-.3.02-.607.056-.91.056q-15.522,0-31.044,0c-2.2,0-3.7,1.087-4.113,3a5.825,5.825,0,0,0-.079,1.215q-.007,10.664,0,21.328c0,.28-.016.559-.024.839A22.488,22.488,0,0,1,39.132,62.34a22.956,22.956,0,0,1,5.879-6.323,3.48,3.48,0,0,1,.743-.327l.867,1.911c-.951,1.178-1.1,1.58-.551,2.055,1.017.888,1.562-.157,2.222-.667.655.524,1.221,1.553,2.132.718,1.037-.951-.142-1.575-.6-2.242,1.042-1.153,1.193-1.644.7-2.172-.511-.547-.9-.438-2.187.58L46.8,54.9a18.745,18.745,0,0,1,7.046-2.73,23.893,23.893,0,0,1,4.832-.451,22.1,22.1,0,0,1,13.44,4.833,20.814,20.814,0,0,1,5.007,5.568M59.8,56.929a1.025,1.025,0,1,0-.033-2.05,1.025,1.025,0,1,0,.033,2.05" transform="translate(-35.745 -50.688)" fill="#d0dbfc"/><path d="M85.734,67.312l1.535.969c1.284-1.018,1.676-1.127,2.187-.58.493.528.342,1.019-.7,2.172.46.667,1.639,1.292.6,2.242-.911.835-1.477-.194-2.132-.718-.66.51-1.2,1.554-2.222.667-.544-.475-.4-.877.551-2.055L84.688,68.1h0l.1-.183.95-.6" transform="translate(-74.679 -63.097)"/><path d="M84.785,70.27l-.1.183.1-.183" transform="translate(-74.679 -65.45)" fill="#d0dbfc"/><path d="M111.108,146.159l4.389,1.661c.164.377-.067.664-.5.979-1.534,1.132-3.089,2.248-4.517,3.506a6.272,6.272,0,0,0-1.465,2.2,2.97,2.97,0,0,0,1,3.684,19.915,19.915,0,0,0,2.092,1.244c.679.4,1.373.769,2.035,1.192,1.435.916,1.593,2.277,1.264,3.889-1.051-.648-2.055-1.282-3.072-1.893a20.308,20.308,0,0,0-7.482-2.963,11.9,11.9,0,0,0-7.9,1.417,5.784,5.784,0,0,0-2.9,5.07c-.112,2.085-.193,4.173-.311,6.258-.093,1.651-.271,3.3-.321,4.949a12.442,12.442,0,0,0,1.086,5.348c.067.156.105.325.187.582-1.466,0-2.86.008-4.253-.012a.592.592,0,0,1-.413-.274c-1.443-2.556-2.3-5.226-1.426-8.18a7.566,7.566,0,0,1,.671-1.452c1.39-2.533.665-4.778-1.954-6-3.406-1.582-8.445-.428-10.42,2.957a7.188,7.188,0,0,1-1.678,1.848,3.591,3.591,0,0,1-1.6.666c-1.491.268-1.963-.161-1.96-1.645q0-1.951.017-3.9c0-.046.039-.092.065-.149,3.942,1.07,6.6-1.048,8.936-3.739a20.648,20.648,0,0,1,5.377-4.921,20.108,20.108,0,0,1,7.277-2.143c2.622-.346,5.272-.585,7.846-1.157,4.231-.941,7.118-3.682,9.1-7.449.273-.518.533-1.043.8-1.564.011-.022.035-.037.009-.01M88.38,165.518a1.053,1.053,0,1,0-.014-2.105,1.053,1.053,0,0,0,.014,2.105m3.121-6.261a1.055,1.055,0,0,0-1.044,1.072,1.107,1.107,0,0,0,1.051,1.007,1.059,1.059,0,0,0,1.026-1.014,1.01,1.01,0,0,0-1.034-1.064" transform="translate(-64.334 -125.815)" fill="#a7b859"/><path d="M106.355,113.016a11.865,11.865,0,0,0,2.782,5,.768.768,0,0,1,.077.673c-1.984,4.855-5.373,7.943-10.751,8.568-2.753.32-5.52.6-8.239,1.121a17.427,17.427,0,0,0-10.735,6.786,10.948,10.948,0,0,1-3.909,3.36,3.871,3.871,0,0,1-3.322.166.939.939,0,0,1-.645-.986c.026-3.11-.006-6.22.035-9.33a2.059,2.059,0,0,1,.494-1.21,8.876,8.876,0,0,1,4.72-2.665c3.156-.79,6.349-1.433,9.519-2.169A22.618,22.618,0,0,0,92.6,120.06a9.658,9.658,0,0,0,4.911-6.5c.089-.4.236-.554.648-.552,2.7.013,5.4.007,8.2.007M94.54,125.594a25.352,25.352,0,0,0,7.23-1.515,7.321,7.321,0,0,0,4.653-5.279,3.709,3.709,0,0,0-4.6-4.788,5.411,5.411,0,0,0-4.126,4.26,4.286,4.286,0,0,1-2.77,3.206,12.822,12.822,0,0,0-2.484,1.326,1.337,1.337,0,0,0-.652,1.512,1.419,1.419,0,0,0,1.242,1.091c.5.087,1.007.127,1.511.187m-16.671,6.272a1.039,1.039,0,1,0-1.113,1.017,1.075,1.075,0,0,0,1.113-1.017m12.5-7.331a1.01,1.01,0,0,0-.977-1.059,1.047,1.047,0,0,0-1.053.994,1.006,1.006,0,0,0,1.025,1.083.979.979,0,0,0,1-1.018" transform="translate(-64.282 -99.454)" fill="#0b481e"/><path d="M221.1,261.839c-1.378,0-2.755.01-4.133-.01a.945.945,0,0,1-.671-.221,21.406,21.406,0,0,1-4.037-7.651,11.5,11.5,0,0,1,.783-7.312c.09-.211.195-.416.273-.631.4-1.112.894-1.415,1.954-.851,1.591.847,3.112,1.831,4.623,2.817,1.578,1.031,3.084,2.172,4.671,3.188a20.676,20.676,0,0,0,2.085.909.89.89,0,0,1,.465.6c.031,2.473.031,4.948.013,7.422a1.663,1.663,0,0,1-1.818,1.729c-1.4.018-2.806,0-4.209,0m-3.34-9.435a1.007,1.007,0,0,0-1.035-.991,1.015,1.015,0,1,0,1.035.991m5.217,5.265a1.016,1.016,0,0,0-.985-1.039,1.082,1.082,0,0,0-1.117,1,1.052,1.052,0,0,0,2.1.037" transform="translate(-175.947 -204.372)" fill="#a8b859"/><path d="M208.567,231.778c-.909-.515-1.666-.876-2.351-1.344-2.123-1.452-4.195-2.98-6.334-4.406a7.565,7.565,0,0,0-4.224-1.6,2.565,2.565,0,0,0-2.488,1.477,16.893,16.893,0,0,0-1.894,7.017,15.917,15.917,0,0,0,2.76,8.6c.372.6.764,1.183,1.22,1.887-1.646,0-3.164.022-4.68-.024a.919.919,0,0,1-.644-.528,17.97,17.97,0,0,1-1.233-4.051,41.479,41.479,0,0,1,.132-5.624c.069-1.575.171-3.149.278-4.722.072-1.064.143-2.13.28-3.187a2.979,2.979,0,0,1,1.6-2.209,10.147,10.147,0,0,1,8.33-.814c2.827.834,5.217,2.5,7.727,3.954a2.5,2.5,0,0,1,1.539,2.823,19.129,19.129,0,0,0-.024,2.744" transform="translate(-157.382 -185.95)" fill="#0b481e"/><path d="M95.619,113.188a7.052,7.052,0,0,1-2.483,4.163,13.082,13.082,0,0,1-5.479,2.585c-3.16.767-6.352,1.4-9.521,2.139a16.746,16.746,0,0,0-5.962,2.461,1.68,1.68,0,0,1-.316.126v-2.883a48.17,48.17,0,0,0,4.921-1.963,17.381,17.381,0,0,0,6.676-6.244,1.009,1.009,0,0,1,.661-.472c3.771-.022,7.542-.006,11.312,0a1.081,1.081,0,0,1,.189.086m-8.152,3.026a1.021,1.021,0,0,0-1.017-1.015,1.077,1.077,0,0,0-1.083,1.04,1.116,1.116,0,0,0,1.028,1.034,1.072,1.072,0,0,0,1.071-1.059" transform="translate(-64.477 -99.516)" fill="#a7b859"/><path d="M87.712,271.236a12.723,12.723,0,0,1-1.69-.024.917.917,0,0,1-.546-.508,13.607,13.607,0,0,1-1.257-5.314,9.353,9.353,0,0,0-.206-1.969,1.653,1.653,0,0,0-2.557-1.218,19.472,19.472,0,0,0-2.294,1.509,11.149,11.149,0,0,1-4.97,2.4,5.644,5.644,0,0,1-.607.063c-1.7.026-1.91-.178-1.91-1.831v-1.427c.695,0,1.321.043,1.939-.008a6.226,6.226,0,0,0,4.477-2.625,8.335,8.335,0,0,0,.649-.945c1.488-2.566,5.23-3.237,7.741-2.106,1.388.625,1.79,1.585,1.074,2.814-2.008,3.453-1.7,6.91-.164,10.4.1.224.184.454.32.791" transform="translate(-64.33 -213.77)" fill="#0b481e"/><path d="M82,294.311c.135,1.182.2,2.346.416,3.482.21,1.113.572,2.2.888,3.368H80.552q-3.362,0-6.723,0c-1.6,0-2.15-.555-2.155-2.16,0-.323,0-.646,0-1.024a7.949,7.949,0,0,0,5.568-.73c1.617-.894,3.152-1.938,4.753-2.936" transform="translate(-64.329 -243.694)" fill="#a7b859"/><path d="M71.71,119.232c0-1.605-.03-3.157.012-4.708a1.585,1.585,0,0,1,1.654-1.484c2.522-.025,5.044-.009,7.578-.009-.765,2.383-6.6,6.322-9.244,6.2" transform="translate(-64.35 -99.467)" fill="#0b481e"/><path d="M268.018,170.324v7.709c-1.169-.582-2.337-1.13-3.471-1.738-1.315-.7-1.465-1.529-.561-2.729a13.489,13.489,0,0,1,4.033-3.242" transform="translate(-216.874 -145.052)" fill="#0b481e"/><path d="M149.293,69.241a1.025,1.025,0,1,1-.033-2.05,1.025,1.025,0,1,1,.033,2.05" transform="translate(-125.242 -63)"/><path d="M149.287,232.723a1.053,1.053,0,0,1-.014-2.105,1.053,1.053,0,1,1,.014,2.105" transform="translate(-125.24 -193.02)"/><path d="M164.584,210.288a1.01,1.01,0,0,1,1.034,1.064,1.059,1.059,0,0,1-1.026,1.014,1.107,1.107,0,0,1-1.051-1.007,1.055,1.055,0,0,1,1.044-1.072" transform="translate(-137.416 -176.846)"/><path d="M172.88,128.98c-.5-.061-1.011-.1-1.511-.188a1.418,1.418,0,0,1-1.242-1.091,1.336,1.336,0,0,1,.652-1.511,12.809,12.809,0,0,1,2.484-1.326,4.286,4.286,0,0,0,2.77-3.206,5.411,5.411,0,0,1,4.126-4.26,3.709,3.709,0,0,1,4.6,4.788,7.321,7.321,0,0,1-4.653,5.279,25.366,25.366,0,0,1-7.23,1.515m1.846-2.442.113.272c1.575-.457,3.169-.86,4.722-1.384,2.041-.69,2.9-2.359,3.274-4.327a1.361,1.361,0,0,0-1.179-1.666,3.089,3.089,0,0,0-3.476,2.4,6.982,6.982,0,0,1-3.454,4.7" transform="translate(-142.621 -102.84)"/><path d="M94.129,201.026a1.039,1.039,0,1,1-2.077-.063,1.039,1.039,0,1,1,2.077.063" transform="translate(-80.541 -168.614)"/><path d="M155.466,165.267a.979.979,0,0,1-1,1.018,1.006,1.006,0,0,1-1.025-1.083,1.047,1.047,0,0,1,1.053-.994,1.01,1.01,0,0,1,.977,1.059" transform="translate(-129.377 -140.186)"/><path d="M232.067,277.809a1.055,1.055,0,1,1-1.035-.991,1.007,1.007,0,0,1,1.035.991" transform="translate(-190.257 -229.776)"/><path d="M257.614,303.369a1.052,1.052,0,0,1-2.1-.037,1.082,1.082,0,0,1,1.117-1,1.016,1.016,0,0,1,.985,1.039" transform="translate(-210.588 -250.072)"/><path d="M264.816,81.991a1.056,1.056,0,0,1-1.008-1.631c.924-1.983,1.9-3.942,2.789-5.94a3.277,3.277,0,0,1,1.842-1.857c1.991-.839,3.92-1.824,5.868-2.764a1.124,1.124,0,0,1,1.467.123,1.152,1.152,0,0,1,.068,1.417c-1.05,2.2-2.081,4.418-3.147,6.614a1.556,1.556,0,0,1-.661.682c-2.243,1.086-4.5,2.139-6.759,3.2a3.592,3.592,0,0,1-.458.159m3.468-6.224-1.306,2.786.143.106,2.742-1.312-1.58-1.58m3.132.021,1.287-2.732-.141-.111-2.73,1.306,1.585,1.538" transform="translate(-217.069 -64.908)"/><path d="M140.041,124.428a1.072,1.072,0,0,1-1.071,1.059,1.116,1.116,0,0,1-1.028-1.034,1.077,1.077,0,0,1,1.083-1.04,1.021,1.021,0,0,1,1.017,1.015" transform="translate(-117.051 -107.73)"/><path d="M192.8,134.747a6.982,6.982,0,0,0,3.454-4.7,3.089,3.089,0,0,1,3.476-2.4,1.361,1.361,0,0,1,1.179,1.666c-.376,1.969-1.233,3.638-3.274,4.327-1.553.524-3.146.927-4.722,1.384l-.113-.272" transform="translate(-160.695 -111.049)" fill="#a7b759"/><path d="M281.206,99.815l1.58,1.58-2.742,1.312-.143-.106,1.306-2.786" transform="translate(-229.991 -88.956)" fill="#98b9da"/><path d="M295.441,88.849l-1.585-1.538L296.586,86l.141.111-1.287,2.732" transform="translate(-241.094 -77.969)" fill="#dd5f50"/></g></g></g></svg>