<svg xmlns="http://www.w3.org/2000/svg" width="74" height="66" viewBox="0 0 74 66"><g transform="translate(9624 8402)"><rect width="74" height="66" transform="translate(-9624 -8402)" fill="none"/><g transform="translate(-9645.812 -8401.63)"><g transform="translate(32.812 0.629)"><path d="M34.443,64.045a2.693,2.693,0,0,1-1.631-2.866c.047-5.92.02-11.841.021-17.761a7.134,7.134,0,0,1,4.94-7.149c3.88-1.479,7.764-2.948,11.64-4.439.2-.078.468-.309.477-.481s-.239-.413-.432-.52a7.468,7.468,0,0,1-4.14-6.567c-.019-.452-.021-.9-.032-1.357,0-.018-.02-.036-.039-.068a4.054,4.054,0,0,1-3.885-2.892,4.736,4.736,0,0,1,.666-4.466,1.342,1.342,0,0,0,.21-.732c.052-1.936-.062-3.889.146-5.807A9.494,9.494,0,0,1,51.27.678c2.344-.105,4.7-.022,7.047.09a7.979,7.979,0,0,1,4,1.5c.7.465.786.764.467,1.557a1.134,1.134,0,0,1-1.515-.013,6.313,6.313,0,0,0-3.194-1.2c-1.434-.089-2.875-.063-4.314-.087-.639-.007-1.278-.033-1.916-.017a7.787,7.787,0,0,0-6.17,3.127c-2.013,2.537-1.533,5.5-1.56,8.428l1.193-.186c0-.522,0-1.014,0-1.506a1.544,1.544,0,0,1,2.615-1.135c.308.274.581.587.895.853.07.06.245,0,.371-.009q.879-.822,1.758-1.644c.572-.533,1-.564,1.548,0,.615.637,1.169,1.334,1.765,2.023.805-.767,1.414-1.349,2.024-1.928.711-.675,1.052-.671,1.776.02.6.576,1.206,1.154,1.888,1.807.348-.389.634-.743.955-1.062A1.546,1.546,0,0,1,63.583,12.4c0,.489,0,.978,0,1.476l1.205.181c0-1.044-.022-2.052.005-3.059a8.719,8.719,0,0,0-.753-4.026.943.943,0,0,1,.385-1.282c.742-.181,1.047-.035,1.366.662a9.206,9.206,0,0,1,.85,3.768c.015,1.547,0,3.095.016,4.642a1.324,1.324,0,0,0,.219.728,4.422,4.422,0,0,1,.889,2.707q-.009,5.88,0,11.759a2.537,2.537,0,0,0,2.773,2.823c1.361.013,2.723,0,4.161,0V32.11q0-6.344,0-12.687a3.326,3.326,0,0,1,.011-.556.925.925,0,0,1,1.838.023,3.918,3.918,0,0,1,.009.556q0,6.313,0,12.626v.692c1.552,0,3.056.052,4.555-.015a2.426,2.426,0,0,0,2.378-2.568q.012-5.818,0-11.635a3.111,3.111,0,0,1,.013-.556.925.925,0,0,1,1.83-.016,2.958,2.958,0,0,1,.015.556q0,7.551,0,15.1a4.4,4.4,0,0,1-4.7,4.727c-.821.007-1.643,0-2.544,0,0,1.11-.007,2.175,0,3.239a.953.953,0,1,1-1.858,0c.014-1.047,0-2.094,0-3.185h-1.2v9.431h1.128c0-.476,0-.908,0-1.339,0-.8.215-1.083.993-1.3a1,1,0,0,1,.928,1.164c-.006.206.012.413,0,.618a2.192,2.192,0,0,0,.738,2.12,2.593,2.593,0,0,1,.806,2.072c.009,1.65.016,3.3,0,4.949a3.384,3.384,0,0,1-1.169,2.5,1.283,1.283,0,0,0-.354.767,11.778,11.778,0,0,0-.009,1.854,2.483,2.483,0,0,1-1.682,2.8H48.687l-.672-.986c.141-.7.613-.88,1.273-.879q8.885.018,17.769.007h.7v-.665q0-4.178,0-8.357c0-.78.327-1.216.908-1.229.6-.013.946.443.949,1.256,0,.124,0,.248,0,.372v8.593h3.531c0-.791-.014-1.553.006-2.313a.673.673,0,0,0-.412-.717,2.135,2.135,0,0,1-.994-2.7,1.243,1.243,0,0,0-.008-.774c-.257-.717.149-1.385.119-2.023-.032-.665-.358-1.316-.1-2.027a1.137,1.137,0,0,0-.007-.719,2.109,2.109,0,0,1,.983-2.7.712.712,0,0,0,.416-.777c-.01-2.208-.005-4.416-.005-6.624a2.476,2.476,0,0,0-2.456-2.425,4.724,4.724,0,0,1-3.27-1.071,1.244,1.244,0,0,0-.39-.135c.284,1.332.561,2.591.819,3.853a2.181,2.181,0,0,1-1.7,2.72Q60.6,45.168,55.03,46.573a2.566,2.566,0,0,1-1.2-.007c-3.692-.928-7.376-1.886-11.064-2.833a2.195,2.195,0,0,1-1.715-2.759q.211-1.028.419-2.056l.477-2.25L38.38,38.024a5.293,5.293,0,0,0-3.688,5.342q0,9,0,18c0,.144-.047.313.013.427.08.153.24.374.369.376,1.393.027,2.787.017,4.2.017,0-3.042-.014-6.009.017-8.976a3.919,3.919,0,0,1,.369-1.121c.927-.343,1.47.033,1.472,1.035q.006,4.2,0,8.394v.669c1.109,0,2.137.025,3.164-.009a1.117,1.117,0,0,1,1.287.878l-.614.989Zm41.5-14.256c-.656-.014-1.312-.047-1.966-.03-.169,0-.334.163-.5.25a1.743,1.743,0,0,0,.33.386.919.919,0,0,1-.032,1.724c-.452.26-.4.438.016.674a.91.91,0,0,1,0,1.714c-.417.243-.45.424-.007.681.816.475.811,1.22.022,1.723a1.7,1.7,0,0,0-.326.387c.168.092.334.257.5.262.656.02,1.313-.011,1.969-.022a1.527,1.527,0,0,0,1.846-1.669q.01-2.219,0-4.439a1.494,1.494,0,0,0-1.85-1.642m-4.09-15.115c-1.374-.109-2.812.13-4.044-.826a2.359,2.359,0,0,0,2.038,2.582c.952.095,1.921.024,2.883.026,2.183.014,4.365.034,6.548.04a18.091,18.091,0,0,0,2.1-.061,2.409,2.409,0,0,0,2.08-2.581c-1.232.9-2.626.786-4,.79q-3.8.01-7.6.03M50.06,17.2A1.124,1.124,0,0,1,49.4,16c.032-.491.007-.985.007-1.523-1.132.242-1.43-.9-2.216-1.279,0,3.237,0,6.431,0,9.625a1.026,1.026,0,0,0,.1.538,3.693,3.693,0,0,0,.541.544c.142-.2.4-.388.409-.593a4.245,4.245,0,0,1,1.942-3.342l2.348-.708c-.222-.181-.492-.391-.749-.613a.935.935,0,0,1-.051-1.574c.59-.547,1.189-1.084,1.8-1.6a.926.926,0,1,1,1.218,1.389c-.326.313-.673.606-1,.9l1.655,1.681c.329,0,.866-.021,1.4,0a3.984,3.984,0,0,1,3.716,3.084,5.642,5.642,0,0,0,.105.73,3.57,3.57,0,0,0,.426.653c.19-.2.463-.371.548-.608a3.14,3.14,0,0,0,.112-1.037q.011-4.3,0-8.6c0-.15-.025-.3-.041-.475-.76.461-1.09,1.5-2.2,1.3a10.44,10.44,0,0,1-.033,1.879,1.147,1.147,0,0,1-.709.772c-.289.056-.894-.221-.937-.437a7.312,7.312,0,0,1-.1-2.256c.039-.334.476-.622.753-.955l-1.469-1.405c-.6.692-1.155,1.387-1.768,2.028a.912.912,0,0,1-1.541-.007c-.612-.642-1.167-1.339-1.769-2.038L50.459,13.65c.7.348.8.506.8,1.37,0,.33,0,.66,0,.99-.012.872-.321,1.175-1.2,1.19m3.207,12.527c1.092,0,2.186.053,3.275,0a5.509,5.509,0,0,0,4.867-3.918c-1.843-.191-2.416-.753-2.654-2.606a2.1,2.1,0,0,0-2.133-1.913c-1.133-.026-2.27.04-3.4-.02-2.049-.108-3.107.464-3.184,2.893a2.5,2.5,0,0,1-2.572,1.617,5.57,5.57,0,0,0,5.8,3.948M56.625,42.4a2.644,2.644,0,0,0,.244-.182q3.427-3.223,6.85-6.45a2.12,2.12,0,0,0,.195-.254c-1.736-.659-3.417-1.326-5.119-1.933-.978-.349-1.777-.793-1.707-1.986h-5.3c.082,1.123-.6,1.616-1.545,1.927-.662.218-1.3.5-1.95.76l-3.374,1.244,9.671,9.109L56.625,42.4m6.958-19.461c0,.238,0,.544,0,.851a7.485,7.485,0,0,1-4.274,7.1.643.643,0,0,0-.315.477.656.656,0,0,0,.384.423c2.01.781,4.029,1.542,6.046,2.305.144.054.294.091.446.137V22.268l-2.286.668M65.113,37.01l-7.273,6.848a1.659,1.659,0,0,0,.324,0c2.512-.643,5.025-1.282,7.529-1.954A.631.631,0,0,0,66,41.374c-.265-1.428-.575-2.847-.892-4.364m-21.33,0c-.309,1.469-.577,2.823-.885,4.167-.114.5.037.706.523.822,1.421.341,2.832.725,4.248,1.086,1.064.272,2.131.535,3.2.8l.071-.134-7.154-6.743M63.609,20.922c1.567-.049,2.368-1.1,2.294-2.922a2.193,2.193,0,0,0-2.294-2.165Zm-18.346-.027v-5.09c-1.607.093-2.382,1.135-2.271,2.99a2.186,2.186,0,0,0,2.271,2.1M76.254,59.467H74.993V62.19a2.782,2.782,0,0,0,.781-.017c.185-.06.45-.26.46-.412.047-.753.022-1.512.022-2.294" transform="translate(-32.812 -0.629)" fill="#030302"/><path d="M136.36,12.046c1.438.024,2.88,0,4.314.087a6.313,6.313,0,0,1,3.195,1.2,1.134,1.134,0,0,0,1.515.013l1.637,1.868a.943.943,0,0,0-.385,1.282,8.724,8.724,0,0,1,.753,4.026c-.027,1.007-.005,2.014-.005,3.058l-1.205-.181c0-.5,0-.987,0-1.476a1.546,1.546,0,0,0-2.677-1.111c-.321.319-.607.673-.955,1.062-.682-.653-1.284-1.231-1.887-1.807-.724-.691-1.066-.7-1.776-.021-.61.579-1.219,1.161-2.024,1.928-.6-.689-1.149-1.385-1.765-2.023-.544-.563-.976-.532-1.548,0s-1.172,1.1-1.757,1.644c0-.708-.013-1.416-.011-2.124a7.917,7.917,0,0,1,2.481-5.76,23.117,23.117,0,0,1,2.1-1.671" transform="translate(-115.406 -10.158)" fill="#fdcf5a"/><path d="M290.325,235.837c-.779.219-.993.5-.993,1.3,0,.431,0,.862,0,1.339H288.2v-9.432h1.2c0,1.091.01,2.138,0,3.185a1.01,1.01,0,0,0,.928,1.164v2.443" transform="translate(-245.958 -191.262)" fill="#e1b061"/><path d="M82.466,247.339l-2.429,0a1.117,1.117,0,0,0-1.287-.878c-1.026.034-2.055.009-3.164.009V245.8q0-4.2,0-8.394c0-1-.545-1.378-1.472-1.035,0-2.889-.049-5.78,0-8.668a6.212,6.212,0,0,1,.922-3.53,9.663,9.663,0,0,1,.882-.973q-.209,1.028-.419,2.056a2.195,2.195,0,0,0,1.715,2.759c3.687.947,7.372,1.9,11.063,2.833a2.566,2.566,0,0,0,1.2.007q5.569-1.4,11.124-2.846a2.181,2.181,0,0,0,1.7-2.72c-.258-1.262-.535-2.521-.819-3.853a1.248,1.248,0,0,1,.39.135,4.724,4.724,0,0,0,3.27,1.071,2.476,2.476,0,0,1,2.456,2.425c0,2.208-.005,4.416.005,6.623a.711.711,0,0,1-.416.777,2.109,2.109,0,0,0-.982,2.7,1.137,1.137,0,0,1,.007.719c-.261.712.066,1.362.1,2.027.03.638-.376,1.306-.119,2.023a1.243,1.243,0,0,1,.008.774,2.135,2.135,0,0,0,.994,2.7.673.673,0,0,1,.412.717c-.02.761-.006,1.522-.006,2.314h-3.531v-8.593c0-.124,0-.248,0-.372,0-.812-.349-1.268-.95-1.256-.582.012-.908.448-.908,1.229q0,4.178,0,8.357v.665h-.7q-8.884,0-17.769-.007c-.66,0-1.132.175-1.273.879" transform="translate(-67.263 -184.91)" fill="#fdf1dc"/><path d="M50.865,220.747a9.642,9.642,0,0,0-.882.973,6.213,6.213,0,0,0-.923,3.53c-.052,2.888-.008,5.778,0,8.668a3.919,3.919,0,0,0-.369,1.121c-.031,2.967-.017,5.934-.017,8.976-1.417,0-2.81.01-4.2-.017-.129,0-.289-.223-.369-.376-.059-.114-.013-.283-.013-.427q0-9,0-18a5.293,5.293,0,0,1,3.688-5.342l3.567-1.356-.477,2.25" transform="translate(-42.207 -182.458)" fill="#fee4c1"/><path d="M126.383,190.495c.649-.256,1.289-.542,1.95-.76.943-.311,1.627-.8,1.545-1.927h5.3c-.07,1.193.729,1.637,1.707,1.986,1.7.607,3.383,1.274,5.119,1.933a2.153,2.153,0,0,1-.195.254q-3.423,3.227-6.85,6.45a2.625,2.625,0,0,1-.244.182c-1.076-1.039-2.158-2.073-3.227-3.12-.756-.741-1.5-1.5-2.242-2.25.2-.01.408-.018.611-.033a3.02,3.02,0,0,0,.548-.056.845.845,0,0,0,.693-.949.871.871,0,0,0-.945-.851c-1.084-.025-2.168-.036-3.252-.052l-.522-.809m10.431.854c-.619,0-1.238-.015-1.856,0a.921.921,0,0,0-.991.888.9.9,0,0,0,.927.95q1.917.047,3.836,0a.9.9,0,0,0,.929-.949.919.919,0,0,0-.988-.89c-.618-.019-1.238,0-1.856,0" transform="translate(-110.905 -156.845)" fill="#fbcbbc"/><path d="M136.95,128.24c.077-2.429,1.136-3,3.184-2.893,1.131.06,2.268-.006,3.4.02a2.1,2.1,0,0,1,2.133,1.913c.239,1.852.811,2.415,2.655,2.606a5.509,5.509,0,0,1-4.867,3.918c-1.089.055-2.183,0-3.275,0a6.768,6.768,0,0,1-3.028-4.32c-.084-.411-.135-.83-.2-1.245m4.424,1.122c.761-.184,1.528-.327,2.265-.562a.881.881,0,0,0,.568-1.191.906.906,0,0,0-1.215-.525,4.581,4.581,0,0,1-3.257,0,.917.917,0,0,0-1.246.569.907.907,0,0,0,.638,1.165c.722.219,1.468.358,2.247.541" transform="translate(-119.724 -104.707)" fill="#fccf5a"/><path d="M137.047,74.92c.881-.015,1.189-.319,1.2-1.19,0-.33,0-.66,0-.99,0-.864-.1-1.022-.8-1.37l1.445-1.581c.6.7,1.157,1.4,1.769,2.038a.912.912,0,0,0,1.541.007c.613-.641,1.17-1.336,1.768-2.028l1.469,1.405c-.276.333-.714.62-.753.955a7.3,7.3,0,0,0,.1,2.256c.043.216.648.493.937.437a1.148,1.148,0,0,0,.71-.772,10.47,10.47,0,0,0,.033-1.879c1.115.192,1.444-.844,2.205-1.3.016.176.041.325.041.475q0,4.3,0,8.6a3.135,3.135,0,0,1-.111,1.037c-.086.238-.359.408-.549.608a3.585,3.585,0,0,1-.426-.653,5.643,5.643,0,0,1-.105-.73,3.984,3.984,0,0,0-3.716-3.084c-.535-.025-1.072,0-1.4,0l-1.655-1.681c.324-.29.671-.582,1-.9a.926.926,0,1,0-1.218-1.389c-.614.519-1.214,1.056-1.8,1.6a.935.935,0,0,0,.052,1.574c.258.222.527.432.749.613l-2.348.708a2.2,2.2,0,0,1-.129-.507c-.012-.753,0-1.507,0-2.26" transform="translate(-119.799 -58.348)" fill="#facabb"/><path d="M110.655,11.935a23.114,23.114,0,0,0-2.1,1.671,7.917,7.917,0,0,0-2.481,5.76c0,.708.007,1.416.011,2.124-.127.006-.3.068-.371.009-.314-.266-.587-.579-.9-.852A1.543,1.543,0,0,0,102.2,21.78c0,.492,0,.984,0,1.506l-1.193.186c.027-2.926-.453-5.891,1.56-8.428a7.787,7.787,0,0,1,6.17-3.127c.638-.016,1.277.01,1.916.017" transform="translate(-89.702 -10.046)" fill="#fcc143"/><path d="M112.226,206.8c.747.751,1.485,1.509,2.242,2.25,1.069,1.047,2.151,2.08,3.227,3.12l-2.039,2.235-9.671-9.109,3.374-1.244.522.809c-.224.021-.451.029-.673.065a.854.854,0,0,0-.8.931.866.866,0,0,0,.916.894c.967.039,1.936.036,2.9.051" transform="translate(-93.881 -170.405)" fill="#f9ac9b"/><path d="M191.388,220.564c.317,1.517.627,2.936.892,4.364a.632.632,0,0,1-.313.528c-2.5.672-5.017,1.311-7.529,1.954a1.671,1.671,0,0,1-.324,0l7.273-6.848" transform="translate(-159.087 -184.184)" fill="#f9cea1"/><path d="M94.487,220.548l7.154,6.743-.071.133c-1.066-.267-2.132-.53-3.2-.8-1.416-.361-2.827-.744-4.248-1.085-.485-.117-.636-.326-.523-.822.308-1.344.576-2.7.885-4.167" transform="translate(-83.516 -184.17)" fill="#f9cea1"/><path d="M122.6,80.607c0,.753-.014,1.507,0,2.26a2.2,2.2,0,0,0,.129.507,4.244,4.244,0,0,0-1.942,3.342c-.012.2-.266.4-.409.593a3.676,3.676,0,0,1-.541-.544,1.024,1.024,0,0,1-.1-.538c-.006-3.194,0-6.389,0-9.625.785.379,1.083,1.521,2.215,1.279,0,.538.025,1.032-.007,1.523a1.124,1.124,0,0,0,.662,1.2" transform="translate(-105.349 -64.035)" fill="#fbae9c"/><path d="M268.828,202.3q3.8-.016,7.6-.03c1.376,0,2.77.108,4-.79a2.409,2.409,0,0,1-2.08,2.581,18.121,18.121,0,0,1-2.1.061c-2.183-.006-4.365-.025-6.548-.04l-.877-1.782" transform="translate(-229.787 -168.26)" fill="#e0e0e0"/><path d="M291.578,297.759a1.494,1.494,0,0,1,1.85,1.642q.01,2.219,0,4.439a1.527,1.527,0,0,1-1.846,1.669,3.224,3.224,0,0,1-.394-1.835c.026-1.422-.027-2.846.025-4.266a9.062,9.062,0,0,1,.364-1.649" transform="translate(-248.448 -248.599)" fill="#fdccbd"/><path d="M281,297.643a9.06,9.06,0,0,0-.364,1.649c-.052,1.42,0,2.844-.025,4.266a3.224,3.224,0,0,0,.394,1.835c-.657.012-1.314.043-1.969.022-.171-.005-.336-.17-.5-.262a1.691,1.691,0,0,1,.326-.387c.789-.5.794-1.248-.022-1.723-.442-.258-.41-.439.007-.681a.91.91,0,0,0,0-1.714c-.414-.236-.468-.414-.016-.674a.919.919,0,0,0,.032-1.724,1.742,1.742,0,0,1-.33-.386c.167-.088.332-.246.5-.25.655-.017,1.311.016,1.966.03" transform="translate(-237.873 -248.484)" fill="#f8ac9b"/><path d="M123.973,142.9c.066.415.117.833.2,1.245a6.769,6.769,0,0,0,3.028,4.32,5.57,5.57,0,0,1-5.8-3.948,2.5,2.5,0,0,0,2.572-1.617" transform="translate(-106.747 -119.364)" fill="#fac043"/><path d="M218.994,97.627V92.541a2.193,2.193,0,0,1,2.294,2.165c.074,1.824-.727,2.873-2.294,2.922" transform="translate(-188.197 -77.335)" fill="#f5a998"/><path d="M96.576,97.463a2.186,2.186,0,0,1-2.271-2.1c-.111-1.855.664-2.9,2.271-2.99v5.09" transform="translate(-84.124 -77.197)" fill="#ef8f7b"/><path d="M248.4,202.271l.877,1.782c-.961,0-1.93.068-2.883-.026a2.359,2.359,0,0,1-2.038-2.582c1.232.956,2.669.718,4.043.826" transform="translate(-209.356 -168.227)" fill="#bdbdbd"/><path d="M289.075,356.326c0,.783.026,1.541-.022,2.294-.01.152-.274.352-.46.412a2.782,2.782,0,0,1-.781.017v-2.723Z" transform="translate(-245.632 -297.488)" fill="#d6a85d"/><path d="M175.073,209.191c.619,0,1.238-.015,1.856,0a.919.919,0,0,1,.988.89.9.9,0,0,1-.929.949q-1.917.046-3.836,0a.9.9,0,0,1-.927-.95.921.921,0,0,1,.991-.888c.618-.019,1.238,0,1.856,0" transform="translate(-149.164 -174.687)" fill="#080606"/><path d="M124.441,210.882c-.968-.015-1.937-.012-2.9-.051a.866.866,0,0,1-.916-.894.854.854,0,0,1,.8-.931c.222-.035.448-.044.673-.065,1.084.017,2.168.027,3.252.053a.871.871,0,0,1,.945.851.845.845,0,0,1-.693.948,3.021,3.021,0,0,1-.548.056c-.2.015-.407.022-.611.033" transform="translate(-106.095 -174.484)" fill="#060504"/><path d="M148.9,137.833c-.779-.184-1.525-.322-2.247-.541a.907.907,0,0,1-.638-1.165.917.917,0,0,1,1.246-.569,4.581,4.581,0,0,0,3.257,0,.906.906,0,0,1,1.215.525.881.881,0,0,1-.568,1.191c-.737.236-1.5.378-2.265.562" transform="translate(-127.252 -113.178)" fill="#040301"/></g></g></g></svg>