<svg xmlns="http://www.w3.org/2000/svg" width="43.985" height="56.047" viewBox="0 0 43.985 56.047">
  <g id="Grupo_80369" data-name="Grupo 80369" transform="translate(-55.714 -201.404)">
    <g id="Grupo_80366" data-name="Grupo 80366">
      <path id="Trazado_113924" data-name="Trazado 113924" d="M77.832,201.41A21.353,21.353,0,0,0,61,235.231l-.006,0,.208.283.03.04,15.124,20.571a3.247,3.247,0,0,0,5.31-.111l13.67-20.323c2.587-3.945,4.361-8.069,4.361-12.93A21.36,21.36,0,0,0,77.832,201.41ZM78.34,238.3A16.058,16.058,0,1,1,94.4,222.238,16.059,16.059,0,0,1,78.34,238.3Z" fill="#ff725e"/>
    </g>
    <g id="Grupo_80367" data-name="Grupo 80367" opacity="0.3">
      <path id="Trazado_113925" data-name="Trazado 113925" d="M77.832,201.41A21.353,21.353,0,0,0,61,235.231l-.006,0,.208.283.03.04,15.124,20.571a3.247,3.247,0,0,0,5.31-.111l13.67-20.323c2.587-3.945,4.361-8.069,4.361-12.93A21.36,21.36,0,0,0,77.832,201.41ZM78.34,238.3A16.058,16.058,0,1,1,94.4,222.238,16.059,16.059,0,0,1,78.34,238.3Z"/>
    </g>
    <g id="Grupo_80368" data-name="Grupo 80368">
      <path id="Trazado_113926" data-name="Trazado 113926" d="M76.566,201.41a21.353,21.353,0,0,0-16.83,33.821l-.006,0,.208.283.03.04,15.124,20.571a3.247,3.247,0,0,0,5.31-.111l13.67-20.323c2.587-3.945,4.361-8.069,4.361-12.93A21.359,21.359,0,0,0,76.566,201.41Zm.508,33.991a12.161,12.161,0,1,1,12.161-12.162A12.162,12.162,0,0,1,77.074,235.4Z" fill="#ffa686"/>
    </g>
  </g>
</svg>
