<svg xmlns="http://www.w3.org/2000/svg" width="33.521" height="42.714" viewBox="0 0 33.521 42.714">
  <g id="Grupo_80373" data-name="Grupo 80373" transform="translate(-396.005 -181.159)">
    <g id="Grupo_80370" data-name="Grupo 80370">
      <path id="Trazado_113927" data-name="Trazado 113927" d="M412.862,181.164a16.274,16.274,0,0,0-12.827,25.775l0,0,.159.215.022.031,11.526,15.677a2.474,2.474,0,0,0,4.047-.085L426.2,207.291a17.631,17.631,0,0,0,3.323-9.853A16.277,16.277,0,0,0,412.862,181.164Zm.386,28.111a12.238,12.238,0,1,1,12.238-12.238A12.238,12.238,0,0,1,413.248,209.275Z" fill="#ff725e"/>
    </g>
    <g id="Grupo_80371" data-name="Grupo 80371" opacity="0.3">
      <path id="Trazado_113928" data-name="Trazado 113928" d="M412.862,181.164a16.274,16.274,0,0,0-12.827,25.775l0,0,.159.215.022.031,11.526,15.677a2.474,2.474,0,0,0,4.047-.085L426.2,207.291a17.631,17.631,0,0,0,3.323-9.853A16.277,16.277,0,0,0,412.862,181.164Zm.386,28.111a12.238,12.238,0,1,1,12.238-12.238A12.238,12.238,0,0,1,413.248,209.275Z"/>
    </g>
    <g id="Grupo_80372" data-name="Grupo 80372">
      <path id="Trazado_113929" data-name="Trazado 113929" d="M411.9,181.164a16.274,16.274,0,0,0-12.827,25.775l0,0,.159.215.022.031,11.526,15.677a2.474,2.474,0,0,0,4.047-.085l10.418-15.488a17.632,17.632,0,0,0,3.324-9.853A16.278,16.278,0,0,0,411.9,181.164Zm.387,25.9a9.269,9.269,0,1,1,9.268-9.269A9.269,9.269,0,0,1,412.284,207.069Z" fill="#ffa686"/>
    </g>
  </g>
</svg>
