<svg xmlns="http://www.w3.org/2000/svg" width="505" height="317" viewBox="0 0 505 317">
  <g id="Grupo_968585" data-name="Grupo 968585" transform="translate(-286 -3164)">
    <g id="Trazado_647846" data-name="Trazado 647846" transform="translate(287 3164)" fill="#fff">
      <path d="M 484 308.5 L 20 308.5 C 17.36731338500977 308.5 14.81362533569336 307.9844970703125 12.40987491607666 306.9678039550781 C 10.08787536621094 305.9856872558594 8.002437591552734 304.5795593261719 6.211437702178955 302.78857421875 C 4.420437335968018 300.99755859375 3.014312505722046 298.9121398925781 2.032187461853027 296.5901184082031 C 1.015499949455261 294.1863708496094 0.5 291.6326904296875 0.5 289 L 0.5 20 C 0.5 17.36731338500977 1.015499949455261 14.81362533569336 2.032187461853027 12.40987491607666 C 3.014312505722046 10.08787536621094 4.420437335968018 8.002437591552734 6.211437702178955 6.211437702178955 C 8.002437591552734 4.420437335968018 10.08787536621094 3.014312505722046 12.40987491607666 2.032187461853027 C 14.81362533569336 1.015499949455261 17.36731338500977 0.5 20 0.5 L 484 0.5 C 486.6326904296875 0.5 489.1863708496094 1.015499949455261 491.5901184082031 2.032187461853027 C 493.9121398925781 3.014312505722046 495.99755859375 4.420437335968018 497.78857421875 6.211437702178955 C 499.5795593261719 8.002437591552734 500.9856872558594 10.08787536621094 501.9678039550781 12.40987491607666 C 502.9844970703125 14.81362533569336 503.5 17.36731338500977 503.5 20 L 503.5 289 C 503.5 291.6326904296875 502.9844970703125 294.1863708496094 501.9678039550781 296.5901184082031 C 500.9856872558594 298.9121398925781 499.5795593261719 300.99755859375 497.78857421875 302.78857421875 C 495.99755859375 304.5795593261719 493.9121398925781 305.9856872558594 491.5901184082031 306.9678039550781 C 489.1863708496094 307.9844970703125 486.6326904296875 308.5 484 308.5 Z" stroke="none"/>
      <path d="M 20 1 C 17.4345703125 1 14.94644165039062 1.502197265625 12.6046142578125 2.49267578125 C 10.34225463867188 3.449615478515625 8.31024169921875 4.81976318359375 6.56500244140625 6.56500244140625 C 4.81976318359375 8.31024169921875 3.449615478515625 10.34225463867188 2.49267578125 12.6046142578125 C 1.502197265625 14.94644165039062 1 17.4345703125 1 20 L 1 289 C 1 291.5654296875 1.502197265625 294.0535583496094 2.49267578125 296.3953857421875 C 3.449615478515625 298.6577453613281 4.81976318359375 300.6897583007812 6.56500244140625 302.4349975585938 C 8.31024169921875 304.1802368164062 10.34225463867188 305.5503845214844 12.6046142578125 306.50732421875 C 14.94644165039062 307.497802734375 17.4345703125 308 20 308 L 484 308 C 486.5654296875 308 489.0535583496094 307.497802734375 491.3953857421875 306.50732421875 C 493.6577453613281 305.5503845214844 495.6897583007812 304.1802368164062 497.4349975585938 302.4349975585938 C 499.1802368164062 300.6897583007812 500.5503845214844 298.6577453613281 501.50732421875 296.3953857421875 C 502.497802734375 294.0535583496094 503 291.5654296875 503 289 L 503 20 C 503 17.4345703125 502.497802734375 14.94644165039062 501.50732421875 12.6046142578125 C 500.5503845214844 10.34225463867188 499.1802368164062 8.31024169921875 497.4349975585938 6.56500244140625 C 495.6897583007812 4.81976318359375 493.6577453613281 3.449615478515625 491.3953857421875 2.49267578125 C 489.0535583496094 1.502197265625 486.5654296875 1 484 1 L 20 1 M 20 0 L 484 0 C 495.0456848144531 0 504 8.954315185546875 504 20 L 504 289 C 504 300.0456848144531 495.0456848144531 309 484 309 L 20 309 C 8.954315185546875 309 0 300.0456848144531 0 289 L 0 20 C 0 8.954315185546875 8.954315185546875 0 20 0 Z" stroke="none" fill="#fff"/>
    </g>
    <path id="Sustracción_9" data-name="Sustracción 9" d="M472,45H32a48.188,48.188,0,0,1-13.155-1.657A27.769,27.769,0,0,1,8.751,38.249C2.944,33.482,0,26.333,0,17V0H504V17c0,9.333-2.944,16.482-8.751,21.249a27.769,27.769,0,0,1-10.094,5.094A48.188,48.188,0,0,1,472,45Z" transform="translate(286 3436)" fill="#d7db8d"/>
    <text id="Bosque_seco_tropical" data-name="Bosque seco tropical" transform="translate(373 3447)" fill="#12263f" font-size="20" font-family="Roboto-Bold, Roboto" font-weight="700"><tspan x="-94.238" y="21">Bosque seco tropical</tspan></text>
  </g>
</svg>
