<svg xmlns="http://www.w3.org/2000/svg" xmlns:xlink="http://www.w3.org/1999/xlink" width="1320" height="506.835" viewBox="0 0 1320 506.835">
  <defs>
    <clipPath id="clip-path">
      <path id="Rectangle_652" data-name="Rectangle 652" d="M20.787,0H1299.213C1310.693,0,1320,8.4,1320,18.772V488.063c0,10.367-9.307,18.772-20.787,18.772H20.787C9.307,506.835,0,498.431,0,488.063V18.772C0,8.4,9.307,0,20.787,0Z" fill="none"/>
    </clipPath>
    <clipPath id="clip-path-2">
      <path id="Rectangle_652-2" data-name="Rectangle 652" d="M1299.213,0H20.787C9.307,0,0,8.4,0,18.772V488.063c0,10.367,9.307,18.772,20.787,18.772H1299.213c11.48,0,20.787-8.4,20.787-18.772V18.772C1320,8.4,1310.693,0,1299.213,0Z" transform="translate(144.333 70)" fill="#0b481e"/>
    </clipPath>
  </defs>
  <g id="Grupo_86284" data-name="Grupo 86284" transform="translate(-144.333 -70)">
    <path id="Rectangle_652-3" data-name="Rectangle 652" d="M1299.213,0H20.787C9.307,0,0,8.4,0,18.772V488.063c0,10.367,9.307,18.772,20.787,18.772H1299.213c11.48,0,20.787-8.4,20.787-18.772V18.772C1320,8.4,1310.693,0,1299.213,0Z" transform="translate(144.333 70)" fill="#0b481e"/>
    <g id="Enmascarar_grupo_45" data-name="Enmascarar grupo 45" transform="translate(144.333 70)" clip-path="url(#clip-path)">
      <g id="Grupo_78299" data-name="Grupo 78299" transform="translate(1421.653 781.694) rotate(172)">
        <path id="Trazado_113496" data-name="Trazado 113496" d="M15.112,287.169c17.715-34.451,50.7-57.088,87.588-67.784,43.738-12.681,85.825-5.919,129.709.813,40.461,6.207,85.463,7.935,119.6-18.36C405,161.024,410.063,81.949,458.584,36.2A134.3,134.3,0,0,1,548.268.007c36.475-.4,82.632,15.474,101.287,49.129,18.115,32.679-.244,65.218,6.189,98.672,12.579,65.429,102.933,61.541,146.589,94.017,20.86,15.517,34.9,38.67,44.515,62.826,10.673,26.809,16.485,56.674,9.26,84.61-11.968,46.276-56.921,63.6-100.7,65.259-32.532,1.236-64.873-7.137-94.75-20.072-26.422-11.439-51.276-26.448-78.3-36.385-66.737-24.537-132.48,6.775-190.061,40.442-73.916,43.219-150.258,84.883-238.634,70.014C86.133,497.157,16.048,455.615,2.8,383.4c-5.607-30.549-3.008-62.948,9.88-91.206Q13.839,289.642,15.112,287.169Z" transform="translate(597.339 534.145)" fill="#fff" opacity="0.132" style="mix-blend-mode: overlay;isolation: isolate"/>
        <path id="Trazado_113497" data-name="Trazado 113497" d="M15.112,287.169c17.715-34.451,50.7-57.088,87.588-67.784,43.738-12.681,85.825-5.919,129.709.813,40.461,6.207,85.463,7.935,119.6-18.36C405,161.024,410.063,81.949,458.584,36.2A134.3,134.3,0,0,1,548.268.007c36.475-.4,82.632,15.474,101.287,49.127,18.114,32.68-.244,65.219,6.189,98.676,6.347,33.006,36.346,50.719,65.8,61.073,23.3,8.193,47.923,13.476,69.253,25.93,36.453,21.285,58.916,61.769,65.874,103.4,4.179,25,2.986,52.073-10.213,73.713-16.245,26.633-48.234,40.456-79.362,42.524-35.128,2.333-74.219-6.057-106.434-20.005-26.423-11.439-51.276-26.448-78.3-36.385-66.738-24.537-132.48,6.775-190.062,40.442-73.916,43.219-150.258,84.882-238.634,70.014C86.133,497.157,16.048,455.615,2.8,383.4c-5.607-30.549-3.008-62.947,9.88-91.206Q13.839,289.642,15.112,287.169Z" transform="translate(125.154 0)" fill="#fff" opacity="0.11" style="mix-blend-mode: overlay;isolation: isolate"/>
        <path id="Trazado_113498" data-name="Trazado 113498" d="M15.111,287.169c17.715-34.453,50.7-57.088,87.588-67.785,43.738-12.681,85.825-5.917,129.709.815,40.462,6.207,85.463,7.935,119.6-18.361C405,161.022,410.063,81.949,458.583,36.195A134.313,134.313,0,0,1,548.268.007c36.474-.4,82.632,15.474,101.287,49.128,18.113,32.68-.244,65.219,6.188,98.674,12.581,65.428,102.934,61.539,146.59,94.017,20.86,15.517,34.9,38.67,44.514,62.826,10.673,26.808,16.486,56.673,9.261,84.61-11.968,46.276-56.921,63.6-100.7,65.259-32.533,1.236-64.873-7.137-94.75-20.072-26.422-11.44-51.276-26.449-78.3-36.385-66.738-24.539-132.48,6.775-190.061,40.442-73.918,43.218-150.259,84.883-238.634,70.013C86.133,497.157,16.049,455.615,2.794,383.4c-5.606-30.548-3.007-62.946,9.88-91.2Q13.84,289.642,15.111,287.169Z" transform="translate(77.891 12.415)" fill="#0b481e" opacity="0.22" style="mix-blend-mode: overlay;isolation: isolate"/>
        <path id="Trazado_113499" data-name="Trazado 113499" d="M15.112,287.169c17.715-34.453,50.7-57.089,87.588-67.785,43.738-12.681,85.825-5.917,129.709.813,40.462,6.207,85.463,7.935,119.6-18.36C405,161.023,410.064,81.949,458.584,36.195A134.306,134.306,0,0,1,548.268.007c36.475-.4,82.633,15.473,101.287,49.128,18.115,32.679-.243,65.219,6.189,98.672,12.581,65.429,102.934,61.541,146.591,94.017,20.859,15.518,34.9,38.672,44.514,62.826,10.673,26.809,16.486,56.674,9.26,84.61-11.967,46.276-56.921,63.6-100.7,65.261-32.532,1.236-64.873-7.137-94.749-20.072-26.423-11.44-51.276-26.449-78.3-36.386-66.738-24.537-132.48,6.775-190.061,40.442-73.917,43.219-150.259,84.882-238.635,70.014C86.133,497.156,16.049,455.615,2.8,383.4c-5.607-30.549-3.007-62.946,9.88-91.206Q13.841,289.641,15.112,287.169Z" transform="translate(564.713 766.841)" fill="#fff" opacity="0.17" style="mix-blend-mode: overlay;isolation: isolate"/>
        <path id="Trazado_113500" data-name="Trazado 113500" d="M632.125,127.541c-3.382,29.741-20.932,54.914-44.53,72.432-27.977,20.768-60.041,26.955-93.386,33.637-30.745,6.161-63.537,16.779-80.927,44.921-26.994,43.68-9.185,102.547-31.628,148.641a101.5,101.5,0,0,1-54.6,50c-26.09,9.918-63.548,10.548-86.073-9.015-21.874-19-17.512-47.516-31.2-70.159-26.779-44.284-90.623-17.612-130.787-29.721-19.192-5.785-35.553-18.927-49.011-33.962C15.04,317.622,2.765,297.427.379,275.194c-3.952-36.827,23.638-61.292,54.633-74.055,23.031-9.484,48.532-11.927,73.5-10.4,22.081,1.35,44,5.713,66.108,5.811,54.59.241,93.319-39.89,125.547-79.58C361.536,66.018,405.07,15.559,472.58,3.055,524.167-6.5,585.771,5.23,614.875,54.275c12.311,20.747,19.231,45.005,17.637,68.967Q632.368,125.406,632.125,127.541Z" transform="translate(0 507.532)" fill="#0b481e" opacity="0.15" style="mix-blend-mode: color-burn;isolation: isolate"/>
        <circle id="Elipse_4692" data-name="Elipse 4692" cx="24.819" cy="24.819" r="24.819" transform="translate(583.612 746.202)" fill="#524480" opacity="0.23" style="mix-blend-mode: color-dodge;isolation: isolate"/>
        <ellipse id="Elipse_4693" data-name="Elipse 4693" cx="12.41" cy="12.41" rx="12.41" ry="12.41" transform="translate(568.854 828.418) rotate(99.217)" fill="#fff" opacity="0.17" style="mix-blend-mode: overlay;isolation: isolate"/>
        <ellipse id="Elipse_4694" data-name="Elipse 4694" cx="12.41" cy="12.41" rx="12.41" ry="12.41" transform="translate(579.813 484.305) rotate(100.476)" fill="#fff" opacity="0.17" style="mix-blend-mode: overlay;isolation: isolate"/>
        <circle id="Elipse_4695" data-name="Elipse 4695" cx="24.819" cy="24.819" r="24.819" transform="translate(582.531 416.117)" fill="#fff" opacity="0.17" style="mix-blend-mode: overlay;isolation: isolate"/>
        <path id="Trazado_113525" data-name="Trazado 113525" d="M62.631,0A62.631,62.631,0,1,1,0,62.631,62.631,62.631,0,0,1,62.631,0Z" transform="translate(1197.28 574.039) rotate(97.033)" fill="#0b481e" opacity="0.15" style="mix-blend-mode: color-dodge;isolation: isolate"/>
        <ellipse id="Elipse_4697" data-name="Elipse 4697" cx="62.631" cy="62.631" rx="62.631" ry="62.631" transform="translate(292.839 772.152) rotate(97.065)" fill="#fff" opacity="0.17" style="mix-blend-mode: overlay;isolation: isolate"/>
        <rect id="Rectángulo_33709" data-name="Rectángulo 33709" width="942.874" height="628.582" transform="translate(222.43 318.341)" fill="none"/>
      </g>
    </g>
    <g id="Enmascarar_grupo_51" data-name="Enmascarar grupo 51" clip-path="url(#clip-path-2)">
      <g id="Grupo_80163" data-name="Grupo 80163" transform="translate(-676.199 -22.071)">
        <g id="Grupo_80112" data-name="Grupo 80112" transform="translate(816.162 519.083)">
          <path id="Trazado_113526" data-name="Trazado 113526" d="M905.14,192.794c-2.488,2.281-3.844,5.51-5.046,8.591-.628,1.612-1.172,3.261-1.839,4.856a11.49,11.49,0,0,1-1.514,2.7,13.218,13.218,0,0,0-.923,1.148,1.938,1.938,0,0,1-1.41-.4,2.628,2.628,0,0,1-.556-2.347,14.561,14.561,0,0,1,1.424-5.271,19.224,19.224,0,0,1,3.385-4.522,18.69,18.69,0,0,1,1.943-1.786,8.708,8.708,0,0,0,1.85-1.522c1.9-2.639-3.541-2.914-4.843-2.892a16.1,16.1,0,0,0-8.99,2.53c-4.62,3.2-7.01,9.1-8.642,14.27-.971,3.078-1.785,6.188-2.993,9.188a29.38,29.38,0,0,1-2.015,4.337c-.232.379-.581,1.046-1.065.8-.432-.221-.531-1.6-.606-2.05-1.25-7.432,1.565-14.96,5.668-21.047a20.978,20.978,0,0,1,3.068-3.636c.625-.592,1.544-1.515,1.112-2.47-1.034-2.286-5.658-.982-7.308-.415-5.511,1.89-11.5,5.8-13.209,11.65-1.069,3.661-.839,7.531-.612,11.289.249,4.141.44,8.3.863,12.427.24,2.339.49,4.672-.308,6.941-.27.768-.7,1.875-1.54,2.183-1.218.451-2.219-.98-2.744-1.886-1.733-2.992-1.659-6.7-1.821-10.041a64.7,64.7,0,0,1,2.3-22.338,1.052,1.052,0,0,0-.607-1.752c-2.6-.475-5.2,1.281-7.308,2.555a25.145,25.145,0,0,0-6.762,5.818c-3.792,4.734-4.722,10.946-4.075,16.84.764,6.952,4.146,13.565,6.153,20.206.582,1.926,1.486,4.244,1.374,6.3-.187,3.44-4.711-.77-5.551-1.906a37.262,37.262,0,0,1-5-9.47,81.011,81.011,0,0,1-2.614-10.991.516.516,0,0,0-.159-.271c-.361-1.038-1.431-1.172-2.321-.143-1.816,2.1-1.877,5.38-1.965,7.989-.218,6.482.468,13.327,3.458,19.168A37.752,37.752,0,0,0,846,271.107a47.8,47.8,0,0,0,8.457,4.625,40.087,40.087,0,0,0,9.527,2.3,78.885,78.885,0,0,0,10.6,1.059c2.634.018,5.79-.129,8.113-1.577,1.77-.238,3.529-.508,5.268-.8,8.133-1.345,16.871-4.07,22.427-10.524,1.888-2.193,3.948-5.316,4.191-8.267a2.592,2.592,0,0,0-1.381-2.791c-1.571-.643-3.46.35-4.943.819-4.44,1.4-9.32,1.4-13.931,1.156-4.148-.225-8.484-.915-12.077-3.129a12.5,12.5,0,0,1-4.693-4.715c-1.429-2.934,1.693-4.165,4.125-3.891,2.616.3,5.166,1.24,7.766,1.69,2.756.475,5.533.716,8.313.992,8.749.868,18.175-.555,24.734-6.95a17.4,17.4,0,0,0,5.011-8.642,4.449,4.449,0,0,0-.935-4.183c-1.385-1.325-3.339-.935-4.877-.105-2.315,1.248-4.379,2.915-6.729,4.136a52.59,52.59,0,0,1-7.651,3.4,21.544,21.544,0,0,1-7.387.845,31.976,31.976,0,0,1-6.151-.408c-.677-.143-5.007-1.916-3.816-2.605.987-.572,3.1-.093,4.214-.074a58.548,58.548,0,0,0,8.27-.093,45.505,45.505,0,0,0,8.161-2.1c4.351-1.4,8.406-3.1,11.9-6.119a24.427,24.427,0,0,0,7.12-10.224c.49-1.368,1-3.019.069-4.3a1.018,1.018,0,0,0-1.22-.243c-1.694,1.047-3.653,1.5-5.4,2.438a42.322,42.322,0,0,1-6.624,3.184,9.275,9.275,0,0,1-7.684-.744c-.306-1.4.831-2.529,2.084-3.144,2.626-1.287,5.555-1.792,8.175-3.157a14.742,14.742,0,0,0,5.979-5.433,26.508,26.508,0,0,0,2.026-4.5c.58-1.557,1.568-3.818,1.053-5.488a.773.773,0,0,0-.063-.134.25.25,0,0,0-.081-.242c-1.352-1.2-3.379-1.588-5.111-1.906-2.138-.392-4.321-.676-6.483-.893C912.446,189.972,908.192,189.995,905.14,192.794Zm-27.19,65.938c2.076.405,7.742,2.741,6.349,5.668-1.412,2.964-7.023,2.026-9.433,1.649-3.988-.622-9.964-1.9-13.14-4.623-1.705-1.465-.7-2.347,1.03-2.647a48.6,48.6,0,0,1,6.286-.69A38.117,38.117,0,0,1,877.95,258.732Z" transform="translate(-829.899 -190.185)" fill="#4f9638"/>
          <g id="Grupo_80111" data-name="Grupo 80111" transform="translate(12.459 3.724)" opacity="0.7">
            <path id="Trazado_113527" data-name="Trazado 113527" d="M899.519,207.865c-1.731,1.392-3.443,2.81-5.145,4.237-4.613,3.865-9.241,7.7-13.781,11.65-4.166,3.623-8.237,7.38-12.156,11.269-4.882,4.845-9.675,9.9-14.159,15.127a37.185,37.185,0,0,1-2.5-6.548c-.063-.213-.441-.232-.424.027a14.258,14.258,0,0,0,.812,4.039,22.97,22.97,0,0,0,1.47,3.225c-.116.138-.238.27-.354.408A190.747,190.747,0,0,0,840.4,267.763a.477.477,0,0,0,.788.536,168.948,168.948,0,0,1,12.387-14.535c4.961-5.451,10.1-10.775,15.236-16.059,7.854-8.075,16.329-15.659,24.786-23.091,3.185-2.8,6.642-5.251,9.869-7.977.558-.471-.054-1.234-.668-1A12.694,12.694,0,0,0,899.519,207.865Z" transform="translate(-840.318 -190.893)" fill="#0a481c"/>
            <path id="Trazado_113528" data-name="Trazado 113528" d="M848.686,236.2a77.7,77.7,0,0,1-1.969-15.607c-.065-2.478-.01-4.959.049-7.435.057-2.39.533-5,.122-7.357a.255.255,0,0,0-.485-.033c-.716,2.259-.531,4.978-.587,7.325-.063,2.671.031,5.334.2,8a84.085,84.085,0,0,0,2.341,15.175C848.409,236.474,848.736,236.409,848.686,236.2Z" transform="translate(-839.246 -190.891)" fill="#0a481c"/>
            <path id="Trazado_113529" data-name="Trazado 113529" d="M861.052,215.7a55.585,55.585,0,0,0,.576,11.26,30.129,30.129,0,0,0,2.429,8.827c.094.185.393.029.285-.141-1.615-2.542-1.552-5.93-2-8.831a55.971,55.971,0,0,1-.513-10.783,41.971,41.971,0,0,1,4.151-17.768.235.235,0,0,0-.347-.307c-1.962,1.383-2.242,5.063-2.769,7.213-.378,1.538-1.006,3.006-1.338,4.555A33.215,33.215,0,0,0,861.052,215.7Z" transform="translate(-836.269 -192.398)" fill="#0a481c"/>
            <path id="Trazado_113530" data-name="Trazado 113530" d="M877.542,206.275c-.483,1.48-.983,2.956-1.4,4.457a19.617,19.617,0,0,0-.789,8.894.374.374,0,0,0,.733-.149,19.033,19.033,0,0,1,.988-9.242c.452-1.434.964-2.846,1.449-4.268.4-1.167,1.149-2.664.947-3.911a.245.245,0,0,0-.439-.088,6.039,6.039,0,0,0-.756,1.981C878.044,204.727,877.794,205.5,877.542,206.275Z" transform="translate(-833.506 -191.622)" fill="#0a481c"/>
            <path id="Trazado_113531" data-name="Trazado 113531" d="M883.308,194.758a16.92,16.92,0,0,0-1.623,1.957,29.457,29.457,0,0,0-2.36,4.41c-.133.28.316.5.479.242.877-1.358,1.851-2.639,2.841-3.917.481-.622.978-1.239,1.516-1.812s1.321-1.1,1.588-1.833a.388.388,0,0,0-.437-.5C884.516,193.407,883.838,194.205,883.308,194.758Z" transform="translate(-832.688 -193.299)" fill="#0a481c"/>
            <path id="Trazado_113532" data-name="Trazado 113532" d="M898.867,219.394c-4.465.752-9.526.918-13.9-.391-.551-.165-.849.67-.3.847,4.441,1.419,9.359,1.143,13.922.5a28.068,28.068,0,0,0,6.618-1.9,25.992,25.992,0,0,0,6.5-3.311.207.207,0,0,0-.177-.356c-2.078.429-3.974,1.63-5.912,2.475A28.964,28.964,0,0,1,898.867,219.394Z" transform="translate(-831.694 -189.095)" fill="#0a481c"/>
            <path id="Trazado_113533" data-name="Trazado 113533" d="M894.87,204.452c-.322.3.121.819.454.521a59.233,59.233,0,0,1,9.876-6.72c.13-.077.073-.3-.09-.263a17.358,17.358,0,0,0-5.455,2.621A35.779,35.779,0,0,0,894.87,204.452Z" transform="translate(-829.662 -192.382)" fill="#0a481c"/>
            <path id="Trazado_113534" data-name="Trazado 113534" d="M906.707,196.013c-.3.185-.6.374-.89.575-.554.391-1.1.783-1.673,1.15a.1.1,0,0,0,.092.184c.643-.256,1.311-.5,1.93-.811a7.3,7.3,0,0,0,.909-.548,4.382,4.382,0,0,0,.7-.716c.115-.132-.074-.318-.214-.245C907.285,195.747,906.973,195.847,906.707,196.013Z" transform="translate(-827.835 -192.851)" fill="#0a481c"/>
            <path id="Trazado_113535" data-name="Trazado 113535" d="M878.689,232.964a10.4,10.4,0,0,0-3.677-1.6,8.1,8.1,0,0,1-3.56-1.914.346.346,0,0,0-.52.454,8.05,8.05,0,0,0,3.514,2.221c1.317.482,2.687.866,4.035,1.254A.235.235,0,0,0,878.689,232.964Z" transform="translate(-834.343 -186.245)" fill="#0a481c"/>
            <path id="Trazado_113536" data-name="Trazado 113536" d="M906.442,230.238a18.879,18.879,0,0,1-3.257,2.084,26.593,26.593,0,0,1-7.141,2.326,39.554,39.554,0,0,1-14.909-.255c-.164-.033-.224.249-.06.289a38.038,38.038,0,0,0,15.518.763,25.1,25.1,0,0,0,7.367-2.383c1.925-.989,4.616-2.491,5.461-4.6a.283.283,0,0,0-.39-.343A20.284,20.284,0,0,0,906.442,230.238Z" transform="translate(-832.359 -186.49)" fill="#0a481c"/>
          </g>
        </g>
        <g id="Grupo_80114" data-name="Grupo 80114" transform="translate(2045.669 86.669)">
          <path id="Trazado_113537" data-name="Trazado 113537" d="M1063.825,166.231c2.851-1.81,4.752-4.751,6.476-7.574.9-1.476,1.725-3,2.663-4.457a11.519,11.519,0,0,1,1.965-2.4,12.809,12.809,0,0,0,1.112-.969,1.946,1.946,0,0,1,1.318.641,2.625,2.625,0,0,1,.134,2.408,14.561,14.561,0,0,1-2.327,4.94,19.226,19.226,0,0,1-4.127,3.857,18.742,18.742,0,0,1-2.226,1.418,8.721,8.721,0,0,0-2.089,1.174c-2.337,2.262,2.975,3.49,4.26,3.7a16.1,16.1,0,0,0,9.295-.914c5.112-2.342,8.5-7.728,11.012-12.531,1.5-2.859,2.845-5.778,4.561-8.52a29.282,29.282,0,0,1,2.745-3.915c.294-.332.756-.929,1.189-.6.386.294.242,1.672.237,2.125-.075,7.534-4.167,14.452-9.275,19.725a21.032,21.032,0,0,1-3.658,3.041c-.721.474-1.786,1.221-1.529,2.237.617,2.432,5.4,1.96,7.122,1.692,5.758-.893,12.338-3.688,15.049-9.151,1.7-3.416,2.149-7.265,2.586-11.006.481-4.121,1.024-8.248,1.331-12.387.173-2.345.337-4.685,1.522-6.779.4-.708,1.024-1.722,1.9-1.88,1.278-.23,2.012,1.355,2.37,2.339,1.18,3.249.457,6.884.031,10.2a64.741,64.741,0,0,1-6.188,21.587,1.051,1.051,0,0,0,.291,1.831c2.472.923,5.34-.348,7.643-1.233a25.158,25.158,0,0,0,7.679-4.54c4.564-3.995,6.569-9.947,6.966-15.863.469-6.978-1.7-14.081-2.509-20.972-.236-2-.719-4.439-.249-6.44.788-3.353,4.5,1.586,5.131,2.852a37.251,37.251,0,0,1,3.258,10.2,80.855,80.855,0,0,1,.643,11.279.513.513,0,0,0,.11.294c.173,1.087,1.2,1.405,2.26.549,2.156-1.747,2.792-4.966,3.336-7.519,1.351-6.343,1.879-13.2-.039-19.477a37.759,37.759,0,0,0-10.012-15.687,47.783,47.783,0,0,0-7.515-6.037,40.074,40.074,0,0,0-8.974-3.934,79.038,79.038,0,0,0-10.249-2.9c-2.59-.479-5.722-.888-8.264.128-1.784-.075-3.563-.118-5.326-.14-8.245-.1-17.324,1.046-23.928,6.424-2.243,1.827-4.82,4.54-5.577,7.4a2.594,2.594,0,0,0,.871,2.991c1.434.909,3.468.262,5.01.061,4.617-.6,9.42.253,13.916,1.307,4.044.949,8.192,2.39,11.34,5.2a12.5,12.5,0,0,1,3.793,5.465c.891,3.14-2.4,3.8-4.744,3.107-2.524-.75-4.868-2.128-7.35-3.026-2.63-.951-5.32-1.676-8.009-2.436-8.461-2.39-17.991-2.646-25.57,2.5a17.393,17.393,0,0,0-6.451,7.628,4.448,4.448,0,0,0,.187,4.282c1.131,1.547,3.122,1.505,4.783.959,2.5-.823,4.823-2.1,7.35-2.89a52.49,52.49,0,0,1,8.129-2,21.533,21.533,0,0,1,7.422.464,31.976,31.976,0,0,1,5.984,1.482c.641.259,4.592,2.765,3.3,3.234-1.071.39-3.068-.452-4.161-.667a58.656,58.656,0,0,0-8.159-1.36,45.433,45.433,0,0,0-8.4.639c-4.531.615-8.82,1.575-12.79,3.934a24.417,24.417,0,0,0-8.8,8.815c-.723,1.26-1.515,2.8-.825,4.221a1.02,1.02,0,0,0,1.159.453c1.852-.733,3.861-.837,5.747-1.452a42.333,42.333,0,0,1,7.081-1.972,9.272,9.272,0,0,1,7.434,2.081c.055,1.435-1.263,2.345-2.6,2.729-2.811.806-5.784.79-8.6,1.673a14.736,14.736,0,0,0-6.839,4.3,26.476,26.476,0,0,0-2.784,4.075c-.845,1.431-2.214,3.484-2,5.219a.827.827,0,0,0,.039.144.249.249,0,0,0,.037.251c1.12,1.423,3.048,2.156,4.7,2.774,2.035.762,4.136,1.424,6.225,2.017C1056.137,167.725,1060.33,168.451,1063.825,166.231Zm38.345-60.142c-1.973-.763-7.142-4.057-5.256-6.694,1.909-2.67,7.268-.762,9.575.032,3.817,1.313,9.477,3.616,12.124,6.858,1.423,1.742.276,2.433-1.477,2.426a48.7,48.7,0,0,1-6.31-.424A38.019,38.019,0,0,1,1102.17,106.089Z" transform="translate(-1041.344 -86.137)" fill="#4f9638"/>
          <g id="Grupo_80113" data-name="Grupo 80113" transform="translate(6.255 13.521)" opacity="0.7">
            <path id="Trazado_113538" data-name="Trazado 113538" d="M1066.47,146.84c1.949-1.067,3.882-2.162,5.81-3.268,5.219-2.994,10.448-5.96,15.612-9.049,4.738-2.835,9.4-5.82,13.946-8.96,5.656-3.912,11.263-8.047,16.593-12.407a37.1,37.1,0,0,1,1.315,6.886c.024.22.392.306.423.047a14.283,14.283,0,0,0-.091-4.119,23.116,23.116,0,0,0-.88-3.433c.138-.114.281-.224.419-.338a190.679,190.679,0,0,0,15.566-13.948.477.477,0,0,0-.682-.666,169.108,169.108,0,0,1-14.746,12.136c-5.841,4.5-11.832,8.835-17.819,13.135-9.151,6.571-18.826,12.549-28.456,18.381-3.628,2.2-7.46,4-11.116,6.12-.633.366-.163,1.223.483,1.1A12.685,12.685,0,0,0,1066.47,146.84Z" transform="translate(-1043.544 -97.445)" fill="#0a481c"/>
            <path id="Trazado_113539" data-name="Trazado 113539" d="M1111.462,122.759a77.794,77.794,0,0,1-.8,15.71c-.371,2.45-.861,4.883-1.354,7.311-.476,2.344-1.4,4.826-1.411,7.222a.254.254,0,0,0,.472.117c1.1-2.1,1.4-4.806,1.863-7.107.531-2.619.906-5.256,1.207-7.91a84.219,84.219,0,0,0,.36-15.351C1111.782,122.536,1111.45,122.542,1111.462,122.759Z" transform="translate(-1034.573 -92.522)" fill="#0a481c"/>
            <path id="Trazado_113540" data-name="Trazado 113540" d="M1096.32,141.94a55.61,55.61,0,0,0,1.41-11.186,30.149,30.149,0,0,0-.842-9.116c-.06-.2-.381-.1-.3.088,1.144,2.787.487,6.11.416,9.045a55.807,55.807,0,0,1-1.387,10.705,41.946,41.946,0,0,1-7.205,16.763.235.235,0,0,0,.287.364c2.175-1.018,3.1-4.592,3.994-6.614.641-1.448,1.517-2.784,2.116-4.25A33.256,33.256,0,0,0,1096.32,141.94Z" transform="translate(-1038.399 -92.731)" fill="#0a481c"/>
            <path id="Trazado_113541" data-name="Trazado 113541" d="M1078.326,145.036c.735-1.373,1.486-2.737,2.162-4.142a19.6,19.6,0,0,0,2.338-8.617.374.374,0,0,0-.747.018,19.039,19.039,0,0,1-2.595,8.926c-.7,1.331-1.448,2.633-2.176,3.947-.6,1.079-1.6,2.42-1.619,3.684a.246.246,0,0,0,.417.164,6.071,6.071,0,0,0,1.092-1.819C1077.559,146.471,1077.942,145.752,1078.326,145.036Z" transform="translate(-1040.877 -90.696)" fill="#0a481c"/>
            <path id="Trazado_113542" data-name="Trazado 113542" d="M1070.965,153.763a16.991,16.991,0,0,0,1.942-1.642,29.538,29.538,0,0,0,3.1-3.927c.179-.252-.225-.544-.43-.323-1.1,1.184-2.286,2.274-3.484,3.358-.584.527-1.181,1.047-1.812,1.517-.615.459-1.494.85-1.885,1.526a.388.388,0,0,0,.343.572A4.028,4.028,0,0,0,1070.965,153.763Z" transform="translate(-1042.315 -87.59)" fill="#0a481c"/>
            <path id="Trazado_113543" data-name="Trazado 113543" d="M1063.35,126.759c4.528.043,9.541.769,13.617,2.826.513.259.953-.511.441-.781-4.123-2.177-9.014-2.769-13.62-2.933a28.027,28.027,0,0,0-6.848.708,25.985,25.985,0,0,0-6.981,2.119.207.207,0,0,0,.111.381c2.122-.057,4.2-.906,6.255-1.4A29.029,29.029,0,0,1,1063.35,126.759Z" transform="translate(-1045.932 -91.883)" fill="#0a481c"/>
            <path id="Trazado_113544" data-name="Trazado 113544" d="M1061.941,142.014c.371-.244.025-.826-.355-.592a59.416,59.416,0,0,1-10.9,4.881c-.141.051-.124.285.043.275a17.375,17.375,0,0,0,5.829-1.623A35.759,35.759,0,0,0,1061.941,142.014Z" transform="translate(-1045.79 -88.847)" fill="#0a481c"/>
            <path id="Trazado_113545" data-name="Trazado 113545" d="M1047.712,147.474c.325-.132.659-.263.977-.411.613-.287,1.222-.578,1.849-.838a.1.1,0,0,0-.057-.2c-.679.139-1.379.261-2.044.459a7.29,7.29,0,0,0-.99.379,4.425,4.425,0,0,0-.818.582c-.136.109.017.325.167.28C1047.1,147.635,1047.421,147.592,1047.712,147.474Z" transform="translate(-1046.576 -87.936)" fill="#0a481c"/>
            <path id="Trazado_113546" data-name="Trazado 113546" d="M1082.356,116.509a10.4,10.4,0,0,0,3.34,2.222,8.11,8.11,0,0,1,3.167,2.509.346.346,0,0,0,.593-.355,8.036,8.036,0,0,0-3.071-2.8c-1.211-.707-2.493-1.325-3.751-1.944A.235.235,0,0,0,1082.356,116.509Z" transform="translate(-1039.584 -93.791)" fill="#0a481c"/>
            <path id="Trazado_113547" data-name="Trazado 113547" d="M1057.965,115.082a18.793,18.793,0,0,1,3.572-1.48,26.607,26.607,0,0,1,7.439-1.037,39.579,39.579,0,0,1,14.632,2.869c.155.061.263-.206.11-.275a38.047,38.047,0,0,0-15.143-3.475,25.088,25.088,0,0,0-7.672,1.053c-2.069.635-4.982,1.641-6.184,3.573a.283.283,0,0,0,.323.407A20.392,20.392,0,0,0,1057.965,115.082Z" transform="translate(-1044.989 -94.658)" fill="#0a481c"/>
          </g>
        </g>
        <g id="Grupo_80120" data-name="Grupo 80120" transform="matrix(0.53, 0.848, -0.848, 0.53, 2131.719, 504.032)">
          <path id="Trazado_113548" data-name="Trazado 113548" d="M1106.811,143.1a.571.571,0,0,0-.383.5.4.4,0,0,0,.084.251c.383.5.765,1,1.172,1.495a82.972,82.972,0,0,0,17.47,16.824c4.233,2.977,8.346,6.278,12.7,9.147-2.2-1.028-4.4-2.069-6.612-3.037a126.407,126.407,0,0,0-15.09-5.9c-5.177-1.542-10.558-2.7-15.844-3.874a58.273,58.273,0,0,0-15.879-1.7.283.283,0,0,0-.1.024.423.423,0,0,0-.275.634c0,.012.012.012.012.024h.012c2.3,3.193,5.883,5.2,9.2,7.174,4.185,2.475,8.263,5.118,12.555,7.4a59.8,59.8,0,0,0,13.344,5.321c4.58,1.16,9.016,2.75,13.524,4.149-5.178-.12-10.331-.729-15.521-.454-10.367.55-20.638,1.519-30.922,2.93a114.886,114.886,0,0,1-17.769,1.447.385.385,0,0,0-.407.311.439.439,0,0,0,.287.55c.132.048.275.084.406.132,10,3.24,20.256,6.015,30.731,7.031a122.359,122.359,0,0,0,27.586-.586c-3.874,1-7.713,2.093-11.515,3.324-10.248,3.3-19.933,7.713-29.642,12.316-5.393,2.559-10.26,6.05-15.294,9.231a.363.363,0,0,0,.1.658c7.186,2.033,23.807,1.423,28.961.789,5.13-.646,10.188-1.985,15.246-2.989a75.974,75.974,0,0,0,14.552-4.7c2.953-1.244,5.7-2.882,8.514-4.4-.418.275-.849.562-1.255.861a51.7,51.7,0,0,0-6.493,6.146,74.321,74.321,0,0,0-6.17,6.553c-1.554,2.021-2.834,4.233-4.341,6.29a.012.012,0,0,1-.012.012c-.418.6-.861,1.16-1.339,1.722a.288.288,0,0,0-.072.179.305.305,0,0,0,.383.359c6.278-1.65,11.646-6.146,17.183-9.351,5.381-3.1,10.833-6.5,14.253-11.838a.277.277,0,0,0,.024-.191c.729-1.363,1.554-2.69,2.332-4.03,1.3-2.26.957-5.166.849-7.689-.072-2.033-.215-4.077-.143-6.11.072-1.961.407-3.9.634-5.835.191-1.7.227-3.384.323-5.094.072-1.531.3-3.061.227-4.6-.12-2.607-1.554-3.97-3.539-5.488-2.762-2.1-5.464-4.269-8.215-6.4a151.912,151.912,0,0,0-19.993-12.89c-2.738-1.519-5.261-3.4-8.023-4.879C1112.3,143.617,1109.49,142.325,1106.811,143.1Zm31.89,47.184a38.587,38.587,0,0,1,4.592-1.052C1141.775,189.641,1140.244,189.976,1138.7,190.287Z" transform="translate(-1068.063 -142.867)" fill="#36753c"/>
          <g id="Grupo_80115" data-name="Grupo 80115" transform="translate(2.405 49.266)">
            <path id="Trazado_113549" data-name="Trazado 113549" d="M1142.3,184.4c-1.016,1.71-2.989,2.774-4.723,3.635-1.949.945-3.994,1.674-6,2.487-4.6,1.877-9.016,4.161-13.643,5.991-5.022,1.985-10.128,3.731-15.294,5.285-10.7,3.24-21.308,6.5-32.3,8.573a.366.366,0,0,1-.251-.454c5.883-1.291,11.682-3.025,17.446-4.747,10.271-3.049,20.639-5.967,30.635-9.889,4.436-1.746,8.705-3.934,13.189-5.548,3.922-1.4,7.414-2.87,10.582-5.608C1142.134,183.967,1142.433,184.171,1142.3,184.4Z" transform="translate(-1070.074 -184.068)" fill="#5e9163"/>
          </g>
          <g id="Grupo_80116" data-name="Grupo 80116" transform="translate(0 42.236)">
            <path id="Trazado_113550" data-name="Trazado 113550" d="M1146.211,178.255c.263.024.359.442.06.5a89.453,89.453,0,0,1-9.135.873c-3.025.227-6.051.466-9.088.586-11.025.419-22.085.442-33.134.359-5.5-.036-10.989-.191-16.489-.43-3.217-.143-6.445-.227-9.65-.6-.131-.048-.275-.084-.406-.132a.439.439,0,0,1-.287-.55c4.448.43,9,.215,13.44.442,10.726.562,21.428.753,32.166.55,5.476-.1,10.953-.239,16.418-.67,2.63-.2,5.273-.419,7.9-.622A55.362,55.362,0,0,1,1146.211,178.255Z" transform="translate(-1068.063 -178.189)" fill="#5e9163"/>
          </g>
          <g id="Grupo_80117" data-name="Grupo 80117" transform="translate(15.923 13.975)">
            <path id="Trazado_113551" data-name="Trazado 113551" d="M1081.724,154.554c3.862,1.244,7.736,2.415,11.587,3.707,5.4,1.818,10.845,3.5,16.226,5.393,10.666,3.719,21.32,7.82,31.209,13.345a.228.228,0,0,1-.227.395c-10.248-5.393-21.081-9.351-32.022-13.069q-7.963-2.708-15.891-5.5c-2.726-.957-5.453-1.889-8.215-2.726-.969-.3-1.949-.586-2.917-.885h-.012c0-.012-.012-.012-.012-.024A.423.423,0,0,1,1081.724,154.554Z" transform="translate(-1081.379 -154.554)" fill="#5e9163"/>
          </g>
          <g id="Grupo_80118" data-name="Grupo 80118" transform="translate(38.366 0.738)">
            <path id="Trazado_113552" data-name="Trazado 113552" d="M1100.148,143.484c.694.359,1.387.753,2.069,1.112q2.762,1.453,5.464,2.989a100.327,100.327,0,0,1,10.558,6.864c6.732,5.022,12.771,10.869,19.12,16.346.215.191-.1.49-.311.311-6.529-5.429-12.854-11.168-19.73-16.178a108.959,108.959,0,0,0-10.355-6.66c-1.794-1.028-3.623-2.021-5.465-2.989-.036-.012-.06-.036-.1-.048-.406-.49-.789-.992-1.172-1.495A.4.4,0,0,1,1100.148,143.484Z" transform="translate(-1100.148 -143.484)" fill="#5e9163"/>
          </g>
          <g id="Grupo_80119" data-name="Grupo 80119" transform="translate(50.264 62.065)">
            <path id="Trazado_113553" data-name="Trazado 113553" d="M1139.7,195.193a17.953,17.953,0,0,1-3.635,3.8c-1.339,1.22-2.7,2.4-4.09,3.575q-4,3.336-8.191,6.433c-4.508,3.312-9.088,6.529-13.691,9.733a.288.288,0,0,1,.072-.179c.478-.562.921-1.124,1.339-1.722a.012.012,0,0,0,.012-.012c3.8-2.738,7.629-5.465,11.36-8.31,2.906-2.224,5.787-4.484,8.585-6.84q2.081-1.758,4.078-3.587a24.511,24.511,0,0,1,3.778-3.276A.282.282,0,0,1,1139.7,195.193Z" transform="translate(-1110.098 -194.772)" fill="#5e9163"/>
          </g>
        </g>
        <g id="Grupo_80138" data-name="Grupo 80138" transform="translate(810.269 83.421)">
          <path id="Trazado_113563" data-name="Trazado 113563" d="M921.49,149.076a13.624,13.624,0,0,0,3.276-10.289c-.379-4.458-2.757-7.8-5.79-10.911a30.393,30.393,0,0,0-4.08-3.5h-.012a41.085,41.085,0,0,0-3.99-2.559h-.012c-1.49-.854-3.034-1.629-4.6-2.381-2.517-1.2-5.082-2.264-7.616-3.407a13.078,13.078,0,0,1-6.222-5.056c-1.351-2.247-2.235-4.79-3.462-7.1l-.471-.843a12.286,12.286,0,0,0-3.639-4.064c-4.068-2.78-8.669-2.4-13.342-2.183a22.436,22.436,0,0,1-8.791-.911,17.212,17.212,0,0,1-6.212-4.3c-.157-.133-.3-.288-.444-.432-.2-.2-.387-.4-.587-.6a38.2,38.2,0,0,0-4.517-4.317,14.018,14.018,0,0,0-6.823-2.539c-5.607-.686-11.217.139-16.8.593-1.281.1-2.568.151-3.822.372a.778.778,0,0,0-.714-.514c-1.983-.115-3.691,1.27-5.079,2.547a22.534,22.534,0,0,0-2.836,3.14,20.279,20.279,0,0,0-1.229,1.831v.012a23.974,23.974,0,0,0-3.342,12.983c.279,8.625,5.347,16.755,13.574,19.587.326.11.666.222,1.017.323h.012c.387.1.775.207,1.188.288,2.594.561,5.308.386,7.94.627a26.97,26.97,0,0,1,8.809,2.016,11.337,11.337,0,0,1,2.354,1.429,13.66,13.66,0,0,1,1.85,1.723c.012,0,.012,0,.012.012a45.474,45.474,0,0,1,5.056,7.421c2.264,3.713,4.665,7.353,8.981,8.845,4.864,1.694,10.356.271,15.3-.343.485-.056.958-.114,1.441-.158.413-.051.824-.09,1.234-.128a29.559,29.559,0,0,1,5.925.029,27,27,0,0,1,8.211,2.724,65.925,65.925,0,0,0,10.7,4.379c.411.106.823.212,1.236.293a20.937,20.937,0,0,0,3.226.457A16.742,16.742,0,0,0,921.49,149.076Z" transform="translate(-810.258 -83.421)" fill="#36753c"/>
          <g id="Grupo_80130" data-name="Grupo 80130" transform="translate(0 5.564)">
            <path id="Trazado_113564" data-name="Trazado 113564" d="M921.532,144.018c-1.544-.957-2.865-2.271-4.328-3.344-3.173-2.332-6.53-4.449-9.83-6.595-10.4-6.761-20.96-13.322-31.669-19.584-4.058-2.372-8.108-4.752-12.365-6.754-3.472-1.633-7.006-3.132-10.551-4.6-8.279-3.415-16.645-6.623-25.04-9.739-3.663-1.358-7.332-2.8-11.065-3.954-1.222-.379-2.445-.766-3.695-1.046a13.15,13.15,0,0,0-1.3-.248c-.255-.031-1.008-.149-.483-.035-.857-.188-1.342,1.108-.476,1.3-.09-.02.332.143.506.228.311.152.621.3.936.445.971.44,1.966.819,2.958,1.207,3.031,1.183,6.113,2.236,9.167,3.358,8.278,3.041,16.537,6.134,24.723,9.419a206.936,206.936,0,0,1,21.491,9.8q17.09,9.235,33.447,19.686c5.729,3.663,11.295,7.776,17.434,10.737.161.079.3-.184.145-.279Z" transform="translate(-810.269 -88.075)" fill="#4f9638"/>
          </g>
          <g id="Grupo_80131" data-name="Grupo 80131" transform="translate(71.12 34.972)">
            <path id="Trazado_113565" data-name="Trazado 113565" d="M871.382,114.024a3.8,3.8,0,0,1-1.38.007.292.292,0,0,1-.1-.548,1.467,1.467,0,0,1,.313-.154c1.363-.68,3.4-.55,4.849-.611a56.3,56.3,0,0,1,5.874.06,82.331,82.331,0,0,1,12.156,1.727q3.112.687,6.157,1.584h.012a41.085,41.085,0,0,1,3.99,2.559,95.666,95.666,0,0,0-10.494-2.982,82.436,82.436,0,0,0-11.913-1.767,54.683,54.683,0,0,0-5.6-.206c-1.022.024-2.035.1-3.054.218C871.917,113.935,871.65,113.986,871.382,114.024Z" transform="translate(-869.746 -112.669)" fill="#4f9638"/>
          </g>
          <g id="Grupo_80132" data-name="Grupo 80132" transform="translate(53.09 26.561)">
            <path id="Trazado_113566" data-name="Trazado 113566" d="M869.188,142.071c-.25-.32-.5-.653-.747-.973a62.932,62.932,0,0,1-7.051-10.751c-3.549-7.069-7.079-15.4-6.693-23.487.012-.287.035-.561.057-.847a.431.431,0,0,1,.859.069c-.02.395-.029.79-.026,1.2-.016,7.809,3.329,15.773,6.777,22.594a66.464,66.464,0,0,0,7.03,10.713c.347.448.695.9,1.028,1.356C870.012,141.981,869.6,142.019,869.188,142.071Z" transform="translate(-854.668 -105.634)" fill="#4f9638"/>
          </g>
          <g id="Grupo_80133" data-name="Grupo 80133" transform="translate(82.699 43.444)">
            <path id="Trazado_113567" data-name="Trazado 113567" d="M891.651,146.6c-.414-.081-.825-.187-1.236-.293a61.017,61.017,0,0,1-4.463-7.191,49.186,49.186,0,0,1-3.688-8.892c-.963-3.187-1.668-6.436-2.693-9.6-.037-.135-.087-.258-.124-.393-.123-.395.452-.684.588-.288s.293.816.427,1.222c1.853,5.5,2.975,11.149,5.606,16.391a62.123,62.123,0,0,0,4.979,8.218C891.251,146.056,891.444,146.335,891.651,146.6Z" transform="translate(-879.43 -119.754)" fill="#4f9638"/>
          </g>
          <g id="Grupo_80134" data-name="Grupo 80134" transform="translate(50.099 19.503)">
            <path id="Trazado_113568" data-name="Trazado 113568" d="M880.79,100.68a88.277,88.277,0,0,0-13.231.561,74,74,0,0,0-7.643,1.33,32.116,32.116,0,0,0-4.094,1.214c-.768.285-1.494.658-2.25.955-.3.12-.606.226-.914.32-.443.121-.645-.484-.359-.749l.116-.1c1.739-1.6,4.55-2.23,6.777-2.78a59.41,59.41,0,0,1,8.157-1.3,90.19,90.19,0,0,1,12.969-.3Z" transform="translate(-852.166 -99.732)" fill="#4f9638"/>
          </g>
          <g id="Grupo_80135" data-name="Grupo 80135" transform="translate(31.827 17.856)">
            <path id="Trazado_113569" data-name="Trazado 113569" d="M841.878,127.719a13.66,13.66,0,0,0-1.85-1.723A66.126,66.126,0,0,1,837.435,114c-.579-4.666-.932-9.733.157-14.384.076-.354.165-.695.264-1.034.1-.387.788-.248.708.154s-.148.78-.2,1.171a41.008,41.008,0,0,0-.329,5.936,65.5,65.5,0,0,0,3.126,19.715C841.384,126.286,841.626,127,841.878,127.719Z" transform="translate(-836.886 -98.355)" fill="#4f9638"/>
          </g>
          <g id="Grupo_80136" data-name="Grupo 80136" transform="translate(22.31 7.107)">
            <path id="Trazado_113570" data-name="Trazado 113570" d="M828.971,95.421a3.773,3.773,0,0,1,.221-.354c1.285-1.778,4.447-2.6,6.334-3.225a54.113,54.113,0,0,1,7.423-1.864,45.883,45.883,0,0,1,8.9-.6c.2.2.387.4.587.6.143.143.287.3.444.432a.258.258,0,0,1-.1,0,46.828,46.828,0,0,0-9.8.721,53.609,53.609,0,0,0-7.556,2.033,29.611,29.611,0,0,0-3.367,1.417c-.564.289-1.108.641-1.684.929h-.012a5.481,5.481,0,0,1-1.067.416C829,96.011,828.845,95.651,828.971,95.421Z" transform="translate(-828.926 -89.365)" fill="#36753c"/>
          </g>
          <g id="Grupo_80137" data-name="Grupo 80137" transform="translate(10.761 10.755)">
            <path id="Trazado_113571" data-name="Trazado 113571" d="M823.174,122.8c-.352-.1-.691-.213-1.018-.323-.484-2-.871-4.019-1.221-6.052a98.022,98.022,0,0,1-1.459-11.637c-.191-3.818-.557-8.143.61-11.851a1.877,1.877,0,0,1,.081-.257c.16-.5.929-.212.768.291a1.667,1.667,0,0,0-.068.246,20.67,20.67,0,0,0-.622,5.983c.011,2.209.048,4.408.2,6.616.253,3.5.821,6.977,1.413,10.445C822.234,118.45,822.642,120.643,823.174,122.8Z" transform="translate(-819.268 -92.416)" fill="#36753c"/>
          </g>
        </g>
        <g id="Grupo_80142" data-name="Grupo 80142" transform="translate(1970.199 87.368)">
          <g id="Grupo_80139" data-name="Grupo 80139" transform="translate(0 0.136)">
            <path id="Trazado_113572" data-name="Trazado 113572" d="M1067.65,86.868c-7.628,2.682-15.55,4.641-22.525,8.9a49.968,49.968,0,0,0-9.109,7.073,33.633,33.633,0,0,0-6.586,8.449c-1.268,2.531-2.671,6.128-.9,8.758,1.49,2.2,4.42,2.729,6.889,2.384,7.5-1.05,9.26-9.761,11.856-15.56,3.154-7.048,8.608-12.311,15.089-16.133a12.837,12.837,0,0,0,5.874-2.857C1068.651,87.475,1068.238,86.662,1067.65,86.868Z" transform="translate(-968.546 -86.835)" fill="#add031"/>
            <path id="Trazado_113573" data-name="Trazado 113573" d="M1023.719,106.366q5.158-2.454,10.193-5.152a104.607,104.607,0,0,0,9.174-5.71c1.81-1.218,3.659-2.356,5.437-3.622q1.126-.8,2.222-1.648c.259-.2.83-.5.9-.873a.506.506,0,0,0-.154-.474.409.409,0,0,0-.038-.1l-.085-.11a.548.548,0,0,0-.238-.14l.108.045c-.1-.041-.19-.1-.289-.128-.059-.019-.12-.031-.179-.048a3.033,3.033,0,0,1-.346-.12l-.081-.036c-.011-.519-.5-1.024-1.039-.637-10.389,7.5-22.949,10.82-35.261,13.612a92.219,92.219,0,0,1-10.623,1.812c-3.47.374-6.931.157-10.414.364-3.8.226-7.832.1-11.4,1.627-2.857,1.224-4.543,4.272-2.4,7.027,2.084,2.678,6.272,3.476,9.464,3.629,5.641.273,11.572-.955,16.971-2.466A113.5,113.5,0,0,0,1023.719,106.366Z" transform="translate(-978.229 -86.709)" fill="#add031"/>
          </g>
          <g id="Grupo_80140" data-name="Grupo 80140" transform="translate(63.596)">
            <path id="Trazado_113574" data-name="Trazado 113574" d="M1031.8,117.1c3.5-7.758,8.286-15.488,15.546-20.222a61.08,61.08,0,0,1,10.96-5.416c1.869-.74,3.781-1.337,5.692-1.959a16.179,16.179,0,0,0,5.248-2.339c.214-.171-.019-.5-.254-.438-2.114.567-4.159,1.429-6.256,2.067-2.052.624-4.045,1.357-6.025,2.179a57.259,57.259,0,0,0-10.916,5.64c-6.85,4.777-11.627,12.565-14.37,20.329-.077.216.279.372.376.158Z" transform="translate(-1031.414 -86.722)" fill="#4f9638"/>
          </g>
          <g id="Grupo_80141" data-name="Grupo 80141" transform="translate(2.141 2.009)">
            <path id="Trazado_113575" data-name="Trazado 113575" d="M980.2,109.794a12.239,12.239,0,0,0,5.713.89c2.5,0,4.981.231,7.483.195a72.812,72.812,0,0,0,15.426-2.27,127.416,127.416,0,0,0,28.906-10.476c4.62-2.341,9.661-5.084,12.866-9.249.251-.325-.257-.627-.529-.408a63.311,63.311,0,0,1-11.538,7.888c-4.373,2.173-8.767,4.262-13.331,6.012-4.491,1.724-9.073,3.062-13.709,4.332a93.927,93.927,0,0,1-14.906,3.219,44.715,44.715,0,0,1-8.411.007c-2.5-.208-5.29.386-7.623-.738-.4-.191-.747.392-.348.6Z" transform="translate(-980.02 -88.402)" fill="#4f9638"/>
          </g>
        </g>
        <g id="Grupo_80144" data-name="Grupo 80144" transform="translate(916.482 84.358)">
          <path id="Trazado_113576" data-name="Trazado 113576" d="M901.074,86.8c1.1,3.447-.182,7.849,0,11.48.2,3.991.459,8.132,1,12.091.525,3.82,1.314,7.952,3.754,11.064,3.012,3.844,5.078,1.926,5.365-2.218.207-2.98-.6-10.378,1.394-12.364,1.838,8.407,3.22,16.786,9.017,23.5,1.407,1.627,5.8,6.878,8.169,4.949,1.95-1.589.035-9.757-.777-11.809,4.795,6.343,13.6,13.689,22.151,13.284,10.3-.488-7.342-15.048-10.307-17.07-3.288-2.242-6.682-4.413-10.006-6.382,5.731-.851,14.019,2.987,19.324-.88,8.45-6.162-7.156-10.613-11.511-11.271a80.884,80.884,0,0,0-10.65-1.01c4.241,0,9.194.544,13.152-1.232,6.255-2.805-.941-5.667-4.26-6.994-7.453-2.98-16.024-2.433-23.948-2.413-2.906.007-8.331.34-10.879-1.236Z" transform="translate(-898.711 -83.696)" fill="#4f9638"/>
          <g id="Grupo_80143" data-name="Grupo 80143">
            <path id="Trazado_113577" data-name="Trazado 113577" d="M899.114,84.689a20.193,20.193,0,0,0,3.63,5.518c.891,1.1,1.747,2.218,2.619,3.328a.3.3,0,0,0,.185.236c.385.49.777.977,1.159,1.471a.251.251,0,0,0-.094.152,29.791,29.791,0,0,0-.059,5.408c-.019,1.78-.086,3.56-.124,5.34a47.615,47.615,0,0,0,.732,10.672c.054.264.5.209.477-.065a89.38,89.38,0,0,1-.215-10.812c.037-1.78.091-3.561.1-5.341a21.679,21.679,0,0,0-.146-4.5c.114.148.234.292.348.441,3.092,4.064,6.39,7.946,9.68,11.849,5.966,7.078,11.839,14.641,19.961,19.365.474.276.863-.422.423-.726-7.63-5.273-13.4-12.684-19.3-19.724-.921-1.1-1.83-2.206-2.742-3.312.749.033,1.514-.011,2.229.012,1.288.041,2.572.108,3.858.187,2.768.17,5.529.4,8.277.792a94.307,94.307,0,0,1,15.62,3.4c.047.014.065-.056.02-.073-2.58-.915-5.077-1.9-7.739-2.577q-4.061-1.024-8.2-1.673c-2.553-.4-5.124-.728-7.7-.928-1.375-.106-2.753-.172-4.131-.219a16.1,16.1,0,0,0-3.139-.016q-2.981-3.62-5.97-7.234c-.508-.611-1.033-1.209-1.554-1.81.537-.057,1.074-.151,1.6-.2q1.885-.163,3.779-.2a64.169,64.169,0,0,1,7.333.281c4.824.464,9.449,1.755,14.335,1.577a.084.084,0,0,0,0-.167c-4.925-.331-9.674-2.006-14.6-2.467a63.677,63.677,0,0,0-7.611-.262q-1.892.048-3.78.224a14.37,14.37,0,0,0-1.9.236c-.823-.942-1.644-1.886-2.443-2.848-1.522-1.84-2.815-3.835-4.289-5.7C899.514,84.026,898.987,84.345,899.114,84.689Z" transform="translate(-899.095 -84.205)" fill="#36753c"/>
            <path id="Trazado_113578" data-name="Trazado 113578" d="M915.977,109.9a25.71,25.71,0,0,0-1.045-4.751.188.188,0,0,0-.341.044c-.315,1.522.227,3.261.57,4.745.38,1.642.849,3.262,1.369,4.865,1.076,3.324,2.426,6.548,3.7,9.8.111.286.573.171.469-.129-1.124-3.234-2.312-6.447-3.359-9.707C916.821,113.166,916.356,111.544,915.977,109.9Z" transform="translate(-896.08 -80.122)" fill="#36753c"/>
          </g>
        </g>
        <g id="Grupo_80150" data-name="Grupo 80150" transform="translate(813.826 92.071) rotate(40)">
          <path id="Trazado_113579" data-name="Trazado 113579" d="M866.734,161.509a135.379,135.379,0,0,0-17.651,5.845,174.027,174.027,0,0,0-17.068,8.046,27.482,27.482,0,0,0-6.493,4.643c-1.827,1.838-3.558,4.1-5.764,5.491a1.371,1.371,0,0,0,1.052,2.495c.195-.058.363-.148.549-.218,5.338,2.285,10.484,5.121,15.609,7.843,4.794,2.547,9.676,4.912,14.306,7.755,7.715,4.739,16.8,11.64,26.393,10.943,4.24-.309,8.129-2.513,11.427-5.072,3.809-2.955,6.692-7.659,11.654-8.721,8.4-1.8,16.761,2.563,25.146,2.578,5.244.007,13.495-.607,15.246-6.742,2.025-7.092-4.291-13.708-10.123-16.448a65.13,65.13,0,0,0-11.051-3.652c-4.459-1.184-8.345-2.424-12.1-5.242-3.659-2.744-6.872-6.033-10.623-8.663a22.555,22.555,0,0,0-13.575-4.007C877.989,158.453,872.191,160.081,866.734,161.509Z" transform="translate(-818.251 -158.378)" fill="#add031"/>
          <g id="Grupo_80145" data-name="Grupo 80145" transform="translate(0 23.519)">
            <path id="Trazado_113580" data-name="Trazado 113580" d="M939.077,182.6c-7.284-1.87-14.338-4.551-21.7-6.136a207.476,207.476,0,0,0-23.028-3.406c-8.015-.794-16.075-.767-24.111-1.274a150.15,150.15,0,0,0-24.243.24c-8.9.865-17.746,1.554-26.539,3.244-1.058.2-1.11,2.031,0,2.188,3.453.491,6.99-.935,10.416-1.334,4.126-.478,8.239-.74,12.376-1.085,7.959-.662,15.669-1.32,23.669-.9,15.961.845,32.151.675,47.97,3.249,8.461,1.376,16.524,4.489,24.9,6.275.691.148.987-.886.294-1.065Z" transform="translate(-818.641 -171.407)" fill="#36753c"/>
          </g>
          <g id="Grupo_80146" data-name="Grupo 80146" transform="translate(30.198 25.619)">
            <path id="Trazado_113581" data-name="Trazado 113581" d="M869.665,197.98a110.8,110.8,0,0,1-26.259-18.467c-1.219-1.166-2.4-2.368-3.576-3.576a14.358,14.358,0,0,0-3.8-3.325c-.309-.144-.767.1-.632.486a10.144,10.144,0,0,0,2.549,3.482c1.3,1.357,2.681,2.639,4.072,3.9,2.672,2.424,5.421,4.764,8.278,6.966a94.308,94.308,0,0,0,18.829,11.463c.619.278,1.17-.619.542-.928Z" transform="translate(-835.37 -172.571)" fill="#36753c"/>
          </g>
          <g id="Grupo_80147" data-name="Grupo 80147" transform="translate(43.66 7.19)">
            <path id="Trazado_113582" data-name="Trazado 113582" d="M843.619,180.042a121.069,121.069,0,0,1,15.313-10.163,62.564,62.564,0,0,1,8.6-3.785c2.968-1.043,6.064-1.711,8.968-2.908a.417.417,0,0,0-.11-.814,25.419,25.419,0,0,0-9.1,1.789,65.9,65.9,0,0,0-8.841,3.8A59.613,59.613,0,0,0,842.969,179.2c-.406.419.143,1.218.65.843Z" transform="translate(-842.828 -162.361)" fill="#36753c"/>
          </g>
          <g id="Grupo_80148" data-name="Grupo 80148" transform="translate(91.439 28.577)">
            <path id="Trazado_113583" data-name="Trazado 113583" d="M887.706,186.117a46.146,46.146,0,0,1-9.578-5.305c-1.507-1.045-2.939-2.172-4.334-3.358-.7-.6-1.4-1.209-2.087-1.825a5.423,5.423,0,0,0-1.886-1.4c-.4-.121-.619.311-.485.63a5.754,5.754,0,0,0,1.756,1.818q1.053.907,2.128,1.789c1.45,1.184,2.926,2.35,4.439,3.455a33.875,33.875,0,0,0,9.8,5.083c.574.18.787-.681.245-.888Z" transform="translate(-869.296 -174.209)" fill="#36753c"/>
          </g>
          <g id="Grupo_80149" data-name="Grupo 80149" transform="translate(74.431 21.939)">
            <path id="Trazado_113584" data-name="Trazado 113584" d="M887.857,170.781c-4.939-.07-9.87-.473-14.8-.076a39.056,39.056,0,0,0-6.883,1.079,30.99,30.99,0,0,0-3.542,1.159,6.786,6.786,0,0,0-2.661,1.421c-.195.22-.081.653.26.63a12.719,12.719,0,0,0,2.919-.98,31.054,31.054,0,0,1,3.386-.912,58.886,58.886,0,0,1,7.206-1.061c4.7-.4,9.4-.554,14.116-.616a.322.322,0,0,0,0-.644Z" transform="translate(-859.874 -170.532)" fill="#36753c"/>
          </g>
        </g>
        <g id="Grupo_80159" data-name="Grupo 80159" transform="translate(2090.127 237.615) rotate(-97)">
          <path id="Trazado_113591" data-name="Trazado 113591" d="M961.392,221.306c-7.3.918-9.332,7.787-8.5,14.224.719,5.532,4.44,10.864,4.1,16.5-.244,4.006-4.35,2.97-7.122,2.264-3.5-.892-7.136-2.151-10.8-1.872-2.795.212-5.624,1.706-6.482,4.56-.732,2.431.67,4.648,2.425,6.225,5.131,4.611,13.01,6.587,19.3,8.951,2.332.877,9.619,1.836,10.211,4.637.413,1.958-3.875,2.074-5.121,2.163-4.633.34-9.253-.265-13.883-.161-3.045.068-10.727.454-10.036,5.149.473,3.195,3.933,5.69,6.494,7.166a79.16,79.16,0,0,0,11.977,5.553,104.393,104.393,0,0,0,16.07,4.2,119.722,119.722,0,0,0,15.895,2.347c2.448.152,4.9.109,7.342.317a1.238,1.238,0,0,0,.888,1.04,81.853,81.853,0,0,0,14.331,3.394c3.828.49,8.005.426,11.232-1.975,3.666-2.726,5.8-7.323,8.378-10.984,2.371-3.372,5.255-6.557,6.961-10.342,1.75-3.886,3.469-10.612-1.2-13.224-5.936-3.317-12.88,2.692-18.743,3.308-1.429.15-3.865.019-4.468-1.641-.411-1.134.443-2.459,1.027-3.368a38.04,38.04,0,0,1,6.7-7.149c4.134-3.753,9.124-7.924,6.582-14.187-2.891-7.128-12.317-7.5-17.9-3.49-3.116,2.236-5.1,5.585-6.561,9.058a34.1,34.1,0,0,0-1.541,4.584c-.7,2.647-2.433,3.931-5.08,2.225-4.042-2.6-5.392-8.72-6.955-12.9a75.033,75.033,0,0,0-6.4-13.843C976.225,227.219,970.309,220.185,961.392,221.306Z" transform="translate(-932.391 -221.188)" fill="#add031"/>
          <g id="Grupo_80153" data-name="Grupo 80153" transform="translate(28.209 11.64)">
            <path id="Trazado_113592" data-name="Trazado 113592" d="M945.581,227.442a53.917,53.917,0,0,0,2.788,12.46,90.336,90.336,0,0,0,5.116,10.993,131.909,131.909,0,0,0,13.74,20.588,136.437,136.437,0,0,0,17.662,17.827q4.507,3.82,9.289,7.325c3.317,2.429,7.03,5.431,11.115,6.34.537.12,1.027-.563.569-.978-2.9-2.619-6.634-4.367-9.824-6.623-3.336-2.36-6.576-4.881-9.713-7.5a122.734,122.734,0,0,1-16.55-16.971,132.934,132.934,0,0,1-13.34-20.029c-3.959-7.248-7.706-15.482-9.212-23.654-.167-.914-1.765-.715-1.641.223Z" transform="translate(-945.574 -226.627)" fill="#4f9638"/>
          </g>
          <g id="Grupo_80154" data-name="Grupo 80154" transform="translate(77.691 53.988)">
            <path id="Trazado_113593" data-name="Trazado 113593" d="M969.9,268.663c2.362-3.678,4.59-7.445,7-11.1,1.175-1.783,2.39-3.537,3.687-5.232,1.363-1.782,2.945-3.454,4.141-5.354.188-.3-.2-.723-.5-.5a22.632,22.632,0,0,0-4.385,4.665c-1.361,1.765-2.639,3.591-3.865,5.45-2.473,3.755-4.749,7.637-7.167,11.427-.441.693.657,1.329,1.1.642Z" transform="translate(-968.698 -246.418)" fill="#4f9638"/>
          </g>
          <g id="Grupo_80155" data-name="Grupo 80155" transform="translate(41.976 8.729)">
            <path id="Trazado_113594" data-name="Trazado 113594" d="M957.807,261.938c2.142-5.81,1.695-12.416.665-18.405a75.229,75.229,0,0,0-2.42-9.963c-.837-2.649-1.688-5.9-3.385-8.149-.223-.3-.764-.143-.642.272.775,2.6,2.119,5.054,2.973,7.65a75.833,75.833,0,0,1,2.471,9.636c1.134,6.052,2.02,12.91.079,18.889-.053.165.2.229.259.071Z" transform="translate(-952.008 -225.267)" fill="#4f9638"/>
          </g>
          <g id="Grupo_80156" data-name="Grupo 80156" transform="translate(2.574 37.912)">
            <path id="Trazado_113595" data-name="Trazado 113595" d="M972.468,245.851c-3.484-.323-6.9-.445-10.372-.929-3.315-.46-6.664-.636-9.972-1.153a88.562,88.562,0,0,1-10.01-2.1c-2.73-.76-5.313-2.609-8.164-2.763a.372.372,0,0,0-.186.687c5.476,3.492,12.385,4.738,18.717,5.6,3.135.428,6.3.68,9.445.969,3.531.323,7.012.06,10.541.255.368.019.36-.535,0-.569Z" transform="translate(-933.594 -238.905)" fill="#4f9638"/>
          </g>
          <g id="Grupo_80157" data-name="Grupo 80157" transform="translate(9.052 62.994)">
            <path id="Trazado_113596" data-name="Trazado 113596" d="M936.879,251.6c7.378,3.507,15.484,4.907,23.577,5.722a88.7,88.7,0,0,0,13.1.156c2.121-.1,4.242-.238,6.362-.332,1.9-.086,4.038.257,5.746-.661a.54.54,0,0,0,0-.924c-1.511-.775-3.173-.46-4.836-.394-2.12.086-4.241.2-6.362.3a103.953,103.953,0,0,1-12.728-.094,108.559,108.559,0,0,1-24.463-4.714c-.552-.175-.937.691-.4.946Z" transform="translate(-936.622 -250.626)" fill="#4f9638"/>
          </g>
          <g id="Grupo_80158" data-name="Grupo 80158" transform="translate(60.67 24.685)">
            <path id="Trazado_113597" data-name="Trazado 113597" d="M961.243,269.408c1.575-3.837,3.21-7.592,5.119-11.275a67.279,67.279,0,0,1,6.618-10,50,50,0,0,1,8.47-8.179c1.4-1.138,2.677-2.412,4.094-3.527,1.269-1,3.06-1.667,4.16-2.8a.523.523,0,0,0-.229-.867c-2.919-.458-6.1,3.7-8.027,5.4-1.494,1.314-3.141,2.427-4.581,3.807-1.607,1.541-3,3.272-4.517,4.9a41.305,41.305,0,0,0-7.1,10.265,107.654,107.654,0,0,0-4.489,12.144c-.107.31.364.424.484.133Z" transform="translate(-960.744 -232.724)" fill="#4f9638"/>
          </g>
        </g>
      </g>
    </g>
  </g>
</svg>
