<svg id="Grupo_957208" data-name="Grupo 957208" xmlns="http://www.w3.org/2000/svg" xmlns:xlink="http://www.w3.org/1999/xlink" width="81.45" height="81.45" viewBox="0 0 81.45 81.45">
  <defs>
    <clipPath id="clip-path">
      <rect id="Rectángulo_53033" data-name="Rectángulo 53033" width="81.45" height="81.45" fill="none"/>
    </clipPath>
  </defs>
  <g id="Grupo_957207" data-name="Grupo 957207" clip-path="url(#clip-path)">
    <path id="Trazado_622236" data-name="Trazado 622236" d="M46.268,341.042c-.517-.136-1.033-.277-1.552-.407A18.453,18.453,0,0,1,30.7,324.411c-.01-.1-.032-.2-.063-.4H11.605c-.159,0-.318,0-.476,0-1.159-.009-1.811-.488-1.81-1.327s.654-1.319,1.817-1.32q10.119,0,20.238,0c1.417,0,1.832.411,1.877,1.838A15.628,15.628,0,0,0,44.79,337.917c5.63,1.462,10.436-.3,14.358-4.471a15.624,15.624,0,0,0,4.216-10.255c.073-1.494.462-1.823,1.96-1.823q10,0,20,0a4.172,4.172,0,0,1,.867.056,1.2,1.2,0,0,1,1.062,1.278,1.191,1.191,0,0,1-1.087,1.249,5.073,5.073,0,0,1-.866.061q-9.206,0-18.413,0H66.1a40.159,40.159,0,0,1-1.1,4.5c-2.534,6.9-7.3,11.208-14.691,12.38-.082.013-.153.1-.23.151Z" transform="translate(-7.528 -259.592)" fill="#050505"/>
    <path id="Trazado_622237" data-name="Trazado 622237" d="M166.28,24.388a4.446,4.446,0,0,1,3.872,3.88c.359,2.253-.616,3.789-3.068,5.127a4.637,4.637,0,0,1-.405,4.92,4.991,4.991,0,0,1-4.609,1.869,4.738,4.738,0,0,1,.01,3.856,4.617,4.617,0,0,1-4.529,2.74q-9.645-.008-19.289,0h-.892c-.7,1.45-1.256,3.162-3.245,3.119-1.887-.04-2.451-1.661-3-2.886-2.1-.295-4.122-.411-6.056-.879a17.09,17.09,0,0,1-7.808-28.461,35.47,35.47,0,0,1,8.165-6.49q8.572-4.942,17.191-9.8c2.1-1.178,4.356-.756,5.479.9a4.834,4.834,0,0,1,.541,4.181,13.119,13.119,0,0,1-3.929,5.85c-1.887,1.813-3.838,3.56-5.8,5.372.173.015.361.046.548.046q10.994.006,21.988.008c2.47,0,4.3,1.232,4.8,3.432a15.432,15.432,0,0,1,.038,3.222m-28.145,19.74c.051,0,.207.018.364.018q9.524,0,19.049,0a4.556,4.556,0,0,0,.554-.03,2.059,2.059,0,0,0,1.728-1.53,1.774,1.774,0,0,0-.9-2.022,5.391,5.391,0,0,0-2.123-.458c-3.624-.044-7.249-.017-10.873-.026a1.939,1.939,0,0,1-1.073-.152c-.361-.276-.8-.758-.784-1.136a2.071,2.071,0,0,1,.806-1.205c.215-.185.655-.145.995-.146,4.021-.009,8.043-.018,12.064,0,1.663.007,3.325.109,4.988.107a1.979,1.979,0,0,0,2.008-2.305,2.026,2.026,0,0,0-2.188-1.65q-8.493-.007-16.985,0c-1.3,0-1.956-.448-1.948-1.332.008-.9.632-1.326,1.958-1.326h18.1c.635,0,1.27.01,1.9-.017a1.874,1.874,0,0,0,1.652-1.183,1.763,1.763,0,0,0-.248-1.935,2.311,2.311,0,0,0-2.031-.839q-9.8.012-19.6,0a6.234,6.234,0,0,1-.871-.028A1.194,1.194,0,0,1,143.56,25.7a1.21,1.21,0,0,1,1.043-1.3,4.619,4.619,0,0,1,.948-.047q7.857,0,15.715-.005a4.389,4.389,0,0,0,1.022-.087,1.92,1.92,0,0,0,1.5-1.563,1.712,1.712,0,0,0-.888-1.952,3.494,3.494,0,0,0-1.578-.349c-7.778-.023-15.556-.01-23.335-.029a16.927,16.927,0,0,1-3.074-.238,1.4,1.4,0,0,1-.669-2.445,3.718,3.718,0,0,1,.668-.557,45.629,45.629,0,0,0,8.041-6.8,18.266,18.266,0,0,0,2.62-3.36,5.216,5.216,0,0,0,.592-2.4c.045-.92-.482-1.312-1.385-1.137a5.749,5.749,0,0,0-1.681.644q-6.459,3.625-12.891,7.3a46.105,46.105,0,0,0-11.194,8.234,14.528,14.528,0,0,0,6.116,23.855,14.747,14.747,0,0,0,5.353.651c0-1.462-.1-2.865.024-4.249a8.039,8.039,0,0,1,1.8-4.816,2.427,2.427,0,0,1,3.753,0,6.168,6.168,0,0,1,1.534,3.337c.26,1.871.362,3.764.54,5.746m-3.929,2.987c1.618-1.836,1.521-8.653-.032-10.153-1.625,1.7-1.532,8.778.032,10.153" transform="translate(-90.788 -0.571)" fill="#040403"/>
    <path id="Trazado_622238" data-name="Trazado 622238" d="M161.235,256.749a12.667,12.667,0,0,1-1.753,5.54,13.322,13.322,0,0,1-4,4.739,5.227,5.227,0,0,1-1.415.678,2.433,2.433,0,0,1-3.262-2.049,9.081,9.081,0,0,1,1.044-5.273,14.461,14.461,0,0,1,4.571-5.962,3.509,3.509,0,0,1,2.735-.8c1.307.241,2.067,1.394,2.076,3.129m-7.808,8.36c2.108-.506,5.646-6.533,5.092-8.781-2.135.538-5.638,6.537-5.092,8.781" transform="translate(-121.754 -204.83)" fill="#040303"/>
    <path id="Trazado_622239" data-name="Trazado 622239" d="M230.969,276.881a17.511,17.511,0,0,1-.38,1.924,2.333,2.333,0,0,1-3.337,1.518,6.346,6.346,0,0,1-1.962-1.426,15.378,15.378,0,0,1-3.946-9.2,5.324,5.324,0,0,1,.1-1.573c.538-2.428,2.542-3.13,4.524-1.617a11.369,11.369,0,0,1,2.878,3.535,16.915,16.915,0,0,1,2.124,6.842m-6.881-8.429c-.762,2.333,1.977,8.495,4.013,9.342.876-1.6-1.6-8.112-4.013-9.342" transform="translate(-178.781 -214.632)" fill="#040303"/>
    <path id="Trazado_622240" data-name="Trazado 622240" d="M149.166,55.407c-.178-1.982-.28-3.875-.541-5.746a6.168,6.168,0,0,0-1.534-3.337,2.427,2.427,0,0,0-3.753,0,8.039,8.039,0,0,0-1.8,4.816c-.119,1.384-.024,2.787-.024,4.249a14.744,14.744,0,0,1-5.353-.651,14.528,14.528,0,0,1-6.116-23.855,46.111,46.111,0,0,1,11.194-8.234q6.429-3.678,12.891-7.3a5.738,5.738,0,0,1,1.681-.644c.9-.175,1.43.217,1.385,1.137a5.219,5.219,0,0,1-.592,2.4,18.258,18.258,0,0,1-2.619,3.36,45.637,45.637,0,0,1-8.041,6.8,3.726,3.726,0,0,0-.668.557,1.4,1.4,0,0,0,.669,2.445,16.947,16.947,0,0,0,3.074.238c7.778.02,15.556.007,23.335.029a3.5,3.5,0,0,1,1.578.349,1.712,1.712,0,0,1,.888,1.952,1.919,1.919,0,0,1-1.5,1.563,4.377,4.377,0,0,1-1.022.087q-7.857.008-15.715.005a4.618,4.618,0,0,0-.948.047,1.21,1.21,0,0,0-1.043,1.3,1.194,1.194,0,0,0,1.118,1.227,6.235,6.235,0,0,0,.871.028q9.8,0,19.6,0a2.311,2.311,0,0,1,2.031.839,1.763,1.763,0,0,1,.248,1.935,1.874,1.874,0,0,1-1.652,1.183c-.634.027-1.269.017-1.9.017h-18.1c-1.326,0-1.949.425-1.958,1.326-.008.884.645,1.332,1.948,1.332q8.493,0,16.985,0a2.027,2.027,0,0,1,2.188,1.65,1.979,1.979,0,0,1-2.008,2.305c-1.663,0-3.325-.1-4.988-.107-4.021-.017-8.043-.008-12.064,0-.339,0-.78-.04-.995.146a2.072,2.072,0,0,0-.806,1.205c-.014.378.423.859.784,1.136a1.939,1.939,0,0,0,1.073.153c3.625.009,7.249-.018,10.873.026a5.393,5.393,0,0,1,2.123.458,1.774,1.774,0,0,1,.9,2.022,2.059,2.059,0,0,1-1.728,1.53,4.556,4.556,0,0,1-.554.03q-9.524,0-19.049,0c-.157,0-.314-.015-.364-.018" transform="translate(-101.819 -11.85)" fill="#e8c382"/>
    <path id="Trazado_622241" data-name="Trazado 622241" d="M220.779,199.47c-1.565-1.375-1.657-8.455-.032-10.153,1.553,1.5,1.65,8.316.032,10.153" transform="translate(-177.36 -152.926)" fill="#f5a838"/>
    <path id="Trazado_622242" data-name="Trazado 622242" d="M164.529,276.682c-.546-2.244,2.957-8.243,5.092-8.781.554,2.248-2.984,8.276-5.092,8.781" transform="translate(-132.857 -216.404)" fill="#f6a939"/>
    <path id="Trazado_622243" data-name="Trazado 622243" d="M235.152,279.983c2.41,1.231,4.89,7.744,4.013,9.342-2.036-.848-4.775-7.009-4.013-9.342" transform="translate(-189.845 -226.163)" fill="#f5a838"/>
  </g>
</svg>
