<svg xmlns="http://www.w3.org/2000/svg" width="86.567" height="86.513" viewBox="0 0 86.567 86.513"><g transform="translate(-5.877 -6.753)"><g transform="translate(5.877 6.753)"><path d="M11.181,70.423a10.33,10.33,0,0,1-2.452-8.1c-2.2-.938-2.874-2.653-2.849-4.9C5.946,51.4,5.9,45.387,5.9,39.373c0-3.078,1.645-4.719,4.734-4.726h.805v-2.78H8.731v-2.8h8.817a17.93,17.93,0,0,1,2.507-14.148,17.755,17.755,0,0,1,19.008-7.65,14.635,14.635,0,0,1,9.382,7.484,3.575,3.575,0,0,0,1.15,1.215c1.41.914,2.882,1.733,4.31,2.62a4.366,4.366,0,0,1,2.2,4.081,3.8,3.8,0,0,1-4.633,3.5l-.85-.194a8.69,8.69,0,0,0,3.309,5.884c-.82.812-1.556,1.633-2.39,2.34a2.827,2.827,0,0,0-1.033,2.4,6.234,6.234,0,0,1-5.266,6.227,19.779,19.779,0,0,1-4.389-.248c-.813-.071-1.618-.227-2.588-.369a27.518,27.518,0,0,1,3.445,9.04H56.119v-.832c0-5.695-.014-11.39.006-17.085a4.1,4.1,0,0,1,5.812-3.871,6.874,6.874,0,0,1,2.037,1.916.99.99,0,0,0,.875.489c1.685-.023,3.37-.018,5.055-.007a2.791,2.791,0,0,1,2.953,2.948c.009.842.012,1.685,0,2.528a2.788,2.788,0,0,1-2.924,2.89c-1.772.014-3.544,0-5.375,0a5.094,5.094,0,0,0-.065.574c0,3.574-.016,7.148.019,10.721a1.4,1.4,0,0,0,.5.956,5.555,5.555,0,0,1-.031,8.985,1.217,1.217,0,0,0-.467.8c-.031,3.37-.021,6.741-.018,10.111,0,.075.031.15.009.053l9.844-7.568,3.989,4.061,2.54-2.624c3.255,2.052,6.888,3.313,9.092,6.579,2.852,4.227,3.317,8.708,1.007,13.259a12.345,12.345,0,0,1-11.351,7.079,51.426,51.426,0,0,1-6.961-.138,12.047,12.047,0,0,1-9.33-6.242c-.074-.123-.153-.244-.233-.363-.015-.023-.046-.035-.105-.078a13.131,13.131,0,0,1-5.72,5.516,12.231,12.231,0,0,1-5.45,1.311,66.939,66.939,0,0,1-6.963-.128A12.074,12.074,0,0,1,35.4,86.768a.978.978,0,0,0-.11-.173,50.384,50.384,0,0,1-3.858,4,11.455,11.455,0,0,1-7.491,2.62,49.026,49.026,0,0,1-7.218-.171A11.8,11.8,0,0,1,6.365,83.89c-1.385-5.156.217-9.549,4.28-13.025.154-.132.313-.258.536-.441m27.426-20.2a25.072,25.072,0,0,0-3.452-7.715,1.7,1.7,0,0,0-1.767-.9c-.923.08-1.858,0-2.787.027A11.164,11.164,0,0,0,19.871,52.373c-.068,4.415-.02,8.831-.01,13.247a1.148,1.148,0,0,0,.2.711c.805.9,1.648,1.771,2.522,2.7l2.513-2.647c6.023,3.346,7.611,3.835,10.225,8.345a13.357,13.357,0,0,1,3.769-4.306.723.723,0,0,0,.282-.484c.018-2.576.012-5.152.012-7.809-6.473-.989-10.737-5.252-14.815-9.719l1.9-1.982c1.254,1.259,2.506,2.507,3.749,3.764a18.084,18.084,0,0,0,13.439,5.567c2.963-.012,5.926,0,8.89,0,.25,0,.5-.026.736-.038V54.176c-3.041,0-6.031-.059-9.018.012-6.112.145-10.464-2.99-14.061-7.335L32.1,44.946c2,1.814,3.668,4.135,6.5,5.274m6.977-34.849a11.835,11.835,0,0,0-9.677-5.8,15.229,15.229,0,0,0-14.5,21.837c1.368,2.775,3.506,5.171,5.316,7.723a.865.865,0,0,0,.67.184,38.694,38.694,0,0,1,4.917-.437,6.139,6.139,0,0,0,4.416-1.508A6.315,6.315,0,0,0,38.635,29.3c-.454-.939-.96-1.855-1.379-2.809a7.666,7.666,0,0,1,5.013-10.507c1.031-.279,2.107-.392,3.315-.608M17.061,59.749c0-2.388-.034-4.653.007-6.916a13.788,13.788,0,0,1,6.64-11.923c.182-.119.351-.257.54-.4-.667-.889-1.258-1.755-1.938-2.543a1.6,1.6,0,0,0-1.058-.511c-3.57-.037-7.141-.024-10.712-.022-1.4,0-1.846.457-1.848,1.893q0,2.961,0,5.922,0,6.4,0,12.8c0,1.052.451,1.667,1.345,1.681,2.314.036,4.63.012,7.021.012M11.284,74.115c-.075.08-.239.24-.384.416a9.679,9.679,0,0,0,5.021,15.511,41.942,41.942,0,0,0,6.438.563A7.028,7.028,0,0,0,17.184,85.4c-1-.258-2.038-.38-3.069-.566a3.225,3.225,0,0,1,0-.481c.125-.738.261-1.474.389-2.189,5.386.34,9.233,2.638,10.7,8.188l2.382-.637c-.066-.351-.094-.606-.163-.851a11.139,11.139,0,0,0-9.417-8.519,7.075,7.075,0,0,1-4.9-2.682,29.031,29.031,0,0,1-1.827-3.547M55.537,89.7c-.927-4.186-3.169-7.1-7.023-8.644a21.55,21.55,0,0,0-3.443-.891,7.054,7.054,0,0,1-5.531-5.6,5.965,5.965,0,0,0-.2-.611c-.243.256-.432.432-.594.631a9.765,9.765,0,0,0,3.254,14.829c2.606,1.31,5.366.973,8.425,1.023A30.413,30.413,0,0,0,48.6,87.526c-1.668-2.093-4.173-2.3-6.658-2.675l.447-2.69c5.384.348,9.241,2.624,10.71,8.19l2.433-.646M70.3,82.154c4.956.376,8.979,2.117,10.743,8.2l2.362-.659a11.472,11.472,0,0,0-3.339-6.328,13.052,13.052,0,0,0-7.093-3.217,6.9,6.9,0,0,1-5.531-5.584,5.685,5.685,0,0,0-.2-.607c-.243.259-.432.437-.593.636a9.679,9.679,0,0,0,5.063,15.448,41.946,41.946,0,0,0,6.44.565c-1.3-4.287-4.482-5.45-8.315-5.7l.461-2.754M38.706,39.185l.142.226c1.48.253,2.96.509,4.442.755a4.288,4.288,0,0,0,.781.051,3.792,3.792,0,0,0,3.67-3.6c.027-.609-.053-1.229.029-1.828a2.32,2.32,0,0,1,.489-1.193,23.952,23.952,0,0,1,1.814-1.673c-1.724-2.654-1.964-3.357-2.383-6.856l-8.5-2.542a26.023,26.023,0,0,0,.7,2.955,30.376,30.376,0,0,0,1.321,2.739,8.91,8.91,0,0,1-1.924,10.61,3.277,3.277,0,0,1-.577.36M22.245,78.539a18.714,18.714,0,0,1,6.182-7.091l-2.87-1.639-2.889,3.126c-.772-.778-1.468-1.469-2.152-2.171-.706-.725-1.4-1.461-2.133-2.227-1.084.812-2.107,1.522-3.058,2.317a2.8,2.8,0,0,0-.854,1.238,4.166,4.166,0,0,0,2.821,5.224c1.607.458,3.245.806,4.953,1.223m27.9,0a18.563,18.563,0,0,1,6.187-7.079l-2.842-1.647L50.5,72.975l-4.272-4.4c-1.05.787-2.07,1.5-3.027,2.294a2.676,2.676,0,0,0-.819,1.165,4.18,4.18,0,0,0,3,5.335c1.536.4,3.081.761,4.757,1.173m24.05-10.014c-1.1.822-2.12,1.532-3.072,2.328a2.8,2.8,0,0,0-.853,1.239,4.166,4.166,0,0,0,2.823,5.223c1.607.459,3.245.807,4.944,1.222a18.743,18.743,0,0,1,6.2-7.088l-2.878-1.643-2.9,3.133-4.26-4.416M56.1,62.572H42.225v5.5l4.4-3.278,3.949,4.181,2.446-2.619L56.1,68.074ZM30.212,87.951c4.762-3.59,4.594-11.2.535-14.638a15.432,15.432,0,0,0-6.105,6.7l1.833,1.594,3.335-4.67,1.949,1.789c-1.025,1.7-2.017,3.318-2.976,4.958a1.051,1.051,0,0,0-.112.8c.481,1.17,1.023,2.315,1.541,3.461m22.331-7.934,1.831,1.594,3.346-4.692,1.943,1.8c-1.027,1.7-2.019,3.318-2.979,4.957a1.054,1.054,0,0,0-.118.8c.481,1.17,1.023,2.315,1.54,3.461,4.674-3.468,4.683-11.078.543-14.634a15.385,15.385,0,0,0-6.106,6.706m33.474,7.976c4.954-4.035,4.371-11.4.536-14.685a15.388,15.388,0,0,0-6.112,6.707l1.83,1.6,3.354-4.71,1.938,1.816c-1.024,1.692-2.021,3.309-2.976,4.951a1.142,1.142,0,0,0-.084.878c.462,1.147.99,2.268,1.514,3.444M61.7,51.352c0-6.044,0-11.995,0-17.945a1.684,1.684,0,0,0-.057-.515c-.212-.648-.691-1.131-1.343-.986A2.965,2.965,0,0,0,59,32.861c-.155.164-.089.555-.089.843q-.006,8.449,0,16.9c0,.249.029.5.044.751ZM56.171,54.18v5.57c1.931,0,3.811.04,5.689-.013a2.777,2.777,0,0,0,0-5.545c-1.878-.05-3.759-.012-5.69-.012M40.738,20.062c3.8,1.144,7.479,2.265,11.172,3.334a1.246,1.246,0,0,0,1.079-.275A1.423,1.423,0,0,0,53.2,21.95a2.34,2.34,0,0,0-.855-1.033c-.58-.428-1.294-.683-1.845-1.141a6.829,6.829,0,0,0-6.537-1.352,5.984,5.984,0,0,0-3.229,1.638M13.5,68.7c1.074-.807,2.166-1.614,3.238-2.448a.846.846,0,0,0,.308-.558c.03-1.033.014-2.067.014-3.151H11.544c-.326,2.625.549,5.033,1.957,6.157m48.151,3.451V62.6H58.91c0,2.314-.007,4.576.013,6.838a.891.891,0,0,0,.29.567c.788.721,1.6,1.416,2.439,2.149m2.86-34.768h5.5V34.7h-5.5ZM14.339,31.858v2.758h5.491c-.42-.839-.8-1.642-1.227-2.42a.724.724,0,0,0-.519-.324c-1.242-.028-2.484-.015-3.745-.015" transform="translate(-5.877 -6.753)" fill="#020202"/><path d="M296.369,87.063,295.4,85.98c.162-.182.319-.378.5-.554q2.647-2.653,5.3-5.3c1.963-1.952,4.637-2.049,6.429-.244a4.37,4.37,0,0,1-.238,6.366,5.352,5.352,0,0,1-.667.5l.153.217c1.092,0,2.185-.008,3.278,0a4.186,4.186,0,1,1,0,8.368c-1.093.01-2.186,0-3.434,0,.436.458.781.79,1.091,1.151a4.342,4.342,0,0,1-.184,5.927,4.232,4.232,0,0,1-5.908.218c-2.15-2.032-4.172-4.2-6.286-6.346l.935-1.051.977-.842c.188.177.338.311.479.453,1.848,1.845,3.687,3.7,5.547,5.533a1.521,1.521,0,0,0,2.248.079,1.539,1.539,0,0,0-.03-2.251c-.273-.3-.578-.571-.854-.869a2.8,2.8,0,0,1,2.024-4.791c1.1-.013,2.206.007,3.308-.006a1.425,1.425,0,0,0,1.6-1.348c.028-.842-.607-1.422-1.6-1.433-1.161-.014-2.323.027-3.482-.017a2.782,2.782,0,0,1-2.02-4.584c.274-.336.6-.625.905-.939a1.574,1.574,0,1,0-2.227-2.178c-1.1,1.08-2.179,2.171-3.265,3.261q-1.311,1.316-2.615,2.64l-1-.876" transform="translate(-227.961 -61.859)" fill="#030404"/><path d="M299.555,96.265l1,.876q1.307-1.321,2.615-2.64c1.085-1.09,2.169-2.181,3.265-3.261a1.574,1.574,0,1,1,2.227,2.178c-.3.314-.632.6-.905.939a2.782,2.782,0,0,0,2.02,4.584c1.159.044,2.321,0,3.482.017,1,.012,1.632.591,1.6,1.433a1.425,1.425,0,0,1-1.6,1.348c-1.1.013-2.205-.007-3.308.006a2.8,2.8,0,0,0-2.024,4.791c.276.3.581.569.854.869a1.539,1.539,0,0,1,.03,2.251,1.521,1.521,0,0,1-2.248-.079c-1.861-1.832-3.7-3.688-5.547-5.533-.142-.142-.291-.276-.479-.453l-.977.842v-8.17" transform="translate(-231.147 -71.061)" fill="#68d4f2"/><path d="M84.571,164.95c-2.835-1.139-4.507-3.46-6.5-5.274l-1.906,1.907c3.6,4.344,7.949,7.48,14.061,7.335,2.987-.071,5.977-.012,9.018-.012v5.539c-.235.013-.485.038-.736.038-2.963,0-5.926-.008-8.89,0a18.085,18.085,0,0,1-13.439-5.567c-1.243-1.257-2.495-2.505-3.749-3.764l-1.9,1.982c4.077,4.466,8.342,8.729,14.815,9.718,0,2.657.005,5.233-.012,7.809a.723.723,0,0,1-.282.484,13.355,13.355,0,0,0-3.769,4.306c-2.614-4.511-4.2-5-10.225-8.345l-2.513,2.647c-.873-.925-1.717-1.794-2.522-2.7a1.151,1.151,0,0,1-.2-.711c-.009-4.416-.058-8.832.01-13.247A11.164,11.164,0,0,1,76.566,156.36c.929-.022,1.864.054,2.787-.027a1.7,1.7,0,0,1,1.767.9,25.072,25.072,0,0,1,3.451,7.715" transform="translate(-51.841 -121.482)" fill="#e4e7eb"/><path d="M91.576,24.591c-1.208.217-2.284.329-3.315.608a7.666,7.666,0,0,0-5.013,10.508c.419.954.925,1.87,1.379,2.809a6.315,6.315,0,0,1-1.906,8.078A6.139,6.139,0,0,1,78.3,48.1a38.7,38.7,0,0,0-4.917.437.866.866,0,0,1-.67-.184c-1.81-2.552-3.949-4.948-5.316-7.723A15.229,15.229,0,0,1,81.9,18.793a11.835,11.835,0,0,1,9.677,5.8" transform="translate(-51.87 -15.973)" fill="#e4e7eb"/><path d="M26.334,160.783c-2.391,0-4.706.024-7.021-.012-.894-.014-1.344-.629-1.345-1.681q-.007-6.4,0-12.8,0-2.961,0-5.922c0-1.436.444-1.892,1.848-1.893,3.571,0,7.142-.016,10.712.022a1.6,1.6,0,0,1,1.057.511c.681.788,1.272,1.653,1.938,2.543-.189.14-.358.278-.54.4a13.789,13.789,0,0,0-6.641,11.923c-.041,2.263-.007,4.528-.007,6.916" transform="translate(-15.149 -107.786)" fill="#fde9a6"/><path d="M20.568,295.941a29.031,29.031,0,0,0,1.827,3.547,7.075,7.075,0,0,0,4.9,2.682,11.139,11.139,0,0,1,9.417,8.519c.068.244.1.5.163.851l-2.382.637c-1.469-5.551-5.316-7.848-10.7-8.188-.129.716-.264,1.451-.39,2.189a3.258,3.258,0,0,0,0,.481c1.031.186,2.067.308,3.069.566a7.028,7.028,0,0,1,5.175,5.206,41.947,41.947,0,0,1-6.438-.563,9.679,9.679,0,0,1-5.021-15.511c.146-.175.31-.335.384-.416" transform="translate(-15.161 -228.579)" fill="#9dd166"/><path d="M156.721,311.012l-2.433.646c-1.469-5.566-5.326-7.842-10.71-8.19l-.447,2.69c2.485.37,4.99.582,6.658,2.675a30.438,30.438,0,0,1,1.825,2.916c-3.058-.05-5.818.286-8.424-1.023a9.765,9.765,0,0,1-3.255-14.829c.161-.2.351-.375.594-.631a5.955,5.955,0,0,1,.2.611,7.053,7.053,0,0,0,5.531,5.6,21.557,21.557,0,0,1,3.443.891c3.854,1.544,6.1,4.458,7.023,8.644" transform="translate(-107.061 -228.06)" fill="#9dd166"/><path d="M263.333,303.457l-.461,2.754c3.833.247,7.015,1.411,8.315,5.7a41.949,41.949,0,0,1-6.44-.565,9.679,9.679,0,0,1-5.063-15.448c.161-.2.35-.377.593-.636a5.682,5.682,0,0,1,.2.607,6.9,6.9,0,0,0,5.531,5.584,13.052,13.052,0,0,1,7.093,3.217A11.471,11.471,0,0,1,276.438,311l-2.362.659c-1.765-6.08-5.787-7.821-10.743-8.2" transform="translate(-198.914 -228.056)" fill="#9dd166"/><path d="M146.814,91.109a3.277,3.277,0,0,0,.577-.36,8.911,8.911,0,0,0,1.924-10.61,30.343,30.343,0,0,1-1.321-2.739,26.033,26.033,0,0,1-.7-2.955l8.5,2.542c.419,3.5.659,4.2,2.383,6.856a24,24,0,0,0-1.814,1.673,2.32,2.32,0,0,0-.489,1.193c-.082.6,0,1.218-.029,1.827a3.792,3.792,0,0,1-3.67,3.6,4.29,4.29,0,0,1-.781-.051c-1.482-.245-2.962-.5-4.442-.754l-.142-.226" transform="translate(-113.985 -58.677)" fill="#edcdb2"/><path d="M49.933,281.993c-1.708-.417-3.346-.765-4.953-1.223a4.166,4.166,0,0,1-2.821-5.224,2.8,2.8,0,0,1,.854-1.239c.952-.8,1.974-1.506,3.058-2.318.732.765,1.427,1.5,2.133,2.227.684.7,1.379,1.393,2.152,2.171l2.889-3.126,2.87,1.639a18.716,18.716,0,0,0-6.182,7.091" transform="translate(-33.565 -210.207)" fill="#b2da7d"/><path d="M169.679,282.12c-1.676-.412-3.221-.775-4.757-1.173a4.18,4.18,0,0,1-3-5.335,2.675,2.675,0,0,1,.819-1.165c.957-.792,1.976-1.507,3.027-2.294l4.273,4.4,2.986-3.16,2.842,1.647a18.561,18.561,0,0,0-6.187,7.079" transform="translate(-125.416 -210.332)" fill="#b2da7d"/><path d="M285.615,271.949l4.259,4.416,2.9-3.134,2.878,1.643a18.744,18.744,0,0,0-6.2,7.088c-1.7-.416-3.337-.763-4.943-1.222a4.166,4.166,0,0,1-2.823-5.223,2.8,2.8,0,0,1,.853-1.239c.952-.8,1.974-1.506,3.072-2.328" transform="translate(-217.301 -210.175)" fill="#b2da7d"/><path d="M92,307.135c-.517-1.146-1.059-2.291-1.541-3.461a1.051,1.051,0,0,1,.112-.8c.959-1.639,1.951-3.259,2.976-4.958L91.6,296.124l-3.335,4.67L86.432,299.2a15.431,15.431,0,0,1,6.105-6.7c4.06,3.438,4.228,11.047-.535,14.638" transform="translate(-67.668 -225.938)" fill="#9ccf66"/><path d="M206.212,299.192a15.385,15.385,0,0,1,6.106-6.706c4.14,3.556,4.131,11.165-.543,14.634-.517-1.146-1.059-2.291-1.54-3.461a1.054,1.054,0,0,1,.118-.8c.96-1.639,1.952-3.258,2.979-4.957l-1.943-1.8-3.346,4.692-1.831-1.594" transform="translate(-159.547 -225.928)" fill="#9ccf66"/><path d="M331.556,307.161c-.524-1.176-1.052-2.3-1.514-3.444a1.142,1.142,0,0,1,.084-.878c.955-1.641,1.952-3.258,2.976-4.951l-1.938-1.816-3.354,4.71-1.83-1.6a15.388,15.388,0,0,1,6.112-6.707c3.835,3.289,4.418,10.65-.536,14.685" transform="translate(-251.416 -225.921)" fill="#9ccf66"/><path d="M236.3,134.1h-2.741c-.016-.252-.044-.5-.044-.751q0-8.449,0-16.9c0-.288-.066-.679.089-.842a2.964,2.964,0,0,1,1.294-.955c.652-.145,1.131.338,1.343.986a1.684,1.684,0,0,1,.057.515c0,5.95,0,11.9,0,17.945" transform="translate(-180.479 -89.499)" fill="#a9b1bc"/><path d="M221.789,210.315c1.931,0,3.812-.038,5.69.012a2.777,2.777,0,0,1,0,5.545c-1.878.053-3.759.013-5.689.013Z" transform="translate(-171.495 -162.887)" fill="#eeceb2"/><path d="M155.534,57.5a5.984,5.984,0,0,1,3.229-1.638,6.829,6.829,0,0,1,6.537,1.352c.55.457,1.264.713,1.845,1.14A2.342,2.342,0,0,1,168,59.391a1.423,1.423,0,0,1-.216,1.172,1.246,1.246,0,0,1-1.079.275c-3.692-1.069-7.369-2.191-11.172-3.334" transform="translate(-120.673 -44.194)" fill="#a7aeb9"/><path d="M31.939,252.427c-1.408-1.124-2.283-3.532-1.957-6.157H35.5c0,1.084.016,2.118-.014,3.151a.846.846,0,0,1-.308.558c-1.072.833-2.164,1.641-3.238,2.448" transform="translate(-24.315 -190.478)" fill="#f9d56f"/><path d="M236.286,256.054c-.838-.734-1.65-1.428-2.439-2.149a.892.892,0,0,1-.29-.567c-.02-2.262-.013-4.523-.013-6.838h2.741Z" transform="translate(-180.512 -190.654)" fill="#a9b1bc"/><rect width="5.503" height="2.686" transform="translate(58.634 27.946)" fill="#cbd0d8"/><path d="M42.2,114.519c1.261,0,2.5-.013,3.745.015a.724.724,0,0,1,.519.324c.426.778.807,1.58,1.227,2.419H42.2Z" transform="translate(-33.741 -89.414)" fill="#fad56f"/></g></g></svg>