<svg xmlns="http://www.w3.org/2000/svg" width="73" height="65" viewBox="0 0 73 65"><g transform="translate(9624 8402)"><rect width="73" height="65" transform="translate(-9624 -8402)" fill="none"/><g transform="translate(-9615.564 -8399.575)"><g transform="translate(0 0)"><path d="M64.667,60.871H26.461l-.609-.928c.241-.714.422-.835,1.264-.835H63.137c.235,0,.469-.012.7-.019a2.843,2.843,0,0,0,3.028-3.009l-1.849.8c-.467.034-.934.1-1.4.1q-23.058.008-46.117,0a3.542,3.542,0,0,1-.99-.076c-.773-.229-1.529-.517-2.274-.775A2.889,2.889,0,0,0,17.162,59.1c1.938.023,3.877.018,5.816,0a1.009,1.009,0,0,1,1.15.842l-.606.928H16.233a1.978,1.978,0,0,0-.333-.185,4.711,4.711,0,0,1-3.469-4.745q-.012-23.213,0-46.426A4.75,4.75,0,0,1,17.408,4.58c2.057-.007,4.114,0,6.172,0,.168,0,.337-.018.53-.029,0-.391-.008-.741,0-1.091a2.822,2.822,0,0,1,5.643-.012c.01.366,0,.732,0,1.1H51.378c0-.369-.005-.7,0-1.03a2.823,2.823,0,0,1,5.647,0c.007.346,0,.693,0,1.069,2.254,0,4.445-.022,6.635.014a6.228,6.228,0,0,1,1.9.3,4.724,4.724,0,0,1,3.151,4.849q0,22.978,0,45.956c0,.235-.006.47-.02.7a4.754,4.754,0,0,1-3.5,4.3c-.175.047-.345.111-.517.168M65.134,14.3H66.89c0-1.876.1-3.716-.031-5.54A2.836,2.836,0,0,0,63.839,6.37l-6.7-.009-.1.09V8.476c.4,0,.75-.027,1.1.006a.89.89,0,0,1,.831.9.868.868,0,0,1-.881.842,3.4,3.4,0,0,1-.646,0,.671.671,0,0,0-.765.446,2.675,2.675,0,0,1-2.474,1.512,2.6,2.6,0,0,1-2.418-1.4.853.853,0,0,0-.993-.559,2.088,2.088,0,0,1-.411,0,.9.9,0,0,1-.965-.821.914.914,0,0,1,.926-.936c.325-.021.653,0,.988,0v-2.1H29.76V8.468c.245,0,.419,0,.593,0a4.289,4.289,0,0,1,.528.011.911.911,0,0,1,.831.907.875.875,0,0,1-.884.841,3.413,3.413,0,0,1-.646,0,.675.675,0,0,0-.763.446,2.778,2.778,0,0,1-4.894.115c-.253-.446-.506-.639-.993-.56a2.064,2.064,0,0,1-.411,0,.888.888,0,0,1-.963-.882.915.915,0,0,1,.928-.875c.325-.02.652,0,.983,0V6.355c-2.406,0-4.776-.06-7.14.022A2.883,2.883,0,0,0,14.206,9.25c-.029.743-.01,1.489-.011,2.233,0,.932,0,1.865,0,2.842H51.931a4.3,4.3,0,0,1,.587.008.813.813,0,0,1,.777.812.823.823,0,0,1-.721.921,3.054,3.054,0,0,1-.644.022H14.224v2.123H64.49c.215,0,.43-.014.645-.021H66.9V16.106h-1.77l-8.755-.021a2.982,2.982,0,0,1-.528-.013.833.833,0,0,1-.755-.9.819.819,0,0,1,.754-.838,3.666,3.666,0,0,1,.587-.015l8.7-.021m0,5.7c-.156-.007-.312-.021-.468-.021H14.218c-.011.219-.027.39-.027.56q0,15.691,0,31.382a4.17,4.17,0,0,0,.119,1.1,3.024,3.024,0,0,0,3.157,2.2q22.894,0,45.788,0c.156,0,.312-.014.468-.021a2.99,2.99,0,0,0,3.216-3.214q.008-15.786,0-31.572c0-.131-.018-.261-.028-.414ZM27.993,6.45c0-.92.005-1.841,0-2.761-.006-.744-.421-1.224-1.048-1.231a1.086,1.086,0,0,0-1.068,1.21q-.008,2.761,0,5.523a1.07,1.07,0,1,0,2.116.021c.008-.92,0-1.841,0-2.761m27.269-.058c0-.9,0-1.8,0-2.7a1.1,1.1,0,0,0-1.05-1.232,1.084,1.084,0,0,0-1.066,1.21q-.009,2.761,0,5.522a1.07,1.07,0,1,0,2.116.021c.009-.94,0-1.88,0-2.82" transform="translate(-12.424 -0.692)" fill="#030202"/><path d="M73.211,158.748c-.156.007-.312.021-.468.021q-22.894,0-45.788,0a3.024,3.024,0,0,1-3.157-2.2,4.177,4.177,0,0,1-.119-1.1q-.009-15.691,0-31.382c0-.171.016-.341.027-.56H74.15c.156,0,.312.014.468.021,0,10.507-.013,21.014.02,31.521a4.541,4.541,0,0,1-1.427,3.678m-23.3-17.6.282-.37a8.178,8.178,0,1,0-14.652-5.091,2.825,2.825,0,0,0,3.385,2.874,2.906,2.906,0,0,0,2.287-2.943,2.516,2.516,0,1,1,2.428,2.705,2.83,2.83,0,0,0-2.624,3.67,2.88,2.88,0,0,0,2.818,1.983,2.524,2.524,0,0,1-.048,5.046,2.517,2.517,0,0,1-2.579-2.365,4.659,4.659,0,0,0-.169-1.038,2.8,2.8,0,0,0-3.24-1.887,2.834,2.834,0,0,0-2.256,2.946,8.176,8.176,0,1,0,16.3-1.1,8.4,8.4,0,0,0-1.929-4.426m6.89-4.021v.548q0,6.841,0,13.683a6.785,6.785,0,0,0,.059.995,2.8,2.8,0,0,0,2.586,2.319,2.836,2.836,0,0,0,3.024-3.056q.009-10.453,0-20.906a4.6,4.6,0,0,0-.055-.7,2.672,2.672,0,0,0-1.789-2.211,2.559,2.559,0,0,0-2.8.486c-1.45,1.372-2.883,2.767-4.236,4.233a2.766,2.766,0,0,0,1.364,4.5,9.463,9.463,0,0,0,1.843.107" transform="translate(-21.908 -104.242)" fill="#ecf4fe"/><path d="M66.623,36.652l6.7.009a1.213,1.213,0,0,0,.17.3,3.839,3.839,0,0,1,1.13,2.958c-.008,1.559,0,3.118-.005,4.677l-8.7.021a3.667,3.667,0,0,0-.587.015.82.82,0,0,0-.754.838.833.833,0,0,0,.755.9,2.971,2.971,0,0,0,.528.013l8.755.021q0,1.042,0,2.084c-.215.007-.43.021-.645.021H23.7V46.381H61.408a3.064,3.064,0,0,0,.644-.022.823.823,0,0,0,.721-.921A.813.813,0,0,0,62,44.625a4.275,4.275,0,0,0-.587-.008H23.673c0-.978,0-1.91,0-2.842,0-.744-.018-1.49.011-2.233a2.883,2.883,0,0,1,2.723-2.873c2.365-.082,4.734-.022,7.14-.022v2.115c-.33,0-.658-.016-.983,0a.915.915,0,0,0-.928.875.888.888,0,0,0,.963.882,2.053,2.053,0,0,0,.411,0c.487-.079.739.113.993.56a2.778,2.778,0,0,0,4.894-.115.675.675,0,0,1,.763-.446,3.385,3.385,0,0,0,.646,0,.875.875,0,0,0,.884-.841.911.911,0,0,0-.831-.907,4.32,4.32,0,0,0-.528-.011c-.174,0-.348,0-.593,0V36.666H60.815v2.1c-.335,0-.663-.017-.988,0a.913.913,0,0,0-.926.935.9.9,0,0,0,.965.822,2.088,2.088,0,0,0,.411,0,.853.853,0,0,1,.993.559,2.6,2.6,0,0,0,2.418,1.4,2.676,2.676,0,0,0,2.474-1.512.671.671,0,0,1,.765-.446,3.413,3.413,0,0,0,.646,0,.868.868,0,0,0,.881-.842.89.89,0,0,0-.831-.9c-.346-.034-.7-.007-1.1-.007V36.742l.095-.09" transform="translate(-21.903 -30.983)" fill="#fd435a"/><path d="M35.542,357.616H33.818a1.008,1.008,0,0,0-1.15-.842c-1.939.018-3.878.023-5.816,0a2.889,2.889,0,0,1-2.926-2.971c.745.258,1.5.546,2.274.775a3.535,3.535,0,0,0,.99.075q23.058,0,46.117,0c.467,0,.934-.064,1.4-.1a4.733,4.733,0,0,1-.3.928c-.254.447-.579.854-.874,1.277-.235.007-.469.019-.7.019H36.806c-.841,0-1.022.121-1.264.835" transform="translate(-22.115 -298.365)" fill="#b4dafe"/><path d="M339.2,158.864a4.54,4.54,0,0,0,1.427-3.678c-.032-10.507-.019-21.014-.02-31.521h1.782c.011.152.028.283.028.414q0,15.786,0,31.572a2.99,2.99,0,0,1-3.216,3.214" transform="translate(-287.896 -104.358)" fill="#d3e4f7"/><path d="M100.195,15.93c0,.92.006,1.841,0,2.761a1.07,1.07,0,1,1-2.116-.021q-.009-2.761,0-5.523a1.086,1.086,0,0,1,1.068-1.21c.627.007,1.042.487,1.048,1.231.007.92,0,1.841,0,2.761" transform="translate(-84.626 -10.172)" fill="#586b75"/><path d="M273.884,15.875c0,.94.007,1.88,0,2.82a1.07,1.07,0,1,1-2.116-.021q-.008-2.761,0-5.522a1.084,1.084,0,0,1,1.066-1.21,1.1,1.1,0,0,1,1.05,1.232c.006.9,0,1.8,0,2.7" transform="translate(-231.046 -10.174)" fill="#586b75"/><path d="M341.207,44.774c0-1.559,0-3.118.005-4.677a3.84,3.84,0,0,0-1.13-2.958,1.2,1.2,0,0,1-.17-.3,2.836,2.836,0,0,1,3.019,2.391c.13,1.824.031,3.663.031,5.54Z" transform="translate(-288.497 -31.166)" fill="#e1374e"/><path d="M339.918,356.483c.3-.424.62-.83.874-1.277a4.732,4.732,0,0,0,.3-.928l1.849-.8a2.842,2.842,0,0,1-3.028,3.009" transform="translate(-288.502 -298.087)" fill="#93caf8"/><path d="M348.163,100.953V98.869h1.77v2.084Z" transform="translate(-295.452 -83.455)" fill="#e2374e"/><path d="M296.755,36.8l-.095.09.095-.09" transform="translate(-252.035 -31.13)" fill="#e1374e"/><path d="M113.637,163.072a8.4,8.4,0,0,1,1.929,4.426,8.176,8.176,0,1,1-16.3,1.1,2.834,2.834,0,0,1,2.256-2.946,2.8,2.8,0,0,1,3.24,1.887,4.66,4.66,0,0,1,.169,1.038,2.517,2.517,0,0,0,2.579,2.365,2.524,2.524,0,0,0,.048-5.045,2.88,2.88,0,0,1-2.818-1.983,2.83,2.83,0,0,1,2.624-3.67,2.529,2.529,0,1,0-2.428-2.705,2.906,2.906,0,0,1-2.287,2.943,2.825,2.825,0,0,1-3.385-2.874,8.178,8.178,0,1,1,14.652,5.091l-.282.37m-6.2-11.8c-.426.053-.855.085-1.276.163a6.371,6.371,0,0,0-5.112,6.24,1.039,1.039,0,0,0,2.064.2c.068-.344.053-.7.127-1.045a4.3,4.3,0,1,1,4.391,5.177c-.8.041-1.274.457-1.254,1.092.019.617.482,1,1.251,1.038a4.292,4.292,0,0,1,.02,8.572,4.327,4.327,0,0,1-4.421-3.45c-.071-.363-.058-.743-.14-1.1a1.033,1.033,0,0,0-2.027.184,5.4,5.4,0,0,0,.032,1,6.412,6.412,0,1,0,10.983-5.331c-.754-.779-.751-1.087,0-1.867a6.294,6.294,0,0,0,1.794-4.286,6.477,6.477,0,0,0-6.426-6.579" transform="translate(-85.633 -126.166)" fill="#030303"/><path d="M213.705,158.929a9.463,9.463,0,0,1-1.843-.107,2.766,2.766,0,0,1-1.364-4.5c1.353-1.466,2.786-2.861,4.236-4.233a2.559,2.559,0,0,1,2.8-.486,2.672,2.672,0,0,1,1.789,2.211,4.606,4.606,0,0,1,.055.7q0,10.453,0,20.906a2.836,2.836,0,0,1-3.024,3.056,2.8,2.8,0,0,1-2.586-2.319,6.816,6.816,0,0,1-.059-.995q-.006-6.841,0-13.683v-.548m3.921,4.009q0-5.024,0-10.048a4.232,4.232,0,0,0-.063-.817,1.021,1.021,0,0,0-1.744-.6c-1.328,1.276-2.621,2.587-3.909,3.9a1.058,1.058,0,0,0,1.457,1.533c.228-.184.413-.419.637-.608a.849.849,0,0,1,1.442.487,3.431,3.431,0,0,1,.055.758q0,7.786,0,15.572c0,.215-.008.432.011.646a.988.988,0,0,0,.948.942.976.976,0,0,0,1.08-.786,4.068,4.068,0,0,0,.083-.873q.008-5.054,0-10.107" transform="translate(-178.81 -126.044)" fill="#050505"/><path d="M117.026,160.614a6.477,6.477,0,0,1,6.426,6.579,6.293,6.293,0,0,1-1.794,4.286c-.747.78-.75,1.088,0,1.867a6.407,6.407,0,1,1-10.983,5.331,5.4,5.4,0,0,1-.032-1,1.033,1.033,0,0,1,2.027-.184c.082.36.069.74.14,1.1a4.327,4.327,0,0,0,4.421,3.45,4.292,4.292,0,0,0-.02-8.572c-.768-.037-1.231-.421-1.25-1.038-.02-.635.458-1.051,1.254-1.092a4.3,4.3,0,1,0-4.391-5.177c-.075.342-.06.7-.127,1.045a1.039,1.039,0,0,1-2.064-.2,6.371,6.371,0,0,1,5.112-6.24c.421-.079.851-.11,1.276-.163" transform="translate(-95.216 -135.506)" fill="#586a74"/><path d="M227.214,172.45q0,5.054,0,10.107a4.062,4.062,0,0,1-.083.873.976.976,0,0,1-1.08.786.988.988,0,0,1-.948-.942c-.02-.214-.011-.43-.011-.646q0-7.786,0-15.572a3.433,3.433,0,0,0-.055-.758.849.849,0,0,0-1.442-.487c-.224.189-.41.424-.637.608a1.058,1.058,0,0,1-1.457-1.533c1.288-1.316,2.581-2.627,3.909-3.9a1.021,1.021,0,0,1,1.744.6,4.237,4.237,0,0,1,.063.817q.006,5.024,0,10.048" transform="translate(-188.398 -135.555)" fill="#566871"/></g></g></g></svg>