<svg xmlns="http://www.w3.org/2000/svg" width="74" height="66" viewBox="0 0 74 66"><g transform="translate(9624 8402)"><rect width="74" height="66" transform="translate(-9624 -8402)" fill="none"/><g transform="translate(-9617 -8401)"><g transform="translate(0)"><path d="M110.53,0c-1.636.689-1.988,1.24-1.988,3.108,0,.373-.005.746,0,1.119a2.438,2.438,0,0,0,2.521,2.5c.329.005.657,0,1.024,0V8.7h-.636c-4.332,0-8.665.048-13-.021a5.466,5.466,0,0,0-4.83,2.4A25.918,25.918,0,0,0,92.2,13.331q-2.87,5-5.705,10.026a3.5,3.5,0,1,0,6.09,3.448c1.64-2.873,3.352-5.709,4.855-8.653a4.019,4.019,0,0,1,4.19-2.484c2.039.1,4.086.022,6.229.022-.691,1.387-1.334,2.7-2,3.991-.059.114-.3.185-.457.19-.683.021-1.368.008-2.052.009A2.464,2.464,0,0,0,100.6,22.6q-.006,5.845,0,11.689c0,1.016-.008,2.031,0,3.047.008.718.235.971.963,1.14.673-.11.911-.524.908-1.182-.014-3-.006-6-.006-9v-.739h.725q5,0,10,0c.824,0,1.033-.169,1.227-.924-.189-.768-.414-.942-1.281-.943q-4.974-.005-9.948,0h-.722c0-1,0-1.929,0-2.857,0-.99.08-1.072,1.047-1.072h24.061c.207,0,.413.016.62.025a4.335,4.335,0,0,1,1.1,0c.237.059.585.338.595.533.057,1.1.028,2.21.028,3.331h-1.6c-.226.013-.452.038-.679.038q-4.349,0-8.7,0c-.845,0-1.044.153-1.3.939.263.8.432.924,1.3.927,1.322,0,2.645,0,3.967,0,1.8.008,3.593.024,5.389.037h1.59V55.192h-1.581c-.082.008-.164.024-.247.024q-12.583,0-25.166,0a3.149,3.149,0,0,1-.426-.059v-.718c0-4.121-.006-8.243.006-12.364,0-.658-.233-1.074-.908-1.182-.728.167-.962.421-.963,1.139q-.007,9.576,0,19.151a2.679,2.679,0,0,0,1.839,2.513h27.5a2.98,2.98,0,0,0,1.877-3.193q-.052-18.872,0-37.744a2.626,2.626,0,0,0-2.911-2.885c-.845.063-1.7.02-2.549,0-.161,0-.406-.068-.465-.181-.6-1.153-1.178-2.322-1.758-3.487-.071-.142-.125-.292-.206-.483h6.558a6.844,6.844,0,0,0,.49,1.04,1.751,1.751,0,0,0,1.477.784c.974.012,1.949.022,2.923,0a1.9,1.9,0,0,0,1.883-1.855q.045-3.482,0-6.964a1.913,1.913,0,0,0-1.928-1.88c-.725-.018-1.451-.006-2.176-.006-1.681,0-2.079.276-2.651,1.848H120.279V6.725c.37,0,.738.008,1.1,0a2.431,2.431,0,0,0,2.436-2.4c.026-.641.03-1.286,0-1.927A2.547,2.547,0,0,0,121.852,0Zm3.486,6.843.126-.1,3.1,0h1.083V8.681h-1.083l-3.1,0-.126-.1V6.843M133.91,8.727h1.455v6.931h-2.93V8.727Zm-14.313,7c.6-.013,1.2-.06,1.8-.019a.844.844,0,0,1,.581.385c.5.927.958,1.879,1.429,2.822.151.3.3.606.465.947h-16l2.081-4.173c1.263,0,2.505,0,3.748,0q2.951.013,5.9.036M128.061,61.8c-.145.008-.289.023-.434.023H103.133a.578.578,0,0,1-.651-.6c-.019-1.362-.007-2.723-.007-4.142H127.7c.207,0,.413.016.62.025h1.614c0,1.035,0,2,0,2.973.006,1.8.183,1.81-1.869,1.719m.384-51.221h2.075V13.8h-2.073c-.248.006-.5.017-.745.017H103.324c-.726,0-1.451.019-2.176,0a5.093,5.093,0,0,0-5.105,3.041c-.681,1.392-1.5,2.716-2.27,4.066-.949,1.675-1.893,3.353-2.864,5.015A1.618,1.618,0,0,1,87.9,24.843,3.2,3.2,0,0,1,88.269,24c1.633-2.881,3.264-5.765,4.918-8.634.64-1.11,1.3-2.215,2.025-3.269a3.521,3.521,0,0,1,3.134-1.547c9.826.031,19.652.017,29.477.018.207,0,.414.01.621.016M116.177,4.835v.03q-2.424,0-4.848,0c-.805,0-.922-.124-.925-.947q0-.684,0-1.367a.608.608,0,0,1,.688-.688q5.065.013,10.13.025c.5,0,.71.266.711.739,0,.456.006.912,0,1.367-.009.676-.17.839-.848.841-1.636,0-3.272,0-4.909,0" transform="translate(-85.984)" fill="#030302"/><path d="M16.653,91.844c-.868,0-1.737-.008-2.605,0-.652.007-1.02.34-1.031.9a.914.914,0,0,0,.988.958q2.636.026,5.272,0a.93.93,0,1,0-.02-1.856c-.868-.013-1.737,0-2.605,0" transform="translate(40.118 -80.416)" fill="#040404"/><path d="M29.847,50.656c-.363.136-.561.2-.746.282q-1.7.8-3.4,1.615c-.659.317-.883.8-.636,1.325s.788.659,1.426.361c1.194-.558,2.388-1.117,3.572-1.694a.835.835,0,0,0,.53-1.107c-.144-.325-.512-.55-.742-.782" transform="translate(28.229 -44.354)" fill="#060606"/><path d="M30.987,121.408a3.751,3.751,0,0,0,.762-.757.754.754,0,0,0-.366-1.061c-1.309-.662-2.633-1.3-3.974-1.891a.844.844,0,0,0-1.152.451.793.793,0,0,0,.292,1.141c1.34.691,2.713,1.317,4.075,1.964a.829.829,0,0,0,.245.034l.119.119" transform="translate(26.896 -102.983)" fill="#050505"/><path d="M158.087,228.25c.675.109.909.525.908,1.182-.012,4.121-.006,8.243-.006,12.364v.719a3.168,3.168,0,0,0,.426.059q12.583,0,25.166,0c.082,0,.164-.015.247-.023q0-13.742,0-27.484a1.1,1.1,0,0,0-.014-.124c-1.8-.013-3.592-.029-5.389-.037-1.322-.006-2.645,0-3.967,0-.868,0-1.037-.128-1.3-.927l-3.222,0c-.194.755-.4.923-1.227.924q-5,.006-10,0h-.725v.74c0,3-.008,6,.006,9,0,.658-.234,1.072-.908,1.182q0,1.209,0,2.417m13.835-.027c.1.071.171.114.234.165a.9.9,0,0,0,1.205.066c.467-.3.18-.6.173-.913,0-.083-.011-.165-.014-.248a4.4,4.4,0,0,1,2.381-4.072,9.087,9.087,0,0,1,5.753-1.119,1.974,1.974,0,0,1,1.9,2.137,7.763,7.763,0,0,1-4.448,6.553,3.782,3.782,0,0,1-4.308-.768,1.353,1.353,0,0,0-.154-.117c-.787.175-.953.658-.924,1.376.057,1.407.02,2.819.015,4.228,0,.781-.337,1.217-.926,1.228s-.936-.424-.938-1.2c0-1.43-.056-2.864.021-4.29a1.177,1.177,0,0,0-.948-1.36,3.767,3.767,0,0,1-3.478,1.182c-3.616-.668-5.533-4.836-5.406-7.116a1.9,1.9,0,0,1,1.79-1.839,8.726,8.726,0,0,1,6.279,1.4,4.2,4.2,0,0,1,1.788,4.7" transform="translate(-142.503 -187.359)" fill="#e4e4e4"/><path d="M197.6,84.829c-.207-.005-.414-.016-.621-.016-9.826,0-19.652.014-29.477-.018a3.521,3.521,0,0,0-3.134,1.547c-.727,1.054-1.385,2.159-2.025,3.269-1.655,2.869-3.285,5.752-4.918,8.634a3.2,3.2,0,0,0-.373.845,1.618,1.618,0,0,0,3.013,1.106c.97-1.663,1.914-3.341,2.864-5.015.766-1.351,1.589-2.674,2.27-4.066a5.093,5.093,0,0,1,5.105-3.041c.725.015,1.451,0,2.176,0h24.378c.248,0,.5-.011.745-.017q0-1.611,0-3.223" transform="translate(-155.135 -74.247)" fill="#8edc55"/><path d="M183.859,458.908c-.207-.009-.413-.025-.62-.025H158.018c0,1.418-.011,2.78.007,4.142a.578.578,0,0,0,.651.6h24.5c.144,0,.289-.015.434-.022a4.022,4.022,0,0,0,.245-.928c.027-1.254.01-2.509.009-3.763" transform="translate(-141.527 -401.797)" fill="#f4de86"/><path d="M169.935,179.7l3.222,0c.258-.787.457-.938,1.3-.939q4.349-.006,8.7,0c.226,0,.453-.025.679-.038,0-.678.012-1.357-.009-2.034-.019-.611-.075-1.22-.115-1.83-.206-.009-.413-.025-.62-.025H159.031c-.967,0-1.047.082-1.047,1.072,0,.928,0,1.856,0,2.857h.722q4.974,0,9.948,0c.867,0,1.092.175,1.281.943" transform="translate(-141.497 -153.079)" fill="#f4de86"/><path d="M224.856,126.156q-2.951-.019-5.9-.036c-1.242-.005-2.485,0-3.748,0l-2.081,4.173h13.6a7.433,7.433,0,0,0-.259-.744c-.53-1.134-1.072-2.262-1.61-3.392" transform="translate(-191.243 -110.429)" fill="#e5e5e5"/><path d="M145.414,221.743a1.1,1.1,0,0,1,.014.124q0,13.742,0,27.484H147V221.743Z" transform="translate(-103.098 -194.158)" fill="#afaaaa"/><path d="M215.111,17.943c1.636,0,3.273,0,4.909,0,.678,0,.839-.165.848-.841.006-.456,0-.911,0-1.367,0-.473-.215-.738-.711-.739q-5.065-.011-10.13-.025a.608.608,0,0,0-.688.688q0,.684,0,1.367c0,.823.12.946.925.947q2.424,0,4.848,0v-.03" transform="translate(-184.917 -13.108)" fill="#7ccf4c"/><path d="M101.4,77.087h1.454V70.156H101.4q0,3.466,0,6.931" transform="translate(-53.471 -61.429)" fill="#d69f3e"/><path d="M114.561,77.087q0-3.466,0-6.931h-1.475v6.931Z" transform="translate(-66.634 -61.429)" fill="#f1db83"/><path d="M193.814,126.181c.538,1.13,1.08,2.258,1.61,3.392a7.441,7.441,0,0,1,.259.744h2.4c-.168-.342-.314-.645-.465-.947-.471-.944-.926-1.9-1.429-2.822a.844.844,0,0,0-.581-.385c-.6-.04-1.2.007-1.8.019" transform="translate(-160.201 -110.453)" fill="#afaaaa"/><path d="M145.29,459.092c0,1.255.018,2.51-.009,3.763a4.023,4.023,0,0,1-.245.928c2.052.091,1.875.077,1.869-1.719,0-.969,0-1.937,0-2.973Z" transform="translate(-102.958 -401.981)" fill="#d69f3e"/><path d="M140.34,85.063q0,1.611,0,3.223h2.073V85.063Z" transform="translate(-97.878 -74.481)" fill="#49a932"/><path d="M247.216,56.133l3.1,0q0-.968,0-1.936l-3.1,0-.125.1v1.74l.126.1" transform="translate(-219.057 -47.449)" fill="#e4e4e4"/><path d="M145.068,174.755c.04.61.1,1.219.115,1.83.021.678.008,1.356.009,2.034h1.6c0-1.12.03-2.228-.028-3.33-.01-.2-.358-.474-.595-.533a4.338,4.338,0,0,0-1.1,0" transform="translate(-102.854 -152.981)" fill="#d69f3e"/><path d="M238.383,54.22q0,.968,0,1.936h1.083V54.22Z" transform="translate(-207.126 -47.475)" fill="#b6b2b2"/><path d="M272,54.291l.126-.1-.126.1" transform="translate(-243.969 -47.449)" fill="#b6b2b2"/><path d="M272.124,69.1l-.126-.1.126.1" transform="translate(-243.965 -60.412)" fill="#b6b2b2"/><path d="M178.162,284.97a4.2,4.2,0,0,0-1.789-4.7,8.724,8.724,0,0,0-6.279-1.4,1.9,1.9,0,0,0-1.79,1.839c-.127,2.279,1.789,6.448,5.406,7.116a3.768,3.768,0,0,0,3.478-1.182,1.177,1.177,0,0,1,.948,1.36c-.077,1.426-.025,2.859-.021,4.29,0,.775.349,1.211.938,1.2s.924-.448.926-1.228c0-1.41.042-2.821-.015-4.228-.029-.719.136-1.2.924-1.377a1.379,1.379,0,0,1,.154.117,3.782,3.782,0,0,0,4.308.768,7.762,7.762,0,0,0,4.447-6.553,1.974,1.974,0,0,0-1.9-2.137,9.084,9.084,0,0,0-5.753,1.119,4.4,4.4,0,0,0-2.381,4.072c0,.083.012.165.014.248.007.311.294.611-.173.913a.9.9,0,0,1-1.205-.066c-.064-.051-.134-.094-.234-.165m-3.253.3.121.023.515.289a2.051,2.051,0,0,1-2.477.046,5.911,5.911,0,0,1-2.8-3.969c-.218-.928-.169-.991.78-.977a10.812,10.812,0,0,1,1.113.01,5.408,5.408,0,0,1,3.663,1.576,1.829,1.829,0,0,1,.56,1.643c-.583-.346-1.1-.675-1.644-.971a.927.927,0,1,0-.946,1.592c.37.256.753.5,1.131.742Zm8,.122c.421-.262.844-.521,1.262-.788a.951.951,0,0,0,.446-1.361c-.3-.494-.8-.582-1.407-.235-.513.293-1.018.6-1.591.942a2.666,2.666,0,0,1,1.469-2.386,6.589,6.589,0,0,1,4-.872c.892-.032.988.009.736.812a11.814,11.814,0,0,1-1.13,2.577,3.8,3.8,0,0,1-2.582,1.868,2.8,2.8,0,0,1-1.25-.152c-.333-.1-.3-.306.048-.4" transform="translate(-148.743 -244.107)" fill="#030303"/><path d="M195.558,293.949a6.589,6.589,0,0,0-4,.872,2.666,2.666,0,0,0-1.469,2.386c.573-.34,1.078-.648,1.591-.942.607-.347,1.1-.259,1.407.235a.951.951,0,0,1-.446,1.361c-.418.267-.841.526-1.262.788a3.379,3.379,0,0,0,.706-.179,6.709,6.709,0,0,0,3.472-4.521" transform="translate(-157.21 -257.362)" fill="#8cd954"/><path d="M279.78,298.554c-.377-.247-.76-.485-1.13-.742a.927.927,0,1,1,.946-1.592c.54.3,1.062.625,1.644.971a1.828,1.828,0,0,0-.56-1.643,5.408,5.408,0,0,0-3.663-1.576,10.862,10.862,0,0,0-1.113-.01,6.286,6.286,0,0,0,2.512,3.973,6.628,6.628,0,0,0,1.363.62" transform="translate(-253.598 -257.384)" fill="#8cda54"/><path d="M187.658,294.058a6.709,6.709,0,0,1-3.472,4.521,3.38,3.38,0,0,1-.706.179c-.346.1-.382.3-.048.4a2.8,2.8,0,0,0,1.25.152,3.8,3.8,0,0,0,2.582-1.868,11.824,11.824,0,0,0,1.129-2.577c.253-.8.157-.844-.736-.812" transform="translate(-149.31 -257.471)" fill="#46a430"/><path d="M287.664,298.615A6.625,6.625,0,0,1,286.3,298a6.286,6.286,0,0,1-2.513-3.973c-.949-.014-1,.049-.781.977a5.912,5.912,0,0,0,2.8,3.969,2.051,2.051,0,0,0,2.477-.046l-.515-.289-.121-.023Z" transform="translate(-261.483 -257.445)" fill="#47a631"/><path d="M287.039,330.914l.121.023-.121-.023" transform="translate(-260.872 -289.748)" fill="#8cda54"/></g></g></g></svg>