<svg xmlns="http://www.w3.org/2000/svg" width="54" height="48" viewBox="0 0 54 48">
  <g id="Grupo_957175" data-name="Grupo 957175" transform="translate(9624 8402)">
    <rect id="Rectángulo_52993" data-name="Rectángulo 52993" width="54" height="48" transform="translate(-9624 -8402)" fill="none"/>
    <g id="Grupo_957179" data-name="Grupo 957179" transform="translate(-9630.197 -8400.902)">
      <g id="Grupo_957181" data-name="Grupo 957181" transform="translate(12.424 0.692)">
        <path id="Trazado_157533" data-name="Trazado 157533" d="M50.986,45.112h-28.2l-.449-.685c.178-.527.312-.617.933-.617H49.857c.173,0,.346-.009.52-.014a2.1,2.1,0,0,0,2.235-2.221l-1.365.593c-.345.025-.69.072-1.035.072q-17.02.006-34.04,0a2.614,2.614,0,0,1-.731-.056c-.571-.169-1.129-.382-1.678-.572a2.133,2.133,0,0,0,2.159,2.193c1.431.017,2.862.013,4.293,0a.744.744,0,0,1,.849.621l-.447.685h-5.38a1.46,1.46,0,0,0-.246-.136,3.477,3.477,0,0,1-2.56-3.5q-.009-17.135,0-34.269A3.506,3.506,0,0,1,16.1,3.562c1.518,0,3.037,0,4.555,0,.124,0,.248-.013.392-.022,0-.288-.006-.547,0-.805a2.083,2.083,0,0,1,4.165-.009c.008.27,0,.541,0,.809h15.96c0-.272,0-.516,0-.76a2.084,2.084,0,0,1,4.168,0c.005.256,0,.511,0,.789,1.664,0,3.281-.016,4.9.01a4.6,4.6,0,0,1,1.4.223,3.487,3.487,0,0,1,2.326,3.579q0,16.961,0,33.922c0,.173,0,.347-.015.52a3.509,3.509,0,0,1-2.586,3.173c-.129.035-.254.082-.382.124m.344-34.376h1.3c0-1.385.073-2.743-.023-4.089a2.093,2.093,0,0,0-2.228-1.765l-4.942-.006-.07.066v1.5c.293,0,.553-.02.809,0a.657.657,0,0,1,.613.666.641.641,0,0,1-.65.622,2.509,2.509,0,0,1-.477,0,.5.5,0,0,0-.565.329,1.975,1.975,0,0,1-1.826,1.116,1.917,1.917,0,0,1-1.785-1.031.63.63,0,0,0-.733-.413,1.541,1.541,0,0,1-.3,0,.661.661,0,0,1-.712-.606.674.674,0,0,1,.684-.691c.24-.015.482,0,.729,0V4.887H25.22V6.432h.437a3.166,3.166,0,0,1,.39.008.673.673,0,0,1,.614.67.646.646,0,0,1-.653.621,2.519,2.519,0,0,1-.477,0,.5.5,0,0,0-.564.329,2.051,2.051,0,0,1-3.612.085c-.187-.329-.373-.472-.733-.413a1.523,1.523,0,0,1-.3,0,.656.656,0,0,1-.711-.651.675.675,0,0,1,.685-.646c.24-.015.482,0,.726,0V4.872c-1.776,0-3.525-.045-5.271.016a2.128,2.128,0,0,0-2.009,2.121c-.021.549-.008,1.1-.008,1.648,0,.688,0,1.376,0,2.1H41.585a3.177,3.177,0,0,1,.433.006.6.6,0,0,1,.573.6.608.608,0,0,1-.532.68,2.254,2.254,0,0,1-.476.016H13.753v1.567h37.1c.159,0,.317-.01.476-.016h1.306V12.069H51.332l-6.462-.015a2.2,2.2,0,0,1-.389-.009.615.615,0,0,1-.557-.663.6.6,0,0,1,.557-.618,2.706,2.706,0,0,1,.433-.011l6.419-.016m0,4.206c-.115-.005-.23-.015-.346-.015H13.748c-.008.162-.02.288-.02.414q0,11.582,0,23.164a3.078,3.078,0,0,0,.088.814,2.232,2.232,0,0,0,2.33,1.622h33.8c.115,0,.231-.01.346-.015a2.207,2.207,0,0,0,2.374-2.372q.006-11.652,0-23.3c0-.1-.013-.193-.021-.305Zm-27.416-10c0-.679,0-1.359,0-2.038,0-.55-.311-.9-.774-.909a.8.8,0,0,0-.788.893q-.006,2.038,0,4.077a.79.79,0,1,0,1.562.015c.006-.679,0-1.359,0-2.038M44.044,4.9c0-.665,0-1.33,0-1.995A.809.809,0,0,0,43.268,2a.8.8,0,0,0-.787.893q-.007,2.038,0,4.076a.79.79,0,1,0,1.562.016c.007-.694,0-1.388,0-2.081" transform="translate(-12.424 -0.692)" fill="#030202"/>
        <path id="Trazado_157536" data-name="Trazado 157536" d="M60.239,149.525c-.115.005-.231.015-.346.015H26.1a2.232,2.232,0,0,1-2.33-1.622,3.083,3.083,0,0,1-.088-.814q-.007-11.582,0-23.164c0-.126.012-.252.02-.413H60.932c.115,0,.23.01.346.015,0,7.756-.009,15.511.015,23.267a3.352,3.352,0,0,1-1.054,2.715m-17.2-12.991.208-.273A6.036,6.036,0,1,0,32.434,132.5a2.085,2.085,0,0,0,2.5,2.121,2.145,2.145,0,0,0,1.688-2.173,1.857,1.857,0,1,1,1.792,2,2.089,2.089,0,0,0-1.937,2.709,2.126,2.126,0,0,0,2.08,1.464,1.863,1.863,0,0,1-.036,3.724,1.858,1.858,0,0,1-1.9-1.746,3.439,3.439,0,0,0-.125-.766,2.069,2.069,0,0,0-2.391-1.393,2.092,2.092,0,0,0-1.665,2.174,6.035,6.035,0,1,0,12.029-.815,6.2,6.2,0,0,0-1.424-3.267m5.086-2.968v.4q0,5.05,0,10.1a5.008,5.008,0,0,0,.043.734,2.064,2.064,0,0,0,1.909,1.712,2.094,2.094,0,0,0,2.232-2.256q.006-7.716,0-15.431a3.4,3.4,0,0,0-.041-.518,1.972,1.972,0,0,0-1.321-1.632,1.889,1.889,0,0,0-2.065.359c-1.07,1.013-2.128,2.042-3.127,3.125a2.042,2.042,0,0,0,1.007,3.325,6.986,6.986,0,0,0,1.36.079" transform="translate(-22.37 -109.292)" fill="#ecf4fe"/>
        <path id="Trazado_157537" data-name="Trazado 157537" d="M55.374,36.645l4.942.006a.9.9,0,0,0,.125.218,2.834,2.834,0,0,1,.834,2.183c-.006,1.151,0,2.3,0,3.452l-6.419.015a2.706,2.706,0,0,0-.433.011.6.6,0,0,0-.557.618.615.615,0,0,0,.557.663,2.193,2.193,0,0,0,.39.009l6.462.015q0,.769,0,1.539c-.159.005-.317.016-.476.016h-37.1V43.826H51.525A2.262,2.262,0,0,0,52,43.809a.608.608,0,0,0,.532-.68.6.6,0,0,0-.573-.6,3.156,3.156,0,0,0-.433-.006H23.672c0-.722,0-1.41,0-2.1,0-.549-.013-1.1.008-1.648a2.128,2.128,0,0,1,2.01-2.121c1.745-.061,3.494-.016,5.271-.016V38.2c-.244,0-.486-.012-.725,0a.675.675,0,0,0-.685.646.656.656,0,0,0,.711.651,1.515,1.515,0,0,0,.3,0c.359-.059.546.084.733.413a2.051,2.051,0,0,0,3.612-.085.5.5,0,0,1,.564-.329,2.5,2.5,0,0,0,.477,0,.646.646,0,0,0,.653-.621.673.673,0,0,0-.613-.67,3.189,3.189,0,0,0-.39-.008h-.437V36.655H51.087V38.2c-.247,0-.489-.013-.729,0a.674.674,0,0,0-.684.69.661.661,0,0,0,.712.606,1.541,1.541,0,0,0,.3,0,.63.63,0,0,1,.733.413,1.917,1.917,0,0,0,1.785,1.031,1.975,1.975,0,0,0,1.826-1.116A.5.5,0,0,1,55.6,39.5a2.519,2.519,0,0,0,.477,0,.641.641,0,0,0,.65-.621.657.657,0,0,0-.613-.666c-.256-.025-.516,0-.809,0v-1.5l.07-.066" transform="translate(-22.365 -32.461)" fill="#fd435a"/>
        <path id="Trazado_157538" data-name="Trazado 157538" d="M32.5,356.617H31.226a.744.744,0,0,0-.849-.621c-1.431.013-2.862.017-4.293,0a2.132,2.132,0,0,1-2.159-2.193c.55.191,1.108.4,1.678.572a2.61,2.61,0,0,0,.731.056q17.02,0,34.04,0c.345,0,.69-.047,1.035-.072a3.494,3.494,0,0,1-.225.685c-.187.33-.428.63-.645.943-.173,0-.346.014-.52.014H33.431c-.621,0-.754.089-.933.617" transform="translate(-22.587 -312.882)" fill="#b4dafe"/>
        <path id="Trazado_157539" data-name="Trazado 157539" d="M339.2,149.647a3.351,3.351,0,0,0,1.054-2.715c-.024-7.756-.014-15.511-.015-23.267h1.316c.008.112.021.209.021.305q0,11.652,0,23.3a2.207,2.207,0,0,1-2.374,2.372" transform="translate(-301.33 -109.414)" fill="#d3e4f7"/>
        <path id="Trazado_157540" data-name="Trazado 157540" d="M99.639,14.885c0,.679,0,1.359,0,2.038a.79.79,0,1,1-1.562-.015q-.007-2.038,0-4.077a.8.8,0,0,1,.788-.893c.463,0,.769.359.774.909.005.679,0,1.359,0,2.038" transform="translate(-88.147 -10.634)" fill="#586b75"/>
        <path id="Trazado_157541" data-name="Trazado 157541" d="M273.329,14.844c0,.694.005,1.388,0,2.081a.79.79,0,1,1-1.562-.016q-.006-2.038,0-4.076a.8.8,0,0,1,.787-.893.809.809,0,0,1,.775.909c0,.665,0,1.33,0,1.995" transform="translate(-241.708 -10.637)" fill="#586b75"/>
        <path id="Trazado_157542" data-name="Trazado 157542" d="M340.868,42.7c0-1.151,0-2.3,0-3.452a2.834,2.834,0,0,0-.834-2.183.889.889,0,0,1-.125-.218,2.093,2.093,0,0,1,2.228,1.765c.1,1.346.023,2.7.023,4.089Z" transform="translate(-301.961 -32.652)" fill="#e1374e"/>
        <path id="Trazado_157543" data-name="Trazado 157543" d="M339.918,355.7c.218-.313.458-.613.645-.943a3.493,3.493,0,0,0,.225-.685l1.365-.593a2.1,2.1,0,0,1-2.235,2.221" transform="translate(-301.966 -312.591)" fill="#93caf8"/>
        <path id="Trazado_157544" data-name="Trazado 157544" d="M348.163,100.408V98.869h1.306v1.539Z" transform="translate(-309.256 -87.492)" fill="#e2374e"/>
        <path id="Trazado_157545" data-name="Trazado 157545" d="M296.73,36.8l-.07.066.07-.066" transform="translate(-263.721 -32.615)" fill="#e1374e"/>
        <path id="Trazado_157546" data-name="Trazado 157546" d="M109.874,159.527a6.2,6.2,0,0,1,1.424,3.267,6.035,6.035,0,1,1-12.029.815,2.092,2.092,0,0,1,1.665-2.174,2.069,2.069,0,0,1,2.391,1.392,3.438,3.438,0,0,1,.125.766,1.858,1.858,0,0,0,1.9,1.746,1.863,1.863,0,0,0,.036-3.724,2.126,2.126,0,0,1-2.08-1.464,2.089,2.089,0,0,1,1.937-2.709,1.867,1.867,0,1,0-1.792-2,2.145,2.145,0,0,1-1.688,2.173,2.086,2.086,0,0,1-2.5-2.121,6.036,6.036,0,1,1,10.815,3.757l-.208.273m-4.573-8.709c-.314.039-.631.062-.942.121a4.7,4.7,0,0,0-3.773,4.606.767.767,0,0,0,1.523.146c.05-.254.039-.52.094-.772a3.174,3.174,0,1,1,3.241,3.821c-.588.031-.94.338-.926.806s.356.739.923.766a3.168,3.168,0,0,1,.015,6.328,3.194,3.194,0,0,1-3.264-2.546c-.052-.268-.043-.549-.1-.814a.762.762,0,0,0-1.5.136,3.989,3.989,0,0,0,.024.736,4.733,4.733,0,1,0,8.107-3.935c-.556-.575-.555-.8,0-1.378a4.646,4.646,0,0,0,1.324-3.164,4.781,4.781,0,0,0-4.743-4.856" transform="translate(-89.203 -132.285)" fill="#030303"/>
        <path id="Trazado_157547" data-name="Trazado 157547" d="M212.682,156.431a6.985,6.985,0,0,1-1.36-.079,2.042,2.042,0,0,1-1.007-3.325c1-1.082,2.057-2.112,3.127-3.124a1.889,1.889,0,0,1,2.065-.359,1.972,1.972,0,0,1,1.321,1.632,3.4,3.4,0,0,1,.041.518q0,7.716,0,15.431a2.094,2.094,0,0,1-2.232,2.256,2.064,2.064,0,0,1-1.909-1.712,5.029,5.029,0,0,1-.043-.734q0-5.05,0-10.1v-.4m2.894,2.959q0-3.708,0-7.417a3.124,3.124,0,0,0-.047-.6.753.753,0,0,0-1.287-.444c-.98.942-1.935,1.909-2.885,2.881a.781.781,0,0,0,1.076,1.132c.168-.136.3-.309.47-.449a.626.626,0,0,1,1.064.36,2.533,2.533,0,0,1,.041.559q0,5.747,0,11.494c0,.159-.006.319.008.477a.729.729,0,0,0,.7.7.72.72,0,0,0,.8-.58,3,3,0,0,0,.061-.645q.006-3.73,0-7.46" transform="translate(-186.925 -132.157)" fill="#050505"/>
        <path id="Trazado_157548" data-name="Trazado 157548" d="M115.353,160.614a4.781,4.781,0,0,1,4.743,4.856,4.645,4.645,0,0,1-1.324,3.164c-.552.576-.554.8,0,1.378a4.729,4.729,0,1,1-8.107,3.935,3.989,3.989,0,0,1-.024-.736.762.762,0,0,1,1.5-.136c.061.266.051.546.1.814a3.194,3.194,0,0,0,3.264,2.546,3.168,3.168,0,0,0-.015-6.328c-.567-.027-.909-.311-.923-.766s.338-.776.926-.806a3.172,3.172,0,1,0-3.241-3.821c-.055.252-.044.518-.094.772a.767.767,0,0,1-1.523-.146,4.7,4.7,0,0,1,3.773-4.606c.311-.058.628-.081.942-.121" transform="translate(-99.254 -142.081)" fill="#586a74"/>
        <path id="Trazado_157549" data-name="Trazado 157549" d="M225.632,169.366q0,3.73,0,7.46a3,3,0,0,1-.061.645.72.72,0,0,1-.8.58.729.729,0,0,1-.7-.7c-.014-.158-.008-.318-.008-.477q0-5.747,0-11.494a2.533,2.533,0,0,0-.041-.559.626.626,0,0,0-1.064-.36c-.166.139-.3.313-.47.449a.781.781,0,0,1-1.076-1.132c.951-.971,1.905-1.939,2.885-2.881a.753.753,0,0,1,1.287.444,3.128,3.128,0,0,1,.046.6q0,3.708,0,7.417" transform="translate(-196.98 -142.133)" fill="#566871"/>
      </g>
    </g>
  </g>
</svg>
