<svg xmlns="http://www.w3.org/2000/svg" width="74" height="66" viewBox="0 0 74 66"><g transform="translate(9624 8402)"><rect width="74" height="66" transform="translate(-9624 -8402)" fill="none"/><g transform="translate(-9616.731 -8400.63)"><g transform="translate(0 0)"><path d="M20.6,53.013a1.039,1.039,0,0,1-1.211.884,25.15,25.15,0,0,1-3.024-.136,4.829,4.829,0,0,1-3.979-4.588c-.066-1.547-.03-3.1-.031-4.648q0-8.027,0-16.055c0-.892.147-1.091.915-1.291.784.189.944.41.944,1.334q0,8,0,15.994a3.172,3.172,0,0,0,3.449,3.42h21.4a16.464,16.464,0,0,1,3.7-10.459,2.066,2.066,0,0,1-1.644-2.286c0-.6-.022-1.2.012-1.8a1.9,1.9,0,0,1,1.915-1.879c.722-.025,1.448-.027,2.17,0a1.906,1.906,0,0,1,1.837,1.625c.034.179.058.36.095.584.194-.1.358-.181.518-.267a16.247,16.247,0,0,1,9.94-1.806,17.316,17.316,0,0,1,6.266,2.177l1.874,1.323v-14.1H63.889c-.144-.008-.288-.022-.432-.022q-24.365,0-48.73,0c-.16,0-.319.02-.508.033,0,1.05-.014,2.061,0,3.072a1.072,1.072,0,0,1-.948,1.231,1.081,1.081,0,0,1-.925-1.245c.014-4.711-.009-9.423.013-14.134a5.019,5.019,0,0,1,5.25-5.206c2.333-.007,4.666,0,7.072,0a3.689,3.689,0,0,1,1.3-3.319,3.428,3.428,0,0,1,2.355-.78c1.977.074,3.1,1.409,3.385,4.063H48.31a3.726,3.726,0,0,1,1.367-3.325A3.447,3.447,0,0,1,52.046.678c1.964.108,3.122,1.519,3.317,4.1h2.392c1.529,0,3.059,0,4.589,0a5.027,5.027,0,0,1,5.3,5.283q.012,13.143-.006,26.285a1.761,1.761,0,0,0,.422,1.167c3.792,4.854,4.789,10.252,2.636,16.011-2.169,5.8-6.488,9.246-12.587,10.424-.348.067-.692.154-1.038.232H53.595c-.67-.154-1.344-.293-2.009-.465a16.19,16.19,0,0,1-11.125-9.319.712.712,0,0,0-.77-.505q-8,.023-16,.009c-.836,0-1.04-.148-1.261-.882.152-.767.412-.978,1.234-.978q7.622,0,15.243,0h.689l-.436-2.247H38.45q-10.441,0-20.882,0a5.183,5.183,0,0,1-2.929-.829,4.122,4.122,0,0,0-.373-.194,3.085,3.085,0,0,0,2.915,3.251c.722.028,1.446,0,2.169.01.813.006,1.044.189,1.252.982M43.3,33.391c-.118.082-.332.159-.337.248a14.1,14.1,0,0,0,0,1.657c.006.106.215.2.331.3.267.012.534.034.8.033.9,0,1.169-.36,1.165-1.541,0-.7,0-.7-1.032-.7H43.3M27.407,2.774a1.454,1.454,0,0,0-.855,1.44q-.019,2.529,0,5.059a1.509,1.509,0,0,0,.973,1.5,1.566,1.566,0,0,0,2.269-1.418c.04-1.749.043-3.5,0-5.25a1.561,1.561,0,0,0-2.384-1.331M51.1,2.74a1.4,1.4,0,0,0-.9,1.352q-.036,2.652,0,5.3a1.364,1.364,0,0,0,.9,1.339,1.579,1.579,0,0,0,2.339-1.369q.074-2.626,0-5.255A1.584,1.584,0,0,0,51.1,2.74M59.7,61.619l0,.006c.238-.066.482-.113.712-.2a14.478,14.478,0,0,0,5.753-23.268,14.667,14.667,0,0,0-12.859-4.636,14.462,14.462,0,0,0-2.3,28.1,13.389,13.389,0,0,0,8.4.085l.285-.085m4.181-44.677c-.124-.007-.247-.02-.371-.02q-24.37,0-48.74,0c-.176,0-.352.023-.515.035v2.2H63.206c.227,0,.454-.015.68-.023h1.86v-2.2Zm0-1.909h1.832a1.062,1.062,0,0,0,.055-.215c0-1.689.026-3.378,0-5.067a3.12,3.12,0,0,0-3.363-3.092H55.37V8.891a10.6,10.6,0,0,1,1.157.008.886.886,0,0,1,.823.982.852.852,0,0,1-.885.852,4.54,4.54,0,0,1-.805,0,.876.876,0,0,0-.94.488,3.415,3.415,0,0,1-5.667.159,1.293,1.293,0,0,0-1.362-.643,2.626,2.626,0,0,1-.372,0c-.641-.021-1.031-.357-1.044-.9-.013-.569.385-.937,1.055-.962.3-.012.609,0,.939,0V6.686H31.706V8.895a10.66,10.66,0,0,1,1.2.009.9.9,0,0,1,.826.985.884.884,0,0,1-.9.846,5.127,5.127,0,0,1-.805,0,.882.882,0,0,0-.941.494,3.391,3.391,0,0,1-5.506.336,1.782,1.782,0,0,0-1.839-.825.689.689,0,0,1-.124,0,.929.929,0,0,1-.981-.9.955.955,0,0,1,.951-.949c.345-.025.693,0,1.073,0V6.659c-2.567,0-5.106-.068-7.64.027a2.84,2.84,0,0,0-2.7,2.5c-.118,1.929-.03,3.871-.03,5.871H63.142c.248,0,.5-.014.743-.021" transform="translate(-12.349 -0.672)" fill="#030202"/><path d="M68.536,136.317a17.313,17.313,0,0,0-6.266-2.177,16.246,16.246,0,0,0-9.94,1.806c-.161.086-.324.167-.518.267-.036-.225-.061-.406-.095-.584A1.906,1.906,0,0,0,49.88,134c-.722-.031-1.447-.029-2.17,0a1.9,1.9,0,0,0-1.915,1.879c-.034.6-.016,1.2-.012,1.8a2.066,2.066,0,0,0,1.644,2.286,16.465,16.465,0,0,0-3.7,10.459h-21.4A3.172,3.172,0,0,1,18.876,147q-.012-8,0-15.994c0-.925-.161-1.145-.944-1.334q0-.909,0-1.819a1.073,1.073,0,0,0,.948-1.231c-.018-1.011,0-2.023,0-3.072.189-.013.348-.033.508-.033q24.365,0,48.73,0c.144,0,.288.014.432.022q0,6.389-.008,12.779m-.35-7.53c0-.33,0-.661,0-.991a1.933,1.933,0,0,0-2.011-2.034c-.661-.011-1.322-.015-1.983,0a1.935,1.935,0,0,0-1.968,1.959c-.013.7-.017,1.4,0,2.106a1.89,1.89,0,0,0,1.83,1.888c.639.033,1.28.019,1.92.015a1.955,1.955,0,0,0,2.21-2.2c0-.248,0-.5,0-.743M35.3,128.75c0-.351.008-.7,0-1.053a1.916,1.916,0,0,0-1.863-1.93c-.742-.033-1.488-.032-2.23,0a1.919,1.919,0,0,0-1.866,1.93q-.021,1.053,0,2.106a1.874,1.874,0,0,0,1.8,1.91c.783.038,1.571.037,2.353,0a1.863,1.863,0,0,0,1.8-1.847c.014-.371,0-.743,0-1.115m0,8.229c0-.33,0-.661,0-.991A1.894,1.894,0,0,0,33.387,134c-.722-.022-1.446-.025-2.168,0a1.89,1.89,0,0,0-1.873,1.91c-.015.681-.01,1.363,0,2.044a1.923,1.923,0,0,0,1.921,2c.7.027,1.405.025,2.106,0A1.918,1.918,0,0,0,35.3,137.97c.006-.33,0-.661,0-.991m8.212,8.223h0c0-.33.007-.661,0-.991a1.891,1.891,0,0,0-1.972-2c-.7-.014-1.4-.016-2.106.005A1.886,1.886,0,0,0,37.567,144a19.455,19.455,0,0,0,0,2.353,1.915,1.915,0,0,0,1.914,1.82c.722.019,1.446.023,2.169,0a1.9,1.9,0,0,0,1.867-1.856c.018-.371,0-.743,0-1.115m13.445-13.484v.01c.351,0,.7.012,1.053,0a1.924,1.924,0,0,0,1.961-2.021c.01-.661.015-1.322,0-1.983a1.933,1.933,0,0,0-1.909-1.957c-.722-.025-1.446-.027-2.168,0a1.907,1.907,0,0,0-1.882,1.907q-.025,1.084,0,2.168a1.866,1.866,0,0,0,1.77,1.873c.39.028.784,0,1.177,0m-8.2,0v.017c.331,0,.661.01.991,0a1.932,1.932,0,0,0,2.007-2.044c.015-.66.025-1.323,0-1.982a1.938,1.938,0,0,0-1.991-1.941c-.681-.014-1.363-.018-2.045,0a1.875,1.875,0,0,0-1.909,1.744,19.025,19.025,0,0,0,.006,2.536,1.816,1.816,0,0,0,1.705,1.665c.41.032.825.005,1.238.005M43.523,137c0-.33.006-.661,0-.991A1.9,1.9,0,0,0,41.5,134c-.661-.011-1.322-.015-1.982,0a1.922,1.922,0,0,0-1.965,1.956q-.03,1.021,0,2.044a1.939,1.939,0,0,0,1.972,1.96q1.021.032,2.044,0a1.911,1.911,0,0,0,1.949-1.967c.01-.33,0-.661,0-.991m-22.39,8.171h0c0,.331-.005.661,0,.991a1.922,1.922,0,0,0,2.024,2.017c.661.007,1.322.013,1.983,0a1.932,1.932,0,0,0,1.955-1.911c.026-.722.028-1.446,0-2.168a1.9,1.9,0,0,0-1.91-1.877c-.743-.02-1.488-.024-2.23,0a1.864,1.864,0,0,0-1.814,1.83c-.016.371,0,.743,0,1.115m0-16.42c0,.33-.006.661,0,.991a1.883,1.883,0,0,0,1.921,1.983c.722.025,1.446.025,2.168-.005a1.887,1.887,0,0,0,1.87-1.852c.032-.742.033-1.488,0-2.23a1.917,1.917,0,0,0-1.868-1.869c-.742-.032-1.488-.031-2.23,0a1.912,1.912,0,0,0-1.86,1.929c-.01.351,0,.7,0,1.053m0,8.189c0,.351-.007.7,0,1.053a1.911,1.911,0,0,0,1.889,1.962c.721.032,1.447.031,2.168,0a1.924,1.924,0,0,0,1.906-1.959q.027-1.022,0-2.044A1.918,1.918,0,0,0,25.129,134q-1.022-.025-2.045,0a1.89,1.89,0,0,0-1.953,1.951c-.008.33,0,.661,0,.991m11.251,5.281v0c-.372,0-.744-.01-1.115,0a1.9,1.9,0,0,0-1.92,1.927q-.021,1.053,0,2.106a1.92,1.92,0,0,0,1.872,1.922c.743.025,1.488.027,2.231,0A1.905,1.905,0,0,0,35.3,146.3q.03-1.115,0-2.23a1.879,1.879,0,0,0-1.8-1.846c-.371-.02-.743,0-1.115,0m11.142-13.412c0-.33.005-.661,0-.991a1.935,1.935,0,0,0-2.053-2.055c-.64-.007-1.281-.012-1.921,0a1.943,1.943,0,0,0-1.992,1.94c-.024.7-.024,1.4,0,2.106a1.914,1.914,0,0,0,1.879,1.913c.391.021.786-.012,1.177.015,2.171.152,3.087-.583,2.91-2.929" transform="translate(-17.004 -103.164)" fill="#e8f2f9"/><path d="M30.241,295.246c-.208-.792-.439-.976-1.252-.982-.723-.005-1.447.018-2.169-.01A3.084,3.084,0,0,1,23.906,291a4.135,4.135,0,0,1,.373.194,5.183,5.183,0,0,0,2.929.829q10.441-.011,20.882,0H48.8l.435,2.247h-.688q-7.622,0-15.243,0c-.822,0-1.082.211-1.234.978l-1.825,0" transform="translate(-21.988 -242.905)" fill="#d2dbf9"/><path d="M73.444,45.064c-.248.007-.5.021-.743.021H23.838c0-2-.087-3.942.03-5.871a2.84,2.84,0,0,1,2.7-2.5c2.533-.1,5.073-.027,7.64-.027v2.223c-.379,0-.728-.02-1.073,0a.955.955,0,0,0-.951.949.929.929,0,0,0,.981.9.689.689,0,0,0,.124,0,1.782,1.782,0,0,1,1.839.825,3.391,3.391,0,0,0,5.506-.336.882.882,0,0,1,.941-.494,5.127,5.127,0,0,0,.805,0,.884.884,0,0,0,.9-.846.9.9,0,0,0-.826-.985,10.661,10.661,0,0,0-1.2-.009V36.717H57.828v2.193c-.33,0-.635-.01-.939,0-.67.026-1.068.394-1.055.962.012.539.4.875,1.044.9a2.627,2.627,0,0,0,.372,0,1.293,1.293,0,0,1,1.362.643,3.415,3.415,0,0,0,5.667-.159.876.876,0,0,1,.94-.488,4.539,4.539,0,0,0,.805,0,.852.852,0,0,0,.885-.852.886.886,0,0,0-.823-.982,10.6,10.6,0,0,0-1.157-.008V36.69h7.036a4.691,4.691,0,0,1,1.493,3.874c-.044,1.5-.012,3-.014,4.5" transform="translate(-21.908 -30.704)" fill="#fd4054"/><path d="M203.371,226.324a13.391,13.391,0,0,1-8.4-.085,14.462,14.462,0,0,1,2.3-28.1,13.4,13.4,0,0,1,6.241.477,3.278,3.278,0,0,0,.381.291,15.423,15.423,0,0,1,1.917,25.822c-.7.53-1.429,1.01-2.145,1.514l0-.006-.285.085M199.4,200.239a12.228,12.228,0,1,0,12.189,12.235A12.228,12.228,0,0,0,199.4,200.239" transform="translate(-156.301 -165.292)" fill="#4da8f3"/><path d="M73.51,100.971c-.227.008-.454.023-.68.023H23.884v-2.2c.164-.011.339-.035.515-.035q24.37,0,48.739,0c.124,0,.247.013.371.02q0,1.1,0,2.2" transform="translate(-21.973 -82.505)" fill="#fe4155"/><path d="M297.444,229.46c.716-.5,1.45-.983,2.145-1.514a14.953,14.953,0,0,0,5.894-9.741,15.364,15.364,0,0,0-7.811-16.081,3.308,3.308,0,0,1-.381-.291,13.5,13.5,0,0,1,6.618,4.159,14.477,14.477,0,0,1-5.753,23.268c-.23.086-.475.134-.712.2" transform="translate(-250.085 -168.507)" fill="#1884e7"/><path d="M323.4,136.43q0-6.389.008-12.779h1.866v14.1L323.4,136.43" transform="translate(-271.871 -103.277)" fill="#d0d9f3"/><path d="M246.247,12.283a1.584,1.584,0,0,1,2.347,1.37q.076,2.626,0,5.255a1.579,1.579,0,0,1-2.339,1.369,12.9,12.9,0,0,0,.48-2.122,32.052,32.052,0,0,0,0-3.882,10.977,10.977,0,0,0-.488-1.99" transform="translate(-207.497 -10.215)" fill="#d0d9f7"/><path d="M103.243,12.3a1.561,1.561,0,0,1,2.384,1.331c.046,1.749.043,3.5,0,5.25a1.566,1.566,0,0,1-2.269,1.418,6.221,6.221,0,0,0,.372-1.414c.045-1.75.052-3.5-.005-5.252a4.6,4.6,0,0,0-.484-1.334" transform="translate(-88.185 -10.194)" fill="#d1daf8"/><path d="M315.982,45.163c0-1.5-.03-3,.014-4.5a4.691,4.691,0,0,0-1.493-3.874,3.12,3.12,0,0,1,3.363,3.092c.03,1.688.006,3.378,0,5.067a1.061,1.061,0,0,1-.055.215Z" transform="translate(-264.446 -30.803)" fill="#e60053"/><path d="M241.632,13.154a10.979,10.979,0,0,1,.488,1.99,32.058,32.058,0,0,1,0,3.882,12.9,12.9,0,0,1-.48,2.122,1.363,1.363,0,0,1-.9-1.339q-.041-2.652,0-5.3a1.4,1.4,0,0,1,.9-1.352" transform="translate(-202.883 -11.086)" fill="#e1ebf2"/><path d="M98.89,13.358a4.6,4.6,0,0,1,.484,1.334c.057,1.749.05,3.5.005,5.252a6.221,6.221,0,0,1-.372,1.414,1.509,1.509,0,0,1-.973-1.5q-.018-2.53,0-5.059a1.454,1.454,0,0,1,.855-1.44" transform="translate(-83.832 -11.256)" fill="#e8f2f9"/><path d="M199.17,198.161l.927,0c1.029,0,1.029,0,1.032.7,0,1.181-.262,1.538-1.165,1.541-.267,0-.534-.021-.8-.033q0-1.1.007-2.2" transform="translate(-168.214 -165.442)" fill="#284087"/><path d="M323.431,101.073q0-1.1,0-2.2h1.861v2.2Z" transform="translate(-271.894 -82.608)" fill="#e60053"/><path d="M197.383,198.169q0,1.1-.007,2.2c-.115-.1-.324-.192-.33-.3a14.091,14.091,0,0,1,0-1.657c.005-.089.22-.165.337-.248" transform="translate(-166.427 -165.45)" fill="#294189"/><path d="M296.47,368.64l.285-.085-.285.085" transform="translate(-249.4 -307.608)" fill="#1884e7"/><path d="M291.211,140.055c0,.248,0,.5,0,.743A1.955,1.955,0,0,1,289,143c-.64,0-1.282.018-1.92-.015a1.89,1.89,0,0,1-1.83-1.888c-.019-.7-.015-1.4,0-2.106a1.934,1.934,0,0,1,1.967-1.959c.661-.016,1.322-.012,1.983,0a1.934,1.934,0,0,1,2.011,2.034c0,.331,0,.661,0,.991m-3.742-1.138c-.12.085-.339.165-.344.257a14.093,14.093,0,0,0,0,1.669c.006.093.23.173.353.258H289.3v-2.185Z" transform="translate(-240.028 -114.432)" fill="#030303"/><path d="M92.749,139.97c0,.372.011.744,0,1.115a1.863,1.863,0,0,1-1.8,1.847c-.783.037-1.57.038-2.353,0a1.874,1.874,0,0,1-1.8-1.909q-.021-1.053,0-2.106a1.919,1.919,0,0,1,1.866-1.93c.742-.032,1.488-.032,2.23,0a1.917,1.917,0,0,1,1.863,1.931c.009.351,0,.7,0,1.053m-3.736-1.1c-.121.1-.338.193-.346.3a11.184,11.184,0,0,0,0,1.575c.008.11.23.2.354.306h1.819v-2.182Z" transform="translate(-74.449 -114.383)" fill="#030303"/><path d="M92.755,189.686c0,.33.005.661,0,.991a1.918,1.918,0,0,1-1.934,1.985c-.7.025-1.405.026-2.106,0a1.923,1.923,0,0,1-1.92-2c-.009-.681-.013-1.363,0-2.044a1.89,1.89,0,0,1,1.873-1.91c.722-.027,1.446-.023,2.168,0a1.894,1.894,0,0,1,1.918,1.99c.005.33,0,.661,0,.991m-3.727-1.079c-.124.085-.35.163-.355.255a14.24,14.24,0,0,0,0,1.667c0,.087.224.162.343.243H90.85v-2.165Z" transform="translate(-74.454 -155.87)" fill="#030304"/><path d="M142.239,239.327c0,.372.015.744,0,1.115a1.9,1.9,0,0,1-1.867,1.856c-.722.024-1.446.02-2.169,0a1.915,1.915,0,0,1-1.914-1.82,19.425,19.425,0,0,1,0-2.353,1.886,1.886,0,0,1,1.875-1.781c.7-.022,1.4-.019,2.107-.005a1.891,1.891,0,0,1,1.972,2c.008.33,0,.661,0,.991h0m-3.755-1.1c-.118.091-.331.175-.337.273a13.844,13.844,0,0,0,0,1.648c.006.1.217.183.333.274h1.834v-2.194Z" transform="translate(-115.725 -197.288)" fill="#030304"/><path d="M238.646,142.953c-.392,0-.786.023-1.177,0a1.866,1.866,0,0,1-1.77-1.873q-.027-1.083,0-2.168A1.907,1.907,0,0,1,237.58,137c.722-.027,1.446-.025,2.168,0a1.933,1.933,0,0,1,1.909,1.957c.016.661.011,1.322,0,1.983a1.924,1.924,0,0,1-1.961,2.022c-.351.014-.7,0-1.053,0v-.01m-.82-1.879h1.931v-2.2h-1.941a2.246,2.246,0,0,0,.01,2.2" transform="translate(-198.686 -114.398)" fill="#030304"/><path d="M188.994,142.973c-.413,0-.828.026-1.238-.005a1.816,1.816,0,0,1-1.705-1.665,19.026,19.026,0,0,1-.006-2.536,1.875,1.875,0,0,1,1.909-1.744c.681-.019,1.363-.015,2.044,0a1.938,1.938,0,0,1,1.991,1.94c.029.659.019,1.322,0,1.982a1.932,1.932,0,0,1-2.007,2.044c-.33.011-.661,0-.991,0v-.017m-.807-1.877c2.465-.022,1.881.412,1.963-1.719,0-.021.009-.05,0-.06-.142-.15-.277-.411-.432-.424a14.253,14.253,0,0,0-1.54.011c-.121.116-.335.225-.345.35a9.824,9.824,0,0,0,0,1.525c.009.114.231.212.355.318" transform="translate(-157.235 -114.422)" fill="#030304"/><path d="M142.289,189.73c0,.33.008.661,0,.991a1.912,1.912,0,0,1-1.95,1.967c-.681.022-1.363.021-2.044,0a1.939,1.939,0,0,1-1.972-1.96q-.031-1.021,0-2.044a1.922,1.922,0,0,1,1.965-1.957c.661-.017,1.322-.012,1.983,0a1.9,1.9,0,0,1,2.02,2.012c.007.33,0,.661,0,.991m-3.754-1.1c-.124.087-.349.167-.355.261a12.292,12.292,0,0,0,0,1.6c.007.1.224.194.344.29l1.836.081v-2.237Z" transform="translate(-115.771 -155.896)" fill="#030404"/><path d="M37.247,239.292c0-.372-.013-.744,0-1.115a1.864,1.864,0,0,1,1.814-1.83c.743-.028,1.487-.024,2.23,0a1.9,1.9,0,0,1,1.91,1.877c.029.721.027,1.446,0,2.168a1.932,1.932,0,0,1-1.955,1.911c-.661.015-1.322.009-1.983,0a1.922,1.922,0,0,1-2.024-2.017c-.006-.33,0-.661,0-.991Zm1.886,1.034,2.178.153V238.22H39.377c-.089.124-.249.246-.253.373-.021.577,0,1.155.009,1.733" transform="translate(-33.117 -197.286)" fill="#030303"/><path d="M37.237,139.972c0-.351-.008-.7,0-1.053a1.912,1.912,0,0,1,1.86-1.929c.742-.031,1.488-.032,2.23,0a1.917,1.917,0,0,1,1.868,1.869c.032.742.032,1.488,0,2.23a1.887,1.887,0,0,1-1.87,1.852c-.721.03-1.446.03-2.168.005a1.883,1.883,0,0,1-1.921-1.983c-.007-.33,0-.661,0-.991m2.138,1.089H41.3v-2.186a2.937,2.937,0,0,0-.339-.038c-.533.006-1.067.019-1.6.029a2.215,2.215,0,0,0,.011,2.195" transform="translate(-33.112 -114.386)" fill="#030304"/><path d="M37.24,189.664c0-.33-.007-.661,0-.991a1.89,1.89,0,0,1,1.953-1.951q1.022-.025,2.045,0a1.918,1.918,0,0,1,1.965,1.953q.027,1.021,0,2.044a1.924,1.924,0,0,1-1.906,1.959c-.721.031-1.447.032-2.168,0a1.911,1.911,0,0,1-1.889-1.962c-.009-.351,0-.7,0-1.053m2.14-1.044c-.074.023-.211.044-.211.068q-.021,1.025-.007,2.05c0,.021.133.04.2.059.535.015,1.072.054,1.606.027a.522.522,0,0,0,.361-.356c.04-.591.017-1.186.017-1.848Z" transform="translate(-33.114 -155.889)" fill="#030304"/><path d="M89.825,236.378c.372,0,.744-.017,1.115,0a1.879,1.879,0,0,1,1.8,1.846q.032,1.114,0,2.23a1.905,1.905,0,0,1-1.852,1.873c-.743.028-1.488.026-2.231,0a1.92,1.92,0,0,1-1.872-1.922q-.022-1.053,0-2.106a1.9,1.9,0,0,1,1.92-1.927c.371-.012.744,0,1.115,0v0m-1.157,3.983.1.1.241-.008h1.824v-2.19H89.019c-.329-.079-.38.1-.372.374.016.575.016,1.15.022,1.726" transform="translate(-74.448 -197.322)" fill="#020202"/><path d="M142.28,140.083c.176,2.346-.739,3.08-2.91,2.929-.391-.027-.785.006-1.177-.015a1.914,1.914,0,0,1-1.879-1.913c-.025-.7-.025-1.4,0-2.106a1.943,1.943,0,0,1,1.992-1.94c.64-.013,1.281-.009,1.921,0a1.935,1.935,0,0,1,2.053,2.055c.006.33,0,.661,0,.991m-3.766-1.162c-.115.07-.325.135-.329.21-.027.588-.027,1.179,0,1.767,0,.076.219.142.336.213h1.822v-2.189h-1.831" transform="translate(-115.761 -114.439)" fill="#030304"/><path d="M210.718,211.618a12.228,12.228,0,1,1-12.27,12.167,12.2,12.2,0,0,1,12.27-12.167m2.776,22.173.013-.005c.159-.04.322-.07.477-.122a10.36,10.36,0,0,0,5.576-15.171,9.825,9.825,0,0,0-6.221-4.644,8.647,8.647,0,0,0-3.917-.3,10.374,10.374,0,0,0-8.743,7.556,10.269,10.269,0,0,0,3.8,11.018,9.833,9.833,0,0,0,8.726,1.731l.289-.06" transform="translate(-167.618 -176.671)" fill="#020304"/><path d="M298.707,148.467h1.83v2.185h-1.821q0-1.092-.009-2.185" transform="translate(-251.266 -123.982)" fill="#294189"/><path d="M296.849,148.467q0,1.092.009,2.185c-.123-.086-.347-.166-.353-.258a14.105,14.105,0,0,1,0-1.669c.005-.092.224-.172.344-.257" transform="translate(-249.409 -123.982)" fill="#3a579e"/><path d="M100.26,148.476h1.828v2.182h-1.819l-.009-2.182" transform="translate(-85.696 -123.99)" fill="#294189"/><path d="M98.38,148.476l.009,2.182c-.124-.1-.346-.2-.354-.306a11.185,11.185,0,0,1,0-1.575c.007-.108.225-.2.346-.3" transform="translate(-83.816 -123.99)" fill="#3a579e"/><path d="M100.261,198.275h1.822v2.165h-1.834q.006-1.082.013-2.165" transform="translate(-85.686 -165.538)" fill="#294088"/><path d="M98.411,198.275q-.006,1.083-.013,2.165c-.12-.081-.338-.156-.343-.243a14.244,14.244,0,0,1,0-1.667c.005-.092.231-.17.355-.255" transform="translate(-83.836 -165.538)" fill="#3a579e"/><path d="M149.7,247.772h1.829v2.194H149.7q0-1.1,0-2.194" transform="translate(-126.944 -206.835)" fill="#294189"/><path d="M147.9,247.772q0,1.1,0,2.194c-.116-.091-.327-.176-.333-.274a13.841,13.841,0,0,1,0-1.648c.006-.1.22-.182.337-.273" transform="translate(-125.145 -206.835)" fill="#3a579e"/><path d="M248.54,148.436h1.941v2.2H248.55q-.005-1.1-.01-2.2" transform="translate(-209.411 -123.956)" fill="#294189"/><path d="M247.123,148.436q.005,1.1.01,2.2a2.246,2.246,0,0,1-.01-2.2" transform="translate(-207.994 -123.956)" fill="#3a579e"/><path d="M199.109,148.288a14.222,14.222,0,0,1,1.54-.011c.156.014.29.275.432.424.01.011,0,.04,0,.06-.082,2.13.5,1.7-1.963,1.719q-.005-1.1-.011-2.192" transform="translate(-168.169 -123.807)" fill="#284087"/><path d="M197.223,148.443q.005,1.1.011,2.192c-.124-.105-.346-.2-.355-.318a9.822,9.822,0,0,1,0-1.525c.01-.125.225-.234.345-.35" transform="translate(-166.282 -123.962)" fill="#3a579e"/><path d="M149.7,198.258h1.825V200.5l-1.836-.081q.006-1.078.011-2.156" transform="translate(-126.936 -165.524)" fill="#294088"/><path d="M147.835,198.258q-.006,1.078-.011,2.156c-.12-.1-.338-.186-.344-.29a12.3,12.3,0,0,1,0-1.605c.006-.094.231-.174.355-.261" transform="translate(-125.071 -165.524)" fill="#3a579e"/><path d="M48.906,247.754H50.84v2.258l-2.178-.153c.082-.156.227-.308.235-.468.029-.545.01-1.092.009-1.638" transform="translate(-42.646 -206.82)" fill="#294189"/><path d="M48.818,247.754c0,.546.02,1.093-.009,1.638-.008.16-.153.312-.235.468-.007-.578-.03-1.156-.009-1.733,0-.127.165-.248.253-.373" transform="translate(-42.558 -206.82)" fill="#3a579e"/><path d="M50.093,148.291c.533-.01,1.067-.023,1.6-.029a3.014,3.014,0,0,1,.339.038v2.186H50.1q-.005-1.1-.011-2.195" transform="translate(-43.84 -123.811)" fill="#294088"/><path d="M48.654,148.438q.005,1.1.011,2.195a2.215,2.215,0,0,1-.011-2.195" transform="translate(-42.401 -123.958)" fill="#3a579e"/><path d="M50.1,198.239h1.969c0,.662.022,1.257-.017,1.848a.522.522,0,0,1-.361.356c-.533.028-1.07-.012-1.606-.027l.015-2.178" transform="translate(-43.83 -165.508)" fill="#294088"/><path d="M49.045,198.239l-.015,2.178c-.071-.02-.2-.039-.2-.06q-.013-1.025.007-2.05c0-.024.138-.045.211-.068" transform="translate(-42.779 -165.508)" fill="#3a579e"/><path d="M100.275,247.788h1.819v2.19H100.27q0-1.095,0-2.19" transform="translate(-85.704 -206.849)" fill="#294189"/><path d="M98.419,247.7q0,1.095,0,2.19l-.241.008-.1-.1c-.006-.575-.006-1.151-.022-1.726-.007-.271.043-.453.372-.374" transform="translate(-83.849 -206.756)" fill="#3a579e"/><path d="M98.183,260.464l.1.1-.1-.1" transform="translate(-83.963 -217.425)" fill="#294189"/><path d="M149.688,148.451h1.831v2.189H149.7q0-1.095-.009-2.189" transform="translate(-126.935 -123.969)" fill="#294189"/><path d="M147.933,148.451q0,1.095.009,2.189c-.117-.071-.332-.136-.336-.213-.029-.588-.029-1.179,0-1.767,0-.075.214-.14.329-.21" transform="translate(-125.18 -123.969)" fill="#3a579e"/><path d="M222.593,243.1a9.834,9.834,0,0,1-8.726-1.731,10.268,10.268,0,0,1-3.8-11.018,10.374,10.374,0,0,1,8.743-7.557,8.65,8.65,0,0,1,3.917.3,6.949,6.949,0,0,0,.573.448,10.892,10.892,0,0,1,3.978,4.378,11.039,11.039,0,0,1,1.159,6.509,11.25,11.25,0,0,1-4.108,7.427c-.473.4-.956.784-1.435,1.175l-.013.005-.289.06M221,227.946c0-.6,0-1.2,0-1.8,0-.784-.332-1.187-.945-1.174-.581.013-.911.421-.915,1.157-.006,1.239.013,2.479-.017,3.717a.752.752,0,0,1-.335.537,2.988,2.988,0,1,0,3.984,3.988.775.775,0,0,1,.539-.335c.638-.043,1.281.006,1.92-.028a.927.927,0,0,0,.911-.975.905.905,0,0,0-.945-.868c-.6-.02-1.2-.025-1.8,0a.624.624,0,0,1-.667-.388c-.2-.372-.451-.848-.8-.987-1.019-.409-1-1.187-.94-2.041.02-.267,0-.537,0-.805" transform="translate(-177.005 -185.919)" fill="#e9f3fa"/><path d="M288.5,245.022c.478-.391.961-.778,1.435-1.175a11.25,11.25,0,0,0,4.108-7.427,11.037,11.037,0,0,0-1.159-6.509,10.892,10.892,0,0,0-3.978-4.378,6.974,6.974,0,0,1-.573-.448,9.826,9.826,0,0,1,6.221,4.644,10.36,10.36,0,0,1-5.576,15.171c-.155.052-.318.082-.477.122" transform="translate(-242.612 -187.907)" fill="#d0d9f7"/><path d="M287.521,345.519l.289-.06-.289.06" transform="translate(-241.934 -288.339)" fill="#d0d9f7"/><path d="M258.23,239.388c0,.269.017.538,0,.805-.064.854-.079,1.632.94,2.041.346.139.6.616.8.987a.624.624,0,0,0,.667.388c.6-.025,1.2-.02,1.8,0a.905.905,0,0,1,.945.868.927.927,0,0,1-.911.975c-.639.034-1.282-.015-1.92.028a.775.775,0,0,0-.539.335,2.987,2.987,0,1,1-3.984-3.988.751.751,0,0,0,.334-.537c.029-1.238.011-2.478.017-3.717,0-.736.334-1.144.915-1.157.613-.013.94.39.945,1.174,0,.6,0,1.2,0,1.8m-.906,6.244a1.128,1.128,0,0,0,1.113-1.094,1.17,1.17,0,0,0-1.144-1.143,1.128,1.128,0,0,0-1.093,1.175,1.078,1.078,0,0,0,1.124,1.062" transform="translate(-214.239 -197.362)" fill="#030303"/><path d="M266.753,280.778a1.078,1.078,0,0,1-1.124-1.062,1.128,1.128,0,0,1,1.093-1.175,1.17,1.17,0,0,1,1.144,1.143,1.128,1.128,0,0,1-1.113,1.094" transform="translate(-223.668 -232.507)" fill="#f7d63e"/></g></g></g></svg>