<svg xmlns="http://www.w3.org/2000/svg" width="54" height="48" viewBox="0 0 54 48">
  <g id="Grupo_957168" data-name="Grupo 957168" transform="translate(9624 8402)">
    <rect id="Rectángulo_52993" data-name="Rectángulo 52993" width="54" height="48" transform="translate(-9624 -8402)" fill="none"/>
    <g id="Grupo_957169" data-name="Grupo 957169" transform="translate(-9619.192 -8400.289)">
      <g id="Grupo_957165" data-name="Grupo 957165" transform="translate(0.67 0.773)">
        <path id="Trazado_157450" data-name="Trazado 157450" d="M249.556,43.805a8.77,8.77,0,0,1,.427-3.181,9.015,9.015,0,0,1,2.977-3.925c.206-.167.419-.326.679-.527-2.371-1.731-4.07-3.857-4.075-6.941s1.659-5.207,4.08-6.939c-2.391-1.742-4.082-3.875-4.08-6.961s1.7-5.19,4.086-6.924c-2.622-1.889-4.29-4.243-4.073-7.615h4.139c.017.038.039.062.036.085a4.021,4.021,0,0,0,1.857,3.76c.562.414,1.145.8,1.727,1.187a.392.392,0,0,0,.326.06,11.664,11.664,0,0,0,2.837-2.2,3.372,3.372,0,0,0,.831-2.355c0-.167,0-.333,0-.555h4.2V2.538a1.19,1.19,0,0,0-.106.245,7.623,7.623,0,0,1-2.175,4.066c-.551.549-1.156,1.043-1.741,1.566a.115.115,0,0,0,.028.053c.153.122.309.239.462.36a8.965,8.965,0,0,1,3.1,4.023c.178.5.291,1.025.434,1.538v2.017a.89.89,0,0,0-.1.205,8.1,8.1,0,0,1-2.819,4.732c-.365.319-.748.618-1.114.92.009.036.007.054.016.061.175.139.351.277.526.416a8.883,8.883,0,0,1,3.073,4.056c.164.478.277.973.413,1.461v2.017c-.073.26-.152.518-.219.78a8.69,8.69,0,0,1-3.3,4.678c-.181.142-.365.281-.565.435.239.185.428.328.614.476a8.856,8.856,0,0,1,3.047,4.023c.165.477.28.972.417,1.459v1.681h-4.2a3.787,3.787,0,0,0-.952-3.067,13.477,13.477,0,0,0-2.861-2.149c-.638.449-1.271.883-1.893,1.334a4.045,4.045,0,0,0-1.858,3.882Zm10.592-5.141a6.116,6.116,0,0,1,2.5,3.56.3.3,0,0,0,.222.177c.4.018.8.008,1.222.008a6.647,6.647,0,0,0-2.681-4.49c-.339-.265-.67-.541-1.022-.787a.413.413,0,0,0-.36-.014c-.378.2-.738.441-1.146.69l1.269.856m-5.157-32.7a6.072,6.072,0,0,1-2.549-3.614.266.266,0,0,0-.188-.169c-.414-.016-.828-.008-1.258-.008a6.533,6.533,0,0,0,2.685,4.487c.34.265.673.54,1.026.786a.414.414,0,0,0,.362.017c.375-.2.732-.44,1.128-.685l-1.206-.814m-1.32,14.568,1.2.951,1.333-.817-1.27-.872c-.276-.237-.56-.466-.826-.713a4.865,4.865,0,0,1-1.6-4.85,5.409,5.409,0,0,1,2.387-3.237c1.253-.888,2.574-1.682,3.88-2.494a16.177,16.177,0,0,0,3.862-3,5.916,5.916,0,0,0,1.459-3.3h-1.409a5.936,5.936,0,0,1-2.863,3.921c-1.14.783-2.357,1.454-3.505,2.226a30.244,30.244,0,0,0-3.218,2.337,6.222,6.222,0,0,0,.578,9.85m6.479,4.259c.254.219.515.432.762.659a4.886,4.886,0,0,1,1.645,5.027,5.44,5.44,0,0,1-2.36,3.114c-1.255.886-2.575,1.682-3.879,2.5a16.151,16.151,0,0,0-3.861,3A5.935,5.935,0,0,0,251,42.411h1.381a6.15,6.15,0,0,1,2.93-3.973c1.13-.773,2.334-1.438,3.47-2.2a29.523,29.523,0,0,0,3.249-2.366,6.218,6.218,0,0,0-.612-9.82c-.351-.275-.7-.555-1.056-.821a.293.293,0,0,0-.254-.041c-.4.227-.794.472-1.217.728l1.262.872m-.027-13.918c.284.247.574.489.851.743a4.915,4.915,0,0,1-.492,7.874c-1.591,1.133-3.289,2.116-4.915,3.2a20.734,20.734,0,0,0-2.478,1.859,6.235,6.235,0,0,0,.574,9.852c.359.281.714.567,1.081.837a.287.287,0,0,0,.253.024c.4-.224.781-.466,1.2-.722l-1.235-.837c-.263-.229-.532-.452-.788-.688a4.9,4.9,0,0,1-1.661-4.981,5.4,5.4,0,0,1,2.362-3.156c1.3-.914,2.691-1.7,4.011-2.593a28.7,28.7,0,0,0,3.139-2.3,6.224,6.224,0,0,0-.6-9.812c-.35-.273-.7-.549-1.051-.814-.067-.049-.2-.095-.253-.063-.4.228-.8.476-1.233.741l1.235.831M254.5,31.317a11.077,11.077,0,0,0,2.926,2.339.33.33,0,0,0,.291-.036c.774-.551,1.546-1.1,2.3-1.679a5.4,5.4,0,0,0,.607-.662h-4.1V29.931h4.74V28.538H253.81v1.408h1.282v1.344l-.587.028m-.7-15.282h7.467V14.628h-1.282V13.292l.58-.044a11.17,11.17,0,0,0-2.917-2.319.387.387,0,0,0-.324.054c-.539.35-1.086.691-1.593,1.083-.438.34-.826.744-1.237,1.12l.076.107h3.971v1.371h-4.741Zm.694,11.091h6.069a11.111,11.111,0,0,0-2.9-2.318.289.289,0,0,0-.254,0,11.257,11.257,0,0,0-2.913,2.314m6.052-9.672h-5.987l-.075.124c.708.559,1.395,1.148,2.129,1.67.916.653.94.639,1.876-.006a8.241,8.241,0,0,0,2.057-1.789" transform="translate(-222.482 -0.773)" fill="#030202"/>
        <path id="Trazado_157451" data-name="Trazado 157451" d="M3.454,78.01c-.262-.112-.532-.21-.786-.338A3.65,3.65,0,0,1,.947,72.948C2.3,69.089,3.634,65.225,5.01,61.375A8.015,8.015,0,0,0,5.019,55.8Q2.961,50.022.957,44.226a3.759,3.759,0,0,1,.569-3.871,3.409,3.409,0,0,1,5.786.992C7.877,43,8.279,44.7,8.741,46.381c.632,2.3,1.249,4.609,1.881,6.911a2.1,2.1,0,0,0,.3.683,1.026,1.026,0,0,0,1.079.4,1.081,1.081,0,0,0,.869-.816c.258-.9.5-1.8.748-2.7q1.227-4.506,2.452-9.013A3.466,3.466,0,1,1,22.8,43.508c-.477,1.646-1.078,3.257-1.641,4.878q-1.312,3.776-2.646,7.545a7.746,7.746,0,0,0,0,5.3q2.042,5.805,4.075,11.613a3.953,3.953,0,0,1-.157,3.4,3.276,3.276,0,0,1-2.375,1.687.436.436,0,0,0-.127.075H18.835a1.3,1.3,0,0,0-.21-.1,3.471,3.471,0,0,1-2.55-2.583q-1.192-4.341-2.367-8.687c-.272-1-.537-2-.824-2.987a1.131,1.131,0,0,0-1.11-.908,1.166,1.166,0,0,0-1.095.934c-.028.094-.054.188-.08.282Q9.047,69.636,7.5,75.312a3.465,3.465,0,0,1-1.689,2.245,8.864,8.864,0,0,1-1.18.453Zm1.438-1.589v0a1.853,1.853,0,0,0,1.254-1.443c.845-3.084,1.665-6.175,2.536-9.251a12.21,12.21,0,0,1,1.171-3.516l-.006,0,.095-.086a2.561,2.561,0,0,1,4.34,1.276c.618,2.408,1.3,4.8,1.949,7.2.4,1.456.788,2.913,1.189,4.367A2.023,2.023,0,0,0,20.012,76.5a1.7,1.7,0,0,0,.279-.074,2.225,2.225,0,0,0,1.131-2.693c-.16-.623-.16-.623-.829-.575H19.447V71.79l.565-.033h.711c-.188-.544-.392-1.031-.521-1.537-.115-.447-.329-.644-.789-.517H18.057V68.3l.78-.037H19.5c-.181-.523-.389-1.006-.509-1.509a.6.6,0,0,0-.829-.513H16.676V64.806h1.607c-.06-.191-.1-.336-.151-.478q-.47-1.346-.943-2.691a8.566,8.566,0,0,1-.26-5.238c.335-1.21.8-2.384,1.2-3.575.051-.15.092-.3.157-.518l-.7.041-.916-.05V50.929h1.483c.226-.043.6-.019.654-.139.276-.612.469-1.261.7-1.921h-.678l-.781-.035V47.451h1.355c.231,0,.525.186.653-.15.232-.609.433-1.229.664-1.894h-.708l-.565-.032v-1.4H20.6c.672.044.673.044.832-.609.026-.108.049-.217.065-.327a2.082,2.082,0,0,0-1.4-2.357.541.541,0,0,0-.109-.06,2.048,2.048,0,0,0-2.575,1.587Q15.847,47.92,14.3,53.64a2.749,2.749,0,0,1-1.556,1.954.586.586,0,0,0-.262.434c-.03.608-.012,1.219-.012,1.839H11.1c0-.639.012-1.253-.009-1.865a.569.569,0,0,0-.205-.385c-.278-.206-.586-.37-.882-.552l-.078-.077h0A8.514,8.514,0,0,1,9.3,53.677c-.627-2.2-1.212-4.413-1.815-6.621q-.666-2.444-1.338-4.886A1.884,1.884,0,0,0,4.93,40.739l-.026,0-.113-.045a3.54,3.54,0,0,0-.972-.121,2.2,2.2,0,0,0-1.575,3.118.369.369,0,0,0,.417.3c.484-.017.97-.005,1.449-.005v1.42H2.852c.186.536.387,1.014.513,1.512a.633.633,0,0,0,.784.568c.451-.045.911-.01,1.372-.01V48.86H4.064c.213.618.42,1.179.6,1.748a.407.407,0,0,0,.473.342c.583-.022,1.167-.007,1.752-.007v1.409h-1.6c.336.967.629,1.885.973,2.784a9.282,9.282,0,0,1,0,6.88c-.349.909-.643,1.839-.979,2.808H6.894v1.4c-.608,0-1.193-.007-1.778.005-.125,0-.331.04-.361.117-.243.619-.454,1.252-.7,1.943H5.522v1.4H3.569c-.225.647-.441,1.266-.655,1.886a2.151,2.151,0,0,0-.044.216H4.111v1.36c-.506,0-.981.009-1.455,0-.213-.006-.362.045-.387.273a6.39,6.39,0,0,0-.137,1.525A1.974,1.974,0,0,0,4.714,76.5l.178-.08" transform="translate(-0.67 -34.978)" fill="#020303"/>
        <path id="Trazado_157457" data-name="Trazado 157457" d="M272.805,87.2a6.224,6.224,0,0,1,.6,9.812,28.716,28.716,0,0,1-3.139,2.3c-1.32.89-2.709,1.678-4.011,2.593a5.4,5.4,0,0,0-2.362,3.156,4.9,4.9,0,0,0,1.66,4.981c.257.236.525.459.789.688l-1.3.7a6.235,6.235,0,0,1-.574-9.852,20.739,20.739,0,0,1,2.478-1.859c1.626-1.086,3.323-2.069,4.915-3.2a4.915,4.915,0,0,0,.492-7.874c-.277-.255-.567-.5-.851-.743l1.3-.7" transform="translate(-233.862 -77.802)" fill="#f9a52e"/>
        <path id="Trazado_157458" data-name="Trazado 157458" d="M273.235,214.752a6.218,6.218,0,0,1,.612,9.82,29.509,29.509,0,0,1-3.249,2.366c-1.136.765-2.34,1.43-3.47,2.2a6.151,6.151,0,0,0-2.93,3.973h-1.381a5.935,5.935,0,0,1,1.46-3.326,16.149,16.149,0,0,1,3.861-3c1.3-.814,2.624-1.61,3.879-2.5a5.44,5.44,0,0,0,2.36-3.114,4.886,4.886,0,0,0-1.645-5.027c-.247-.227-.507-.44-.762-.659l1.264-.739" transform="translate(-234.302 -191.477)" fill="#faa52e"/>
        <path id="Trazado_157459" data-name="Trazado 157459" d="M265.036,32.164a6.222,6.222,0,0,1-.578-9.85,30.256,30.256,0,0,1,3.218-2.337c1.148-.772,2.365-1.444,3.505-2.226a5.936,5.936,0,0,0,2.863-3.921h1.409a5.916,5.916,0,0,1-1.459,3.3,16.177,16.177,0,0,1-3.861,3c-1.306.812-2.627,1.606-3.88,2.494a5.408,5.408,0,0,0-2.387,3.237,4.865,4.865,0,0,0,1.6,4.85c.266.248.55.476.826.713l-1.26.738" transform="translate(-233.848 -12.409)" fill="#faa52e"/>
        <path id="Trazado_157464" data-name="Trazado 157464" d="M265.5,18.078a6.533,6.533,0,0,1-2.685-4.487c.43,0,.844-.008,1.258.008a.266.266,0,0,1,.188.169,6.073,6.073,0,0,0,2.549,3.614l-1.31.7" transform="translate(-234.299 -12.195)" fill="#faa52e"/>
        <path id="Trazado_157465" data-name="Trazado 157465" d="M348.209,342.278a6.647,6.647,0,0,1,2.681,4.49c-.42,0-.822.01-1.222-.008a.3.3,0,0,1-.222-.177,6.116,6.116,0,0,0-2.5-3.56l1.259-.745" transform="translate(-309.284 -305.131)" fill="#faa52e"/>
        <path id="Trazado_157466" data-name="Trazado 157466" d="M287.4,176.344l1.26-.738,1.27.872-1.333.817-1.2-.951" transform="translate(-256.212 -156.589)" fill="#f87d30"/>
        <path id="Trazado_157467" data-name="Trazado 157467" d="M287.335,304.214l1.3-.7,1.235.837c-.422.256-.808.5-1.2.722a.287.287,0,0,1-.253-.024c-.367-.271-.722-.557-1.081-.837" transform="translate(-256.154 -270.587)" fill="#f87d30"/>
        <path id="Trazado_157468" data-name="Trazado 157468" d="M337.9,79.933l-1.3.7-1.235-.831c.436-.266.829-.514,1.233-.741.056-.032.187.013.253.063.356.264.7.541,1.051.814" transform="translate(-298.959 -70.532)" fill="#f87d30"/>
        <path id="Trazado_157469" data-name="Trazado 157469" d="M337.81,335.431l-1.259.745-1.269-.856c.407-.249.768-.486,1.146-.69a.413.413,0,0,1,.36.014c.352.246.683.522,1.022.787" transform="translate(-298.885 -298.284)" fill="#f87d30"/>
        <path id="Trazado_157470" data-name="Trazado 157470" d="M337.889,207.574l-1.264.739-1.262-.872c.423-.256.815-.5,1.217-.728a.292.292,0,0,1,.254.04c.358.266.7.546,1.056.821" transform="translate(-298.957 -184.299)" fill="#f97d30"/>
        <path id="Trazado_157471" data-name="Trazado 157471" d="M287.495,49.157l1.31-.7,1.206.814c-.4.244-.753.48-1.129.685a.415.415,0,0,1-.361-.017c-.354-.245-.686-.521-1.026-.786" transform="translate(-256.296 -43.274)" fill="#f87d30"/>
        <path id="Trazado_157472" data-name="Trazado 157472" d="M30.277,79.574l-.78.037v1.4h1.356c.062.225.12.45.186.673.136.461.276.92.414,1.38l-.565.034v1.373h1.145a3.287,3.287,0,0,1-.581,3.341,2.023,2.023,0,0,1-2.593-1.528c-.4-1.454-.793-2.911-1.189-4.367-.652-2.4-1.331-4.792-1.949-7.2a2.561,2.561,0,0,0-4.34-1.276l-.095.086.006,0c-.723.092-1.027.614-1.21,1.224-.264.88-.493,1.771-.735,2.658-.654,2.392-1.289,4.789-1.968,7.173-.3,1.065-.7,2.1-1.047,3.155v0l-.178.08a1.974,1.974,0,0,1-2.582-1.562,6.389,6.389,0,0,1,.137-1.525c.025-.228.174-.279.387-.273.474.013.949,0,1.455,0V83.1H14.309a2.129,2.129,0,0,1,.045-.216c.214-.62.43-1.239.655-1.886h1.953V79.6H15.5c.243-.691.453-1.324.7-1.943.03-.076.235-.114.361-.116.585-.012,1.17-.005,1.778-.005v-1.4H16.714c.336-.969.629-1.9.979-2.808a9.283,9.283,0,0,0,0-6.88c-.344-.9-.637-1.816-.973-2.784h1.6v-1.41c-.584,0-1.169-.016-1.752.007a.407.407,0,0,1-.473-.342c-.177-.57-.383-1.13-.6-1.748H16.96V58.791c-.461,0-.92-.035-1.372.01a.633.633,0,0,1-.784-.568c-.126-.5-.328-.976-.513-1.512H15.55V55.3c-.479,0-.965-.012-1.449.005a.368.368,0,0,1-.417-.3,2.2,2.2,0,0,1,1.575-3.118,3.541,3.541,0,0,1,.973.121l.113.045h.025a2.954,2.954,0,0,0,.1.333,7.2,7.2,0,0,1,.386.874c.616,2.213,1.215,4.43,1.818,6.647.464,1.706.915,3.415,1.391,5.118A1.617,1.617,0,0,0,21.36,66.3h0l.078.077c.3.181.6.346.882.552a.57.57,0,0,1,.205.385c.022.613.01,1.226.01,1.865h1.374c0-.62-.018-1.231.012-1.839a.586.586,0,0,1,.262-.434,2.749,2.749,0,0,0,1.556-1.954q1.54-5.722,3.112-11.435a2.048,2.048,0,0,1,2.575-1.587.553.553,0,0,1,.109.061,3.472,3.472,0,0,1,.5,3.292H30.89v1.4l.565.032c-.032.146-.054.295-.1.437-.166.537-.34,1.072-.511,1.608H29.492v1.383l.781.035L29.6,62.239H28.115v1.368l.916.05c-.046.175-.081.353-.139.524-.337.989-.706,1.969-1.01,2.968a10.734,10.734,0,0,0-.449,2.028,9.417,9.417,0,0,0,.742,4.365c.325.841.566,1.715.845,2.574h-.9v1.435H29.6l.675,2.022" transform="translate(-12.11 -46.288)" fill="#47c196"/>
        <path id="Trazado_157473" data-name="Trazado 157473" d="M44.819,67.986a1.617,1.617,0,0,1-1.293-1.276c-.476-1.7-.927-3.412-1.391-5.118-.6-2.216-1.2-4.434-1.818-6.647a7.221,7.221,0,0,0-.386-.874,2.958,2.958,0,0,1-.1-.333,1.883,1.883,0,0,1,1.217,1.431q.675,2.441,1.338,4.886c.6,2.208,1.188,4.421,1.815,6.621a8.513,8.513,0,0,0,.621,1.309" transform="translate(-35.569 -47.977)" fill="#109e93"/>
        <path id="Trazado_157474" data-name="Trazado 157474" d="M39.479,265.4c.352-1.051.744-2.09,1.047-3.155.679-2.384,1.314-4.781,1.968-7.173.242-.887.471-1.777.735-2.658.183-.61.487-1.133,1.21-1.224a12.212,12.212,0,0,0-1.171,3.516c-.871,3.076-1.69,6.167-2.536,9.251a1.853,1.853,0,0,1-1.254,1.443" transform="translate(-35.258 -223.948)" fill="#109e93"/>
        <path id="Trazado_157475" data-name="Trazado 157475" d="M142.83,172.587c-.279-.859-.521-1.732-.845-2.574a9.416,9.416,0,0,1-.742-4.365,10.742,10.742,0,0,1,.449-2.028c.3-1,.673-1.979,1.01-2.968.058-.17.093-.349.139-.524l.7-.041c-.065.215-.106.368-.158.518-.405,1.191-.87,2.365-1.2,3.575a8.566,8.566,0,0,0,.26,5.238q.475,1.344.943,2.691c.05.142.091.288.151.478Z" transform="translate(-125.92 -142.758)" fill="#109e92"/>
        <path id="Trazado_157476" data-name="Trazado 157476" d="M178.481,355.009a3.287,3.287,0,0,0,.581-3.341c.669-.048.669-.048.829.575a2.225,2.225,0,0,1-1.131,2.693,1.683,1.683,0,0,1-.279.074" transform="translate(-159.14 -313.483)" fill="#109d91"/>
        <path id="Trazado_157477" data-name="Trazado 157477" d="M179.763,56.478a3.472,3.472,0,0,0-.5-3.292,2.082,2.082,0,0,1,1.4,2.356c-.016.11-.038.219-.064.327-.159.653-.16.653-.832.609" transform="translate(-159.835 -47.485)" fill="#109d92"/>
        <path id="Trazado_157478" data-name="Trazado 157478" d="M161.445,130.538l.675-2.061h.678c-.23.66-.423,1.31-.7,1.921-.054.12-.428.1-.654.139" transform="translate(-143.957 -114.586)" fill="#0f9d91"/>
        <path id="Trazado_157479" data-name="Trazado 157479" d="M172.924,98.691c.171-.536.344-1.071.511-1.608.044-.142.066-.291.1-.437h.708c-.231.665-.432,1.286-.664,1.894-.128.336-.422.152-.653.15" transform="translate(-154.187 -86.218)" fill="#129a8e"/>
        <path id="Trazado_157480" data-name="Trazado 157480" d="M173.578,321.757c-.138-.46-.278-.919-.414-1.38-.066-.223-.124-.449-.185-.673.46-.127.674.07.789.517.13.506.333.993.521,1.536Z" transform="translate(-154.236 -284.978)" fill="#119c90"/>
        <path id="Trazado_157481" data-name="Trazado 157481" d="M162.154,289.965l-.675-2.022a.6.6,0,0,1,.829.513c.12.5.329.985.51,1.509Z" transform="translate(-143.987 -256.68)" fill="#109f93"/>
        <path id="Trazado_157482" data-name="Trazado 157482" d="M37.841,381.861l.178-.08-.178.08" transform="translate(-33.798 -340.337)" fill="#109e93"/>
        <path id="Trazado_157483" data-name="Trazado 157483" d="M85.027,250.5l.095-.086-.095.086" transform="translate(-75.851 -223.255)" fill="#109e93"/>
        <path id="Trazado_157484" data-name="Trazado 157484" d="M38.669,53.378l-.113-.045.113.045" transform="translate(-34.435 -47.616)" fill="#109e93"/>
        <path id="Trazado_157485" data-name="Trazado 157485" d="M85.8,184.809l-.078-.077.078.077" transform="translate(-76.467 -164.722)" fill="#109e93"/>
      </g>
    </g>
  </g>
</svg>
