<svg xmlns="http://www.w3.org/2000/svg" width="45.319" height="37.782" viewBox="0 0 45.319 37.782"><g transform="translate(-11.874 -42.558)"><g transform="translate(11.874 42.558)"><path d="M18.66,61.693v-.831c-.841.355-1.637.664-2.408,1.025-.708.332-.994.274-1.386-.4q-.627-1.079-1.249-2.16c-.4-.689-.3-1.005.411-1.4a14.305,14.305,0,0,1,4.623-1.593c.007-.127.019-.249.019-.371q0-4.294,0-8.588c0-.21.036-.392-.238-.534a2.194,2.194,0,0,1-1.2-2.554,2.24,2.24,0,0,1,2.288-1.727q10.1,0,20.193,0a2.653,2.653,0,0,1,.47.029,2.277,2.277,0,0,1,1.889,2.164,2.253,2.253,0,0,1-1.753,2.269c-.121.03-.242.057-.406.1L41.16,57.07h2.426V50.555c0-1.033.163-1.2,1.2-1.2h.329a5.951,5.951,0,0,1,1.7-3.531l1.054,1.049a4.357,4.357,0,0,0-1.2,2.441.351.351,0,0,0,.07.028c1.359.093,1.372.108,1.372,1.467v6.507c.184.014.35.033.517.04q3.794.151,7.589.3c.726.028.988.3.942,1.032-.243,3.924-.461,7.85-.778,11.767a2.867,2.867,0,0,0,.279,1.416,5.8,5.8,0,0,1-1.005,6.379,5.666,5.666,0,0,1-6.191,1.816,5.783,5.783,0,0,1-4.294-4.872,5.958,5.958,0,0,1,.7-3.9H39.812c0,.92,0,1.843,0,2.766,0,.713-.256.973-.957.974q-2.052,0-4.1,0c-.732,0-.976-.252-.977-1,0-.909,0-1.819,0-2.751h-3.79a9.036,9.036,0,0,1-4.488,7.044,8.653,8.653,0,0,1-5.381,1.2A9.078,9.078,0,0,1,18.66,61.693m18.887,8.788h.723V69H35.316v1.478Zm0-4.5H35.316v1.478h2.955V65.982ZM54.134,69l.856.6v-.615c.034-.492.069-.985.106-1.52H51.168V65.944H55.18l.108-1.5H51.162V62.937h4.213v-.719c-1.539,0-3.062-.064-4.576.023a2,2,0,0,0-1.857,1.793,9.013,9.013,0,0,0,0,2.343,2.086,2.086,0,0,0,1.985,1.832A7.654,7.654,0,0,1,54.134,69M23.223,47.1v9.226l.734.137c0-.83,0-1.615,0-2.4,0-.673.265-.93.949-.933q1.32,0,2.641,0c.6,0,.8.157.955.752.432,1.7.856,3.407,1.3,5.107a.939.939,0,0,0,.28.459A14.52,14.52,0,0,1,33.915,64.4c.032.067.078.126.06.1h2.817c0-1.379,0-2.68-.008-3.981a.412.412,0,0,0-.189-.279c-.761-.466-1.529-.92-2.323-1.393l-.563,1.361-1.39-.569,1.508-3.764,1.39.56-.372.992,1.878,1.122.157-.058L35.383,47.1ZM38.318,64.456h.41c.874.007,1.083.216,1.083,1.086q0,1.7,0,3.4v.8c2.426,0,4.784,0,7.142,0a.5.5,0,0,0,.264-.067c.451-.3.9-.614,1.342-.923a3.976,3.976,0,0,1-1.2-3.214c0-.393-.006-.787,0-1.18a3.744,3.744,0,0,1,3.044-3.589,6.2,6.2,0,0,1,1.077-.082c1.332-.009,2.665,0,4.043,0L55.6,59.14l-17.283-.69ZM21.7,64.428H20.176v-1.5l-2.351.634.728,1.339-1.28.738-.791-1.306-1.7,1.727,1.3.78-.75,1.28L14,67.374l-.624,2.375h1.49v1.527h-1.5l.649,2.335,1.317-.729.754,1.282-1.311.78,1.724,1.713.781-1.3,1.281.759c-.139.246-.248.435-.354.626s-.217.4-.379.7l2.366.627v-1.5H21.7v1.5l2.351-.635L23.323,76.1l1.28-.741.789,1.305,1.7-1.726-1.3-.78.749-1.278,1.333.738.624-2.372h-1.49V69.718H28.5l-.628-2.344-1.326.742-.755-1.286,1.312-.78L25.38,64.338l-.781,1.3-1.273-.753.719-1.333-2.345-.62Zm-5.768-4.113a11.152,11.152,0,0,1,10.65.386,11.16,11.16,0,0,1,5.673,9h1.481A12.8,12.8,0,0,0,15.207,59.057l.725,1.258M29.566,45.578q5.02,0,10.041,0c.6,0,.945-.267.956-.737.011-.485-.343-.768-.968-.772H19.8c-.157,0-.355-.054-.463.02-.24.165-.553.366-.612.608a1.024,1.024,0,0,0,.326.746c.119.127.407.13.62.13q4.95.011,9.9.005M48.148,75.14l.736,1.288L47.62,77.2l1.26,1.035L49.4,76.86l1.393.506-.462,1.364h1.6l-.455-1.371,1.386-.488.544,1.378,1.233-1.066-1.261-.758.744-1.28,1.3.714.274-1.617-1.455.236-.263-1.463,1.457-.286-.822-1.421-.975,1.128-1.131-.964.931-1.146-1.557-.575v1.465H50.358V69.754l-1.529.582.933,1.141-1.139.955-.979-1.127-.807,1.428,1.455.285-.276,1.461-1.464-.235.3,1.617,1.293-.722M36.9,47.1l1.311,9.819L39.629,57,38.391,47.1ZM20.214,56.117h1.439V47.1H20.214Zm10.474,13.6a9.713,9.713,0,0,0-10.47-8.966v.7a9.12,9.12,0,0,1,9.751,8.268ZM46.569,57.274v-6.38H45.129v6.292l1.439.088M27.96,57.92l-.814-3.246H25.468c0,.69-.008,1.346.009,2a.372.372,0,0,0,.187.269c.739.326,1.487.634,2.3.975M38.287,72.031H35.305v1.463h2.982Z" transform="translate(-11.874 -42.558)" fill="#020102"/><path d="M221.668,174.641v-6.007l17.283.69-.072,1.541c-1.379,0-2.711-.006-4.043,0a6.2,6.2,0,0,0-1.077.082,3.744,3.744,0,0,0-3.044,3.589c-.01.393,0,.787,0,1.18a3.976,3.976,0,0,0,1.2,3.214c-.447.309-.891.621-1.342.923a.5.5,0,0,1-.264.067c-2.358,0-4.715,0-7.142,0v-.8q0-1.7,0-3.4c0-.87-.21-1.079-1.083-1.086h-.41m5.244-4.5h-2.963V171.6h2.963Zm-2.972,3.72H226.9v-1.463H223.94Zm.01,2.255h2.959v-1.452H223.95Z" transform="translate(-195.224 -152.742)" fill="#de4445"/><path d="M32.008,205.638v-1.5l2.345.62-.719,1.333,1.273.753.781-1.3,1.726,1.712-1.312.78.755,1.286,1.326-.742.628,2.344h-1.49v1.527h1.489l-.624,2.372-1.333-.738-.749,1.278,1.295.78-1.7,1.726-.789-1.305-1.279.741.726,1.335-2.351.635v-1.5H30.5v1.5l-2.367-.627c.162-.3.269-.5.379-.7s.215-.38.354-.626l-1.281-.759-.781,1.3-1.724-1.713,1.311-.781-.754-1.282-1.317.729-.649-2.335h1.5v-1.527H23.68l.624-2.375,1.332.742.75-1.28-1.3-.78,1.7-1.727.791,1.306,1.28-.738-.728-1.339,2.351-.634v1.5Zm-.784,10.6a4.53,4.53,0,1,0-4.509-4.55,4.544,4.544,0,0,0,4.509,4.55" transform="translate(-22.182 -183.768)" fill="#67717d"/><path d="M39.043,165l-.725-1.258a12.8,12.8,0,0,1,18.529,10.646H55.366A11.4,11.4,0,0,0,39.043,165" transform="translate(-34.985 -147.238)" fill="#dc4345"/><path d="M76.978,55.926q-4.949,0-9.9-.005c-.213,0-.5,0-.62-.13a1.024,1.024,0,0,1-.326-.746c.06-.242.373-.443.612-.608.108-.074.306-.02.463-.02h19.8c.625,0,.979.287.968.772-.011.47-.351.737-.956.737q-5.02,0-10.041,0" transform="translate(-59.286 -52.905)" fill="#df4446"/><path d="M288.581,263.7l-1.293.722-.3-1.617,1.464.235.276-1.461-1.455-.285.808-1.428.979,1.127,1.139-.955-.933-1.141,1.529-.582v1.463h1.531v-1.465l1.557.575-.931,1.146,1.131.964.975-1.128.822,1.421-1.457.286.263,1.463,1.455-.236-.274,1.617-1.3-.714-.744,1.28,1.261.758-1.233,1.066-.544-1.378-1.385.488.455,1.371h-1.6l.462-1.364-1.393-.506-.524,1.375-1.26-1.035,1.264-.773-.736-1.288m5.251-.878a2.263,2.263,0,1,0-2.278,2.272,2.279,2.279,0,0,0,2.278-2.272" transform="translate(-252.307 -231.118)" fill="#65707b"/><path d="M310.594,205.152a7.655,7.655,0,0,0-3.212-.793,2.085,2.085,0,0,1-1.985-1.832,9.01,9.01,0,0,1,0-2.343,2,2,0,0,1,1.857-1.792c1.514-.087,3.037-.023,4.577-.023v.719h-4.213v1.505h4.127l-.108,1.5h-4.012v1.523h3.928c-.037.536-.072,1.028-.106,1.52l-.856.013" transform="translate(-268.334 -178.709)" fill="#67727e"/><path d="M210.412,78.63H211.9l1.238,9.891-1.419-.072-1.311-9.819" transform="translate(-185.387 -74.083)" fill="#cfdfea"/><rect width="1.439" height="9.014" transform="translate(8.34 4.545)" fill="#68737f"/><path d="M88.536,195.476h-.719a9.12,9.12,0,0,0-9.751-8.268v-.7a9.713,9.713,0,0,1,10.47,8.966" transform="translate(-69.723 -168.315)" fill="#cf303d"/><path d="M277.144,115.07l-1.439-.088V108.69h1.439Z" transform="translate(-242.45 -100.354)" fill="#67727e"/><path d="M122.2,141.927c-.81-.341-1.557-.649-2.3-.975a.372.372,0,0,1-.187-.269c-.016-.656-.009-1.313-.009-2h1.678l.815,3.246" transform="translate(-106.115 -126.565)" fill="#66717d"/><path d="M200.081,229.877h-2.232V228.4h2.232v1.478" transform="translate(-174.407 -204.974)" fill="#d5323f"/><path d="M200.081,253.84h-2.232v-1.478h2.232v1.478" transform="translate(-174.407 -225.917)" fill="#d5323f"/><path d="M215.556,229.877V228.4h.724v1.478Z" transform="translate(-189.882 -204.974)" fill="#df4446"/><path d="M215.556,253.84v-1.478h.724v1.478Z" transform="translate(-189.882 -225.917)" fill="#df4446"/><path d="M347.146,252.248l.856-.013c0,.168,0,.336,0,.615l-.856-.6" transform="translate(-304.886 -225.806)" fill="#ce3f40"/><rect width="2.963" height="1.463" transform="translate(28.725 17.395)"/><rect width="2.963" height="1.463" transform="translate(28.716 19.652)"/><rect width="2.959" height="1.452" transform="translate(28.726 21.919)"/><path d="M52.349,237.334a4.53,4.53,0,1,1,4.55-4.461,4.538,4.538,0,0,1-4.55,4.461m.03-1.509a3.021,3.021,0,1,0-3.029-3.023,3.032,3.032,0,0,0,3.029,3.023" transform="translate(-43.307 -204.865)" fill="#020202"/><path d="M309.936,278.461a2.263,2.263,0,1,1-2.247-2.253,2.282,2.282,0,0,1,2.247,2.253m-2.247.765a.756.756,0,1,0-.772-.726.762.762,0,0,0,.772.726" transform="translate(-268.411 -246.757)" fill="#010202"/><path d="M62.848,246.292a3.02,3.02,0,1,1,3.01-3.043,3.025,3.025,0,0,1-3.01,3.043m-.011-5.284a.754.754,0,1,0,.756.74.756.756,0,0,0-.756-.74m-1.527,1.51a.754.754,0,1,0,.773.723.756.756,0,0,0-.773-.723m3.033,1.508a.754.754,0,1,0-.747-.748.761.761,0,0,0,.747.748m-1.5,1.51a.754.754,0,1,0-.753-.743.761.761,0,0,0,.753.743" transform="translate(-53.776 -215.333)" fill="#faebd2"/><path d="M318.134,289.676a.756.756,0,1,1,.738-.762.759.759,0,0,1-.738.762" transform="translate(-278.856 -257.207)" fill="#f3e3cc"/><path d="M78.55,246.252A.754.754,0,1,1,77.8,247a.759.759,0,0,1,.751-.744" transform="translate(-69.489 -220.577)" fill="#0c0b0a"/><path d="M66.553,258.231a.754.754,0,1,1-.734.76.759.759,0,0,1,.734-.76" transform="translate(-59.019 -231.046)" fill="#0c0b0a"/><path d="M90.524,259.737a.754.754,0,1,1,.76-.737.759.759,0,0,1-.76.737" transform="translate(-79.957 -231.044)" fill="#0c0b0a"/><path d="M78.55,271.72a.754.754,0,1,1,.755-.742.759.759,0,0,1-.755.742" transform="translate(-69.488 -241.517)" fill="#0c0b0a"/></g></g></svg>