<svg xmlns="http://www.w3.org/2000/svg" width="54" height="48" viewBox="0 0 54 48">
  <g id="Grupo_957174" data-name="Grupo 957174" transform="translate(9624 8402)">
    <rect id="Rectángulo_52993" data-name="Rectángulo 52993" width="54" height="48" transform="translate(-9624 -8402)" fill="none"/>
    <g id="Grupo_957176" data-name="Grupo 957176" transform="translate(-9620 -8400.768)">
      <g id="Grupo_957178" data-name="Grupo 957178" transform="translate(1.027 0.703)">
        <path id="Trazado_157510" data-name="Trazado 157510" d="M324.347,125.971a10.038,10.038,0,0,1-.363,1.425,14.807,14.807,0,0,1-1.06,2.19c-.553.893-1,.88-1.636.05-.526.837-.894,1.862-2.137,1.851-1.217-.011-1.569-1.031-2.109-1.876-.055.083-.083.128-.113.172a.744.744,0,0,1-1.353.04,7.5,7.5,0,0,1-1.543-4.645,7.342,7.342,0,0,1,1.662-4.9,4.36,4.36,0,0,1,7.189.281,7.628,7.628,0,0,1,1.37,3.524,1.241,1.241,0,0,0,.093.252Zm-8.206,1.938c.068-.143.132-.269.189-.4q1.029-2.315,2.06-4.629a1.649,1.649,0,0,1,.277-.479c.4-.412.974-.23,1.254.4.7,1.568,1.4,3.139,2.093,4.709.06.134.127.265.236.49.908-2.572.872-4.915-.919-7a2.823,2.823,0,0,0-4.231-.105,6.438,6.438,0,0,0-.958,7.022m3.031-3.179c-.479,1.085-.905,2.036-1.314,3a.506.506,0,0,0,.019.392q.472.842.986,1.66c.211.337.4.339.612.008.343-.545.67-1.1.993-1.656a.422.422,0,0,0,.061-.315c-.426-.993-.867-1.979-1.357-3.085" transform="translate(-280.252 -105.802)" fill="#030303"/>
        <path id="Trazado_157511" data-name="Trazado 157511" d="M170.01,311.754a2.886,2.886,0,0,0-.411-.168,7.961,7.961,0,0,1-5.917-6.506,4.408,4.408,0,0,1,5.37-5.06,7.954,7.954,0,0,1,6.322,6.37c.186.987-.131,1.323-1.124,1.152.1.409.2.8.28,1.2a1.727,1.727,0,0,1-2.019,2.079c-.42-.069-.833-.182-1.3-.286a.85.85,0,0,1-.421,1.216Zm-.641-1.767c-.067-.215-.1-.361-.158-.5-.6-1.576-1.208-3.153-1.822-4.726a.778.778,0,0,1,1.078-1.077q1.8.7,3.6,1.395c.514.2,1.03.391,1.605.61a1.753,1.753,0,0,0-.056-.227,6.465,6.465,0,0,0-4.952-4.018,2.906,2.906,0,0,0-3.553,3.238,5.476,5.476,0,0,0,1.087,2.853,6.6,6.6,0,0,0,3.17,2.453m-.085-4.4c.424,1.105.808,2.114,1.2,3.118a.358.358,0,0,0,.213.186c.663.174,1.328.343,2,.494.3.069.438-.1.388-.39a7.87,7.87,0,0,1-.2-.831,1.829,1.829,0,0,0-1.6-1.829,17.177,17.177,0,0,1-2-.748" transform="translate(-146.081 -267.624)" fill="#030303"/>
        <path id="Trazado_157512" data-name="Trazado 157512" d="M48.967,42.872c.954-.211,1.928-.675,2.792.176s.434,1.834.2,2.828c.121-.02.209-.033.3-.049a.743.743,0,0,1,.917.832,7.865,7.865,0,0,1-7.683,6.815,4.24,4.24,0,0,1-4.106-4.025,7.313,7.313,0,0,1,2.858-6.069,7.125,7.125,0,0,1,3.581-1.652c.993-.163,1.305.136,1.148,1.144m-1.851.55a6.588,6.588,0,0,0-4.293,5.471,2.95,2.95,0,0,0,3.636,3.081,6.616,6.616,0,0,0,3.831-2.288A5.706,5.706,0,0,0,51.4,47.732c-.143.048-.223.072-.3.1q-2.462.947-4.923,1.9A.78.78,0,0,1,45.1,48.644q.321-.818.638-1.639c.45-1.169.9-2.339,1.376-3.583M47,47.829c1.1-.424,2.08-.8,3.053-1.179a.415.415,0,0,0,.235-.219c.179-.664.351-1.33.5-2,.067-.307-.073-.472-.414-.386a13.557,13.557,0,0,1-1.419.343,1.065,1.065,0,0,0-.968.849c-.266.84-.621,1.652-.983,2.593" transform="translate(-37.016 -37.263)" fill="#030303"/>
        <path id="Trazado_157513" data-name="Trazado 157513" d="M209.807,175.388a4.254,4.254,0,0,1-1.329,2.917,13.034,13.034,0,0,1-8.42,3.737c-.243.018-.485.055-.728.069a.748.748,0,0,1-.875-.815,13.415,13.415,0,0,1,3.843-9.264,4.421,4.421,0,0,1,4.733-.981,4.521,4.521,0,0,1,2.776,4.336m-9.858,5.188.371-.043c.085-.011.17-.026.255-.035a11.348,11.348,0,0,0,6.863-3.236,2.8,2.8,0,0,0,.872-1.912,2.924,2.924,0,0,0-5.031-2.2,11.086,11.086,0,0,0-2.875,5.016c-.2.764-.3,1.558-.455,2.413" transform="translate(-177.147 -152.392)" fill="#030202"/>
        <path id="Trazado_157514" data-name="Trazado 157514" d="M49.607,276.29a4.477,4.477,0,0,1,3.207,1.337,13.1,13.1,0,0,1,3.735,8.465c.015.215.047.428.064.642a.77.77,0,0,1-.862.919,13.307,13.307,0,0,1-9.148-3.794,4.391,4.391,0,0,1,2.535-7.515c.128-.016.256-.034.384-.049a.8.8,0,0,1,.085,0m5.495,9.82c-.1-.639-.166-1.208-.285-1.766a11.265,11.265,0,0,0-3.025-5.646,2.917,2.917,0,0,0-4.856.924,2.98,2.98,0,0,0,.767,3.27,11.968,11.968,0,0,0,3.9,2.47,12.291,12.291,0,0,0,3.5.747" transform="translate(-40.461 -246.548)" fill="#030202"/>
        <path id="Trazado_157515" data-name="Trazado 157515" d="M173.257,9.975a4.419,4.419,0,1,1-8.831.2,12.929,12.929,0,0,1,3.029-8.261c.236-.289.471-.579.717-.859a.77.77,0,0,1,1.285-.021,13.79,13.79,0,0,1,3.56,6.889c.121.675.162,1.365.24,2.048m-4.435-7.39a11.473,11.473,0,0,0-2.923,7.667,2.937,2.937,0,0,0,2.777,2.905,2.885,2.885,0,0,0,2.976-2.272,6.881,6.881,0,0,0,.008-1.962,11.331,11.331,0,0,0-2.838-6.338" transform="translate(-146.791 -0.703)" fill="#030302"/>
        <path id="Trazado_157516" data-name="Trazado 157516" d="M1.027,163.209a7.405,7.405,0,0,1,2.643-5.671A3.28,3.28,0,0,1,8.2,162.231c-.353.415-.7.827-.473,1.415a2.551,2.551,0,0,0,.416.639,3.3,3.3,0,0,1-4.881,4.426,7.847,7.847,0,0,1-2.23-5.5m1.479.112A6.141,6.141,0,0,0,4.135,167.5a1.891,1.891,0,0,0,2.717.271,1.845,1.845,0,0,0,.076-2.657,3.736,3.736,0,0,1-.581-.942,2.635,2.635,0,0,1,.662-2.808,1.78,1.78,0,0,0-.183-2.546,1.821,1.821,0,0,0-2.558.137,6.19,6.19,0,0,0-1.761,4.368" transform="translate(-1.027 -139.999)" fill="#030303"/>
        <path id="Trazado_157517" data-name="Trazado 157517" d="M284.421,270.321c-2.645.095-4.156-1.261-4.25-3.071a3.269,3.269,0,0,1,3.121-3.477,1.2,1.2,0,0,0,1.28-1.3,3.29,3.29,0,0,1,2.94-3.088,3.25,3.25,0,0,1,3.573,2.608,6.2,6.2,0,0,1-.586,3.771,7.369,7.369,0,0,1-6.077,4.56m5.252-7.385a1.833,1.833,0,1,0-3.646-.25,2.6,2.6,0,0,1-2.616,2.549,1.826,1.826,0,1,0,.186,3.645,6.2,6.2,0,0,0,6.076-5.944" transform="translate(-250.041 -231.455)" fill="#040303"/>
        <path id="Trazado_157518" data-name="Trazado 157518" d="M260.442,48.314a3.294,3.294,0,0,1,.378,6.578c-.89.062-1.264.428-1.331,1.3a3.291,3.291,0,0,1-6.573-.332,7.678,7.678,0,0,1,7.525-7.548m-6.05,7.442-.113.04a6.581,6.581,0,0,0,.474,1.291,1.72,1.72,0,0,0,1.93.687,1.807,1.807,0,0,0,1.34-1.607,2.622,2.622,0,0,1,2.66-2.737,1.826,1.826,0,0,0-.11-3.651,6.223,6.223,0,0,0-6.181,5.976" transform="translate(-225.731 -43.173)" fill="#040303"/>
        <path id="Trazado_157519" data-name="Trazado 157519" d="M107.433,153.482a7.759,7.759,0,0,1-7.567,7.734,3.3,3.3,0,0,1-.858-6.514,6.22,6.22,0,0,1,.639-.079,1.187,1.187,0,0,0,1.2-1.289,3.295,3.295,0,0,1,5.059-2.593,3.1,3.1,0,0,1,1.524,2.741m-1.483.289a1.838,1.838,0,0,0-1.735-2.088,1.864,1.864,0,0,0-1.918,1.841,3.518,3.518,0,0,1-.28,1.115,2.686,2.686,0,0,1-2.439,1.476,1.76,1.76,0,0,0-1.663,1.965,1.824,1.824,0,0,0,1.9,1.668,6.227,6.227,0,0,0,6.139-5.977" transform="translate(-86.142 -134.063)" fill="#030303"/>
        <path id="Trazado_157520" data-name="Trazado 157520" d="M328.314,140.036a6.438,6.438,0,0,1,.958-7.022,2.823,2.823,0,0,1,4.231.105c1.792,2.088,1.827,4.432.919,7-.108-.224-.176-.355-.236-.49-.7-1.569-1.391-3.141-2.093-4.708-.28-.626-.855-.807-1.254-.4a1.647,1.647,0,0,0-.277.479q-1.034,2.313-2.06,4.629c-.057.129-.121.255-.189.4" transform="translate(-292.425 -117.931)" fill="#e2e2e2"/>
        <path id="Trazado_157521" data-name="Trazado 157521" d="M350.543,176.071c.49,1.106.931,2.092,1.357,3.085a.422.422,0,0,1-.061.315c-.323.557-.65,1.112-.993,1.656-.208.331-.4.329-.612-.008q-.512-.818-.986-1.66a.507.507,0,0,1-.019-.392c.409-.959.835-1.911,1.314-3" transform="translate(-311.623 -157.145)" fill="#759f25"/>
        <path id="Trazado_157522" data-name="Trazado 157522" d="M181.552,322.1a6.6,6.6,0,0,1-3.17-2.453,5.475,5.475,0,0,1-1.087-2.853,2.906,2.906,0,0,1,3.553-3.238,6.466,6.466,0,0,1,4.953,4.018,1.794,1.794,0,0,1,.056.227c-.575-.218-1.091-.411-1.605-.61q-1.8-.695-3.6-1.395a.778.778,0,0,0-1.078,1.077c.614,1.573,1.217,3.149,1.822,4.726.054.14.091.286.158.5" transform="translate(-158.263 -279.74)" fill="#e1e1e1"/>
        <path id="Trazado_157523" data-name="Trazado 157523" d="M216.028,352.424a17.172,17.172,0,0,0,2,.748,1.829,1.829,0,0,1,1.6,1.829,7.866,7.866,0,0,0,.2.831c.05.286-.084.459-.388.39-.669-.151-1.333-.32-2-.494a.358.358,0,0,1-.213-.186c-.395-1-.779-2.013-1.2-3.118" transform="translate(-192.824 -314.465)" fill="#749f25"/>
        <path id="Trazado_157524" data-name="Trazado 157524" d="M59.108,57.776c-.477,1.243-.926,2.413-1.376,3.583q-.316.821-.638,1.639a.78.78,0,0,0,1.072,1.087q2.459-.954,4.923-1.9c.077-.03.156-.053.3-.1a5.705,5.705,0,0,1-1.107,1.954,6.616,6.616,0,0,1-3.831,2.288,2.95,2.95,0,0,1-3.636-3.081,6.588,6.588,0,0,1,4.293-5.471" transform="translate(-49.008 -51.616)" fill="#e2e2e2"/>
        <path id="Trazado_157525" data-name="Trazado 157525" d="M93.544,67.13c.362-.94.717-1.752.983-2.593a1.065,1.065,0,0,1,.968-.849,13.56,13.56,0,0,0,1.419-.343c.34-.086.48.078.414.386-.145.672-.317,1.338-.5,2a.415.415,0,0,1-.235.219c-.972.383-1.949.755-3.053,1.179" transform="translate(-83.559 -56.564)" fill="#759f25"/>
        <path id="Trazado_157526" data-name="Trazado 157526" d="M212.313,192.953c.157-.856.251-1.649.455-2.413a11.086,11.086,0,0,1,2.875-5.016,2.924,2.924,0,0,1,5.031,2.2,2.8,2.8,0,0,1-.872,1.912,11.348,11.348,0,0,1-6.863,3.236c-.085.009-.17.024-.255.035l-.371.043" transform="translate(-189.51 -164.77)" fill="#8b411c"/>
        <path id="Trazado_157527" data-name="Trazado 157527" d="M67.558,298.312a12.292,12.292,0,0,1-3.5-.747,11.967,11.967,0,0,1-3.9-2.47,2.98,2.98,0,0,1-.767-3.27,2.917,2.917,0,0,1,4.856-.924,11.265,11.265,0,0,1,3.025,5.646c.119.558.183,1.127.285,1.766" transform="translate(-52.917 -258.75)" fill="#8b411c"/>
        <path id="Trazado_157528" data-name="Trazado 157528" d="M181,18.144a11.331,11.331,0,0,1,2.838,6.338,6.881,6.881,0,0,1-.008,1.962,2.885,2.885,0,0,1-2.976,2.272,2.937,2.937,0,0,1-2.777-2.905A11.473,11.473,0,0,1,181,18.144" transform="translate(-158.965 -16.262)" fill="#8b411c"/>
        <path id="Trazado_157529" data-name="Trazado 157529" d="M14.728,175.744a6.19,6.19,0,0,1,1.761-4.368,1.821,1.821,0,0,1,2.558-.137,1.78,1.78,0,0,1,.183,2.545,2.635,2.635,0,0,0-.662,2.808,3.736,3.736,0,0,0,.581.942,1.845,1.845,0,0,1-.076,2.657,1.891,1.891,0,0,1-2.717-.271,6.141,6.141,0,0,1-1.629-4.175" transform="translate(-13.249 -152.423)" fill="#e5a663"/>
        <path id="Trazado_157530" data-name="Trazado 157530" d="M301.793,275.038a6.2,6.2,0,0,1-6.076,5.944,1.826,1.826,0,1,1-.186-3.645,2.6,2.6,0,0,0,2.616-2.549,1.833,1.833,0,1,1,3.646.25" transform="translate(-262.16 -243.557)" fill="#e6a663"/>
        <path id="Trazado_157531" data-name="Trazado 157531" d="M265.656,67.9a6.223,6.223,0,0,1,6.181-5.976,1.826,1.826,0,0,1,.11,3.651,2.622,2.622,0,0,0-2.66,2.737,1.807,1.807,0,0,1-1.34,1.607,1.72,1.72,0,0,1-1.93-.687,6.58,6.58,0,0,1-.474-1.291l.113-.04" transform="translate(-236.995 -55.317)" fill="#e6a663"/>
        <path id="Trazado_157532" data-name="Trazado 157532" d="M118.1,166.018a6.227,6.227,0,0,1-6.139,5.977,1.824,1.824,0,0,1-1.9-1.668,1.76,1.76,0,0,1,1.663-1.965,2.686,2.686,0,0,0,2.439-1.476,3.518,3.518,0,0,0,.28-1.115,1.864,1.864,0,0,1,1.918-1.841,1.838,1.838,0,0,1,1.735,2.088" transform="translate(-98.294 -146.31)" fill="#e6a663"/>
      </g>
    </g>
  </g>
</svg>
