<svg xmlns="http://www.w3.org/2000/svg" width="54" height="48" viewBox="0 0 54 48">
  <g id="Grupo_957167" data-name="Grupo 957167" transform="translate(9624 8402)">
    <rect id="Rectángulo_52993" data-name="Rectángulo 52993" width="54" height="48" transform="translate(-9624 -8402)" fill="none"/>
    <g id="Grupo_957166" data-name="Grupo 957166" transform="translate(-9631.045 -8401.672)">
      <g id="Grupo_957162" data-name="Grupo 957162" transform="translate(12.349 0.672)">
        <path id="Trazado_157389" data-name="Trazado 157389" d="M18.371,38.867a.758.758,0,0,1-.883.645,18.352,18.352,0,0,1-2.207-.1,3.524,3.524,0,0,1-2.9-3.348c-.048-1.129-.022-2.261-.022-3.392q0-5.858,0-11.716c0-.651.107-.8.668-.942.572.138.689.3.689.974q0,5.836,0,11.672a2.315,2.315,0,0,0,2.517,2.5H31.847a12.015,12.015,0,0,1,2.7-7.632,1.508,1.508,0,0,1-1.2-1.668c0-.437-.016-.876.009-1.312a1.389,1.389,0,0,1,1.4-1.371c.527-.018,1.056-.02,1.583,0a1.391,1.391,0,0,1,1.34,1.186c.025.131.043.262.069.427.142-.073.261-.132.378-.195a11.856,11.856,0,0,1,7.254-1.318,12.636,12.636,0,0,1,4.572,1.589l1.367.965V15.539H49.959c-.105-.006-.21-.016-.315-.016q-17.78,0-35.56,0c-.116,0-.233.015-.371.024,0,.766-.01,1.5,0,2.242a.783.783,0,0,1-.692.9.789.789,0,0,1-.675-.909c.01-3.438-.006-6.876.01-10.314a3.663,3.663,0,0,1,3.831-3.8c1.7-.005,3.4,0,5.16,0A2.692,2.692,0,0,1,22.3,1.244a2.5,2.5,0,0,1,1.719-.57c1.443.054,2.262,1.028,2.47,2.965h12.1a2.719,2.719,0,0,1,1-2.426A2.515,2.515,0,0,1,41.317.676c1.433.078,2.278,1.108,2.42,2.989h1.746c1.116,0,2.232,0,3.348,0A3.669,3.669,0,0,1,52.7,7.521q.009,9.591,0,19.181a1.285,1.285,0,0,0,.308.852,11.473,11.473,0,0,1,1.924,11.684,11.537,11.537,0,0,1-9.185,7.607c-.254.049-.5.113-.757.169H42.447c-.489-.112-.981-.214-1.466-.339a11.815,11.815,0,0,1-8.118-6.8.52.52,0,0,0-.562-.369q-5.839.017-11.678.007c-.61,0-.759-.108-.92-.644.111-.559.3-.714.9-.714q5.562,0,11.124,0h.5l-.318-1.64H31.4q-7.619,0-15.238,0a3.782,3.782,0,0,1-2.137-.6,3.008,3.008,0,0,0-.272-.141,2.251,2.251,0,0,0,2.127,2.372c.527.021,1.055,0,1.582.007.594,0,.762.138.914.716M34.938,24.548c-.086.06-.242.116-.246.181a10.288,10.288,0,0,0,0,1.209c0,.077.157.145.241.217.195.009.39.025.585.024.659,0,.853-.263.85-1.125,0-.507,0-.508-.753-.507h-.677M23.337,2.206a1.061,1.061,0,0,0-.624,1.051q-.014,1.846,0,3.691a1.1,1.1,0,0,0,.71,1.095,1.142,1.142,0,0,0,1.656-1.035c.029-1.277.031-2.555,0-3.831a1.139,1.139,0,0,0-1.74-.971m17.288-.025a1.019,1.019,0,0,0-.656.986q-.026,1.935,0,3.871a1,1,0,0,0,.66.977,1.152,1.152,0,0,0,1.707-1q.054-1.916,0-3.835a1.156,1.156,0,0,0-1.713-1m6.28,42.966,0,0c.173-.048.352-.083.52-.146a10.565,10.565,0,0,0,4.2-16.979,10.7,10.7,0,0,0-9.383-3.383,10.553,10.553,0,0,0-1.678,20.5,9.77,9.77,0,0,0,6.132.062l.208-.062m3.051-32.6c-.09,0-.18-.014-.271-.014q-17.783,0-35.567,0c-.128,0-.257.017-.376.026v1.608H49.461c.166,0,.331-.011.5-.016h1.357v-1.6Zm0-1.393h1.337a.775.775,0,0,0,.04-.157c0-1.233.019-2.465,0-3.7A2.277,2.277,0,0,0,48.877,5.04H43.743V6.669a7.735,7.735,0,0,1,.844.006.647.647,0,0,1,.6.717.622.622,0,0,1-.646.622,3.313,3.313,0,0,1-.588,0,.639.639,0,0,0-.686.356,2.492,2.492,0,0,1-4.136.116.944.944,0,0,0-.994-.469,1.916,1.916,0,0,1-.271,0c-.467-.015-.753-.261-.762-.654-.009-.415.281-.684.77-.7.222-.008.444,0,.685,0V5.06H26.474V6.672a7.779,7.779,0,0,1,.874.006.656.656,0,0,1,.6.719.645.645,0,0,1-.66.617,3.742,3.742,0,0,1-.588,0,.643.643,0,0,0-.687.36A2.474,2.474,0,0,1,22,8.62a1.3,1.3,0,0,0-1.342-.6.5.5,0,0,1-.09,0,.678.678,0,0,1-.716-.659.7.7,0,0,1,.694-.692c.252-.018.506,0,.783,0V5.041c-1.873,0-3.726-.05-5.575.02a2.072,2.072,0,0,0-1.973,1.822c-.086,1.408-.022,2.825-.022,4.284H49.414c.181,0,.361-.01.542-.016" transform="translate(-12.349 -0.672)" fill="#030202"/>
        <path id="Trazado_157390" data-name="Trazado 157390" d="M54.858,132.857a12.634,12.634,0,0,0-4.572-1.589,11.855,11.855,0,0,0-7.254,1.318c-.117.063-.236.122-.378.195-.026-.164-.044-.3-.069-.427a1.391,1.391,0,0,0-1.34-1.185c-.527-.022-1.056-.021-1.583,0a1.389,1.389,0,0,0-1.4,1.371c-.025.436-.012.874-.009,1.311a1.508,1.508,0,0,0,1.2,1.668,12.015,12.015,0,0,0-2.7,7.632H21.136a2.315,2.315,0,0,1-2.517-2.5q-.009-5.836,0-11.672c0-.675-.117-.836-.689-.974q0-.664,0-1.327a.783.783,0,0,0,.692-.9c-.013-.738,0-1.476,0-2.242.138-.009.254-.024.371-.024h35.56c.105,0,.21.011.315.016q0,4.663-.006,9.325m-.255-5.495c0-.241,0-.482,0-.723a1.411,1.411,0,0,0-1.468-1.484c-.482-.008-.965-.011-1.447,0a1.412,1.412,0,0,0-1.436,1.429c-.01.512-.012,1.025,0,1.537a1.379,1.379,0,0,0,1.336,1.378c.466.024.934.014,1.4.011A1.426,1.426,0,0,0,54.6,127.9c0-.181,0-.362,0-.542m-23.994-.027c0-.256.006-.512,0-.769a1.4,1.4,0,0,0-1.359-1.409c-.542-.024-1.086-.024-1.627,0a1.4,1.4,0,0,0-1.361,1.408q-.015.768,0,1.537a1.367,1.367,0,0,0,1.316,1.393c.571.028,1.146.027,1.717,0a1.359,1.359,0,0,0,1.313-1.348c.01-.271,0-.542,0-.814m0,6c0-.241,0-.482,0-.723a1.382,1.382,0,0,0-1.4-1.452c-.527-.016-1.056-.018-1.582,0a1.379,1.379,0,0,0-1.367,1.394c-.011.5-.008.995,0,1.492a1.4,1.4,0,0,0,1.4,1.46c.512.02,1.025.018,1.537,0a1.4,1.4,0,0,0,1.411-1.449c0-.241,0-.482,0-.723m5.993,6h0c0-.241.005-.482,0-.723a1.38,1.38,0,0,0-1.439-1.456c-.512-.01-1.025-.012-1.537,0a1.376,1.376,0,0,0-1.368,1.3,14.2,14.2,0,0,0,0,1.717,1.4,1.4,0,0,0,1.4,1.328c.527.014,1.056.017,1.582,0a1.385,1.385,0,0,0,1.362-1.354c.013-.271,0-.542,0-.814m9.811-9.84v.007c.256,0,.513.009.769,0a1.4,1.4,0,0,0,1.431-1.475c.007-.482.011-.965,0-1.447a1.411,1.411,0,0,0-1.393-1.428c-.527-.018-1.056-.02-1.582,0a1.392,1.392,0,0,0-1.373,1.392q-.018.791,0,1.582a1.361,1.361,0,0,0,1.291,1.367c.285.02.572,0,.859,0m-5.985,0v.012c.241,0,.483.007.723,0a1.41,1.41,0,0,0,1.465-1.492c.011-.482.018-.965,0-1.446a1.414,1.414,0,0,0-1.453-1.416c-.5-.01-.995-.013-1.492,0a1.368,1.368,0,0,0-1.393,1.272,13.883,13.883,0,0,0,0,1.851,1.325,1.325,0,0,0,1.244,1.215c.3.023.6,0,.9,0m-3.823,3.856c0-.241,0-.482,0-.723a1.384,1.384,0,0,0-1.474-1.468c-.482-.008-.965-.011-1.447,0a1.4,1.4,0,0,0-1.434,1.428q-.022.745,0,1.492a1.415,1.415,0,0,0,1.439,1.43q.745.023,1.492,0a1.4,1.4,0,0,0,1.423-1.436c.007-.241,0-.482,0-.723m-16.338,5.963h0c0,.241,0,.482,0,.723a1.4,1.4,0,0,0,1.477,1.472c.482.005.965.01,1.447,0a1.41,1.41,0,0,0,1.426-1.394c.019-.527.02-1.055,0-1.582a1.389,1.389,0,0,0-1.394-1.37c-.542-.014-1.086-.017-1.627,0a1.36,1.36,0,0,0-1.324,1.335c-.012.271,0,.542,0,.814m0-11.982c0,.241,0,.482,0,.723a1.374,1.374,0,0,0,1.4,1.447c.527.018,1.056.018,1.582,0a1.377,1.377,0,0,0,1.365-1.352c.024-.541.024-1.086,0-1.627a1.4,1.4,0,0,0-1.363-1.364c-.542-.023-1.086-.023-1.627,0a1.4,1.4,0,0,0-1.357,1.408c-.007.256,0,.512,0,.769m0,5.976c0,.256-.005.512,0,.769a1.394,1.394,0,0,0,1.379,1.432c.526.023,1.056.022,1.582,0a1.4,1.4,0,0,0,1.391-1.429q.02-.745,0-1.492a1.4,1.4,0,0,0-1.434-1.425q-.746-.018-1.492,0a1.379,1.379,0,0,0-1.425,1.424c-.006.241,0,.482,0,.723m8.21,3.854v0c-.271,0-.543-.008-.814,0a1.388,1.388,0,0,0-1.4,1.406q-.015.768,0,1.537a1.4,1.4,0,0,0,1.366,1.4c.542.019,1.086.02,1.628,0a1.39,1.39,0,0,0,1.352-1.367q.022-.813,0-1.627a1.371,1.371,0,0,0-1.316-1.347c-.271-.014-.542,0-.814,0m8.131-9.787c0-.241,0-.482,0-.723a1.412,1.412,0,0,0-1.5-1.5c-.467-.005-.935-.009-1.4,0a1.418,1.418,0,0,0-1.454,1.416c-.017.512-.018,1.025,0,1.537a1.4,1.4,0,0,0,1.371,1.4c.286.015.574-.009.859.011,1.584.111,2.252-.426,2.123-2.137" transform="translate(-17.254 -108.664)" fill="#e8f2f9"/>
        <path id="Trazado_157391" data-name="Trazado 157391" d="M28.528,294.1c-.152-.578-.32-.712-.914-.716-.528,0-1.056.013-1.582-.007A2.251,2.251,0,0,1,23.9,291a3.019,3.019,0,0,1,.272.141,3.782,3.782,0,0,0,2.137.6q7.619-.008,15.238,0h.515l.318,1.64H30.76c-.6,0-.789.154-.9.714l-1.332,0" transform="translate(-22.506 -255.905)" fill="#d2dbf9"/>
        <path id="Trazado_157392" data-name="Trazado 157392" d="M60.029,42.795c-.181.005-.361.016-.542.016H23.829c0-1.46-.064-2.877.022-4.284A2.072,2.072,0,0,1,25.825,36.7c1.849-.07,3.7-.02,5.575-.02v1.622c-.277,0-.531-.015-.783,0a.7.7,0,0,0-.694.692.678.678,0,0,0,.716.659.5.5,0,0,0,.09,0,1.3,1.3,0,0,1,1.342.6,2.474,2.474,0,0,0,4.018-.245.643.643,0,0,1,.687-.36,3.742,3.742,0,0,0,.588,0,.645.645,0,0,0,.66-.617.656.656,0,0,0-.6-.719,7.78,7.78,0,0,0-.874-.006V36.7H48.633v1.6c-.241,0-.463-.007-.685,0-.489.019-.779.287-.77.7.009.393.294.638.762.654a1.917,1.917,0,0,0,.271,0,.943.943,0,0,1,.994.469,2.492,2.492,0,0,0,4.136-.116.639.639,0,0,1,.686-.356,3.312,3.312,0,0,0,.588,0,.622.622,0,0,0,.646-.622.647.647,0,0,0-.6-.717,7.734,7.734,0,0,0-.844-.006V36.684H58.95a3.423,3.423,0,0,1,1.089,2.827c-.032,1.094-.009,2.189-.01,3.284" transform="translate(-22.421 -32.315)" fill="#fd4054"/>
        <path id="Trazado_157393" data-name="Trazado 157393" d="M198.375,218.663a9.772,9.772,0,0,1-6.132-.062,10.553,10.553,0,0,1,1.678-20.5,9.781,9.781,0,0,1,4.554.348,2.389,2.389,0,0,0,.278.212,11.254,11.254,0,0,1,1.4,18.843c-.507.387-1.043.737-1.565,1.1l0,0-.208.062m-2.9-19.035a8.923,8.923,0,1,0,8.894,8.929,8.923,8.923,0,0,0-8.894-8.929" transform="translate(-164.027 -174.127)" fill="#4da8f3"/>
        <path id="Trazado_157394" data-name="Trazado 157394" d="M60.1,100.372c-.165.006-.331.016-.5.016H23.884V98.781c.119-.008.248-.025.376-.026q17.783,0,35.567,0c.09,0,.18.009.271.014q0,.8,0,1.6" transform="translate(-22.489 -86.897)" fill="#fe4155"/>
        <path id="Trazado_157395" data-name="Trazado 157395" d="M297.4,221.993c.522-.367,1.058-.717,1.565-1.1a10.912,10.912,0,0,0,4.3-7.109,11.211,11.211,0,0,0-5.7-11.735,2.417,2.417,0,0,1-.278-.212,9.85,9.85,0,0,1,4.829,3.035,10.565,10.565,0,0,1-4.2,16.979c-.168.063-.346.1-.52.146" transform="translate(-262.843 -177.514)" fill="#1884e7"/>
        <path id="Trazado_157396" data-name="Trazado 157396" d="M323.4,132.976q0-4.663.006-9.325h1.362v10.29l-1.367-.965" transform="translate(-285.799 -108.784)" fill="#d0d9f3"/>
        <path id="Trazado_157397" data-name="Trazado 157397" d="M246.247,12.236a1.156,1.156,0,0,1,1.713,1q.055,1.916,0,3.835a1.152,1.152,0,0,1-1.707,1,9.414,9.414,0,0,0,.35-1.549,23.389,23.389,0,0,0,0-2.833,8.011,8.011,0,0,0-.356-1.452" transform="translate(-217.97 -10.727)" fill="#d0d9f7"/>
        <path id="Trazado_157398" data-name="Trazado 157398" d="M103.243,12.238a1.139,1.139,0,0,1,1.74.971c.033,1.276.031,2.555,0,3.831a1.143,1.143,0,0,1-1.656,1.035,4.539,4.539,0,0,0,.271-1.032c.033-1.277.038-2.556,0-3.832a3.353,3.353,0,0,0-.353-.973" transform="translate(-92.255 -10.705)" fill="#d1daf8"/>
        <path id="Trazado_157399" data-name="Trazado 157399" d="M315.582,42.9c0-1.095-.022-2.19.01-3.284a3.423,3.423,0,0,0-1.089-2.827,2.277,2.277,0,0,1,2.454,2.256c.022,1.232,0,2.465,0,3.7a.774.774,0,0,1-.04.157Z" transform="translate(-277.975 -32.42)" fill="#e60053"/>
        <path id="Trazado_157400" data-name="Trazado 157400" d="M241.385,13.154a8.011,8.011,0,0,1,.356,1.452,23.4,23.4,0,0,1,0,2.833,9.413,9.413,0,0,1-.35,1.549,1,1,0,0,1-.66-.977q-.03-1.935,0-3.87a1.019,1.019,0,0,1,.656-.986" transform="translate(-213.108 -11.645)" fill="#e1ebf2"/>
        <path id="Trazado_157401" data-name="Trazado 157401" d="M98.656,13.358a3.353,3.353,0,0,1,.353.973c.041,1.276.037,2.555,0,3.832a4.539,4.539,0,0,1-.271,1.032,1.1,1.1,0,0,1-.71-1.095q-.013-1.846,0-3.692a1.061,1.061,0,0,1,.624-1.051" transform="translate(-87.668 -11.824)" fill="#e8f2f9"/>
        <path id="Trazado_157402" data-name="Trazado 157402" d="M199.168,198.161h.677c.751,0,.751,0,.753.507,0,.862-.191,1.122-.85,1.125-.195,0-.39-.016-.585-.024q0-.8,0-1.607" transform="translate(-176.578 -174.285)" fill="#284087"/>
        <path id="Trazado_157403" data-name="Trazado 157403" d="M323.431,100.48q0-.8,0-1.6h1.358v1.6Z" transform="translate(-285.822 -87.005)" fill="#e60053"/>
        <path id="Trazado_157404" data-name="Trazado 157404" d="M197.285,198.169q0,.8,0,1.607c-.084-.072-.236-.14-.241-.217a10.283,10.283,0,0,1,0-1.209c0-.065.16-.121.246-.181" transform="translate(-174.696 -174.293)" fill="#294189"/>
        <path id="Trazado_157405" data-name="Trazado 157405" d="M296.47,368.617l.208-.062-.208.062" transform="translate(-262.122 -324.08)" fill="#1884e7"/>
        <path id="Trazado_157406" data-name="Trazado 157406" d="M289.6,139.235c0,.181,0,.362,0,.542a1.426,1.426,0,0,1-1.612,1.606c-.467,0-.935.013-1.4-.011a1.379,1.379,0,0,1-1.336-1.378c-.014-.512-.011-1.025,0-1.537a1.411,1.411,0,0,1,1.436-1.43c.482-.012.965-.009,1.447,0a1.411,1.411,0,0,1,1.468,1.484c0,.241,0,.482,0,.723m-2.731-.831c-.088.062-.247.12-.251.188a10.288,10.288,0,0,0,0,1.218c0,.068.168.126.258.189H288.2V138.4Z" transform="translate(-252.247 -120.537)" fill="#030303"/>
        <path id="Trazado_157407" data-name="Trazado 157407" d="M91.136,139.157c0,.271.008.543,0,.814a1.359,1.359,0,0,1-1.313,1.348c-.571.027-1.146.028-1.717,0a1.367,1.367,0,0,1-1.316-1.393q-.015-.768,0-1.537a1.4,1.4,0,0,1,1.361-1.408c.542-.023,1.086-.024,1.627,0a1.4,1.4,0,0,1,1.359,1.409c.007.256,0,.512,0,.769m-2.727-.8c-.088.073-.247.141-.252.22a8.162,8.162,0,0,0,0,1.15c.006.08.168.149.258.223h1.327v-1.593Z" transform="translate(-77.781 -120.485)" fill="#030303"/>
        <path id="Trazado_157408" data-name="Trazado 157408" d="M91.142,188.875c0,.241,0,.482,0,.723a1.4,1.4,0,0,1-1.411,1.449c-.512.018-1.025.019-1.537,0a1.4,1.4,0,0,1-1.4-1.46c-.006-.5-.01-.995,0-1.492A1.379,1.379,0,0,1,88.16,186.7c.527-.02,1.055-.017,1.582,0a1.382,1.382,0,0,1,1.4,1.452c0,.241,0,.482,0,.723m-2.719-.787c-.091.062-.255.119-.259.186a10.393,10.393,0,0,0,0,1.217c0,.064.163.118.251.177h1.339v-1.58Z" transform="translate(-77.787 -164.199)" fill="#030304"/>
        <path id="Trazado_157409" data-name="Trazado 157409" d="M140.621,238.517c0,.271.011.543,0,.814a1.385,1.385,0,0,1-1.362,1.354c-.527.018-1.055.015-1.582,0a1.4,1.4,0,0,1-1.4-1.328,14.175,14.175,0,0,1,0-1.717,1.376,1.376,0,0,1,1.368-1.3c.512-.016,1.025-.014,1.537,0a1.38,1.38,0,0,1,1.439,1.456c.006.241,0,.482,0,.723h0m-2.74-.8c-.086.066-.242.128-.246.2a10.1,10.1,0,0,0,0,1.2c0,.071.158.133.243.2h1.338v-1.6Z" transform="translate(-121.273 -207.84)" fill="#030304"/>
        <path id="Trazado_157410" data-name="Trazado 157410" d="M237.846,141.339c-.286,0-.574.017-.859,0a1.361,1.361,0,0,1-1.291-1.367q-.02-.791,0-1.582a1.391,1.391,0,0,1,1.373-1.392c.527-.02,1.055-.018,1.582,0a1.411,1.411,0,0,1,1.393,1.428c.012.482.008.965,0,1.447a1.4,1.4,0,0,1-1.431,1.475c-.256.01-.512,0-.769,0v-.007m-.6-1.371h1.409v-1.6H237.24a1.639,1.639,0,0,0,.007,1.6" transform="translate(-208.686 -120.502)" fill="#030304"/>
        <path id="Trazado_157411" data-name="Trazado 157411" d="M188.186,141.361c-.3,0-.6.019-.9,0a1.325,1.325,0,0,1-1.244-1.215,13.885,13.885,0,0,1,0-1.851,1.368,1.368,0,0,1,1.393-1.272c.5-.014.995-.011,1.492,0a1.414,1.414,0,0,1,1.453,1.416c.021.481.014.964,0,1.446a1.41,1.41,0,0,1-1.465,1.492c-.241.008-.482,0-.723,0v-.012m-.589-1.37c1.8-.016,1.373.3,1.432-1.254,0-.015.006-.036,0-.044-.1-.109-.2-.3-.316-.31a10.408,10.408,0,0,0-1.123.008c-.088.085-.245.164-.252.256a7.17,7.17,0,0,0,0,1.113c.007.083.169.155.259.232" transform="translate(-165.011 -120.527)" fill="#030304"/>
        <path id="Trazado_157412" data-name="Trazado 157412" d="M140.672,188.916c0,.241.006.482,0,.723a1.4,1.4,0,0,1-1.423,1.436c-.5.016-.995.015-1.492,0a1.415,1.415,0,0,1-1.439-1.43q-.022-.745,0-1.491a1.4,1.4,0,0,1,1.434-1.428c.482-.012.965-.009,1.447,0a1.384,1.384,0,0,1,1.474,1.468c.005.241,0,.482,0,.723m-2.74-.8c-.09.063-.255.122-.259.191a8.971,8.971,0,0,0,0,1.171c0,.076.164.141.251.212l1.34.059v-1.632Z" transform="translate(-121.321 -164.226)" fill="#030404"/>
        <path id="Trazado_157413" data-name="Trazado 157413" d="M37.245,238.49c0-.271-.01-.543,0-.814a1.36,1.36,0,0,1,1.324-1.336c.542-.02,1.085-.017,1.627,0a1.389,1.389,0,0,1,1.394,1.37c.021.526.02,1.055,0,1.582a1.41,1.41,0,0,1-1.426,1.394c-.482.011-.965.007-1.447,0a1.4,1.4,0,0,1-1.477-1.472c0-.241,0-.482,0-.723Zm1.377.754,1.589.111v-1.648H38.8c-.065.09-.181.179-.185.272-.015.421,0,.843.007,1.265" transform="translate(-34.232 -207.838)" fill="#030303"/>
        <path id="Trazado_157414" data-name="Trazado 157414" d="M37.237,139.16c0-.256-.006-.513,0-.769a1.4,1.4,0,0,1,1.358-1.408c.542-.023,1.086-.023,1.627,0a1.4,1.4,0,0,1,1.363,1.364c.023.541.023,1.086,0,1.627a1.377,1.377,0,0,1-1.365,1.352c-.526.022-1.055.022-1.582,0a1.374,1.374,0,0,1-1.4-1.447c-.005-.241,0-.482,0-.723m1.56.795H40.2v-1.6a2.146,2.146,0,0,0-.248-.028c-.389,0-.778.014-1.168.021a1.616,1.616,0,0,0,.008,1.6" transform="translate(-34.226 -120.489)" fill="#030304"/>
        <path id="Trazado_157415" data-name="Trazado 157415" d="M37.24,188.866c0-.241-.005-.482,0-.723a1.379,1.379,0,0,1,1.425-1.424q.746-.018,1.492,0a1.4,1.4,0,0,1,1.434,1.425q.02.745,0,1.492a1.4,1.4,0,0,1-1.391,1.429c-.526.023-1.056.024-1.582,0a1.4,1.4,0,0,1-1.379-1.432c-.006-.256,0-.512,0-.769M38.8,188.1c-.054.016-.154.032-.154.049q-.015.748-.005,1.5c0,.015.1.029.149.043.391.011.783.04,1.172.02a.381.381,0,0,0,.264-.26c.029-.431.013-.865.013-1.348Z" transform="translate(-34.229 -164.219)" fill="#030304"/>
        <path id="Trazado_157416" data-name="Trazado 157416" d="M89,236.376c.271,0,.543-.012.814,0a1.371,1.371,0,0,1,1.316,1.347q.023.813,0,1.627a1.39,1.39,0,0,1-1.352,1.367c-.542.02-1.086.019-1.628,0a1.4,1.4,0,0,1-1.366-1.4q-.016-.768,0-1.537a1.388,1.388,0,0,1,1.4-1.406c.271-.009.543,0,.814,0v0m-.844,2.907.076.072.176-.006h1.331v-1.6H88.413c-.24-.057-.277.076-.272.273.011.42.011.839.016,1.259" transform="translate(-77.781 -207.876)" fill="#020202"/>
        <path id="Trazado_157417" data-name="Trazado 157417" d="M140.663,139.258c.129,1.712-.539,2.248-2.124,2.137-.285-.02-.573,0-.859-.011a1.4,1.4,0,0,1-1.371-1.4c-.018-.512-.018-1.025,0-1.537a1.418,1.418,0,0,1,1.454-1.416c.467-.01.935-.006,1.4,0a1.412,1.412,0,0,1,1.5,1.5c0,.241,0,.482,0,.723m-2.748-.848c-.084.051-.237.1-.24.153-.02.429-.019.86,0,1.289,0,.056.16.1.245.155h1.329v-1.6h-1.336" transform="translate(-121.311 -120.545)" fill="#030304"/>
        <path id="Trazado_157418" data-name="Trazado 157418" d="M207.4,211.618a8.923,8.923,0,1,1-8.954,8.879,8.9,8.9,0,0,1,8.954-8.879m2.026,16.18.009,0c.116-.029.235-.051.348-.089a7.56,7.56,0,0,0,4.069-11.07,7.17,7.17,0,0,0-4.54-3.389,6.31,6.31,0,0,0-2.858-.222,7.571,7.571,0,0,0-6.38,5.514,7.494,7.494,0,0,0,2.773,8.04,7.176,7.176,0,0,0,6.367,1.263l.211-.044" transform="translate(-175.951 -186.116)" fill="#020304"/>
        <path id="Trazado_157419" data-name="Trazado 157419" d="M298.707,148.467h1.335v1.594h-1.329q0-.8-.007-1.594" transform="translate(-264.088 -130.6)" fill="#294189"/>
        <path id="Trazado_157420" data-name="Trazado 157420" d="M296.749,148.467q0,.8.007,1.594c-.09-.063-.253-.121-.258-.189a10.3,10.3,0,0,1,0-1.218c0-.067.164-.125.251-.188" transform="translate(-262.131 -130.6)" fill="#3a579e"/>
        <path id="Trazado_157421" data-name="Trazado 157421" d="M100.26,148.476h1.334v1.593h-1.327l-.007-1.593" transform="translate(-89.632 -130.607)" fill="#294189"/>
        <path id="Trazado_157422" data-name="Trazado 157422" d="M98.279,148.476l.007,1.593c-.09-.074-.253-.143-.258-.223a8.161,8.161,0,0,1,0-1.15c.005-.079.164-.147.252-.22" transform="translate(-87.651 -130.607)" fill="#3a579e"/>
        <path id="Trazado_157423" data-name="Trazado 157423" d="M100.257,198.275h1.329v1.58h-1.339q0-.79.009-1.58" transform="translate(-89.622 -174.386)" fill="#294088"/>
        <path id="Trazado_157424" data-name="Trazado 157424" d="M98.308,198.275l-.009,1.58c-.087-.059-.247-.114-.251-.177a10.393,10.393,0,0,1,0-1.217c0-.067.169-.124.259-.186" transform="translate(-87.672 -174.386)" fill="#3a579e"/>
        <path id="Trazado_157425" data-name="Trazado 157425" d="M149.7,247.772h1.335v1.6H149.7q0-.8,0-1.6" transform="translate(-133.093 -217.899)" fill="#294189"/>
        <path id="Trazado_157426" data-name="Trazado 157426" d="M147.806,247.772q0,.8,0,1.6c-.085-.066-.239-.129-.243-.2a10.1,10.1,0,0,1,0-1.2c0-.071.16-.133.246-.2" transform="translate(-131.198 -217.899)" fill="#3a579e"/>
        <path id="Trazado_157427" data-name="Trazado 157427" d="M248.54,148.436h1.417v1.6h-1.409q0-.8-.007-1.6" transform="translate(-219.986 -130.572)" fill="#294189"/>
        <path id="Trazado_157428" data-name="Trazado 157428" d="M247.047,148.436q0,.8.007,1.6a1.639,1.639,0,0,1-.007-1.6" transform="translate(-218.493 -130.572)" fill="#3a579e"/>
        <path id="Trazado_157429" data-name="Trazado 157429" d="M199.109,148.28a10.377,10.377,0,0,1,1.123-.008c.114.01.212.2.316.31.008.008,0,.029,0,.044-.059,1.555.367,1.239-1.432,1.254q0-.8-.008-1.6" transform="translate(-176.531 -130.415)" fill="#284087"/>
        <path id="Trazado_157430" data-name="Trazado 157430" d="M197.121,148.443q0,.8.008,1.6c-.091-.077-.253-.148-.259-.232a7.168,7.168,0,0,1,0-1.113c.007-.091.164-.171.252-.256" transform="translate(-174.543 -130.578)" fill="#3a579e"/>
        <path id="Trazado_157431" data-name="Trazado 157431" d="M149.7,198.258h1.332v1.632l-1.34-.059q0-.787.008-1.573" transform="translate(-133.086 -174.371)" fill="#294088"/>
        <path id="Trazado_157432" data-name="Trazado 157432" d="M147.732,198.258q0,.786-.008,1.573c-.088-.07-.246-.136-.251-.211a8.971,8.971,0,0,1,0-1.171c0-.069.169-.127.259-.191" transform="translate(-131.12 -174.371)" fill="#3a579e"/>
        <path id="Trazado_157433" data-name="Trazado 157433" d="M48.84,247.754h1.411V249.4l-1.59-.111c.06-.114.166-.225.172-.341.021-.4.007-.8.007-1.2" transform="translate(-44.272 -217.883)" fill="#294189"/>
        <path id="Trazado_157434" data-name="Trazado 157434" d="M48.747,247.754c0,.4.014.8-.007,1.2-.006.117-.112.228-.172.341-.005-.422-.022-.844-.007-1.265,0-.093.12-.181.185-.272" transform="translate(-44.179 -217.883)" fill="#3a579e"/>
        <path id="Trazado_157435" data-name="Trazado 157435" d="M50.093,148.283c.389-.008.778-.017,1.168-.021a2.2,2.2,0,0,1,.248.028v1.6H50.1q0-.8-.008-1.6" transform="translate(-45.53 -130.419)" fill="#294088"/>
        <path id="Trazado_157436" data-name="Trazado 157436" d="M48.577,148.438q0,.8.008,1.6a1.616,1.616,0,0,1-.008-1.6" transform="translate(-44.014 -130.574)" fill="#3a579e"/>
        <path id="Trazado_157437" data-name="Trazado 157437" d="M50.092,198.239h1.437c0,.483.016.917-.013,1.348a.381.381,0,0,1-.264.26c-.389.02-.781-.009-1.172-.019l.011-1.589" transform="translate(-45.519 -174.354)" fill="#294088"/>
        <path id="Trazado_157438" data-name="Trazado 157438" d="M48.984,198.239l-.011,1.589c-.052-.015-.148-.028-.149-.044q-.009-.748.005-1.5c0-.018.1-.033.154-.049" transform="translate(-44.412 -174.354)" fill="#3a579e"/>
        <path id="Trazado_157439" data-name="Trazado 157439" d="M100.273,247.788H101.6v1.6H100.27q0-.8,0-1.6" transform="translate(-89.641 -217.913)" fill="#294189"/>
        <path id="Trazado_157440" data-name="Trazado 157440" d="M98.318,247.69q0,.8,0,1.6l-.176.006-.076-.072c0-.42,0-.84-.016-1.259-.005-.2.032-.331.272-.273" transform="translate(-87.686 -217.816)" fill="#3a579e"/>
        <path id="Trazado_157441" data-name="Trazado 157441" d="M98.183,260.464l.076.072-.076-.072" transform="translate(-87.806 -229.057)" fill="#294189"/>
        <path id="Trazado_157442" data-name="Trazado 157442" d="M149.688,148.451h1.336v1.6h-1.329q0-.8-.007-1.6" transform="translate(-133.085 -130.586)" fill="#294189"/>
        <path id="Trazado_157443" data-name="Trazado 157443" d="M147.839,148.451q0,.8.007,1.6c-.085-.052-.242-.1-.245-.155-.021-.429-.021-.86,0-1.289,0-.055.156-.1.24-.153" transform="translate(-131.235 -130.586)" fill="#3a579e"/>
        <path id="Trazado_157444" data-name="Trazado 157444" d="M219.108,237.586a7.176,7.176,0,0,1-6.367-1.263,7.493,7.493,0,0,1-2.773-8.04,7.571,7.571,0,0,1,6.38-5.514,6.313,6.313,0,0,1,2.858.222,5.068,5.068,0,0,0,.418.327,7.948,7.948,0,0,1,2.9,3.194,8.056,8.056,0,0,1,.846,4.75,8.209,8.209,0,0,1-3,5.42c-.346.29-.7.572-1.047.858l-.01,0-.211.044m-1.165-11.058c0-.437,0-.874,0-1.311,0-.572-.242-.866-.69-.857-.424.009-.665.307-.668.844,0,.9.009,1.809-.012,2.712a.549.549,0,0,1-.244.392,2.181,2.181,0,1,0,2.907,2.91.565.565,0,0,1,.394-.245c.465-.031.935,0,1.4-.02a.677.677,0,0,0,.665-.712.661.661,0,0,0-.689-.633c-.437-.015-.875-.018-1.311,0a.455.455,0,0,1-.487-.283c-.148-.271-.329-.619-.582-.72-.744-.3-.732-.866-.686-1.489.015-.195,0-.392,0-.588" transform="translate(-185.842 -195.861)" fill="#e9f3fa"/>
        <path id="Trazado_157445" data-name="Trazado 157445" d="M288.456,239.634c.349-.286.7-.568,1.047-.858a8.209,8.209,0,0,0,3-5.42,8.054,8.054,0,0,0-.846-4.75,7.948,7.948,0,0,0-2.9-3.194,5.092,5.092,0,0,1-.418-.327,7.17,7.17,0,0,1,4.54,3.389,7.56,7.56,0,0,1-4.069,11.071c-.113.038-.232.06-.348.089" transform="translate(-254.969 -197.955)" fill="#d0d9f7"/>
        <path id="Trazado_157446" data-name="Trazado 157446" d="M287.521,345.5l.211-.044-.211.044" transform="translate(-254.255 -303.777)" fill="#d0d9f7"/>
        <path id="Trazado_157447" data-name="Trazado 157447" d="M257.175,238.585c0,.2.012.393,0,.588-.047.623-.058,1.191.686,1.489.253.1.434.449.582.72a.455.455,0,0,0,.487.283c.436-.018.874-.014,1.311,0a.661.661,0,0,1,.689.633.677.677,0,0,1-.665.712c-.466.025-.936-.011-1.4.02a.565.565,0,0,0-.393.245,2.18,2.18,0,1,1-2.907-2.91.548.548,0,0,0,.244-.392c.022-.9.008-1.808.012-2.712,0-.537.244-.835.668-.844.447-.01.686.285.69.857,0,.437,0,.874,0,1.311m-.661,4.557a.823.823,0,0,0,.812-.8.854.854,0,0,0-.835-.834.823.823,0,0,0-.8.857.787.787,0,0,0,.82.775" transform="translate(-225.074 -207.917)" fill="#030303"/>
        <path id="Trazado_157448" data-name="Trazado 157448" d="M266.449,280.174a.787.787,0,0,1-.82-.775.823.823,0,0,1,.8-.857.853.853,0,0,1,.835.834.823.823,0,0,1-.812.8" transform="translate(-235.009 -244.949)" fill="#f7d63e"/>
      </g>
    </g>
  </g>
</svg>
