<svg xmlns="http://www.w3.org/2000/svg" width="62.085" height="62.049" viewBox="0 0 62.085 62.049"><g transform="translate(-11.915 -12.713)"><g transform="translate(11.915 12.713)"><path d="M72.961,68.607l.956,2.717-.94.4-.954.3c-.092-.226-.176-.418-.25-.615q-5.29-13.938-10.567-27.881c-.226-.6-.473-.981-1.173-.779H54.664l7.923,30.718-.73.279a8.38,8.38,0,0,1-.981.188c-.128.011-.269-.127-.4-.2-.045-.231-.079-.465-.138-.693q-2.991-11.62-5.987-23.24-.909-3.525-1.825-7.038H47.255c.639,4.911,1.275,9.774,1.9,14.639.678,5.25,1.342,10.5,2.036,15.749.048.366-.052.5-.356.587l-1.683.025c-.163-1.3-.323-2.6-.49-3.9q-.737-5.761-1.478-11.522-.75-5.824-1.506-11.648c-.171-1.315-.347-2.629-.522-3.95H40.775c-.392,3.032-.78,6.019-1.166,9.005q-.815,6.3-1.628,12.608-.6,4.7-1.194,9.409l-1.562-.02-.517-.187,3.974-30.81H33.441c-.06.2-.121.384-.168.57q-3.155,12.208-6.3,24.417c-.514,2-1,4-1.5,6-.133.071-.273.211-.4.2a8.158,8.158,0,0,1-.97-.192l-.739-.306,7.918-30.7h-.993c-1.571-.007-3.143,0-4.713-.033-.426-.01-.58.154-.721.526q-4.6,12.175-9.217,24.34c-.561,1.48-1.13,2.956-1.7,4.456l-.966-.311-.942-.408.958-2.706c.073-.153.158-.3.218-.46q4.4-11.6,8.8-23.206c.272-.717.536-1.437.828-2.219-1.267,0-2.449.015-3.631-.009a.89.89,0,0,0-.845.434c-1.159,1.658-2.342,3.3-3.519,4.944-.335.468-.676.931-1.027,1.415l-.851-.558-.8-.615.822-1.257,3.165-4.357H12.98V40.677h2.013V37.471a10.405,10.405,0,0,1-1.174-.593,4.007,4.007,0,0,1-1.888-3.413c-.027-1.357-.016-2.716,0-4.073A3.978,3.978,0,0,1,14.4,25.5a3.974,3.974,0,0,1,4.493.762l.271.235a4.361,4.361,0,0,1,2.778-1.353,4.133,4.133,0,0,1,4.462,4.078c.018,1.142-.039,2.286.013,3.426a4.355,4.355,0,0,1-3.091,4.794v3.184H30.9l-.432-3.077c-.19,0-.571.017-.95,0a1,1,0,0,1-1.024-1.027c-.023-1.034-.012-2.069-.006-3.1,0-.652.463-.92,1.032-1.119q0-2.366,0-4.719c0-2.912,1.6-4.51,4.512-4.514h.62V22.029c-.222,0-.47,0-.719,0-.94-.007-1.3-.355-1.306-1.275q-.008-1.842,0-3.685c0-.881.374-1.239,1.266-1.249.237,0,.474,0,.8,0,0-.641,0-1.278,0-1.914.006-.821.359-1.184,1.169-1.189.967-.006,1.933,0,2.935,0v2.052h-2V15.82c.311,0,.627-.011.942,0a1.01,1.01,0,0,1,1.084,1.034q.033,2.069,0,4.138A1,1,0,0,1,37.8,22.023c-.32.02-.642,0-1,0v1H42.17q.851-3.408,1.709-6.848c.313-1.262.47-1.393,1.746-1.393h10.41c1.1,0,1.422.319,1.423,1.418,0,2.606,0,5.211,0,7.868h4.1v2.114H56.43a19.181,19.181,0,0,0-3.079.142,7.835,7.835,0,0,0-6.155,9.1H49.15A7.361,7.361,0,0,1,51.585,30.1l.8.677.551.853c-.107.118-.192.215-.28.308a5.146,5.146,0,0,0-.626,6.262,5.175,5.175,0,0,0,9.5-3.638,5.092,5.092,0,0,0-6.066-4.129c-.686.144-1.107.1-1.244-.655-.007-.039-.046-.071-.07-.106l-.317-1.084,2.6-.37A7.323,7.323,0,0,1,62.3,31.245a1.217,1.217,0,0,0,.623.381q4.926,1.366,9.86,2.7c1.183.322,1.394.664,1.1,1.855-.3,1.225-.61,2.446-.923,3.7l-2.03-.5.776-3.142-2.067-.586-.831,3.2-2.018-.511.8-3.231-4.053-1.12a7.463,7.463,0,0,1-2.007,6.647H72.96v2.085H69.8l3.168,4.357.822,1.241-.843.7-.813.478c-.16-.214-.315-.414-.462-.62-1.365-1.907-2.723-3.819-4.1-5.718A.946.946,0,0,0,67,42.745c-1.267-.037-2.535-.019-3.889-.019.1.278.181.495.262.71q3.36,8.86,6.723,17.72c.946,2.487,1.911,4.968,2.867,7.451M45.055,35.481c-.292-4.49,1.327-7.976,5.369-10.347H42.105c-2.823,0-5.646-.006-8.47,0A1.891,1.891,0,0,0,31.642,27.2c.962,0,1.929-.008,2.895,0a1.052,1.052,0,0,1,1.187,1.2c.01.9-.015,1.811.008,2.715a1.2,1.2,0,0,1-.867,1.274c-1.086.413-2.159.858-3.238,1.288-1.116.446-1.117.445-1.059,1.64,0,.037.036.072.068.133a2.8,2.8,0,0,0,1.931-.382,3.508,3.508,0,0,1,3.917-.167,4.7,4.7,0,0,0,2.693.577c.733,0,1.465,0,2.2,0Zm10.309-18.6H45.849l-.33,1.345.106.059.991-1.16,4.212,4.22-1.422,1.5L48.218,21.45l-1.494,1.575h8.641ZM38.491,40.626H51.125c-.492-.869-1.024-1.737-1.476-2.645-.159-.319-.288-.441-.646-.439-2.541.017-5.082.009-7.622.009H38.91l-.419,3.075m-15.18-5.464a1.977,1.977,0,0,0,1.024-1.689c.017-1.419.026-2.839,0-4.258a2.062,2.062,0,0,0-4.123,0q-.04,2.128,0,4.258a1.857,1.857,0,0,0,1.045,1.683V33.446h2.052Zm-6.215.016a1.974,1.974,0,0,0,1.028-1.7c.023-1.419.028-2.839,0-4.258A2.062,2.062,0,0,0,14,29.21c-.028,1.419-.024,2.839,0,4.258a1.889,1.889,0,0,0,1.04,1.7v-1.72H17.1Zm2.124,1.086-2.082,1.264v3.089h4.074V37.46a11.827,11.827,0,0,1-1.069-.517c-.344-.209-.652-.476-.924-.679m17.54,2.353a2.069,2.069,0,1,0-2.069,2.037,2.062,2.062,0,0,0,2.069-2.037m-.031-20.69H34.742V19.92H36.73ZM31.61,31.455c.631-.252,1.225-.479,1.807-.733a.448.448,0,0,0,.228-.312c.029-.372.011-.747.011-1.094H31.61Zm12.99-9.6,1.84-1.869-1.064-1.258L44.6,21.859" transform="translate(-11.915 -12.713)" fill="#020201"/><path d="M220,217.617c.3-.084.4-.221.356-.587-.694-5.247-1.358-10.5-2.036-15.749-.628-4.865-1.264-9.728-1.9-14.639h5.267q.911,3.511,1.825,7.038,3,11.619,5.987,23.24c.059.228.092.462.138.693l-9.634,0" transform="translate(-181.078 -156.587)" fill="#65ae8c"/><path d="M90.353,217.522c.5-2,.984-4.006,1.5-6Q95,199.308,98.156,187.1c.048-.185.108-.367.168-.57h5.242l-3.974,30.81.517.187-9.756-.007" transform="translate(-76.798 -156.495)" fill="#65ae8c"/><path d="M18,215.33l.966.311c.574-1.5,1.143-2.977,1.7-4.456q4.614-12.167,9.217-24.34c.14-.372.295-.536.721-.526,1.57.036,3.142.026,4.713.033-.733,2.857-1.457,5.716-2.2,8.569-.3,1.153-.656,2.293-.986,3.439l-1.418-1.513-1.375,1.563-1.146-1.4-1.561,1.539c.6.59,1.241,1.225,1.888,1.85a1.066,1.066,0,0,0,1.732-.011c.617-.6,1.227-1.2,1.841-1.8-.084.394-.154.792-.255,1.181-.463,1.769-.934,3.536-1.4,5.3v-1.161A4.1,4.1,0,0,0,27.3,205.4a3.913,3.913,0,0,0-3.068-1.471v2.055a2,2,0,0,1,1.832,1.667,5.656,5.656,0,0,0,.247.731,1.055,1.055,0,0,0,2-.015c.139-.36.242-.733.375-1.1a1.654,1.654,0,0,1,1.319-1.185,2.138,2.138,0,0,1,.039.643q-1.351,5.315-2.729,10.623l-2.717,0a6.507,6.507,0,0,0,.769-1.272c.322-.972.793-1.722,1.911-1.811v-2.06a3.961,3.961,0,0,0-3.073,1.474,3.971,3.971,0,0,0-3.076-1.475c-.012.137-.03.241-.03.344,0,.559,0,1.117,0,1.664,1.285.385,1.465.6,1.936,1.863a7.647,7.647,0,0,0,.773,1.271H18Zm11.4-20.763h2.008v-1.986H29.4Zm2.072-4.133h2.012v-2H31.469Z" transform="translate(-16.949 -156.318)" fill="#fbaa4e"/><path d="M155.847,217.525q.6-4.7,1.194-9.409.809-6.3,1.628-12.608c.386-2.987.773-5.973,1.166-9.005h3.354c.166,1.2.343,2.4.5,3.6.15,1.18.275,2.363.411,3.544l-.892-.781-1.23,1.647-1.223-1.5-1.54,1.477c.673.664,1.322,1.317,1.985,1.956a1.051,1.051,0,0,0,1.684-.007c.45-.428.892-.864,1.338-1.3l.532,3.754a4.192,4.192,0,0,0-2.69,1.474c-1.329-1.182-2.07-1.514-3.108-1.4v2a2.038,2.038,0,0,1,1.859,1.724,1.643,1.643,0,0,0,.259.719,2.2,2.2,0,0,0,.941.645.871.871,0,0,0,1-.641c.163-.4.276-.813.429-1.214a1.617,1.617,0,0,1,1.293-1.127c.135.126.367.236.391.381.159.946.282,1.9.4,2.852.273,2.2.526,4.408.808,6.61s.589,4.4.885,6.6l-4.02.006a2.111,2.111,0,0,1,1.914-2.065v-2.061a4.042,4.042,0,0,0-3.083,1.49,3.894,3.894,0,0,0-3.065-1.484v2.055a2.111,2.111,0,0,1,1.913,2.065l-5.022.013m9.269-11.382a4.088,4.088,0,0,0-3.1,1.48,3.913,3.913,0,0,0-3.07-1.471V208.2a2.034,2.034,0,0,1,1.855,1.715,1.726,1.726,0,0,0,.29.772,1.7,1.7,0,0,0,.959.583c.3.01.64-.321.9-.564a1.232,1.232,0,0,0,.227-.591c.258-1.034.767-1.818,1.93-1.919Zm-2.093-17.548h-1.986V190.6h1.986Z" transform="translate(-130.974 -156.471)" fill="#fbaa4e"/><path d="M266.484,217.55l.73-.279-7.923-30.718h5.369a6.131,6.131,0,0,0,.19.809c1.323,3.492,2.658,6.979,3.98,10.471a2.677,2.677,0,0,1,.08.621L267.48,197.1l-1.333,1.534L265,197.187l-1.58,1.486c.668.66,1.316,1.315,1.979,1.954a1.046,1.046,0,0,0,1.682-.028c.644-.63,1.272-1.278,1.906-1.917a2.129,2.129,0,0,1,.33.429c.2.471.377.954.552,1.436.427,1.183.848,2.369,1.271,3.554a4.2,4.2,0,0,0-2.853,1.5,3.9,3.9,0,0,0-3.07-1.478v2.052a2.025,2.025,0,0,1,1.85,1.71,5.3,5.3,0,0,0,.222.671,1.055,1.055,0,0,0,2,.029,4.1,4.1,0,0,0,.177-.551,2.13,2.13,0,0,1,1.954-1.866v-1.4c.731,1.892,1.471,3.781,2.19,5.678.24.634.426,1.289.637,1.935a4.175,4.175,0,0,0-2.851,1.493,3.934,3.934,0,0,0-3.074-1.473v2.055a2.149,2.149,0,0,1,1.892,1.756,6.994,6.994,0,0,0,.791,1.33l-4.519.007m-2.348-28.914h-2.008v1.986h2.008Zm2.047,4.139H264.2v2.008h1.986Z" transform="translate(-216.542 -156.512)" fill="#fbaa4e"/><path d="M17.944,192.571l.851.558c.352-.484.693-.947,1.027-1.415,1.177-1.645,2.361-3.286,3.519-4.944a.891.891,0,0,1,.846-.434c1.181.024,2.363.009,3.63.009-.291.782-.555,1.5-.827,2.219q-4.4,11.6-8.8,23.206c-.06.158-.144.307-.218.46q-.011-4.769-.02-9.538-.006-5.06,0-10.121" transform="translate(-16.902 -156.333)" fill="#65ad8c"/><path d="M318.015,212.25c-.956-2.483-1.921-4.964-2.867-7.451q-3.368-8.857-6.723-17.72c-.082-.215-.16-.432-.262-.71,1.354,0,2.623-.018,3.889.019a.946.946,0,0,1,.572.415c1.377,1.9,2.735,3.811,4.1,5.718.147.206.3.406.462.62l.813-.478c.023,1.119.065,2.239.065,3.358q0,7.922-.024,15.844c0,.128-.016.257-.025.385" transform="translate(-256.969 -156.356)" fill="#65ad8c"/><path d="M224.78,92.707l-2.6.37.317,1.084-1.762,1.105-.8-.677a7.359,7.359,0,0,0-2.435,5.321h-1.954a7.835,7.835,0,0,1,6.155-9.1,19.181,19.181,0,0,1,3.079-.142q0,1.019,0,2.037" transform="translate(-180.265 -77.198)" fill="#87113c"/><path d="M75.021,205.243c.468-1.768.94-3.535,1.4-5.3.1-.39.171-.787.255-1.181l.039-.235c.33-1.146.684-2.286.986-3.439.747-2.853,1.471-5.712,2.2-8.569H80.9l-7.918,30.7.739.306H71.9q1.369-5.31,2.729-10.623a2.132,2.132,0,0,0-.039-.643c.627-.13.33-.652.428-1.007" transform="translate(-61.537 -156.48)" fill="#d27e29"/><path d="M296.841,203.841c-.423-1.185-.844-2.37-1.271-3.554-.174-.482-.35-.965-.552-1.437a2.132,2.132,0,0,0-.33-.429c-.006-.044-.011-.089-.017-.133l-.053-.114-.008.019a2.673,2.673,0,0,0-.08-.621c-1.322-3.492-2.656-6.98-3.98-10.471a6.135,6.135,0,0,1-.19-.809c.7-.2.947.181,1.173.779q5.264,13.948,10.567,27.881c.074.2.158.389.25.615l.954-.3v2.023h-1.288l-1.791-4.625-.28-.541c-.211-.646-.4-1.3-.637-1.935-.718-1.9-1.458-3.786-2.189-5.678l-.28-.667" transform="translate(-242.244 -156.252)" fill="#d27e29"/><path d="M202.353,217.507c-.3-2.2-.6-4.4-.885-6.6s-.534-4.407-.807-6.61c-.118-.953-.241-1.906-.4-2.852-.024-.145-.255-.255-.391-.381.58-.124.407-.587.4-.946a9.719,9.719,0,0,0-.137-1.2c0-.022-.158-.021-.243-.03l-.531-3.754.6-.678-.723-.811c-.136-1.182-.261-2.365-.411-3.544-.152-1.2-.329-2.4-.495-3.6h1.03c.175,1.321.351,2.635.522,3.95q.755,5.823,1.506,11.648.742,5.76,1.478,11.521c.166,1.3.327,2.6.49,3.9l-1-.019" transform="translate(-166.117 -156.471)" fill="#d27e29"/><path d="M317.471,336.02l.28.541v1.525a2.154,2.154,0,0,0-1.919,1.715,7.2,7.2,0,0,1-.813,1.379h-.791a6.982,6.982,0,0,1-.791-1.33,2.149,2.149,0,0,0-1.892-1.756V336.04a3.935,3.935,0,0,1,3.074,1.473,4.176,4.176,0,0,1,2.851-1.493" transform="translate(-259.767 -280.15)" fill="#020302"/><path d="M175.75,346.2a2.111,2.111,0,0,0-1.913-2.065v-2.055a3.894,3.894,0,0,1,3.065,1.485,4.041,4.041,0,0,1,3.083-1.49v2.061a2.111,2.111,0,0,0-1.914,2.065c-.072.152-.106.354-.225.444-.3.229-.639.555-.969.563-.3.007-.623-.334-.9-.561-.118-.1-.152-.294-.224-.445" transform="translate(-145.856 -285.155)" fill="#020302"/><path d="M38.635,341.267A7.635,7.635,0,0,1,37.862,340c-.471-1.263-.651-1.478-1.936-1.863,0-.547,0-1.106,0-1.664,0-.1.017-.207.03-.344a3.971,3.971,0,0,1,3.076,1.475,3.961,3.961,0,0,1,3.073-1.474v2.06c-1.118.09-1.589.839-1.911,1.811a6.509,6.509,0,0,1-.77,1.272h-.791" transform="translate(-31.777 -280.236)" fill="#020302"/><path d="M331.645,343.771a7.2,7.2,0,0,0,.813-1.379,2.154,2.154,0,0,1,1.919-1.715v-1.525l1.791,4.625-4.523-.006" transform="translate(-276.393 -282.741)" fill="#fbaa4e"/><path d="M350.04,190.728l-3.168-4.357h3.162q0,2.178.006,4.357" transform="translate(-288.989 -156.361)" fill="#faa94e"/><path d="M18.052,186.371h3.159l-3.165,4.357q0-2.179.006-4.357" transform="translate(-16.986 -156.361)" fill="#faa94e"/><path d="M134.251,94.925h-3.68c-.733,0-1.465,0-2.2,0a4.7,4.7,0,0,1-2.693-.577,3.508,3.508,0,0,0-3.917.167,2.8,2.8,0,0,1-1.931.382c-.032-.06-.067-.1-.068-.133-.058-1.195-.057-1.194,1.059-1.64,1.079-.431,2.152-.875,3.238-1.288a1.2,1.2,0,0,0,.867-1.274c-.023-.9,0-1.81-.008-2.715a1.052,1.052,0,0,0-1.187-1.2c-.966-.011-1.933,0-2.895,0a1.892,1.892,0,0,1,1.993-2.066c2.823-.009,5.646,0,8.47,0h8.319c-4.042,2.372-5.661,5.857-5.369,10.348m-5.213-7.191h-2.012v3.012h2.012Zm4.124-.007H131.18v3.046h1.981Z" transform="translate(-101.11 -72.157)" fill="#db1c4b"/><path d="M240.667,111.976l1.762-1.105c.024.035.064.068.071.106.137.753.558.8,1.244.655a5.092,5.092,0,0,1,6.066,4.129,5.175,5.175,0,0,1-9.5,3.639,5.146,5.146,0,0,1,.626-6.263c.087-.094.172-.19.28-.308l-.551-.853m4.014,7.8a3.1,3.1,0,1,0-3.077-3.164,3.145,3.145,0,0,0,3.077,3.164" transform="translate(-200.2 -93.909)" fill="#0a4464"/><path d="M216.223,36.8v6.149h-8.641l1.494-1.575,1.188,1.386,1.422-1.5-4.212-4.22-.991,1.16-.106-.059.33-1.345Z" transform="translate(-172.773 -32.641)" fill="#2992cd"/><path d="M62.938,104.527V102.81H60.886v1.713a1.857,1.857,0,0,1-1.045-1.683q-.04-2.128,0-4.258a2.062,2.062,0,0,1,4.122,0c.027,1.419.018,2.839,0,4.258a1.976,1.976,0,0,1-1.024,1.689" transform="translate(-51.542 -82.077)" fill="#65ad8b"/><path d="M27,104.543v-1.736H24.953v1.72a1.89,1.89,0,0,1-1.04-1.7c-.024-1.419-.028-2.839,0-4.258a2.062,2.062,0,0,1,4.123.013c.026,1.419.021,2.839,0,4.258a1.974,1.974,0,0,1-1.028,1.7" transform="translate(-21.823 -82.077)" fill="#65ad8b"/><path d="M135.885,152.564a2.069,2.069,0,1,1-2.069-2.1,2.064,2.064,0,0,1,2.069,2.1m-1.034-.027a1.035,1.035,0,1,0-1.024,1.03,1.026,1.026,0,0,0,1.024-1.03" transform="translate(-111.039 -126.66)" fill="#0a4363"/><rect width="1.988" height="1.992" transform="translate(22.827 5.215)" fill="#045f9b"/><path d="M125.888,110.932v-2.138h2.046c0,.346.018.722-.011,1.094a.447.447,0,0,1-.228.312c-.582.254-1.176.48-1.807.733" transform="translate(-106.192 -92.19)" fill="#ecd369"/><path d="M201.061,50.667l.776-3.127L202.9,48.8l-1.84,1.869" transform="translate(-168.375 -41.522)" fill="#288ec7"/><path d="M60.255,289.338c-.1.355.2.877-.428,1.007a1.653,1.653,0,0,0-1.319,1.184c-.133.362-.236.735-.376,1.1a1.055,1.055,0,0,1-2,.015,5.654,5.654,0,0,1-.247-.731,2,2,0,0,0-1.832-1.667v-2.055a3.913,3.913,0,0,1,3.068,1.471,4.1,4.1,0,0,1,3.134-1.48Z" transform="translate(-46.771 -240.575)" fill="#020302"/><path d="M73.44,248.765,73.4,249c-.613.6-1.223,1.2-1.841,1.8a1.066,1.066,0,0,1-1.732.011c-.647-.626-1.286-1.26-1.888-1.85l1.561-1.539,1.146,1.4,1.375-1.563,1.418,1.513" transform="translate(-58.259 -206.722)" fill="#040503"/><rect width="2.008" height="1.986" transform="translate(12.448 36.263)"/><rect width="2.012" height="1.998" transform="translate(14.52 32.117)"/><path d="M179.6,258.166c.084.01.24.009.243.03a9.719,9.719,0,0,1,.137,1.2c.008.36.181.822-.4.946a1.617,1.617,0,0,0-1.293,1.127c-.152.4-.265.818-.429,1.214a.871.871,0,0,1-1,.641,2.2,2.2,0,0,1-.941-.645,1.644,1.644,0,0,1-.259-.719,2.038,2.038,0,0,0-1.859-1.724v-2c1.038-.114,1.778.217,3.107,1.4a4.192,4.192,0,0,1,2.69-1.474" transform="translate(-145.826 -215.75)" fill="#020302"/><path d="M179.965,300.154v2.057c-1.163.1-1.672.885-1.93,1.919a1.229,1.229,0,0,1-.227.591c-.265.243-.606.574-.9.564a1.7,1.7,0,0,1-.959-.583,1.722,1.722,0,0,1-.29-.772,2.034,2.034,0,0,0-1.855-1.715v-2.053a3.913,3.913,0,0,1,3.07,1.471,4.089,4.089,0,0,1,3.1-1.48" transform="translate(-145.824 -250.482)" fill="#020302"/><path d="M180.186,224.082l.723.811-.6.678c-.445.433-.888.869-1.338,1.3a1.051,1.051,0,0,1-1.684.007c-.663-.639-1.312-1.292-1.985-1.956l1.54-1.477,1.223,1.5,1.23-1.647.892.781" transform="translate(-147.066 -186.91)" fill="#040503"/><rect width="1.986" height="2.008" transform="translate(30.063 32.124)"/><path d="M299.5,288.1l.28.667v1.4a2.13,2.13,0,0,0-1.954,1.866,4.126,4.126,0,0,1-.177.551,1.055,1.055,0,0,1-2-.029,5.348,5.348,0,0,1-.222-.67,2.025,2.025,0,0,0-1.849-1.71v-2.052a3.9,3.9,0,0,1,3.07,1.478,4.2,4.2,0,0,1,2.853-1.5" transform="translate(-244.903 -240.512)" fill="#020302"/><path d="M288.739,249.021l.016.133c-.635.64-1.262,1.287-1.906,1.917a1.046,1.046,0,0,1-1.682.028c-.663-.639-1.311-1.293-1.979-1.954l1.58-1.486,1.146,1.444,1.333-1.534,1.431,1.357.008-.019.053.114" transform="translate(-236.31 -206.984)" fill="#040503"/><rect width="2.008" height="1.986" transform="translate(45.585 32.124)"/><rect width="1.986" height="2.008" transform="translate(47.655 36.263)"/><path d="M315.055,255.428l-.053-.114.053.114" transform="translate(-262.626 -213.391)" fill="#fbaa4e"/><rect width="2.012" height="3.012" transform="translate(25.916 15.577)"/><rect width="1.981" height="3.046" transform="translate(30.07 15.569)"/><path d="M254.591,132.718a3.1,3.1,0,1,1,3.13-3.041,3.142,3.142,0,0,1-3.13,3.041m.061-2.07a1.035,1.035,0,1,0-1.068-.984,1.04,1.04,0,0,0,1.068.984" transform="translate(-210.109 -106.846)" fill="#000101"/><path d="M139.8,157.482a1.035,1.035,0,1,1-1.014-1.04,1.027,1.027,0,0,1,1.014,1.04" transform="translate(-115.985 -131.604)" fill="#278fc8"/><path d="M264.555,140.546a1.035,1.035,0,1,1,1-1.052,1.043,1.043,0,0,1-1,1.052" transform="translate(-220.012 -116.744)" fill="#278cc4"/></g></g></svg>