<svg xmlns="http://www.w3.org/2000/svg" width="78" height="78" viewBox="0 0 78 78"><g transform="translate(-428 -1454.587)"><g transform="translate(215 -2455.413)"><circle cx="39" cy="39" r="39" transform="translate(213 3910)" fill="#fff" opacity="0.6"/></g><g transform="translate(392.11 1409.062)"><g transform="translate(56.999 68.618)"><path d="M74.761,100.226q-7.243,0-14.487,0a3.026,3.026,0,0,1-2.945-1.7,2.991,2.991,0,0,1,.174-3.015q1.822-3.14,3.633-6.286,5.4-9.346,10.786-18.7a3.579,3.579,0,0,1,1.683-1.671,3.019,3.019,0,0,1,3.858,1.376c1.191,2.031,2.361,4.074,3.538,6.113q5.506,9.539,11.011,19.079a3.063,3.063,0,0,1-.3,3.867,3.138,3.138,0,0,1-2.412.933c-3.032-.013-6.065,0-9.1,0H74.761M72.889,83.8c0,1.351-.007,2.7,0,4.054a1.9,1.9,0,0,0,3.788-.012q.011-4,0-8.009a1.9,1.9,0,0,0-3.789.012c-.007,1.318,0,2.637,0,3.955m3.79,10.444a1.894,1.894,0,1,0-1.913,1.9,1.9,1.9,0,0,0,1.913-1.9" transform="translate(-56.999 -68.618)" fill="#ff0043"/><path d="M177.227,145.6c0-1.318-.005-2.637,0-3.955a1.9,1.9,0,0,1,3.789-.012q.01,4,0,8.009a1.9,1.9,0,0,1-3.788.012c-.009-1.351,0-2.7,0-4.054" transform="translate(-161.337 -130.418)" fill="#fef6ec"/><path d="M181.047,249.938a1.894,1.894,0,1,1-1.9-1.918,1.894,1.894,0,0,1,1.9,1.918" transform="translate(-161.367 -224.313)" fill="#fef4eb"/></g></g></g></svg>