<svg xmlns="http://www.w3.org/2000/svg" width="74" height="66" viewBox="0 0 74 66"><g transform="translate(9626 8402)"><rect width="74" height="66" transform="translate(-9626 -8402)" fill="none"/><g transform="translate(-10560.5 -10954.01)"><rect width="51" height="39" transform="translate(945 2570.902)" fill="#fff"/><g transform="translate(942.5 2556.01)"><g transform="translate(0 0)"><path d="M49.018,59.2H46.39a1.9,1.9,0,0,0-.342-.13,9.567,9.567,0,0,1-5.884-3.106,3.64,3.64,0,0,0-3.3-1.362c-2.834.1-5.673.032-8.51.027a1.149,1.149,0,1,1,.006-2.281q4.37-.008,8.74,0h.559l-.692-3.2h-30c-1.1,0-1.477-.375-1.477-1.473q0-13.136,0-26.271c0-1.13.371-1.5,1.507-1.5H48.749c1.172,0,1.525.357,1.525,1.539q0,7.967,0,15.934v.542l3.158,1.327V16.7H10.606c-.955,0-1.289-.259-1.482-1.14.19-.882.526-1.144,1.478-1.145H53.474c0-1.856,0-3.625,0-5.394,0-1.023-.437-1.458-1.46-1.459q-3.769,0-7.538,0H43.99c0,.414,0,.771,0,1.128a3.427,3.427,0,1,1-6.854.007c-.005-.372,0-.744,0-1.093H18.624c0,.4.006.764,0,1.125a3.427,3.427,0,0,1-6.853-.014c-.006-.374,0-.748,0-1.149-2.826,0-5.583-.011-8.34.008A1.138,1.138,0,0,0,2.293,8.768c-.01,2.264.005,4.528.011,6.793-.006.114-.018.227-.018.341q0,17.5,0,35c0,1.015.438,1.44,1.477,1.44q7.424,0,14.848,0a4.832,4.832,0,0,1,.57.01,1.137,1.137,0,0,1,.02,2.26,4.328,4.328,0,0,1-.57.013c-4.664,0-9.329-.068-13.991.03C2.419,54.7.777,54.1,0,51.886V8.019c.037-.038.091-.07.108-.115A3.5,3.5,0,0,1,3.841,5.277h7.928c0-.436-.005-.8,0-1.157a3.444,3.444,0,0,1,3.077-3.4,3.4,3.4,0,0,1,3.7,2.767,13.9,13.9,0,0,1,.119,1.766H37.135c0-.36,0-.7,0-1.036a3.429,3.429,0,1,1,6.855.022c0,.336,0,.673,0,1.038h7.875a3.521,3.521,0,0,1,3.893,3.88q0,15.82.013,31.641a1.468,1.468,0,0,0,.308.853A10.749,10.749,0,0,1,49.8,58.993c-.264.052-.522.135-.783.2m7.2-10.737a8.455,8.455,0,1,0-8.472,8.452,8.466,8.466,0,0,0,8.472-8.452M16.282,28.89h6.18V22.218h-6.18Zm17,0h6.182V22.219H33.28ZM22.475,40.149H16.293v6.679h6.182Zm-.02-8.917H16.292v6.578h6.164ZM33.3,37.8h6.162V31.224H33.3ZM7.784,28.882h6.17V22.216H7.784ZM24.8,28.9H30.95V22.223H24.8Zm17.019.006h6.148V22.207H41.818ZM7.788,46.822h6.17V40.148H7.788ZM30.96,40.149H24.81V46.82h6.15ZM13.941,31.232H7.794v6.58h6.148Zm10.875,6.577h6.137V31.231H24.816Zm16.98-.061h6.167V31.239H41.8Zm-8.5,2.388v6.709h3.814c.04-.146.089-.288.116-.433a9.241,9.241,0,0,1,1.791-4.139,2.749,2.749,0,0,0,.441-2.137ZM16.339,6.446c0-.741.009-1.482,0-2.222a1.143,1.143,0,1,0-2.279,0q-.015,2.193,0,4.387a1.143,1.143,0,1,0,2.279,0c.012-.721,0-1.443,0-2.165m25.366-.018c0-.722.007-1.444,0-2.165a1.146,1.146,0,1,0-2.281-.018q-.013,2.165,0,4.33a1.146,1.146,0,1,0,2.281.018c.01-.722,0-1.443,0-2.165" transform="translate(0 -0.702)" fill="#010101"/><path d="M21.838,53.649H19.587c-.167-.772-.57-1.159-1.189-1.143-.6.015-.97.391-1.131,1.143H15.017c-.005-2.264-.021-4.529-.011-6.793a1.137,1.137,0,0,1,1.136-1.194c2.757-.02,5.514-.008,8.34-.008,0,.4-.005.775,0,1.149a3.427,3.427,0,0,0,6.853.014c.007-.361,0-.722,0-1.125H49.848c0,.349,0,.721,0,1.093a3.427,3.427,0,1,0,6.854-.007c.006-.357,0-.714,0-1.128h.485q3.769,0,7.538,0c1.024,0,1.458.436,1.46,1.459,0,1.769,0,3.538,0,5.394H23.316c-.952,0-1.288.263-1.478,1.145" transform="translate(-12.714 -38.79)" fill="#9fe457"/><path d="M274.47,266.7A8.455,8.455,0,1,1,266,258.245a8.469,8.469,0,0,1,8.468,8.454m-8.732.832c-.554-.593-1.033-1.161-1.57-1.666a1.081,1.081,0,0,0-1.584.057,1.068,1.068,0,0,0,0,1.542q1.182,1.239,2.422,2.423a1.034,1.034,0,0,0,1.539.024q2.246-2.2,4.44-4.444a1.077,1.077,0,0,0-.145-1.617,1.167,1.167,0,0,0-1.635.2c-1.119,1.114-2.229,2.239-3.465,3.483" transform="translate(-218.254 -218.942)" fill="#fc5c5c"/><rect width="6.18" height="6.672" transform="translate(16.282 21.516)" fill="#c6effb"/><rect width="6.182" height="6.671" transform="translate(33.28 21.516)" fill="#c6effb"/><rect width="6.182" height="6.679" transform="translate(16.293 39.447)" fill="#c6effb"/><rect width="6.164" height="6.578" transform="translate(16.292 30.53)" fill="#fb5c5c"/><rect width="6.162" height="6.574" transform="translate(33.299 30.522)" fill="#c6effb"/><rect width="6.17" height="6.665" transform="translate(7.784 21.514)" fill="#c8f2fe"/><rect width="6.151" height="6.672" transform="translate(24.798 21.52)" fill="#c8f2fe"/><rect width="6.148" height="6.694" transform="translate(41.818 21.505)" fill="#c8f2fe"/><rect width="6.17" height="6.674" transform="translate(7.788 39.445)" fill="#c8f2fe"/><rect width="6.15" height="6.671" transform="translate(24.81 39.447)" fill="#c8f2fe"/><rect width="6.148" height="6.58" transform="translate(7.794 30.529)" fill="#c8f2fe"/><rect width="6.137" height="6.577" transform="translate(24.816 30.529)" fill="#c8f2fe"/><rect width="6.167" height="6.509" transform="translate(41.796 30.536)" fill="#c8f2fe"/><path d="M218.2,259.1h6.161a2.748,2.748,0,0,1-.441,2.137,9.242,9.242,0,0,0-1.791,4.139c-.026.145-.076.287-.115.433H218.2Z" transform="translate(-184.899 -219.663)" fill="#c6f0fc"/><path d="M94.352,19.179c0,.722.009,1.444,0,2.165a1.143,1.143,0,1,1-2.279,0q-.016-2.193,0-4.387a1.143,1.143,0,1,1,2.28,0c.012.74,0,1.481,0,2.222" transform="translate(-78.013 -13.436)" fill="#71d5fc"/><path d="M260.571,19.161c0,.722.008,1.444,0,2.165a1.146,1.146,0,1,1-2.281-.018q-.012-2.165,0-4.33a1.146,1.146,0,1,1,2.281.018c.009.722,0,1.443,0,2.165" transform="translate(-218.865 -13.435)" fill="#71d5fc"/><path d="M147.422,340.216a1.13,1.13,0,0,1,1.123-1.12,1.141,1.141,0,1,1,.016,2.282,1.131,1.131,0,0,1-1.139-1.161" transform="translate(-124.924 -287.454)" fill="#070707"/><path d="M29.834,91.715c.162-.752.533-1.128,1.131-1.143.619-.016,1.022.371,1.189,1.143-.171.769-.572,1.154-1.189,1.138-.6-.015-.966-.388-1.131-1.138" transform="translate(-25.281 -76.857)" fill="#060705"/><path d="M291.8,297.261c1.236-1.244,2.346-2.369,3.465-3.483a1.167,1.167,0,0,1,1.635-.2,1.077,1.077,0,0,1,.144,1.617q-2.189,2.252-4.44,4.444a1.034,1.034,0,0,1-1.539-.024q-1.238-1.184-2.422-2.423a1.068,1.068,0,0,1,0-1.542,1.081,1.081,0,0,1,1.584-.057c.537.505,1.016,1.072,1.57,1.666" transform="translate(-244.314 -248.672)" fill="#030101"/></g></g></g></g></svg>