<svg xmlns="http://www.w3.org/2000/svg" width="74" height="66" viewBox="0 0 74 66"><g transform="translate(9626 8402)"><rect width="74" height="66" transform="translate(-9626 -8402)" fill="none"/><g transform="translate(-9621 -8401.698)"><g transform="translate(0 0.699)"><path d="M0,60.728a5.1,5.1,0,0,0,.244-.539,5.168,5.168,0,0,1,4.843-3.595c1.376-.018,2.752,0,4.212,0,0-.81.021-1.594-.019-2.374-.008-.149-.238-.311-.4-.426a8.422,8.422,0,0,1-3.492-4.8A6.965,6.965,0,0,1,6.524,43.1a9.523,9.523,0,0,1,3.461-3.009.784.784,0,0,1,.564-.07A8.264,8.264,0,0,1,15.507,47.7a7.925,7.925,0,0,1-3.668,6.039.941.941,0,0,0-.456.922c.03.62.008,1.243.008,1.894H23.8a1.166,1.166,0,0,0-.114-.2c-2.942-3.287-2.664-8.058,1.282-11.08,2.117-1.621,1.734-1.6,3.85-.011A7.457,7.457,0,0,1,32.069,51.7a7.539,7.539,0,0,1-2.154,4.886h8.411c-.189-.252-.339-.455-.493-.655a7.09,7.09,0,0,1,.058-9.106,1.7,1.7,0,0,0,.406-1.189c-.024-1.163-.008-2.328-.008-3.55H35.044c-.94,0-1.879-.011-2.819,0a2.177,2.177,0,0,1-1.765-.78.7.7,0,0,0-.448-.242c-2.044-.016-4.087-.011-6.209-.011,0,.349.005.675,0,1a3.117,3.117,0,0,1-2.889,3.13,3.078,3.078,0,0,1-3.3-2.82,12.5,12.5,0,0,1-.007-1.313c-.4,0-.754.01-1.1,0a1.994,1.994,0,0,1-1.99-1.933q-.058-2.191,0-4.384c.026-1.068.66-1.666,1.89-1.989a32.993,32.993,0,0,1,.532-3.739A7.386,7.386,0,0,1,20.4,24.518a.727.727,0,0,1,.64.022,7.873,7.873,0,0,1,3.785,6.8c.008.456,0,.913,0,1.448h1.883c.835,0,1.671-.012,2.506,0a1.82,1.82,0,0,0,1.607-.541,2.143,2.143,0,0,1,1.421-.468c2.108-.049,4.218-.021,6.327-.021h.641c-.653-.69-1.287-1.288-1.837-1.956a9.454,9.454,0,0,1-1.881-3.84c-.079-.33-.2-.427-.527-.447a3.923,3.923,0,0,1-3.557-2.454,3.912,3.912,0,0,1,.555-4.23.647.647,0,0,0,.089-.771A12.483,12.483,0,0,1,41.571.865a11.729,11.729,0,0,1,1.87-.151C46.2.7,48.954.69,51.71.711A12.547,12.547,0,0,1,64.162,13.148a14.282,14.282,0,0,1-.828,5.342.619.619,0,0,0,.043.512,4.154,4.154,0,0,1-3.555,6.555,10.56,10.56,0,0,1-4.691,6.7A11.743,11.743,0,0,1,59.365,34.7a11.288,11.288,0,0,1,3.761,8.431c.033,2,.007,4.009.006,6.014a3.151,3.151,0,0,1-1.8,2.989c-.147.078-.336.225-.359.364a7.883,7.883,0,0,1-1.946,3.942,15.754,15.754,0,0,1,2.343.762,4.917,4.917,0,0,1,2.761,4.125c.174,1.685-.581,2.72-2.485,3.534H2.381A3.988,3.988,0,0,1,0,62.482V60.728M57.942,15.094c-.539.041-.975.105-1.41.1a18.7,18.7,0,0,1-8.093-1.874,1.855,1.855,0,0,0-.767-.2q-3.6-.022-7.2,0A3.1,3.1,0,0,0,37.248,16.3c-.023,2.421-.037,4.843,0,7.263a8.186,8.186,0,0,0,7.385,8.1,47.073,47.073,0,0,0,4.753.089,8.272,8.272,0,0,0,8.551-8.513c.011-2.212,0-4.425,0-6.637V15.094M9.282,58.723c-1.611,0-3.179-.1-4.728.029a2.93,2.93,0,0,0-2.467,2.957.988.988,0,0,0,.987,1.065c.208.017.417.008.626.008h56.75c.188,0,.376.007.564,0a1.006,1.006,0,0,0,1.056-1.126A2.9,2.9,0,0,0,59.9,58.831a21.124,21.124,0,0,0-3.03-.245v2.1H54.843v-2H42.422v1.994H40.339v-2H27.929v2H25.851V58.69H11.365v1.988H9.282ZM60.939,42.059c-.291-3.944-3.693-7.221-6.488-7.73L53.6,41.906c-.215-.145-.388-.251-.55-.372Q51,39.995,48.949,38.451a1.923,1.923,0,0,0-2.689,0q-1.1.827-2.2,1.652L41.6,41.937l-.913-8.126h-8.56V40H38.3v-2.01h2.076v6.673c.848-.954,1.543-.424,2.2.054a12.939,12.939,0,0,1,1.73,1.435,7.2,7.2,0,0,1,.411,10.068,2.868,2.868,0,0,0-.2.325H52.8c-.237-.3-.436-.536-.615-.784a7.016,7.016,0,0,1-.738-7.5A8.318,8.318,0,0,1,54.4,44.924.962.962,0,0,0,54.862,44c-.02-1.65-.008-3.3-.008-4.95V37.974H56.9v4.085Zm.531-24.57c.063-.165.13-.316.178-.472a11.847,11.847,0,0,0,.332-5.15A10.347,10.347,0,0,0,51.529,2.805q-3.915-.011-7.831,0a11.59,11.59,0,0,0-1.5.057A10.463,10.463,0,0,0,33.62,16.406c.326,1.016.326,1.016,1.362.844a1.291,1.291,0,0,0,.215-.088c0-.321,0-.651,0-.982a5.088,5.088,0,0,1,5.094-5.1c1.232-.02,2.464,0,3.7,0h.774L41.5,7.572l1.765-1.248a17.01,17.01,0,0,0,4.005,3.908,16.22,16.22,0,0,0,9.545,2.88.991.991,0,0,0,1.1-1.017c.006-.619-.393-.994-1.09-1.012-.3-.008-.605,0-.891,0V8.98h.677a3.137,3.137,0,0,1,3.409,3.377c0,.961,0,1.921,0,2.882V17.2l1.448.292M56.9,55.575c.169-.139.25-.2.32-.265a5.144,5.144,0,0,0,.106-7.67c-1.609-1.592-1.285-1.589-2.881-.023a5.133,5.133,0,0,0,.024,7.623,3.339,3.339,0,0,0,.395.277c-.108-2,.433-3.988-1-5.686l1.873-.925a6.007,6.007,0,0,1,1.183,3.853,25.706,25.706,0,0,0-.019,2.815m-14.467,0a6.051,6.051,0,0,0,1.793-2.588c.886-2.64-.547-5.007-2.653-6.436a.476.476,0,0,0-.427.035c-3.273,2.282-3.817,5.892-1.2,8.614a4.478,4.478,0,0,0,.421.333c-.119-2.021.444-4.015-.99-5.706l1.912-.938c.525,1.172,1.307,2.15,1.168,3.5-.1,1-.02,2.025-.02,3.187m-14.494.036a5.845,5.845,0,0,0,2.01-3.548c.278-2.445-.964-4.131-2.821-5.48a.582.582,0,0,0-.526.046A7.129,7.129,0,0,0,24.4,49.06a5.055,5.055,0,0,0,1.464,6.407c-.094-1.943.453-3.918-.967-5.633l1.91-.953c.5,1.17,1.3,2.135,1.16,3.484-.106,1.025-.021,2.069-.021,3.247M11.391,51.4c3.108-2.59,2.542-7.01-1.085-9.111-1.775,1.276-3.116,2.821-3.043,5.19a5.55,5.55,0,0,0,2.054,3.975c-.126-2.075.454-4.068-.986-5.761l1.9-.938c.194.375.356.688.516,1a4.265,4.265,0,0,1,.661,2.358c-.087,1.051-.02,2.115-.02,3.285M22.675,34.862c0-1.566.1-3.052-.029-4.518A5.086,5.086,0,0,0,20.7,26.87c-.089.063-.126.083-.156.111-1.733,1.564-2.038,3.6-1.9,5.777a.461.461,0,0,0,.229.309A3.428,3.428,0,0,1,20.4,34.582a.583.583,0,0,0,.413.268c.622.029,1.245.013,1.858.013m2.422.022c-.436.628-.792,1.138-1.145,1.651-.055.081-.138.169-.14.255-.011.721-.006,1.443-.006,2.153h6.165v-4.06ZM60.85,49.705l.15-.049V44.217H56.752a4.432,4.432,0,0,0,.457.586c.282.246.6.449.887.69a8.3,8.3,0,0,1,2.754,4.213M20.706,36.951a3.028,3.028,0,0,0-.017.327,3.488,3.488,0,0,1-.912,2.874.429.429,0,0,0-.1.276c-.007.6-.031,1.208.013,1.809a.97.97,0,0,0,1.034.88c.538-.035.956-.315.967-.87.034-1.759.013-3.519.013-5.3ZM16.579,39c.253,0,.478,0,.7,0,1-.011,1.346-.362,1.355-1.359,0-.4,0-.79,0-1.186,0-1.429-.676-1.915-2.059-1.492Zm34.174-5.146c-.271.8-.553,1.628-.819,2.457a.368.368,0,0,0,.056.323c.626.488,1.266.958,1.96,1.476l.463-4.256Zm-7.971-.044.473,4.319,2.028-1.58c-.187-.633-.373-1.266-.563-1.9a2.016,2.016,0,0,0-.191-.525.645.645,0,0,0-.378-.3c-.429-.039-.864-.014-1.369-.014M35.165,23.431V19.4A1.986,1.986,0,0,0,33.1,21.368a2.039,2.039,0,0,0,2.061,2.063m24.9-4.038v4.068a2.048,2.048,0,0,0,2-2.215,1.942,1.942,0,0,0-2-1.853M46.63,33.832c.208.633.4,1.245.618,1.846a.4.4,0,0,0,.31.212c.137-.005.352-.091.391-.2.223-.6.4-1.21.613-1.863Z" transform="translate(0 -0.699)" fill="#030302"/><rect width="4.098" height="2.005" transform="translate(0 11.411)"/><path d="M37.149,44.092a6.206,6.206,0,0,1,12.413.011,6.206,6.206,0,1,1-12.413-.011m6.175,4.135a4.135,4.135,0,1,0-4.116-4.154,4.122,4.122,0,0,0,4.116,4.154" transform="translate(-30.93 -31.672)" fill="#040303"/><path d="M20.631,105.8l1.315,1.341-2.869,2.888-1.349-1.314,2.9-2.916" transform="translate(-14.76 -88.21)" fill="#040404"/><path d="M105.34,21.385l2.873-2.855,1.313,1.369L106.7,22.711l-1.358-1.326" transform="translate(-87.706 -15.545)" fill="#040404"/><path d="M105.176,107.2l1.349-1.378,2.915,2.893-1.354,1.383-2.909-2.9" transform="translate(-87.57 -88.221)" fill="#030303"/><path d="M18.042,20.133l1.322-1.344,2.85,2.858-1.339,1.305-2.834-2.819" transform="translate(-15.022 -15.761)" fill="#010101"/><rect width="4.07" height="2.001" transform="translate(20.727 11.43)" fill="#010101"/><rect width="1.976" height="4.074" transform="translate(11.428 0.05)"/><rect width="1.972" height="4.084" transform="translate(11.423 20.71)" fill="#010101"/><path d="M243.091,76.833v1.512c0,2.212.009,4.425,0,6.637a8.272,8.272,0,0,1-8.551,8.513,47.075,47.075,0,0,1-4.753-.089,8.186,8.186,0,0,1-7.385-8.1c-.04-2.421-.026-4.842,0-7.263a3.1,3.1,0,0,1,3.224-3.184q3.6-.023,7.2,0a1.855,1.855,0,0,1,.767.2,18.7,18.7,0,0,0,8.093,1.874c.435,0,.871-.061,1.41-.1m-15.478,8.415a5.232,5.232,0,0,0,2.451,5.394,4.873,4.873,0,0,0,5.492-.074,5.235,5.235,0,0,0,2.325-5.319Zm14.4-2.13a4.1,4.1,0,1,0-8.206-.023h2.021c.22-1.192.848-1.92,1.8-1.972a2.009,2.009,0,0,1,1.3.261,11.324,11.324,0,0,1,1.386,1.733Zm-10.32-.006A4.132,4.132,0,0,0,227.37,79a4.055,4.055,0,0,0-3.869,4.128h1.962c.283-1.346.971-2.056,2.045-2.023a2.073,2.073,0,0,1,1.263.4,9.051,9.051,0,0,1,1.125,1.607Z" transform="translate(-185.149 -62.437)" fill="#edcdb1"/><path d="M19.656,346.639v1.956h2.083v-1.988H36.225V348.6H38.3v-2h12.41v2H52.8v-1.994H65.217v2h2.032v-2.1a21.118,21.118,0,0,1,3.03.245,2.9,2.9,0,0,1,2.164,2.821,1.006,1.006,0,0,1-1.056,1.126c-.187.011-.376,0-.564,0H14.073c-.209,0-.419.009-.626-.008a.988.988,0,0,1-.987-1.065,2.93,2.93,0,0,1,2.467-2.957c1.549-.126,3.117-.029,4.728-.029" transform="translate(-10.374 -288.615)" fill="#cb9b74"/><path d="M220.732,206.748h-4.037v-4.085h-2.048v1.075c0,1.65-.012,3.3.008,4.949a.962.962,0,0,1-.459.926,8.318,8.318,0,0,0-2.952,3.339,7.016,7.016,0,0,0,.738,7.5c.179.249.378.483.615.784h-8.285a2.872,2.872,0,0,1,.2-.325,7.2,7.2,0,0,0-.411-10.068,12.953,12.953,0,0,0-1.73-1.435c-.659-.478-1.354-1.008-2.2-.054v-6.673h-2.076v2.01h-6.172V198.5h8.56l.913,8.126,2.455-1.838q1.1-.826,2.2-1.652a1.923,1.923,0,0,1,2.689,0q2.052,1.542,4.106,3.082c.162.121.335.227.55.372.287-2.572.566-5.073.846-7.577,2.8.51,6.2,3.787,6.488,7.73" transform="translate(-159.793 -165.387)" fill="#f9d46e"/><path d="M226.191,27.947l-1.448-.292V25.7c0-.961,0-1.921,0-2.881a3.137,3.137,0,0,0-3.409-3.377h-.677v2.1c.285,0,.588-.007.891,0,.7.019,1.1.393,1.09,1.013a.991.991,0,0,1-1.1,1.017,16.22,16.22,0,0,1-9.545-2.88,17.015,17.015,0,0,1-4.005-3.908l-1.766,1.248,3.26,3.506h-.774c-1.232,0-2.464-.015-3.7,0a5.089,5.089,0,0,0-5.094,5.1c-.005.33,0,.661,0,.982a1.3,1.3,0,0,1-.215.088c-1.036.173-1.036.172-1.362-.844a10.463,10.463,0,0,1,8.577-13.543,11.65,11.65,0,0,1,1.5-.057q3.915-.008,7.831,0A10.347,10.347,0,0,1,226.7,22.325a11.846,11.846,0,0,1-.332,5.15c-.048.156-.115.307-.178.472" transform="translate(-164.721 -11.156)" fill="#646c77"/><path d="M319.335,283.1a25.753,25.753,0,0,1,.019-2.815,6.007,6.007,0,0,0-1.183-3.853l-1.873.925c1.434,1.7.892,3.682,1,5.686a3.342,3.342,0,0,1-.395-.277,5.134,5.134,0,0,1-.024-7.623c1.6-1.566,1.273-1.57,2.882.023a5.144,5.144,0,0,1-.106,7.67c-.07.068-.151.125-.32.265" transform="translate(-262.433 -228.222)" fill="#afd67b"/><path d="M232.88,283.455c0-1.163-.083-2.185.02-3.187.139-1.348-.644-2.326-1.168-3.5l-1.912.938c1.433,1.691.87,3.685.989,5.706a4.487,4.487,0,0,1-.421-.333c-2.613-2.722-2.068-6.332,1.2-8.614a.477.477,0,0,1,.427-.035c2.106,1.428,3.538,3.8,2.653,6.436a6.05,6.05,0,0,1-1.793,2.588" transform="translate(-190.445 -228.578)" fill="#b0d97d"/><path d="M146.354,283.609c0-1.179-.085-2.223.021-3.247.139-1.349-.657-2.314-1.16-3.484l-1.91.953c1.42,1.715.873,3.691.967,5.633a5.055,5.055,0,0,1-1.464-6.407,7.131,7.131,0,0,1,2.208-2.431.582.582,0,0,1,.526-.046c1.857,1.349,3.1,3.035,2.821,5.48a5.845,5.845,0,0,1-2.01,3.548" transform="translate(-118.413 -228.695)" fill="#b1d97d"/><path d="M47.5,258.242c0-1.17-.067-2.234.02-3.285a4.264,4.264,0,0,0-.661-2.358c-.16-.314-.322-.626-.516-1l-1.9.938c1.44,1.693.859,3.685.986,5.76a5.55,5.55,0,0,1-2.054-3.975c-.072-2.369,1.269-3.913,3.043-5.19,3.628,2.1,4.193,6.521,1.085,9.111" transform="translate(-36.105 -207.543)" fill="#b1d97d"/><path d="M115.264,165.033c-.613,0-1.237.017-1.858-.013a.584.584,0,0,1-.413-.268,3.427,3.427,0,0,0-1.529-1.515.462.462,0,0,1-.229-.309c-.141-2.177.164-4.213,1.9-5.777.03-.027.067-.048.156-.111a5.085,5.085,0,0,1,1.947,3.474c.131,1.465.029,2.952.029,4.518" transform="translate(-92.589 -130.869)" fill="#c8ccd4"/><path d="M143.5,204.916h4.874v4.06h-6.165c0-.71,0-1.432.007-2.153,0-.086.084-.175.139-.255.353-.513.709-1.023,1.145-1.651" transform="translate(-118.401 -170.73)" fill="#ebccb0"/><path d="M343.12,266.152a8.3,8.3,0,0,0-2.754-4.213c-.286-.241-.605-.444-.887-.69a4.434,4.434,0,0,1-.457-.586h4.247V266.1l-.15.049" transform="translate(-282.27 -217.145)" fill="#eccdb1"/><path d="M118.491,217.263h.994c0,1.776.022,3.536-.013,5.3-.011.555-.429.835-.967.87a.97.97,0,0,1-1.034-.88c-.043-.6-.019-1.206-.013-1.809a.43.43,0,0,1,.1-.276,3.488,3.488,0,0,0,.912-2.874,2.986,2.986,0,0,1,.017-.327" transform="translate(-97.785 -181.01)" fill="#a8afba"/><path d="M99.041,208.683v-4.037c1.383-.423,2.058.064,2.059,1.492,0,.4,0,.791,0,1.186-.009,1-.36,1.348-1.355,1.359-.224,0-.449,0-.7,0" transform="translate(-82.462 -170.382)" fill="#e7c8ae"/><path d="M299.047,198.754h1.659l-.463,4.256c-.694-.518-1.334-.987-1.96-1.476a.368.368,0,0,1-.056-.323c.266-.829.548-1.653.819-2.457" transform="translate(-248.293 -165.599)" fill="#f7c128"/><path d="M255.574,198.456c.505,0,.94-.024,1.369.014a.645.645,0,0,1,.378.3,2.016,2.016,0,0,1,.191.526c.19.632.376,1.265.563,1.9l-2.028,1.58-.473-4.319" transform="translate(-212.791 -165.345)" fill="#f8c128"/><path d="M199.814,116.419a2.039,2.039,0,0,1-2.061-2.063,1.986,1.986,0,0,1,2.061-1.972Z" transform="translate(-164.649 -93.686)" fill="#e7c8ae"/><path d="M358.827,112.373a1.942,1.942,0,0,1,2,1.853,2.048,2.048,0,0,1-2,2.215Z" transform="translate(-298.759 -93.678)" fill="#ebccb0"/><path d="M278.555,198.626h1.931c-.209.653-.39,1.266-.613,1.863-.039.1-.254.19-.391.2a.4.4,0,0,1-.31-.212c-.22-.6-.41-1.213-.618-1.846" transform="translate(-231.925 -165.493)" fill="#e1c3a9"/><path d="M53.563,58.464a4.135,4.135,0,1,1,4.153-4.107,4.145,4.145,0,0,1-4.153,4.107" transform="translate(-41.169 -41.909)" fill="#f9d56f"/><path d="M253.494,136.96h10.268a5.235,5.235,0,0,1-2.325,5.319,4.873,4.873,0,0,1-5.492.074,5.232,5.232,0,0,1-2.451-5.393m8.009,2.025c-1.879,0-3.71,0-5.542,0a.667.667,0,0,0-.163.043,2.954,2.954,0,0,0,2.764,2.041,3.045,3.045,0,0,0,2.941-2.086" transform="translate(-211.031 -114.15)" fill="#020201"/><path d="M298.878,103.744h-1.705a11.343,11.343,0,0,0-1.386-1.733,2.008,2.008,0,0,0-1.3-.261c-.949.052-1.576.78-1.8,1.972h-2.022a4.1,4.1,0,1,1,8.206.023" transform="translate(-242.013 -83.064)" fill="#040403"/><path d="M237.266,103.734h-1.8a9.047,9.047,0,0,0-1.125-1.607,2.073,2.073,0,0,0-1.263-.4c-1.074-.032-1.761.678-2.045,2.023h-1.962a4.055,4.055,0,0,1,3.869-4.128,4.132,4.132,0,0,1,4.324,4.109" transform="translate(-190.721 -83.06)" fill="#030303"/><path d="M273.129,149.057a3.045,3.045,0,0,1-2.941,2.086,2.954,2.954,0,0,1-2.764-2.041.667.667,0,0,1,.163-.043c1.832,0,3.664,0,5.542,0" transform="translate(-222.656 -124.222)" fill="#f77e6a"/></g></g></g></svg>